<?xml version="1.0" standalone="no"?>
<!DOCTYPE svg PUBLIC "-//W3C//DTD SVG 1.1//EN" "http://www.w3.org/Graphics/SVG/1.1/DTD/svg11.dtd" >
<svg xmlns="http://www.w3.org/2000/svg" xmlns:xlink="http://www.w3.org/1999/xlink" version="1.1">
<metadata>
Created by FontForge 20190801 at Thu Jun 24 11:03:17 2021
 By www-data
Copyright 2021 The Gemunu Libre Project Authors (https://github.com/mooniak/gemunu-libre-font/)
</metadata>
<defs>
<font id="GemunuLibreExtraBold" horiz-adv-x="515" >
  <font-face 
    font-family="GemunuLibreExtraBold"
    font-weight="800"
    font-stretch="normal"
    units-per-em="1000"
    panose-1="0 0 0 0 0 0 0 0 0 0"
    ascent="800"
    descent="-200"
    x-height="490"
    cap-height="635"
    bbox="-628 -311 1782 885"
    underline-thickness="50"
    underline-position="-125"
    unicode-range="U+0020-111F4"
  />
<missing-glyph horiz-adv-x="631" 
d="M50 -93h531v837h-531v-837zM261 154q0 -16 11 -28t28 -12q16 0 27.5 12t11.5 28q0 17 -11.5 29t-27.5 12q-17 0 -28 -12t-11 -29zM157 629h317v-612h-317v612zM213 451l42 -45q6 8 13.5 13.5t17 9t20.5 3.5q19 0 33.5 -11.5t14.5 -31.5q0 -38 -21 -47.5t-66 -9.5v-117h67
v58l13 3.5t30 14.5t30.5 34t13.5 63q-2 51 -31.5 81.5t-79.5 30.5q-28 0 -46.5 -8t-30.5 -19t-20 -22z" />
    <glyph glyph-name="fi" unicode="fi" horiz-adv-x="572" 
d="M221 0h-142v540q0 79 36.5 112.5t118.5 32.5l97 -1v-120l-96 1q-14 0 -14 -14v-551zM516 0h-142v490h142v-490zM315 380h-296v110h296v-110zM516 564h-142v120h142v-120z" />
    <glyph glyph-name="fl" unicode="fl" horiz-adv-x="574" 
d="M216 0h-142v540q0 79 36.5 112.5t118.5 32.5l102 -1v-120l-101 1q-14 0 -14 -14v-551zM327 380h-308v110h308v-110zM519 0h-142v675h142v-675z" />
    <glyph glyph-name=".notdef" horiz-adv-x="631" 
d="M50 -93h531v837h-531v-837zM261 154q0 -16 11 -28t28 -12q16 0 27.5 12t11.5 28q0 17 -11.5 29t-27.5 12q-17 0 -28 -12t-11 -29zM157 629h317v-612h-317v612zM213 451l42 -45q6 8 13.5 13.5t17 9t20.5 3.5q19 0 33.5 -11.5t14.5 -31.5q0 -38 -21 -47.5t-66 -9.5v-117h67
v58l13 3.5t30 14.5t30.5 34t13.5 63q-2 51 -31.5 81.5t-79.5 30.5q-28 0 -46.5 -8t-30.5 -19t-20 -22z" />
    <glyph glyph-name=".null" horiz-adv-x="0" 
 />
    <glyph glyph-name="nonmarkingreturn" horiz-adv-x="333" 
 />
    <glyph glyph-name="space" unicode=" " horiz-adv-x="175" 
 />
    <glyph glyph-name="exclam" unicode="!" horiz-adv-x="262" 
d="M182 216h-82l-32 284v145h146v-145zM209 0h-136v151h136v-151z" />
    <glyph glyph-name="quotedbl" unicode="&#x22;" horiz-adv-x="318" 
d="M35 441h58l38 143v107h-96v-250zM177 441h58l38 143v107h-96v-250z" />
    <glyph glyph-name="numbersign" unicode="#" horiz-adv-x="527" 
d="M53 0h105l122 640h-104zM245 0h105l122 640h-104zM62 389h450v98h-450v-98zM15 154h450v98h-450v-98z" />
    <glyph glyph-name="dollar" unicode="$" horiz-adv-x="490" 
d="M196 374h70q90 0 135 -42t45 -121v-36q0 -79 -47.5 -123t-137.5 -42l-213 5v129h234q14 0 14 14v68q0 14 -14 14h-65q-90 0 -137.5 44.5t-47.5 123.5v27q0 79 47.5 123t137.5 42l208 -5v-129h-229q-14 0 -14 -14v-64q0 -14 14 -14zM187 587v110h118v-110h-118zM187 -85
v110h118v-110h-118z" />
    <glyph glyph-name="percent" unicode="%" horiz-adv-x="808" 
d="M24 364v186q0 50 25 72.5t80 22.5h85q55 0 79.5 -22.5t25.5 -72.5l4 -186q1 -49 -26.5 -71.5t-82.5 -22.5h-85q-55 0 -80 22.5t-25 71.5zM200 548h-57q-14 0 -14 -13v-155q0 -13 14 -13h57q14 0 14 13v155q0 13 -14 13zM489 84v186q0 50 25 72.5t80 22.5h85
q55 0 80 -22.5t25 -72.5v-186q0 -49 -25 -71.5t-80 -22.5h-85q-55 0 -80 22.5t-25 71.5zM665 268h-57q-14 0 -14 -13v-155q0 -13 14 -13h57q14 0 14 13v155q0 13 -14 13zM533 645h112l-365 -655h-113z" />
    <glyph glyph-name="ampersand" unicode="&#x26;" horiz-adv-x="583" 
d="M316 -5h-81q-90 0 -137.5 43t-47.5 122v55q0 75 50 110t150 35v-47q-90 0 -142.5 34.5t-52.5 105.5v22q0 79 47.5 122t137.5 43h71q90 0 136.5 -43t46.5 -122v-42h-148v59q0 14 -14 14h-113q-14 0 -14 -14v-88q0 -14 14 -14h88v-103h-93q-14 0 -14 -14v-130q0 -14 14 -14
h123q14 0 14 14v82q0 79 42.5 117t132.5 38h37l-2 -134h-48q-14 0 -14 -14v-72q0 -79 -47 -122t-136 -43z" />
    <glyph glyph-name="quotesingle" unicode="'" horiz-adv-x="180" 
d="M35 441h62l38 143v107h-100v-250z" />
    <glyph glyph-name="parenleft" unicode="(" horiz-adv-x="294" 
d="M279 -170h-39q-94 0 -142 44t-48 126v510q0 83 48 126.5t142 43.5h39v-105h-71q-14 0 -14 -14v-612q0 -14 14 -14h71v-105z" />
    <glyph glyph-name="parenright" unicode=")" horiz-adv-x="294" 
d="M15 -170v105h71q14 0 14 14v612q0 14 -14 14h-71v105h39q94 0 142 -43.5t48 -126.5v-510q0 -82 -48 -126t-142 -44h-39z" />
    <glyph glyph-name="asterisk" unicode="*" horiz-adv-x="374" 
d="M162 412l-35 -51l-70 50l36 51l62 46l32 -22zM317 412l-68 -49l-37 49l-25 74l31 22l62 -47zM295 508h-77l-12 37l63 45l58 19l27 -81zM206 545h-38l-25 72v63h86l1 -62zM155 508l-77 -1l-58 19l27 82l58 -19l63 -44z" />
    <glyph glyph-name="plus" unicode="+" horiz-adv-x="550" 
d="M500 349v-100h-450v100h450zM327 79h-104v440h104v-440z" />
    <glyph glyph-name="comma" unicode="," horiz-adv-x="195" 
d="M35 2h51l-11 7q0 -21 -9 -47t-29 -56l42 -34q35 34 55.5 71t20.5 80v112h-120v-133z" />
    <glyph glyph-name="hyphen" unicode="-" horiz-adv-x="327" 
d="M302 349v-115h-277v115h277z" />
    <glyph glyph-name="period" unicode="." horiz-adv-x="180" 
d="M150 0h-120v135h120v-135z" />
    <glyph glyph-name="slash" unicode="/" horiz-adv-x="460" 
d="M318 675h137l-306 -771h-139z" />
    <glyph glyph-name="zero" unicode="0" horiz-adv-x="588" 
d="M359 512h-130q-14 0 -14 -14v-361q0 -14 14 -14h130q14 0 14 14v361q0 14 -14 14zM65 150v335q0 79 45 119.5t135 40.5h98q90 0 135 -40.5t45 -119.5v-335q0 -79 -45 -119.5t-135 -40.5h-98q-90 0 -135 40.5t-45 119.5z" />
    <glyph glyph-name="one" unicode="1" horiz-adv-x="459" 
d="M439 119v-119h-381v119h381zM12 515l193 120h138v-635h-148v490l9 -3l-132 -74z" />
    <glyph glyph-name="two" unicode="2" horiz-adv-x="491" 
d="M43 185q0 44 11 68t32 39.5t51 31.5l164 89q7 4 10.5 7.5t3.5 10.5v62q0 14 -14 14h-243v128l245 5q62 2 96.5 -17.5t49 -54.5t14.5 -83v-59q0 -49 -26 -77t-76 -54l-153 -82q-10 -5 -13.5 -12.5t-3.5 -18.5v-54h265v-128h-413v185z" />
    <glyph glyph-name="three" unicode="3" horiz-adv-x="486" 
d="M436 160q0 -79 -47.5 -123t-137.5 -42l-226 5v129h247q14 0 14 14v103q0 14 -14 14h-184v127h179q14 0 14 14v91q0 14 -14 14h-239v129l218 5q90 2 137.5 -42t47.5 -123v-37q0 -71 -52.5 -105.5t-142.5 -34.5v47q101 0 150.5 -35t49.5 -110v-40z" />
    <glyph glyph-name="four" unicode="4" horiz-adv-x="571" 
d="M456 0h-148v141l10 -10h-307v106l160 298q19 36 35 60t40 35.5t66 9.5l144 -5v-387l-10 10h105v-127h-105l10 10v-141zM283 496l-134 -248l-8 10h177l-10 -10v260h-8q-7 0 -10 -2.5t-7 -9.5z" />
    <glyph glyph-name="five" unicode="5" horiz-adv-x="499" 
d="M195 408h74q90 0 137.5 -44.5t47.5 -123.5v-80q0 -79 -47.5 -123t-137.5 -42l-224 5v129h245q14 0 14 14v123q0 14 -14 14h-242v355h376v-129h-229v-98z" />
    <glyph glyph-name="six" unicode="6" horiz-adv-x="531" 
d="M313 -5h-68q-90 0 -137.5 43.5t-47.5 122.5v314q0 79 47.5 123t137.5 42l213 -5v-129h-234q-14 0 -14 -14v-349q0 -14 14 -14h110q14 0 14 14v126q0 14 -14 14h-139v125h132q90 0 130.5 -38.5t40.5 -124.5v-85q0 -79 -47.5 -122t-137.5 -43z" />
    <glyph glyph-name="seven" unicode="7" horiz-adv-x="443" 
d="M218 -3h-161l204 501q3 7 1 13t-10 6l-238 -1v120l311 1q56 0 81 -33.5t25 -86.5z" />
    <glyph glyph-name="eight" unicode="8" horiz-adv-x="566" 
d="M331 -5h-96q-90 0 -137.5 43t-47.5 122v40q0 75 50 110t150 35v-47q-90 0 -142.5 34.5t-52.5 105.5v37q0 79 47.5 122t137.5 43h86q90 0 137.5 -43t47.5 -122v-37q0 -71 -52.5 -105.5t-142.5 -34.5v47q101 0 150.5 -35t49.5 -110v-40q0 -79 -47.5 -122t-137.5 -43z
M200 143q0 -14 14 -14h138q14 0 14 14v105q0 14 -14 14h-138q-14 0 -14 -14v-105zM205 399q0 -14 14 -14h128q14 0 14 14v93q0 14 -14 14h-128q-14 0 -14 -14v-93z" />
    <glyph glyph-name="nine" unicode="9" horiz-adv-x="531" 
d="M471 160q0 -79 -47.5 -123t-137.5 -42l-223 5v129h244q14 0 14 14v349q0 14 -14 14h-110q-14 0 -14 -14v-132q0 -14 14 -14h139v-125h-132q-90 0 -130.5 38.5t-40.5 124.5v91q0 79 47.5 122t137.5 43h68q90 0 137.5 -43t47.5 -123v-314z" />
    <glyph glyph-name="colon" unicode=":" horiz-adv-x="220" 
d="M170 20h-120v135h120v-135zM170 280h-120v135h120v-135z" />
    <glyph glyph-name="semicolon" unicode=";" horiz-adv-x="225" 
d="M50 2h51l-11 7q0 -21 -9 -47t-29 -56l42 -34q35 34 55.5 71t20.5 80v112h-120v-133zM170 265h-120v135h120v-135z" />
    <glyph glyph-name="less" unicode="&#x3c;" horiz-adv-x="458" 
d="M20 235v92l398 192v-117l-326 -144v47l326 -143v-118z" />
    <glyph glyph-name="equal" unicode="=" horiz-adv-x="540" 
d="M495 409v-100h-450v100h450zM495 211v-100h-450v100h450z" />
    <glyph glyph-name="greater" unicode="&#x3e;" horiz-adv-x="468" 
d="M438 348v-92l-398 -192v117l326 144v-47l-326 143v118z" />
    <glyph glyph-name="question" unicode="?" horiz-adv-x="376" 
d="M205 193h-134v44q0 19 2 31t9 23t21 26l94 100q5 5 6 9t1 10v67q0 14 -14 14h-169v123h162q83 0 121.5 -35.5t38.5 -114.5v-35q0 -37 -7 -60t-37 -54l-76 -77q-11 -12 -13.5 -21t-3.5 -24zM206 0h-136v151h136v-151z" />
    <glyph glyph-name="at" unicode="@" horiz-adv-x="703" 
d="M491 -50h-251q-90 0 -135 40.5t-45 119.5v335q0 79 45 119.5t135 40.5h233q90 0 135 -40.5t45 -119.5v-226q0 -67 -26 -93.5t-94 -26.5h-34q-35 0 -60.5 5.5t-39 23.5t-13.5 55v6h3q0 -19 -5 -40t-18 -35.5t-38 -14.5h-17q-49 0 -73 26.5t-24 78.5v136q0 60 31.5 88.5
t98.5 26.5l147 -3v-259q0 -14 14 -14h29q14 0 14 14v308q0 14 -14 14h-355q-14 0 -14 -14v-447q0 -14 14 -14h312v-90zM319 203q0 -14 14 -14h39q8 0 11 2t3 12v184l15 -16h-68q-14 0 -14 -14v-154z" />
    <glyph glyph-name="A" unicode="A" horiz-adv-x="562" 
d="M557 0h-147l-30 151l12 -10h-225l12 10l-34 -151h-138l130 520q12 47 27 73.5t42 37.5t73 9l144 -5zM258 494l-54 -236l-8 10h171l-8 -10l-49 250h-38q-7 0 -9.5 -3t-4.5 -11z" />
    <glyph glyph-name="B" unicode="B" horiz-adv-x="580" 
d="M534 160q0 -79 -47.5 -122.5t-137.5 -42.5l-284 5v635l269 5q90 2 137.5 -42t47.5 -123v-39q0 -71 -47.5 -105.5t-137.5 -34.5v47q101 0 150.5 -35t49.5 -110v-38zM213 285v-181l-20 17h177q14 0 14 14v113q0 14 -14 14h-177zM213 538v-176l-20 20h162q14 0 14 14v104
q0 14 -14 14h-162z" />
    <glyph glyph-name="C" unicode="C" horiz-adv-x="447" 
d="M435 133v-133h-202q-90 0 -135 40.5t-45 119.5v315q0 79 45 119.5t135 40.5h202v-133h-218q-14 0 -14 -14v-341q0 -14 14 -14h218z" />
    <glyph glyph-name="D" unicode="D" horiz-adv-x="589" 
d="M370 512h-157v-389h157q14 0 14 14v361q0 14 -14 14zM65 0v635l284 5q94 2 139.5 -38.5t45.5 -126.5v-315q0 -86 -45.5 -126t-139.5 -39z" />
    <glyph glyph-name="E" unicode="E" horiz-adv-x="484" 
d="M454 0h-389v635h384v-129h-256l20 20v-161l-20 20h236v-127h-236l20 20v-169l-20 20h261v-129z" />
    <glyph glyph-name="F" unicode="F" horiz-adv-x="449" 
d="M419 376v-127h-226l20 20v-269h-148v635h148v-279l-20 20h226zM149 506v129h290v-129h-290z" />
    <glyph glyph-name="G" unicode="G" horiz-adv-x="555" 
d="M330 -10h-95q-90 0 -135 40.5t-45 119.5v335q0 79 45 119.5t135 40.5h262v-133h-278q-14 0 -14 -14v-361q0 -14 14 -14h137q14 0 14 14v121l13 -23h-83v123h210v-208q0 -79 -45 -119.5t-135 -40.5z" />
    <glyph glyph-name="H" unicode="H" horiz-adv-x="615" 
d="M402 367v268h148v-635h-148v278l20 -20h-229l20 20v-278h-148v635h148v-268l-20 20h229z" />
    <glyph glyph-name="I" unicode="I" horiz-adv-x="298" 
d="M223 0h-148v635h148v-635z" />
    <glyph glyph-name="J" unicode="J" horiz-adv-x="318" 
d="M258 635v-485q0 -79 -44 -119.5t-134 -40.5h-80v133h96q14 0 14 14v498h148z" />
    <glyph glyph-name="K" unicode="K" horiz-adv-x="589" 
d="M218 0h-148v635h148v-635zM319 307h-127v77h118q8 0 10 3.5t5 10.5l95 237h147l-91 -221q-14 -34 -26 -55.5t-27.5 -32.5t-40 -15t-63.5 -4zM311 255h-119v76h133q53 0 80.5 -8.5t44.5 -31.5t37 -67l102 -224h-156l-107 241q-3 8 -5 11t-10 3z" />
    <glyph glyph-name="L" unicode="L" horiz-adv-x="434" 
d="M429 129v-129h-364v635h148v-526l-20 20h236z" />
    <glyph glyph-name="M" unicode="M" horiz-adv-x="694" 
d="M549 635q49 0 69.5 -20t20.5 -65v-550h-142v447h20l-136 -266h-88l-128 256h20v-437h-130v635h79q35 0 48 -9.5t25 -31.5l155 -289h-27l170 330h44z" />
    <glyph glyph-name="N" unicode="N" horiz-adv-x="600" 
d="M418 225v410h127v-635h-105l-279 412h21v-412h-127v635h104l279 -410h-20z" />
    <glyph glyph-name="O" unicode="O" horiz-adv-x="600" 
d="M381 512h-162q-14 0 -14 -14v-361q0 -14 14 -14h162q14 0 14 14v361q0 14 -14 14zM55 150v335q0 79 45 119.5t135 40.5h130q90 0 135 -40.5t45 -119.5v-335q0 -79 -45 -119.5t-135 -40.5h-130q-90 0 -135 40.5t-45 119.5z" />
    <glyph glyph-name="P" unicode="P" horiz-adv-x="537" 
d="M218 0h-148v635l267 5q90 2 137.5 -42t47.5 -123v-96q0 -47 -21 -86t-62.5 -61.5t-101.5 -22.5h-139l20 23v-232zM218 535v-217l-20 20h160q14 0 14 14v145q0 14 -14 14h-160z" />
    <glyph glyph-name="Q" unicode="Q" horiz-adv-x="600" 
d="M381 512h-162q-14 0 -14 -14v-361q0 -14 14 -14h162q14 0 14 14v361q0 14 -14 14zM55 150v335q0 79 45 119.5t135 40.5h130q90 0 135 -40.5t45 -119.5v-335q0 -79 -45 -119.5t-135 -40.5h-130q-90 0 -135 40.5t-45 119.5zM302 -125l-32 165h129l43 -165h-140z" />
    <glyph glyph-name="R" unicode="R" horiz-adv-x="571" 
d="M218 0h-148v635l270 5q90 2 137.5 -42t47.5 -123v-77q0 -59 -33 -104.5t-97 -60.5v29q37 -7 58.5 -26.5t35.5 -59.5l62 -176h-148l-69 211q-3 8 -5.5 12t-11.5 4h-119l20 23v-250zM218 535v-200l-20 20h163q14 0 14 14v128q0 14 -14 14h-163z" />
    <glyph glyph-name="S" unicode="S" horiz-adv-x="490" 
d="M191 386h89q90 0 137.5 -44.5t47.5 -123.5v-58q0 -79 -47.5 -123t-137.5 -42l-237 5v129h258q14 0 14 14v95q0 14 -14 14h-89q-90 0 -137.5 44.5t-47.5 123.5v55q0 79 47.5 123t137.5 42l229 -5v-129h-250q-14 0 -14 -14v-92q0 -14 14 -14z" />
    <glyph glyph-name="T" unicode="T" horiz-adv-x="446" 
d="M297 0h-148v526l20 -20h-164v129h436v-129h-164l20 20v-526z" />
    <glyph glyph-name="U" unicode="U" horiz-adv-x="596" 
d="M361 -10h-126q-90 0 -135 40.5t-45 119.5v485h150v-498q0 -14 14 -14h158q14 0 14 14v498h150v-485q0 -79 -45 -119.5t-135 -40.5z" />
    <glyph glyph-name="V" unicode="V" horiz-adv-x="543" 
d="M420 115q-10 -45 -23 -71.5t-37.5 -37.5t-69.5 -10l-159 4l-126 635h146l95 -506h35q8 0 10.5 3.5t3.5 10.5l105 492h139z" />
    <glyph glyph-name="W" unicode="W" horiz-adv-x="828" 
d="M287 -10h-92q-67 0 -98 29t-31 96v520h147v-498q0 -14 14 -14h102q14 0 14 14v498h140v-498q0 -14 14 -14h104q14 0 14 14l-2 498h147l2 -520q0 -67 -31 -96t-98 -29h-94q-67 0 -97.5 29t-30.5 96h4q0 -67 -30 -96t-98 -29z" />
    <glyph glyph-name="X" unicode="X" horiz-adv-x="577" 
d="M320 396l104 239h147l-101 -222q-15 -34 -27 -55.5t-27 -33t-39 -16t-63 -4.5h-49q-52 0 -81 9.5t-46 33.5t-35 67l-91 221h155l95 -239q3 -7 6 -10t10 -3h26q11 0 16 13zM309 334q53 0 80 -10t44 -34t38 -67l108 -223h-156l-110 241q-4 8 -6.5 10.5t-9.5 2.5h-26
q-7 0 -9.5 -2.5t-6.5 -10.5l-109 -241h-148l107 224q16 33 28 54.5t26.5 33.5t38.5 17t63 5h48z" />
    <glyph glyph-name="Y" unicode="Y" horiz-adv-x="557" 
d="M307 358l96 277h147l-114 -310q-17 -46 -32.5 -69.5t-43 -31.5t-80.5 -8h-3q-52 0 -82 10t-47.5 34t-32.5 66l-110 309h155l94 -277q4 -13 16 -13h21q12 0 16 13zM349 0h-148v308h148v-308z" />
    <glyph glyph-name="Z" unicode="Z" horiz-adv-x="486" 
d="M465 119l-1 -120h-359q-49 0 -72 30.5t-23 79.5l290 389q5 7 2 13t-11 6l-249 -1v120l335 1q56 0 81 -33.5t25 -86.5l-285 -378q-4 -6 -2.5 -13t9.5 -7h260z" />
    <glyph glyph-name="bracketleft" unicode="[" horiz-adv-x="289" 
d="M274 -170h-224v850h224v-100h-82v-650h82v-100z" />
    <glyph glyph-name="backslash" unicode="\" horiz-adv-x="459" 
d="M311 -96l-306 771h141l308 -771h-143z" />
    <glyph glyph-name="bracketright" unicode="]" horiz-adv-x="289" 
d="M15 -170v100h82v650h-82v100h224v-850h-224z" />
    <glyph glyph-name="asciicircum" unicode="^" horiz-adv-x="505" 
d="M206 675h92l167 -348h-108l-121 276h31l-120 -276h-107z" />
    <glyph glyph-name="underscore" unicode="_" horiz-adv-x="457" 
d="M437 -37v-85h-417v85h417z" />
    <glyph glyph-name="grave" unicode="`" horiz-adv-x="339" 
d="M21 717l106 -166h95l-64 167z" />
    <glyph glyph-name="a" unicode="a" horiz-adv-x="449" 
d="M170 -10h-15q-67 0 -98.5 29t-31.5 96v48q0 75 34 105t116 30h107v-100h-103q-14 0 -14 -14v-65q0 -14 14 -14h87v253q0 14 -14 14l-191 -1v120l193 1q83 1 119 -32.5t36 -112.5v-347h-130l-13 105h5q0 -52 -24 -83.5t-77 -31.5z" />
    <glyph glyph-name="b" unicode="b" horiz-adv-x="487" 
d="M297 -6l-245 6v675h143v-290h-4q0 53 24.5 84t76.5 31h25q68 0 99 -28.5t31 -96.5v-246q0 -75 -33.5 -106t-116.5 -29zM195 371v-273l-15 16h113q14 0 14 14v243q0 14 -14 14h-84q-14 0 -14 -14z" />
    <glyph glyph-name="c" unicode="c" horiz-adv-x="371" 
d="M356 -10h-146q-90 0 -130 35.5t-40 114.5v210q0 79 40 114.5t130 35.5h146v-120h-159q-14 0 -14 -14v-242q0 -14 14 -14h159v-120z" />
    <glyph glyph-name="d" unicode="d" horiz-adv-x="485" 
d="M292 675h143v-675h-129l-14 105h4q0 -52 -24 -83.5t-77 -31.5h-25q-67 0 -98.5 29t-31.5 96v243q0 75 34 105t116 30h102v182zM292 119v275l15 -16h-113q-14 0 -14 -14v-245q0 -14 14 -14h84q14 0 14 14z" />
    <glyph glyph-name="e" unicode="e" horiz-adv-x="458" 
d="M408 -6h-198q-90 0 -130 35.5t-40 114.5v216q0 79 34 109.5t116 30.5h83q83 0 116.5 -30.5t33.5 -109.5v-178h-257v100h117v89q0 14 -14 14h-73q-14 0 -14 -14v-243q0 -14 14 -14h212v-120z" />
    <glyph glyph-name="f" unicode="f" horiz-adv-x="321" 
d="M341 564l-116 1q-14 0 -14 -14v-81l-20 20h130v-110h-130l20 20v-400h-142v400l20 -20h-70v110h70l-20 -20v70q0 79 36.5 112.5t118.5 32.5l117 -1v-120z" />
    <glyph glyph-name="g" unicode="g" horiz-adv-x="479" 
d="M292 119v270l15 -16h-113q-14 0 -14 -14v-240q0 -14 14 -14h84q14 0 14 14zM278 -82q14 0 14 14v173h4q0 -52 -24 -83.5t-77 -31.5h-25q-67 0 -98.5 29t-31.5 96v243q0 75 34 105.5t116 29.5l245 -3v-540q0 -79 -40 -114.5t-130 -35.5h-202v118h215z" />
    <glyph glyph-name="h" unicode="h" horiz-adv-x="478" 
d="M282 500h26q68 0 99 -28.5t31 -96.5v-375h-142v371q0 14 -14 14h-83q-14 0 -14 -14l2 -371h-142l-2 675h142v-290h-5q0 53 24.5 84t77.5 31z" />
    <glyph glyph-name="i" unicode="i" horiz-adv-x="254" 
d="M198 0h-142v490h142v-490zM198 552h-142v120h142v-120z" />
    <glyph glyph-name="j" unicode="j" horiz-adv-x="237" 
d="M192 552h-142v120h142v-120zM36 -80q14 0 14 14v556h142v-540q0 -79 -40 -114.5t-130 -35.5h-55v120h69z" />
    <glyph glyph-name="k" unicode="k" horiz-adv-x="486" 
d="M190 0h-140v675h140v-675zM260 242h-118v75h108q12 0 15 14l40 159h142l-37 -138q-13 -49 -27.5 -72.5t-42 -30.5t-80.5 -7zM271 197h-129v75h139q53 0 81.5 -7.5t44 -31t29.5 -71.5l48 -162h-146l-52 183q-2 8 -4.5 11t-10.5 3z" />
    <glyph glyph-name="l" unicode="l" horiz-adv-x="252" 
d="M197 0h-142v675h142v-675z" />
    <glyph glyph-name="m" unicode="m" horiz-adv-x="703" 
d="M284 500h16q68 0 99 -28.5t31 -96.5v-375h-142v371q0 14 -14 14h-73q-14 0 -14 -14l2 -371h-142l-2 490h129l13 -105h-5q0 53 24.5 84t77.5 31zM527 500h14q68 0 99 -28.5t31 -96.5v-375h-142v371q0 14 -14 14h-71q-14 0 -14 -14h-5v14q0 53 24.5 84t77.5 31z" />
    <glyph glyph-name="n" unicode="n" horiz-adv-x="485" 
d="M289 500h26q68 0 99 -28.5t31 -96.5v-375h-142v371q0 14 -14 14h-83q-14 0 -14 -14l2 -371h-142l-2 490h129l13 -105h-5q0 53 24.5 84t77.5 31z" />
    <glyph glyph-name="o" unicode="o" horiz-adv-x="478" 
d="M281 380h-84q-14 0 -14 -14v-242q0 -14 14 -14h84q14 0 14 14v242q0 14 -14 14zM40 140v210q0 79 40 114.5t130 35.5h58q90 0 130 -35.5t40 -114.5v-210q0 -79 -40 -114.5t-130 -35.5h-58q-90 0 -130 35.5t-40 114.5z" />
    <glyph glyph-name="p" unicode="p" horiz-adv-x="485" 
d="M193 -190h-143v680h129l14 -105h-4q0 53 24.5 84t76.5 31h25q68 0 99 -28.5t31 -96.5v-242q0 -75 -33.5 -105t-116.5 -30h-102v-188zM193 371v-272l-15 16h113q14 0 14 14v242q0 14 -14 14h-84q-14 0 -14 -14z" />
    <glyph glyph-name="q" unicode="q" horiz-adv-x="485" 
d="M190 493l245 -3v-680h-143v295h4q0 -52 -24 -83.5t-77 -31.5h-25q-67 0 -98.5 29t-31.5 96v243q0 75 34 105.5t116 29.5zM292 119v270l15 -16h-113q-14 0 -14 -14v-240q0 -14 14 -14h84q14 0 14 14z" />
    <glyph glyph-name="r" unicode="r" horiz-adv-x="307" 
d="M286 500h25v-125h-108q-14 0 -14 -14l2 -361h-142l-2 490h129l13 -105h-5q0 53 24.5 84t77.5 31z" />
    <glyph glyph-name="s" unicode="s" horiz-adv-x="409" 
d="M259 -1h-218l-1 115h195q14 0 14 14v50q0 14 -14 14h-55q-82 0 -116 30.5t-34 105.5v27q0 79 36.5 112.5t118.5 32.5l174 -1v-120l-172 1q-14 0 -14 -14v-48q0 -14 14 -14h52q83 0 116.5 -30t33.5 -105v-45q0 -67 -31 -96t-99 -29z" />
    <glyph glyph-name="t" unicode="t" horiz-adv-x="333" 
d="M324 490v-110h-120l10 10v-256q0 -14 14 -14h96v-120h-82q-90 0 -130 35.5t-40 114.5v240l10 -10h-60v110h60l-10 -10v135h142v-135l-10 10h120z" />
    <glyph glyph-name="u" unicode="u" horiz-adv-x="485" 
d="M196 -10h-26q-67 0 -98.5 29t-31.5 96v375h142v-371q0 -14 14 -14h97l-2 385h142l2 -490h-129l-13 105h5q0 -52 -24.5 -83.5t-77.5 -31.5z" />
    <glyph glyph-name="v" unicode="v" horiz-adv-x="448" 
d="M376 115q-8 -45 -21.5 -72.5t-38.5 -39t-70 -9.5l-150 6l-91 490h142l66 -385h21q8 0 10.5 3.5t3.5 10.5l62 371h138z" />
    <glyph glyph-name="w" unicode="w" horiz-adv-x="716" 
d="M229 -10h-54q-67 0 -98.5 29t-31.5 96v375h142v-371q0 -14 14 -14h73q14 0 14 14v371h138v-371q0 -14 14 -14h75q14 0 14 14l-2 371h142l2 -375q0 -67 -31 -96t-99 -29h-56q-67 0 -98.5 29t-31.5 96h4q0 -67 -31 -96t-99 -29z" />
    <glyph glyph-name="x" unicode="x" horiz-adv-x="475" 
d="M149 0h-145l57 151q16 43 31 65.5t38.5 31.5t63.5 11l1 -25q-35 2 -56.5 11.5t-36 32t-29.5 63.5l-54 149h143l56 -172q2 -7 5 -9.5t10 -2.5h12q12 0 16 11l58 173h140l-54 -149q-14 -39 -27.5 -61t-32.5 -32t-50 -13l-1 23q36 -3 57.5 -13t36 -32t29.5 -62l57 -151h-148
l-59 174q-4 12 -14 12h-31q-7 0 -9.5 -2.5t-4.5 -8.5z" />
    <glyph glyph-name="y" unicode="y" horiz-adv-x="482" 
d="M279 -82q14 0 14 14v173h5q0 -52 -24.5 -83.5t-77.5 -31.5h-26q-67 0 -98.5 29t-31.5 96v375h142v-371q0 -14 14 -14h97l-2 385h142l2 -540q0 -79 -40 -114.5t-130 -35.5h-202v118h216z" />
    <glyph glyph-name="z" unicode="z" horiz-adv-x="377" 
d="M360 110l-1 -110h-260q-49 0 -72 25.5t-23 74.5l192 261q5 7 2 13t-11 6h-161v110h238q56 0 81 -28.5t25 -81.5l-187 -250q-5 -7 -3 -13.5t10 -6.5h170z" />
    <glyph glyph-name="braceleft" unicode="{" horiz-adv-x="334" 
d="M234 564v-191q0 -60 -35.5 -90t-95.5 -30v2q60 0 95.5 -30t35.5 -90v-189q0 -14 14 -14h71v-102h-39q-94 0 -142 44t-48 126v184q0 14 -14 14h-36v112h36q14 0 14 14v186q0 83 48 126.5t142 43.5h39v-102h-71q-14 0 -14 -14z" />
    <glyph glyph-name="bar" unicode="|" horiz-adv-x="275" 
d="M195 -60h-115v735h115v-735z" />
    <glyph glyph-name="braceright" unicode="}" horiz-adv-x="334" 
d="M100 564q0 14 -14 14h-71v102h39q94 0 142 -43.5t48 -126.5v-186q0 -14 14 -14h36v-112h-36q-14 0 -14 -14v-184q0 -82 -48 -126t-142 -44h-39v102h71q14 0 14 14v189q0 60 35.5 90t95.5 30v-2q-60 0 -95.5 30t-35.5 90v191z" />
    <glyph glyph-name="asciitilde" unicode="~" horiz-adv-x="454" 
d="M123 197l-90 1q0 83 20.5 123.5t72.5 40.5q27 0 59 -13t61 -26t48 -13q23 0 30 16t7 37h90q0 -77 -22 -120t-79 -43q-27 0 -58 13t-59 25.5t-47 12.5t-26 -15.5t-7 -38.5z" />
    <glyph glyph-name="uni00A0" unicode="&#xa0;" horiz-adv-x="175" 
 />
    <glyph glyph-name="exclamdown" unicode="&#xa1;" horiz-adv-x="257" 
d="M95 274h82l32 -284v-145h-146v145zM68 490h136v-151h-136v151z" />
    <glyph glyph-name="cent" unicode="&#xa2;" horiz-adv-x="376" 
d="M351 70h-151q-90 0 -130 35.5t-40 114.5v200q0 79 40 114.5t130 35.5h151v-120h-164q-14 0 -14 -14v-232q0 -14 14 -14h164v-120zM155 549v120h108v-120h-108zM155 -25v120h108v-120h-108z" />
    <glyph glyph-name="sterling" unicode="&#xa3;" horiz-adv-x="444" 
d="M419 0h-384v129h40q15 0 15 15v134l20 -20h-75v105h75l-20 -20v102q0 79 45 119.5t135 40.5h139v-133h-157q-14 0 -14 -14v-115l-20 20h157v-105h-157l20 20v-85q0 -34 -15.5 -52t-49.5 -18v6h246v-129z" />
    <glyph glyph-name="currency" unicode="&#xa4;" horiz-adv-x="618" 
d="M358 415h-98q-14 0 -14 -14v-160q0 -14 14 -14h98q14 0 14 14v160q0 14 -14 14zM107 262v118q0 75 44.5 115t130.5 40h54q86 0 130.5 -40t44.5 -115v-118q0 -75 -44.5 -115t-130.5 -40h-54q-86 0 -130.5 40t-44.5 115zM421 506l99 99l73 -73l-99 -99zM25 110l99 99
l73 -73l-99 -99zM494 209l99 -99l-73 -73l-99 99zM98 605l99 -99l-73 -73l-99 99z" />
    <glyph glyph-name="yen" unicode="&#xa5;" horiz-adv-x="555" 
d="M301 348l92 252h145l-121 -285q-13 -30 -22.5 -47t-20 -24.5t-26.5 -12.5v-231h-148v234q-24 9 -37.5 25.5t-30.5 56.5l-115 284h153l88 -252q4 -13 16 -13h11q11 0 16 13zM212 109h-144v80h144v-80zM212 229h-144v80h144v-80zM481 109h-145v80h145v-80zM481 229h-145v80
h145v-80z" />
    <glyph glyph-name="brokenbar" unicode="&#xa6;" horiz-adv-x="275" 
d="M195 -60h-115v290h115v-290zM195 385h-115v290h115v-290z" />
    <glyph glyph-name="section" unicode="&#xa7;" horiz-adv-x="470" 
d="M445 24q-1 -46 -16 -80t-49.5 -52t-94.5 -17l-245 5v128h245q14 0 14 14v45q0 13 -14 18l-166 59q-32 12 -53 26.5t-31 40.5t-10 69v211q1 46 16 80t49.5 52.5t94.5 16.5l245 -5v-128h-245q-14 0 -14 -14v-45q0 -13 14 -18l166 -59q32 -11 53 -26t31 -40.5t10 -69.5v-211
zM304 194l-5 -5v61q0 11 -2.5 19t-14.5 12l-117 41l6 5v-62q0 -11 2.5 -18.5t14.5 -12.5z" />
    <glyph glyph-name="dieresis" unicode="&#xa8;" horiz-adv-x="395" 
d="M165 566h-115v119h115v-119zM355 566h-115v119h115v-119z" />
    <glyph glyph-name="copyright" unicode="&#xa9;" horiz-adv-x="519" 
d="M389 591h-259q-12 0 -12 -12v-372q0 -12 12 -12h259q12 0 12 12v372q0 12 -12 12zM55 248v290q0 58 28.5 82.5t88.5 24.5h175q60 0 88.5 -24.5t28.5 -82.5v-290q0 -58 -28.5 -82.5t-88.5 -24.5h-175q-60 0 -88.5 24.5t-28.5 82.5zM363 233h-83q-70 0 -99.5 26.5
t-29.5 93.5v80q0 68 29.5 94t99.5 26h83v-95h-88q-14 0 -14 -14v-102q0 -14 14 -14h88v-95z" />
    <glyph glyph-name="ordfeminine" unicode="&#xaa;" horiz-adv-x="385" 
d="M155 265h-17q-55 0 -81.5 28.5t-26.5 91.5v13q0 75 31.5 100t98.5 25h77v-85h-78q-14 0 -14 -14v-40q0 -14 14 -14h62v191q0 14 -14 14l-153 -1v96h155q55 0 84.5 -11.5t40.5 -38.5t11 -75v-270h-111l-13 95h5q0 -49 -13 -77t-58 -28z" />
    <glyph glyph-name="guillemotleft" unicode="&#xab;" horiz-adv-x="470" 
d="M36 240q-5 8 -5.5 13t5.5 14l105 165h107l-87 -169q-4 -7 0 -16l84 -170h-112zM234 240q-5 8 -5.5 13t5.5 14l102 165h110l-87 -169q-4 -7 0 -16l84 -170h-115z" />
    <glyph glyph-name="logicalnot" unicode="&#xac;" horiz-adv-x="555" 
d="M510 349v-232h-115v132h-355v100h470z" />
    <glyph glyph-name="uni00AD" unicode="&#xad;" horiz-adv-x="327" 
d="M302 349v-115h-277v115h277z" />
    <glyph glyph-name="registered" unicode="&#xae;" horiz-adv-x="534" 
d="M438 591h-308q-12 0 -12 -12v-372q0 -12 12 -12h308q12 0 12 12v372q0 12 -12 12zM55 248v290q0 58 28.5 82.5t88.5 24.5h224q60 0 88.5 -24.5t28.5 -82.5v-290q0 -58 -28.5 -82.5t-88.5 -24.5h-224q-60 0 -88.5 24.5t-28.5 82.5zM258 232h-100v320l168 3
q45 1 69.5 -21.5t24.5 -61.5v-44q0 -30 -17 -53t-50 -31l-2 20q20 -3 30.5 -13t17.5 -30l31 -89h-100l-36 99q-1 3 -2 5t-6 2h-38l10 12v-118zM258 494v-93l-10 10h60q7 0 7 7v56q0 8 -7 8h-60z" />
    <glyph glyph-name="macron" unicode="&#xaf;" horiz-adv-x="362" 
d="M322 668v-100h-282v100h282z" />
    <glyph glyph-name="degree" unicode="&#xb0;" horiz-adv-x="325" 
d="M20 414v136q0 50 25 72.5t80 22.5h75q55 0 80 -22.5t25 -72.5v-136q0 -49 -25 -71.5t-80 -22.5h-75q-55 0 -80 22.5t-25 71.5zM188 553h-51q-14 0 -14 -14v-113q0 -14 14 -14h51q14 0 14 14v113q0 14 -14 14z" />
    <glyph glyph-name="plusminus" unicode="&#xb1;" horiz-adv-x="550" 
d="M500 399v-100h-450v100h450zM327 154h-104v390h104v-390zM500 99v-100h-450v100h450z" />
    <glyph glyph-name="uni00B2" unicode="&#xb2;" horiz-adv-x="366" 
d="M43 370q0 40 15 56.5t42 29.5l109 53q4 2 6.5 5t2.5 7v11q0 9 -9 9h-156v95l188 3q56 1 76.5 -25t20.5 -70v-44q0 -30 -15.5 -47.5t-47.5 -32.5l-101 -48q-7 -3 -9 -7t-2 -12v-9h171v-95h-291v121z" />
    <glyph glyph-name="uni00B3" unicode="&#xb3;" horiz-adv-x="370" 
d="M320 347q0 -49 -28.5 -75t-83.5 -25l-183 2v95h167q9 0 9 9v39q0 9 -9 9h-128v91h125q9 0 9 9v31q0 9 -9 9h-162v95l178 3q55 1 84 -26t29 -75v-22q0 -43 -34 -64t-101 -21v28q73 0 105 -21t32 -67v-24z" />
    <glyph glyph-name="acute" unicode="&#xb4;" horiz-adv-x="329" 
d="M63 551h102l102 166l-139 1z" />
    <glyph glyph-name="uni00B5" unicode="&#xb5;" horiz-adv-x="485" 
d="M179 -190h-139v680h142v-371q0 -14 14 -14h97l-2 385h142l2 -490h-129l-13 105h5q0 -52 -18 -83.5t-53 -31.5h-12q-27 0 -38.5 12t-17.5 26h8z" />
    <glyph glyph-name="paragraph" unicode="&#xb6;" horiz-adv-x="579" 
d="M386 0v531l20 -20h-107l20 20v-531h-123v312l20 -23h-16q-60 0 -101 22.5t-62.5 59t-21.5 78.5v36q0 71 47.5 114t137.5 41l309 -5v-635h-123z" />
    <glyph glyph-name="periodcentered" unicode="&#xb7;" horiz-adv-x="226" 
d="M178 202h-130v145h130v-145z" />
    <glyph glyph-name="cedilla" unicode="&#xb8;" horiz-adv-x="288" 
d="M152 -140v30q0 7 -7 7h-81l25 119l63 -11l-8 -43h7q38 0 59 -14t21 -50v-38q0 -80 -89 -80h-88v73h91q7 0 7 7z" />
    <glyph glyph-name="uni00B9" unicode="&#xb9;" horiz-adv-x="333" 
d="M313 344v-95h-271v95h271zM12 551l136 84h107v-386h-116v280l15 -8l-95 -54z" />
    <glyph glyph-name="ordmasculine" unicode="&#xba;" horiz-adv-x="414" 
d="M247 574h-76q-14 0 -14 -14v-180q0 -14 14 -14h76q14 0 14 14v180q0 14 -14 14zM40 405v125q0 78 36 111t117 33h32q81 0 117 -33t36 -111v-125q0 -74 -36 -106.5t-117 -32.5h-32q-81 0 -117 32.5t-36 106.5z" />
    <glyph glyph-name="guillemotright" unicode="&#xbb;" horiz-adv-x="471" 
d="M433 269q5 -8 5.5 -13t-5.5 -14l-105 -165h-107l87 169q4 7 0 16l-84 170h112zM235 269q5 -8 5.5 -13t-5.5 -14l-102 -165h-110l87 169q4 7 0 16l-84 170h115z" />
    <glyph glyph-name="onequarter" unicode="&#xbc;" horiz-adv-x="881" 
d="M795 0h-116v82l6 -6h-200v75l99 177q19 34 36 49.5t55 14.5l120 -3v-224l-6 6h71v-95h-71l6 6v-82zM667 287l-72 -122l-8 6h98l-6 -6v129h-1q-7 0 -11 -7zM313 344v-95h-271v95h271zM12 551l136 84h107v-386h-116v280l15 -8l-95 -54zM559 645h112l-365 -655h-113z" />
    <glyph glyph-name="onehalf" unicode="&#xbd;" horiz-adv-x="858" 
d="M313 344v-95h-271v95h271zM12 551l136 84h107v-386h-116v280l15 -8l-95 -54zM557 645h112l-365 -655h-113zM545 121q0 40 15 56.5t42 29.5l109 53q4 2 6.5 5t2.5 7v11q0 9 -9 9h-156v95l188 3q56 1 76.5 -25t20.5 -70v-44q0 -30 -15.5 -47.5t-47.5 -32.5l-101 -48
q-7 -3 -9 -7t-2 -12v-9h171v-95h-291v121z" />
    <glyph glyph-name="threequarters" unicode="&#xbe;" horiz-adv-x="886" 
d="M320 347q0 -49 -28.5 -75t-83.5 -25l-183 2v95h167q9 0 9 9v39q0 9 -9 9h-128v91h125q9 0 9 9v31q0 9 -9 9h-162v95l178 3q55 1 84 -26t29 -75v-22q0 -43 -34 -64t-101 -21v28q73 0 105 -21t32 -67v-24zM560 645h112l-365 -655h-113zM800 0h-116v82l6 -6h-200v75l99 177
q19 34 36 49.5t55 14.5l120 -3v-224l-6 6h71v-95h-71l6 6v-82zM672 287l-72 -122l-8 6h98l-6 -6v129h-1q-7 0 -11 -7z" />
    <glyph glyph-name="questiondown" unicode="&#xbf;" horiz-adv-x="386" 
d="M181 297h134v-44q0 -18 -2 -30t-8.5 -23t-21.5 -27l-94 -100q-4 -5 -5.5 -9t-1.5 -10v-67q0 -14 14 -14h169v-123h-162q-83 0 -121.5 35.5t-38.5 114.5v35q0 37 7 60t37 54l76 77q11 12 13.5 21t3.5 24zM180 490h136v-151h-136v151z" />
    <glyph glyph-name="Agrave" unicode="&#xc0;" horiz-adv-x="562" 
d="M557 0h-147l-30 151l12 -10h-225l12 10l-34 -151h-138l130 520q12 47 27 73.5t42 37.5t73 9l144 -5zM258 494l-54 -236l-8 10h171l-8 -10l-49 250h-38q-7 0 -9.5 -3t-4.5 -11zM148 852l106 -166h95l-64 167z" />
    <glyph glyph-name="Aacute" unicode="&#xc1;" horiz-adv-x="562" 
d="M557 0h-147l-30 151l12 -10h-225l12 10l-34 -151h-138l130 520q12 47 27 73.5t42 37.5t73 9l144 -5zM258 494l-54 -236l-8 10h171l-8 -10l-49 250h-38q-7 0 -9.5 -3t-4.5 -11zM239 686h102l102 166l-139 1z" />
    <glyph glyph-name="Acircumflex" unicode="&#xc2;" horiz-adv-x="562" 
d="M557 0h-147l-30 151l12 -10h-225l12 10l-34 -151h-138l130 520q12 47 27 73.5t42 37.5t73 9l144 -5zM258 494l-54 -236l-8 10h171l-8 -10l-49 250h-38q-7 0 -9.5 -3t-4.5 -11zM366 848l96 -162h-115l-59 107h13l-67 -107h-111l102 162h141z" />
    <glyph glyph-name="Atilde" unicode="&#xc3;" horiz-adv-x="562" 
d="M557 0h-147l-30 151l12 -10h-225l12 10l-34 -151h-138l130 520q12 47 27 73.5t42 37.5t73 9l144 -5zM258 494l-54 -236l-8 10h171l-8 -10l-49 250h-38q-7 0 -9.5 -3t-4.5 -11zM209 698l-83 1q0 77 20.5 105.5t59.5 28.5q26 0 49.5 -9.5t44 -19.5t37.5 -10q16 0 21.5 10
t5.5 30h84q0 -73 -23.5 -103.5t-62.5 -30.5q-25 0 -49 10t-45 19.5t-36 9.5q-13 0 -18 -10t-5 -31z" />
    <glyph glyph-name="Adieresis" unicode="&#xc4;" horiz-adv-x="562" 
d="M557 0h-147l-30 151l12 -10h-225l12 10l-34 -151h-138l130 520q12 47 27 73.5t42 37.5t73 9l144 -5zM258 494l-54 -236l-8 10h171l-8 -10l-49 250h-38q-7 0 -9.5 -3t-4.5 -11zM258 701h-115v119h115v-119zM448 701h-115v119h115v-119z" />
    <glyph glyph-name="Aring" unicode="&#xc5;" horiz-adv-x="562" 
d="M557 0h-147l-30 151l12 -10h-225l12 10l-34 -151h-138l130 520q12 47 27 73.5t42 37.5t73 9l144 -5zM258 494l-54 -236l-8 10h171l-8 -10l-49 250h-38q-7 0 -9.5 -3t-4.5 -11zM410 774q0 -58 -24.5 -84t-89.5 -26q-64 0 -87.5 26t-23.5 84q0 60 23.5 85t87.5 25
q65 0 89.5 -25t24.5 -85zM252 774q0 -26 8.5 -37.5t35.5 -11.5q28 0 37.5 11.5t9.5 37.5q0 29 -9.5 39t-37.5 10q-27 0 -35.5 -10t-8.5 -39z" />
    <glyph glyph-name="AE" unicode="&#xc6;" horiz-adv-x="818" 
d="M145 0h-143l216 520q18 44 33 69.5t39 36.5t70 11l423 -2v-129h-256l20 20v-163l-20 20h236v-127h-236l20 20v-167l-20 20h261v-129h-389v177l20 -20h-231l28 19zM344 493l-93 -229l-14 20h182l-20 -20v263l20 -20h-61q-7 0 -9 -3t-5 -11z" />
    <glyph glyph-name="Ccedilla" unicode="&#xc7;" horiz-adv-x="447" 
d="M435 133v-133h-202q-90 0 -135 40.5t-45 119.5v315q0 79 45 119.5t135 40.5h202v-133h-218q-14 0 -14 -14v-341q0 -14 14 -14h218zM288 -140v30q0 7 -7 7h-81l25 119l63 -11l-8 -43h7q38 0 59 -14t21 -50v-38q0 -80 -89 -80h-88v73h91q7 0 7 7z" />
    <glyph glyph-name="Egrave" unicode="&#xc8;" horiz-adv-x="484" 
d="M454 0h-389v635h384v-129h-256l20 20v-161l-20 20h236v-127h-236l20 20v-169l-20 20h261v-129zM111 852l106 -166h95l-64 167z" />
    <glyph glyph-name="Eacute" unicode="&#xc9;" horiz-adv-x="484" 
d="M454 0h-389v635h384v-129h-256l20 20v-161l-20 20h236v-127h-236l20 20v-169l-20 20h261v-129zM202 686h102l102 166l-139 1z" />
    <glyph glyph-name="Ecircumflex" unicode="&#xca;" horiz-adv-x="484" 
d="M454 0h-389v635h384v-129h-256l20 20v-161l-20 20h236v-127h-236l20 20v-169l-20 20h261v-129zM329 848l96 -162h-115l-59 107h13l-67 -107h-111l102 162h141z" />
    <glyph glyph-name="Edieresis" unicode="&#xcb;" horiz-adv-x="484" 
d="M454 0h-389v635h384v-129h-256l20 20v-161l-20 20h236v-127h-236l20 20v-169l-20 20h261v-129zM221 701h-115v119h115v-119zM411 701h-115v119h115v-119z" />
    <glyph glyph-name="Igrave" unicode="&#xcc;" horiz-adv-x="298" 
d="M223 0h-148v635h148v-635zM6 852l106 -166h95l-64 167z" />
    <glyph glyph-name="Iacute" unicode="&#xcd;" horiz-adv-x="298" 
d="M223 0h-148v635h148v-635zM85 686h102l102 166l-139 1z" />
    <glyph glyph-name="Icircumflex" unicode="&#xce;" horiz-adv-x="298" 
d="M223 0h-148v635h148v-635zM224 848l96 -162h-115l-59 107h13l-67 -107h-111l102 162h141z" />
    <glyph glyph-name="Idieresis" unicode="&#xcf;" horiz-adv-x="298" 
d="M223 0h-148v635h148v-635zM116 701h-115v119h115v-119zM306 701h-115v119h115v-119z" />
    <glyph glyph-name="Eth" unicode="&#xd0;" horiz-adv-x="589" 
d="M370 512h-157v-389h157q14 0 14 14v361q0 14 -14 14zM65 0v635l284 5q94 2 139.5 -38.5t45.5 -126.5v-315q0 -86 -45.5 -126t-139.5 -39zM297 378v-115h-277v115h277z" />
    <glyph glyph-name="Ntilde" unicode="&#xd1;" horiz-adv-x="600" 
d="M418 225v410h127v-635h-105l-279 412h21v-412h-127v635h104l279 -410h-20zM208 698l-83 1q0 77 20.5 105.5t59.5 28.5q26 0 49.5 -9.5t44 -19.5t37.5 -10q16 0 21.5 10t5.5 30h84q0 -73 -23.5 -103.5t-62.5 -30.5q-25 0 -49 10t-45 19.5t-36 9.5q-13 0 -18 -10t-5 -31z
" />
    <glyph glyph-name="Ograve" unicode="&#xd2;" horiz-adv-x="600" 
d="M381 512h-162q-14 0 -14 -14v-361q0 -14 14 -14h162q14 0 14 14v361q0 14 -14 14zM55 150v335q0 79 45 119.5t135 40.5h130q90 0 135 -40.5t45 -119.5v-335q0 -79 -45 -119.5t-135 -40.5h-130q-90 0 -135 40.5t-45 119.5zM159 852l106 -166h95l-64 167z" />
    <glyph glyph-name="Oacute" unicode="&#xd3;" horiz-adv-x="600" 
d="M381 512h-162q-14 0 -14 -14v-361q0 -14 14 -14h162q14 0 14 14v361q0 14 -14 14zM55 150v335q0 79 45 119.5t135 40.5h130q90 0 135 -40.5t45 -119.5v-335q0 -79 -45 -119.5t-135 -40.5h-130q-90 0 -135 40.5t-45 119.5zM250 686h102l102 166l-139 1z" />
    <glyph glyph-name="Ocircumflex" unicode="&#xd4;" horiz-adv-x="600" 
d="M381 512h-162q-14 0 -14 -14v-361q0 -14 14 -14h162q14 0 14 14v361q0 14 -14 14zM55 150v335q0 79 45 119.5t135 40.5h130q90 0 135 -40.5t45 -119.5v-335q0 -79 -45 -119.5t-135 -40.5h-130q-90 0 -135 40.5t-45 119.5zM377 848l96 -162h-115l-59 107h13l-67 -107h-111
l102 162h141z" />
    <glyph glyph-name="Otilde" unicode="&#xd5;" horiz-adv-x="600" 
d="M381 512h-162q-14 0 -14 -14v-361q0 -14 14 -14h162q14 0 14 14v361q0 14 -14 14zM55 150v335q0 79 45 119.5t135 40.5h130q90 0 135 -40.5t45 -119.5v-335q0 -79 -45 -119.5t-135 -40.5h-130q-90 0 -135 40.5t-45 119.5zM220 698l-83 1q0 77 20.5 105.5t59.5 28.5
q26 0 49.5 -9.5t44 -19.5t37.5 -10q16 0 21.5 10t5.5 30h84q0 -73 -23.5 -103.5t-62.5 -30.5q-25 0 -49 10t-45 19.5t-36 9.5q-13 0 -18 -10t-5 -31z" />
    <glyph glyph-name="Odieresis" unicode="&#xd6;" horiz-adv-x="600" 
d="M381 512h-162q-14 0 -14 -14v-361q0 -14 14 -14h162q14 0 14 14v361q0 14 -14 14zM55 150v335q0 79 45 119.5t135 40.5h130q90 0 135 -40.5t45 -119.5v-335q0 -79 -45 -119.5t-135 -40.5h-130q-90 0 -135 40.5t-45 119.5zM269 701h-115v119h115v-119zM459 701h-115v119
h115v-119z" />
    <glyph glyph-name="multiply" unicode="&#xd7;" horiz-adv-x="488" 
d="M371 494l71 -71l-325 -325l-71 71zM443 170l-73 -73l-325 325l73 73z" />
    <glyph glyph-name="Oslash" unicode="&#xd8;" horiz-adv-x="600" 
d="M435 690h85l-360 -748h-85zM381 512h-162q-14 0 -14 -14v-361q0 -14 14 -14h162q14 0 14 14v361q0 14 -14 14zM55 150v335q0 79 45 119.5t135 40.5h130q90 0 135 -40.5t45 -119.5v-335q0 -79 -45 -119.5t-135 -40.5h-130q-90 0 -135 40.5t-45 119.5z" />
    <glyph glyph-name="Ugrave" unicode="&#xd9;" horiz-adv-x="596" 
d="M361 -10h-126q-90 0 -135 40.5t-45 119.5v485h150v-498q0 -14 14 -14h158q14 0 14 14v498h150v-485q0 -79 -45 -119.5t-135 -40.5zM155 852l106 -166h95l-64 167z" />
    <glyph glyph-name="Uacute" unicode="&#xda;" horiz-adv-x="596" 
d="M361 -10h-126q-90 0 -135 40.5t-45 119.5v485h150v-498q0 -14 14 -14h158q14 0 14 14v498h150v-485q0 -79 -45 -119.5t-135 -40.5zM246 686h102l102 166l-139 1z" />
    <glyph glyph-name="Ucircumflex" unicode="&#xdb;" horiz-adv-x="596" 
d="M361 -10h-126q-90 0 -135 40.5t-45 119.5v485h150v-498q0 -14 14 -14h158q14 0 14 14v498h150v-485q0 -79 -45 -119.5t-135 -40.5zM373 848l96 -162h-115l-59 107h13l-67 -107h-111l102 162h141z" />
    <glyph glyph-name="Udieresis" unicode="&#xdc;" horiz-adv-x="596" 
d="M361 -10h-126q-90 0 -135 40.5t-45 119.5v485h150v-498q0 -14 14 -14h158q14 0 14 14v498h150v-485q0 -79 -45 -119.5t-135 -40.5zM265 701h-115v119h115v-119zM455 701h-115v119h115v-119z" />
    <glyph glyph-name="Yacute" unicode="&#xdd;" horiz-adv-x="557" 
d="M307 358l96 277h147l-114 -310q-17 -46 -32.5 -69.5t-43 -31.5t-80.5 -8h-3q-52 0 -82 10t-47.5 34t-32.5 66l-110 309h155l94 -277q4 -13 16 -13h21q12 0 16 13zM349 0h-148v308h148v-308zM227 686h102l102 166l-139 1z" />
    <glyph glyph-name="Thorn" unicode="&#xde;" horiz-adv-x="571" 
d="M218 0h-148v635h148v-116l-25 22h148q90 0 137.5 -43t47.5 -122v-91q0 -47 -21 -86t-62.5 -61.5t-101.5 -22.5h-143l20 23v-138zM218 436v-212l-20 20h164q14 0 14 14v140q0 14 -14 14h-164z" />
    <glyph glyph-name="germandbls" unicode="&#xdf;" horiz-adv-x="535" 
d="M74 400l20 -20h-69v110h69l-20 -20v9q0 71 45.5 116t139.5 45h46q90 0 137.5 -43t47.5 -122v-31q0 -71 -52.5 -105.5t-142.5 -34.5l10 47q101 0 150.5 -35t49.5 -110v-46q0 -79 -47.5 -122t-137.5 -43h-54v120h82q14 0 14 14v125q0 14 -14 14h-82v115h60q7 0 14 3.5
t7 10.5v109q0 14 -14 14h-103q-14 0 -14 -14v-506h-142v400z" />
    <glyph glyph-name="agrave" unicode="&#xe0;" horiz-adv-x="449" 
d="M170 -10h-15q-67 0 -98.5 29t-31.5 96v48q0 75 34 105t116 30h107v-100h-103q-14 0 -14 -14v-65q0 -14 14 -14h87v253q0 14 -14 14l-191 -1v120l193 1q83 1 119 -32.5t36 -112.5v-347h-130l-13 105h5q0 -52 -24 -83.5t-77 -31.5zM86 717l106 -166h95l-64 167z" />
    <glyph glyph-name="aacute" unicode="&#xe1;" horiz-adv-x="449" 
d="M170 -10h-15q-67 0 -98.5 29t-31.5 96v48q0 75 34 105t116 30h107v-100h-103q-14 0 -14 -14v-65q0 -14 14 -14h87v253q0 14 -14 14l-191 -1v120l193 1q83 1 119 -32.5t36 -112.5v-347h-130l-13 105h5q0 -52 -24 -83.5t-77 -31.5zM177 551h102l102 166l-139 1z" />
    <glyph glyph-name="acircumflex" unicode="&#xe2;" horiz-adv-x="449" 
d="M170 -10h-15q-67 0 -98.5 29t-31.5 96v48q0 75 34 105t116 30h107v-100h-103q-14 0 -14 -14v-65q0 -14 14 -14h87v253q0 14 -14 14l-191 -1v120l193 1q83 1 119 -32.5t36 -112.5v-347h-130l-13 105h5q0 -52 -24 -83.5t-77 -31.5zM304 713l96 -162h-115l-59 107h13
l-67 -107h-111l102 162h141z" />
    <glyph glyph-name="atilde" unicode="&#xe3;" horiz-adv-x="449" 
d="M170 -10h-15q-67 0 -98.5 29t-31.5 96v48q0 75 34 105t116 30h107v-100h-103q-14 0 -14 -14v-65q0 -14 14 -14h87v253q0 14 -14 14l-191 -1v120l193 1q83 1 119 -32.5t36 -112.5v-347h-130l-13 105h5q0 -52 -24 -83.5t-77 -31.5zM147 563l-83 1q0 77 20.5 105.5
t59.5 28.5q26 0 49.5 -9.5t44 -19.5t37.5 -10q16 0 21.5 10t5.5 30h84q0 -73 -23.5 -103.5t-62.5 -30.5q-25 0 -49 10t-45 19.5t-36 9.5q-13 0 -18 -10t-5 -31z" />
    <glyph glyph-name="adieresis" unicode="&#xe4;" horiz-adv-x="449" 
d="M170 -10h-15q-67 0 -98.5 29t-31.5 96v48q0 75 34 105t116 30h107v-100h-103q-14 0 -14 -14v-65q0 -14 14 -14h87v253q0 14 -14 14l-191 -1v120l193 1q83 1 119 -32.5t36 -112.5v-347h-130l-13 105h5q0 -52 -24 -83.5t-77 -31.5zM196 566h-115v119h115v-119zM386 566
h-115v119h115v-119z" />
    <glyph glyph-name="aring" unicode="&#xe5;" horiz-adv-x="449" 
d="M170 -10h-15q-67 0 -98.5 29t-31.5 96v48q0 75 34 105t116 30h107v-100h-103q-14 0 -14 -14v-65q0 -14 14 -14h87v253q0 14 -14 14l-191 -1v120l193 1q83 1 119 -32.5t36 -112.5v-347h-130l-13 105h5q0 -52 -24 -83.5t-77 -31.5zM348 639q0 -58 -24.5 -84t-89.5 -26
q-64 0 -87.5 26t-23.5 84q0 60 23.5 85t87.5 25q65 0 89.5 -25t24.5 -85zM190 639q0 -26 8.5 -37.5t35.5 -11.5q28 0 37.5 11.5t9.5 37.5q0 29 -9.5 39t-37.5 10q-27 0 -35.5 -10t-8.5 -39z" />
    <glyph glyph-name="ae" unicode="&#xe6;" horiz-adv-x="682" 
d="M632 -6h-186q-88 0 -133 36.5t-45 115.5v210q0 14 -14 14l-193 -1v120l173 1q59 1 87 -15.5t36 -54.5h-31q7 45 31.5 62.5t88.5 17.5h51q83 0 116.5 -30.5t33.5 -109.5v-178h-255v100h115v89q0 14 -14 14h-71q-14 0 -14 -14v-243q0 -14 14 -14h210v-120zM178 -10h-23
q-67 0 -98.5 29t-31.5 96v48q0 75 34 105t116 30h109v-100h-105q-14 0 -14 -14v-65q0 -14 14 -14h100q0 -52 -24 -83.5t-77 -31.5z" />
    <glyph glyph-name="ccedilla" unicode="&#xe7;" horiz-adv-x="371" 
d="M356 -10h-146q-90 0 -130 35.5t-40 114.5v210q0 79 40 114.5t130 35.5h146v-120h-159q-14 0 -14 -14v-242q0 -14 14 -14h159v-120zM228 -140v30q0 7 -7 7h-81l25 119l63 -11l-8 -43h7q38 0 59 -14t21 -50v-38q0 -80 -89 -80h-88v73h91q7 0 7 7z" />
    <glyph glyph-name="egrave" unicode="&#xe8;" horiz-adv-x="458" 
d="M408 -6h-198q-90 0 -130 35.5t-40 114.5v216q0 79 34 109.5t116 30.5h83q83 0 116.5 -30.5t33.5 -109.5v-178h-257v100h117v89q0 14 -14 14h-73q-14 0 -14 -14v-243q0 -14 14 -14h212v-120zM87 717l106 -166h95l-64 167z" />
    <glyph glyph-name="eacute" unicode="&#xe9;" horiz-adv-x="458" 
d="M408 -6h-198q-90 0 -130 35.5t-40 114.5v216q0 79 34 109.5t116 30.5h83q83 0 116.5 -30.5t33.5 -109.5v-178h-257v100h117v89q0 14 -14 14h-73q-14 0 -14 -14v-243q0 -14 14 -14h212v-120zM178 551h102l102 166l-139 1z" />
    <glyph glyph-name="ecircumflex" unicode="&#xea;" horiz-adv-x="458" 
d="M408 -6h-198q-90 0 -130 35.5t-40 114.5v216q0 79 34 109.5t116 30.5h83q83 0 116.5 -30.5t33.5 -109.5v-178h-257v100h117v89q0 14 -14 14h-73q-14 0 -14 -14v-243q0 -14 14 -14h212v-120zM305 713l96 -162h-115l-59 107h13l-67 -107h-111l102 162h141z" />
    <glyph glyph-name="edieresis" unicode="&#xeb;" horiz-adv-x="458" 
d="M408 -6h-198q-90 0 -130 35.5t-40 114.5v216q0 79 34 109.5t116 30.5h83q83 0 116.5 -30.5t33.5 -109.5v-178h-257v100h117v89q0 14 -14 14h-73q-14 0 -14 -14v-243q0 -14 14 -14h212v-120zM197 566h-115v119h115v-119zM387 566h-115v119h115v-119z" />
    <glyph glyph-name="igrave" unicode="&#xec;" horiz-adv-x="258" 
d="M200 0h-142v490h142v-490zM-14 717l106 -166h95l-64 167z" />
    <glyph glyph-name="iacute" unicode="&#xed;" horiz-adv-x="258" 
d="M200 0h-142v490h142v-490zM77 551h102l102 166l-139 1z" />
    <glyph glyph-name="icircumflex" unicode="&#xee;" horiz-adv-x="258" 
d="M200 0h-142v490h142v-490zM204 713l96 -162h-115l-59 107h13l-67 -107h-111l102 162h141z" />
    <glyph glyph-name="idieresis" unicode="&#xef;" horiz-adv-x="258" 
d="M200 0h-142v490h142v-490zM96 566h-115v119h115v-119zM286 566h-115v119h115v-119z" />
    <glyph glyph-name="eth" unicode="&#xf0;" horiz-adv-x="478" 
d="M268 -10h-58q-90 0 -130 35.5t-40 114.5v170q0 79 37.5 114.5t127.5 35.5h95h-6v109q0 14 -14 14l-160 -1v103l160 1q83 1 119 -32.5t36 -112.5v-401q0 -79 -38.5 -114.5t-128.5 -35.5zM181 124q0 -14 14 -14h86q14 0 14 14v241l12 -10h-112q-14 0 -14 -14v-217zM488 607
l-274 -126l-27 61l276 125z" />
    <glyph glyph-name="ntilde" unicode="&#xf1;" horiz-adv-x="485" 
d="M289 500h26q68 0 99 -28.5t31 -96.5v-375h-142v371q0 14 -14 14h-83q-14 0 -14 -14l2 -371h-142l-2 490h129l13 -105h-5q0 53 24.5 84t77.5 31zM171 563l-83 1q0 77 20.5 105.5t59.5 28.5q26 0 49.5 -9.5t44 -19.5t37.5 -10q16 0 21.5 10t5.5 30h84q0 -73 -23.5 -103.5
t-62.5 -30.5q-25 0 -49 10t-45 19.5t-36 9.5q-13 0 -18 -10t-5 -31z" />
    <glyph glyph-name="ograve" unicode="&#xf2;" horiz-adv-x="478" 
d="M281 380h-84q-14 0 -14 -14v-242q0 -14 14 -14h84q14 0 14 14v242q0 14 -14 14zM40 140v210q0 79 40 114.5t130 35.5h58q90 0 130 -35.5t40 -114.5v-210q0 -79 -40 -114.5t-130 -35.5h-58q-90 0 -130 35.5t-40 114.5zM99 717l106 -166h95l-64 167z" />
    <glyph glyph-name="oacute" unicode="&#xf3;" horiz-adv-x="478" 
d="M281 380h-84q-14 0 -14 -14v-242q0 -14 14 -14h84q14 0 14 14v242q0 14 -14 14zM40 140v210q0 79 40 114.5t130 35.5h58q90 0 130 -35.5t40 -114.5v-210q0 -79 -40 -114.5t-130 -35.5h-58q-90 0 -130 35.5t-40 114.5zM190 551h102l102 166l-139 1z" />
    <glyph glyph-name="ocircumflex" unicode="&#xf4;" horiz-adv-x="478" 
d="M281 380h-84q-14 0 -14 -14v-242q0 -14 14 -14h84q14 0 14 14v242q0 14 -14 14zM40 140v210q0 79 40 114.5t130 35.5h58q90 0 130 -35.5t40 -114.5v-210q0 -79 -40 -114.5t-130 -35.5h-58q-90 0 -130 35.5t-40 114.5zM317 713l96 -162h-115l-59 107h13l-67 -107h-111
l102 162h141z" />
    <glyph glyph-name="otilde" unicode="&#xf5;" horiz-adv-x="478" 
d="M281 380h-84q-14 0 -14 -14v-242q0 -14 14 -14h84q14 0 14 14v242q0 14 -14 14zM40 140v210q0 79 40 114.5t130 35.5h58q90 0 130 -35.5t40 -114.5v-210q0 -79 -40 -114.5t-130 -35.5h-58q-90 0 -130 35.5t-40 114.5zM160 563l-83 1q0 77 20.5 105.5t59.5 28.5
q26 0 49.5 -9.5t44 -19.5t37.5 -10q16 0 21.5 10t5.5 30h84q0 -73 -23.5 -103.5t-62.5 -30.5q-25 0 -49 10t-45 19.5t-36 9.5q-13 0 -18 -10t-5 -31z" />
    <glyph glyph-name="odieresis" unicode="&#xf6;" horiz-adv-x="478" 
d="M281 380h-84q-14 0 -14 -14v-242q0 -14 14 -14h84q14 0 14 14v242q0 14 -14 14zM40 140v210q0 79 40 114.5t130 35.5h58q90 0 130 -35.5t40 -114.5v-210q0 -79 -40 -114.5t-130 -35.5h-58q-90 0 -130 35.5t-40 114.5zM209 566h-115v119h115v-119zM399 566h-115v119h115
v-119z" />
    <glyph glyph-name="divide" unicode="&#xf7;" horiz-adv-x="528" 
d="M483 239h-438v100h438v-100zM321 30h-114v129h114v-129zM321 419h-114v129h114v-129z" />
    <glyph glyph-name="oslash" unicode="&#xf8;" horiz-adv-x="478" 
d="M347 555h69l-284 -619h-69zM281 380h-84q-14 0 -14 -14v-242q0 -14 14 -14h84q14 0 14 14v242q0 14 -14 14zM40 140v210q0 79 40 114.5t130 35.5h58q90 0 130 -35.5t40 -114.5v-210q0 -79 -40 -114.5t-130 -35.5h-58q-90 0 -130 35.5t-40 114.5z" />
    <glyph glyph-name="ugrave" unicode="&#xf9;" horiz-adv-x="485" 
d="M196 -10h-26q-67 0 -98.5 29t-31.5 96v375h142v-371q0 -14 14 -14h97l-2 385h142l2 -490h-129l-13 105h5q0 -52 -24.5 -83.5t-77.5 -31.5zM87 717l106 -166h95l-64 167z" />
    <glyph glyph-name="uacute" unicode="&#xfa;" horiz-adv-x="485" 
d="M196 -10h-26q-67 0 -98.5 29t-31.5 96v375h142v-371q0 -14 14 -14h97l-2 385h142l2 -490h-129l-13 105h5q0 -52 -24.5 -83.5t-77.5 -31.5zM178 551h102l102 166l-139 1z" />
    <glyph glyph-name="ucircumflex" unicode="&#xfb;" horiz-adv-x="485" 
d="M196 -10h-26q-67 0 -98.5 29t-31.5 96v375h142v-371q0 -14 14 -14h97l-2 385h142l2 -490h-129l-13 105h5q0 -52 -24.5 -83.5t-77.5 -31.5zM305 713l96 -162h-115l-59 107h13l-67 -107h-111l102 162h141z" />
    <glyph glyph-name="udieresis" unicode="&#xfc;" horiz-adv-x="485" 
d="M196 -10h-26q-67 0 -98.5 29t-31.5 96v375h142v-371q0 -14 14 -14h97l-2 385h142l2 -490h-129l-13 105h5q0 -52 -24.5 -83.5t-77.5 -31.5zM197 566h-115v119h115v-119zM387 566h-115v119h115v-119z" />
    <glyph glyph-name="yacute" unicode="&#xfd;" horiz-adv-x="482" 
d="M279 -82q14 0 14 14v173h5q0 -52 -24.5 -83.5t-77.5 -31.5h-26q-67 0 -98.5 29t-31.5 96v375h142v-371q0 -14 14 -14h97l-2 385h142l2 -540q0 -79 -40 -114.5t-130 -35.5h-202v118h216zM178 551h102l102 166l-139 1z" />
    <glyph glyph-name="thorn" unicode="&#xfe;" horiz-adv-x="490" 
d="M198 -190h-143v865h142l1 -290h-4q0 53 24.5 84t76.5 31h25q68 0 99 -28.5t31 -96.5v-242q0 -75 -33.5 -105t-116.5 -30h-102v-188zM198 371v-272l-15 16h113q14 0 14 14v242q0 14 -14 14h-84q-14 0 -14 -14z" />
    <glyph glyph-name="ydieresis" unicode="&#xff;" horiz-adv-x="482" 
d="M279 -82q14 0 14 14v173h5q0 -52 -24.5 -83.5t-77.5 -31.5h-26q-67 0 -98.5 29t-31.5 96v375h142v-371q0 -14 14 -14h97l-2 385h142l2 -540q0 -79 -40 -114.5t-130 -35.5h-202v118h216zM197 566h-115v119h115v-119zM387 566h-115v119h115v-119z" />
    <glyph glyph-name="Amacron" unicode="&#x100;" horiz-adv-x="562" 
d="M557 0h-147l-30 151l12 -10h-225l12 10l-34 -151h-138l130 520q12 47 27 73.5t42 37.5t73 9l144 -5zM258 494l-54 -236l-8 10h171l-8 -10l-49 250h-38q-7 0 -9.5 -3t-4.5 -11zM432 803v-100h-282v100h282z" />
    <glyph glyph-name="amacron" unicode="&#x101;" horiz-adv-x="449" 
d="M170 -10h-15q-67 0 -98.5 29t-31.5 96v48q0 75 34 105t116 30h107v-100h-103q-14 0 -14 -14v-65q0 -14 14 -14h87v253q0 14 -14 14l-191 -1v120l193 1q83 1 119 -32.5t36 -112.5v-347h-130l-13 105h5q0 -52 -24 -83.5t-77 -31.5zM370 668v-100h-282v100h282z" />
    <glyph glyph-name="Abreve" unicode="&#x102;" horiz-adv-x="562" 
d="M557 0h-147l-30 151l12 -10h-225l12 10l-34 -151h-138l130 520q12 47 27 73.5t42 37.5t73 9l144 -5zM258 494l-54 -236l-8 10h171l-8 -10l-49 250h-38q-7 0 -9.5 -3t-4.5 -11zM160 834h87q0 -28 11 -45.5t50 -17.5q36 0 46 17.5t10 45.5h86q0 -50 -12 -82.5t-42.5 -48.5
t-87.5 -16q-60 0 -92 16t-44 49t-12 82z" />
    <glyph glyph-name="abreve" unicode="&#x103;" horiz-adv-x="449" 
d="M170 -10h-15q-67 0 -98.5 29t-31.5 96v48q0 75 34 105t116 30h107v-100h-103q-14 0 -14 -14v-65q0 -14 14 -14h87v253q0 14 -14 14l-191 -1v120l193 1q83 1 119 -32.5t36 -112.5v-347h-130l-13 105h5q0 -52 -24 -83.5t-77 -31.5zM98 699h87q0 -28 11 -45.5t50 -17.5
q36 0 46 17.5t10 45.5h86q0 -50 -12 -82.5t-42.5 -48.5t-87.5 -16q-60 0 -92 16t-44 49t-12 82z" />
    <glyph glyph-name="Aogonek" unicode="&#x104;" horiz-adv-x="562" 
d="M557 0h-147l-30 151l12 -10h-225l12 10l-34 -151h-138l130 520q12 47 27 73.5t42 37.5t73 9l144 -5zM258 494l-54 -236l-8 10h171l-8 -10l-49 250h-38q-7 0 -9.5 -3t-4.5 -11zM572 -220h-89q-45 0 -73 15t-28 60v25q0 43 26 66l65 60l84 -6l-62 -80q-5 -6 -6.5 -8
t-1.5 -9v-26q0 -7 7 -7h78v-90z" />
    <glyph glyph-name="aogonek" unicode="&#x105;" horiz-adv-x="449" 
d="M170 -10h-15q-67 0 -98.5 29t-31.5 96v48q0 75 34 105t116 30h107v-100h-103q-14 0 -14 -14v-65q0 -14 14 -14h87v253q0 14 -14 14l-191 -1v120l193 1q83 1 119 -32.5t36 -112.5v-347h-130l-13 105h5q0 -52 -24 -83.5t-77 -31.5zM424 -220h-89q-45 0 -73 15t-28 60v25
q0 43 26 66l65 60l84 -6l-62 -80q-5 -6 -6.5 -8t-1.5 -9v-26q0 -7 7 -7h78v-90z" />
    <glyph glyph-name="Cacute" unicode="&#x106;" horiz-adv-x="447" 
d="M435 133v-133h-202q-90 0 -135 40.5t-45 119.5v315q0 79 45 119.5t135 40.5h202v-133h-218q-14 0 -14 -14v-341q0 -14 14 -14h218zM204 686h102l102 166l-139 1z" />
    <glyph glyph-name="cacute" unicode="&#x107;" horiz-adv-x="371" 
d="M356 -10h-146q-90 0 -130 35.5t-40 114.5v210q0 79 40 114.5t130 35.5h146v-120h-159q-14 0 -14 -14v-242q0 -14 14 -14h159v-120zM137 551h102l102 166l-139 1z" />
    <glyph glyph-name="Ccaron" unicode="&#x10c;" horiz-adv-x="447" 
d="M199 691l-96 162h115l59 -107h-13l67 107h111l-102 -162h-141zM435 133v-133h-202q-90 0 -135 40.5t-45 119.5v315q0 79 45 119.5t135 40.5h202v-133h-218q-14 0 -14 -14v-341q0 -14 14 -14h218z" />
    <glyph glyph-name="ccaron" unicode="&#x10d;" horiz-adv-x="371" 
d="M147 556l-96 162h115l59 -107h-13l67 107h111l-102 -162h-141zM356 -10h-146q-90 0 -130 35.5t-40 114.5v210q0 79 40 114.5t130 35.5h146v-120h-159q-14 0 -14 -14v-242q0 -14 14 -14h159v-120z" />
    <glyph glyph-name="Dcaron" unicode="&#x10e;" horiz-adv-x="589" 
d="M218 691l-96 162h115l59 -107h-13l67 107h111l-102 -162h-141zM370 512h-157v-389h157q14 0 14 14v361q0 14 -14 14zM65 0v635l284 5q94 2 139.5 -38.5t45.5 -126.5v-315q0 -86 -45.5 -126t-139.5 -39z" />
    <glyph glyph-name="dcaron" unicode="&#x10f;" horiz-adv-x="591" 
d="M481 555h46l-10 6q0 -19 -8 -42.5t-27 -50.5l38 -31q32 31 50.5 64t18.5 73v101h-108v-120zM292 675h143v-675h-129l-14 105h4q0 -52 -24 -83.5t-77 -31.5h-25q-67 0 -98.5 29t-31.5 96v243q0 75 34 105t116 30h102v182zM292 119v275l15 -16h-113q-14 0 -14 -14v-245
q0 -14 14 -14h84q14 0 14 14z" />
    <glyph glyph-name="Dcroat" unicode="&#x110;" horiz-adv-x="589" 
d="M370 512h-157v-389h157q14 0 14 14v361q0 14 -14 14zM65 0v635l284 5q94 2 139.5 -38.5t45.5 -126.5v-315q0 -86 -45.5 -126t-139.5 -39zM297 378v-115h-277v115h277z" />
    <glyph glyph-name="dcroat" unicode="&#x111;" horiz-adv-x="485" 
d="M475 626v-90h-268v90h268zM292 675h143v-675h-129l-14 105h4q0 -52 -24 -83.5t-77 -31.5h-25q-67 0 -98.5 29t-31.5 96v243q0 75 34 105t116 30h102v182zM292 119v275l15 -16h-113q-14 0 -14 -14v-245q0 -14 14 -14h84q14 0 14 14z" />
    <glyph glyph-name="Emacron" unicode="&#x112;" horiz-adv-x="484" 
d="M454 0h-389v635h384v-129h-256l20 20v-161l-20 20h236v-127h-236l20 20v-169l-20 20h261v-129zM395 803v-100h-282v100h282z" />
    <glyph glyph-name="emacron" unicode="&#x113;" horiz-adv-x="458" 
d="M408 -6h-198q-90 0 -130 35.5t-40 114.5v216q0 79 34 109.5t116 30.5h83q83 0 116.5 -30.5t33.5 -109.5v-178h-257v100h117v89q0 14 -14 14h-73q-14 0 -14 -14v-243q0 -14 14 -14h212v-120zM371 668v-100h-282v100h282z" />
    <glyph glyph-name="Edotaccent" unicode="&#x116;" horiz-adv-x="484" 
d="M454 0h-389v635h384v-129h-256l20 20v-161l-20 20h236v-127h-236l20 20v-169l-20 20h261v-129zM314 697h-120v129h120v-129z" />
    <glyph glyph-name="edotaccent" unicode="&#x117;" horiz-adv-x="458" 
d="M408 -6h-198q-90 0 -130 35.5t-40 114.5v216q0 79 34 109.5t116 30.5h83q83 0 116.5 -30.5t33.5 -109.5v-178h-257v100h117v89q0 14 -14 14h-73q-14 0 -14 -14v-243q0 -14 14 -14h212v-120zM290 562h-120v129h120v-129z" />
    <glyph glyph-name="Eogonek" unicode="&#x118;" horiz-adv-x="484" 
d="M454 0h-389v635h384v-129h-256l20 20v-161l-20 20h236v-127h-236l20 20v-169l-20 20h261v-129zM469 -220h-89q-45 0 -73 15t-28 60v25q0 43 26 66l65 60l84 -6l-62 -80q-5 -6 -6.5 -8t-1.5 -9v-26q0 -7 7 -7h78v-90z" />
    <glyph glyph-name="eogonek" unicode="&#x119;" horiz-adv-x="458" 
d="M408 -6h-198q-90 0 -130 35.5t-40 114.5v216q0 79 34 109.5t116 30.5h83q83 0 116.5 -30.5t33.5 -109.5v-178h-257v100h117v89q0 14 -14 14h-73q-14 0 -14 -14v-243q0 -14 14 -14h212v-120zM423 -226h-89q-45 0 -73 15t-28 60v25q0 43 26 66l65 60l84 -6l-62 -80
q-5 -6 -6.5 -8t-1.5 -9v-26q0 -7 7 -7h78v-90z" />
    <glyph glyph-name="Ecaron" unicode="&#x11a;" horiz-adv-x="484" 
d="M187 691l-96 162h115l59 -107h-13l67 107h111l-102 -162h-141zM454 0h-389v635h384v-129h-256l20 20v-161l-20 20h236v-127h-236l20 20v-169l-20 20h261v-129z" />
    <glyph glyph-name="ecaron" unicode="&#x11b;" horiz-adv-x="458" 
d="M163 556l-96 162h115l59 -107h-13l67 107h111l-102 -162h-141zM408 -6h-198q-90 0 -130 35.5t-40 114.5v216q0 79 34 109.5t116 30.5h83q83 0 116.5 -30.5t33.5 -109.5v-178h-257v100h117v89q0 14 -14 14h-73q-14 0 -14 -14v-243q0 -14 14 -14h212v-120z" />
    <glyph glyph-name="Gbreve" unicode="&#x11e;" horiz-adv-x="555" 
d="M330 -10h-95q-90 0 -135 40.5t-45 119.5v335q0 79 45 119.5t135 40.5h262v-133h-278q-14 0 -14 -14v-361q0 -14 14 -14h137q14 0 14 14v121l13 -23h-83v123h210v-208q0 -79 -45 -119.5t-135 -40.5zM158 834h87q0 -28 11 -45.5t50 -17.5q36 0 46 17.5t10 45.5h86
q0 -50 -12 -82.5t-42.5 -48.5t-87.5 -16q-60 0 -92 16t-44 49t-12 82z" />
    <glyph glyph-name="gbreve" unicode="&#x11f;" horiz-adv-x="479" 
d="M292 119v270l15 -16h-113q-14 0 -14 -14v-240q0 -14 14 -14h84q14 0 14 14zM278 -82q14 0 14 14v173h4q0 -52 -24 -83.5t-77 -31.5h-25q-67 0 -98.5 29t-31.5 96v243q0 75 34 105.5t116 29.5l245 -3v-540q0 -79 -40 -114.5t-130 -35.5h-202v118h215zM109 699h87
q0 -28 11 -45.5t50 -17.5q36 0 46 17.5t10 45.5h86q0 -50 -12 -82.5t-42.5 -48.5t-87.5 -16q-60 0 -92 16t-44 49t-12 82z" />
    <glyph glyph-name="uni0122" unicode="&#x122;" 
d="M330 -10h-95q-90 0 -135 40.5t-45 119.5v335q0 79 45 119.5t135 40.5h262v-133h-278q-14 0 -14 -14v-361q0 -14 14 -14h137q14 0 14 14v121l13 -23h-83v123h210v-208q0 -79 -45 -119.5t-135 -40.5zM230 -126h51l-11 7q0 -21 -9 -47t-29 -56l42 -34q35 34 55.5 71t20.5 80
v112h-120v-133z" />
    <glyph glyph-name="uni0123" unicode="&#x123;" horiz-adv-x="479" 
d="M189 620h50l-11 7q0 -20 -6 -38t-20 -42l40 -32q32 29 47.5 59t15.5 68v104h-116v-126zM292 119v270l15 -16h-113q-14 0 -14 -14v-240q0 -14 14 -14h84q14 0 14 14zM278 -82q14 0 14 14v173h4q0 -52 -24 -83.5t-77 -31.5h-25q-67 0 -98.5 29t-31.5 96v243q0 75 34 105.5
t116 29.5l245 -3v-540q0 -79 -40 -114.5t-130 -35.5h-202v118h215z" />
    <glyph glyph-name="Imacron" unicode="&#x12a;" horiz-adv-x="298" 
d="M223 0h-148v635h148v-635zM290 803v-100h-282v100h282z" />
    <glyph glyph-name="imacron" unicode="&#x12b;" horiz-adv-x="258" 
d="M249 668v-100h-240v100h240zM200 0h-142v490h142v-490z" />
    <glyph glyph-name="Iogonek" unicode="&#x12e;" horiz-adv-x="298" 
d="M223 0h-148v635h148v-635zM238 -220h-89q-45 0 -73 15t-28 60v25q0 43 26 66l65 60l84 -6l-62 -80q-5 -6 -6.5 -8t-1.5 -9v-26q0 -7 7 -7h78v-90z" />
    <glyph glyph-name="iogonek" unicode="&#x12f;" horiz-adv-x="258" 
d="M200 0h-142v490h142v-490zM189 562h-120v129h120v-129zM215 -220h-89q-45 0 -73 15t-28 60v25q0 43 26 66l65 60l84 -6l-62 -80q-5 -6 -6.5 -8t-1.5 -9v-26q0 -7 7 -7h78v-90z" />
    <glyph glyph-name="Idotaccent" unicode="&#x130;" horiz-adv-x="298" 
d="M223 0h-148v635h148v-635zM209 697h-120v129h120v-129z" />
    <glyph glyph-name="dotlessi" unicode="&#x131;" horiz-adv-x="258" 
d="M200 0h-142v490h142v-490z" />
    <glyph glyph-name="uni0136" unicode="&#x136;" horiz-adv-x="520" 
d="M218 0h-148v635h148v-635zM319 307h-127v77h118q8 0 10 3.5t5 10.5l95 237h147l-91 -221q-14 -34 -26 -55.5t-27.5 -32.5t-40 -15t-63.5 -4zM311 255h-119v76h133q53 0 80.5 -8.5t44.5 -31.5t37 -67l102 -224h-156l-107 241q-3 8 -5 11t-10 3zM220 -126h51l-11 7
q0 -21 -9 -47t-29 -56l42 -34q35 34 55.5 71t20.5 80v112h-120v-133z" />
    <glyph glyph-name="uni0137" unicode="&#x137;" horiz-adv-x="486" 
d="M191 -177h49l-11 7q0 -20 -8 -45t-28 -53l40 -33q34 32 53.5 67t19.5 77v107h-115v-127zM190 0h-140v675h140v-675zM260 242h-118v75h108q12 0 15 14l40 159h142l-37 -138q-13 -49 -27.5 -72.5t-42 -30.5t-80.5 -7zM271 197h-129v75h139q53 0 81.5 -7.5t44 -31
t29.5 -71.5l48 -162h-146l-52 183q-2 8 -4.5 11t-10.5 3z" />
    <glyph glyph-name="Lacute" unicode="&#x139;" horiz-adv-x="434" 
d="M429 129v-129h-364v635h148v-526l-20 20h236zM71 686h102l102 166l-139 1z" />
    <glyph glyph-name="lacute" unicode="&#x13a;" horiz-adv-x="252" 
d="M197 0h-142v675h142v-675zM64 713h102l102 166l-139 1z" />
    <glyph glyph-name="uni013B" unicode="&#x13b;" horiz-adv-x="376" 
d="M429 129v-129h-364v635h148v-526l-20 20h236zM174 -126h51l-11 7q0 -21 -9 -47t-29 -56l42 -34q35 34 55.5 71t20.5 80v112h-120v-133z" />
    <glyph glyph-name="uni013C" unicode="&#x13c;" horiz-adv-x="252" 
d="M68 -177h49l-11 7q0 -20 -8 -45t-28 -53l40 -33q34 32 53.5 67t19.5 77v107h-115v-127zM197 0h-142v675h142v-675z" />
    <glyph glyph-name="Lcaron" unicode="&#x13d;" horiz-adv-x="376" 
d="M429 129v-129h-364v635h148v-526l-20 20h236zM239 550h51l-11 7q0 -21 -9 -47t-29 -56l42 -34q35 34 55.5 71t20.5 80v112h-120v-133z" />
    <glyph glyph-name="lcaron" unicode="&#x13e;" horiz-adv-x="353" 
d="M243 555h46l-10 6q0 -19 -8 -42.5t-27 -50.5l38 -31q32 31 50.5 64t18.5 73v101h-108v-120zM197 0h-142v675h142v-675z" />
    <glyph glyph-name="Lslash" unicode="&#x141;" horiz-adv-x="434" 
d="M429 129v-129h-364v635h148v-526l-20 20h236z" />
    <glyph glyph-name="lslash" unicode="&#x142;" horiz-adv-x="262" 
d="M244 420l28 -84l-254 -93l-28 85zM200 0h-142v675h142v-675z" />
    <glyph glyph-name="Nacute" unicode="&#x143;" horiz-adv-x="600" 
d="M418 225v410h127v-635h-105l-279 412h21v-412h-127v635h104l279 -410h-20zM238 686h102l102 166l-139 1z" />
    <glyph glyph-name="nacute" unicode="&#x144;" horiz-adv-x="485" 
d="M289 500h26q68 0 99 -28.5t31 -96.5v-375h-142v371q0 14 -14 14h-83q-14 0 -14 -14l2 -371h-142l-2 490h129l13 -105h-5q0 53 24.5 84t77.5 31zM201 551h102l102 166l-139 1z" />
    <glyph glyph-name="uni0145" unicode="&#x145;" horiz-adv-x="555" 
d="M418 225v410h127v-635h-105l-279 412h21v-412h-127v635h104l279 -410h-20zM230 -126h51l-11 7q0 -21 -9 -47t-29 -56l42 -34q35 34 55.5 71t20.5 80v112h-120v-133z" />
    <glyph glyph-name="uni0146" unicode="&#x146;" horiz-adv-x="485" 
d="M189 -177h49l-11 7q0 -20 -8 -45t-28 -53l40 -33q34 32 53.5 67t19.5 77v107h-115v-127zM289 500h26q68 0 99 -28.5t31 -96.5v-375h-142v371q0 14 -14 14h-83q-14 0 -14 -14l2 -371h-142l-2 490h129l13 -105h-5q0 53 24.5 84t77.5 31z" />
    <glyph glyph-name="Ncaron" unicode="&#x147;" horiz-adv-x="600" 
d="M223 691l-96 162h115l59 -107h-13l67 107h111l-102 -162h-141zM418 225v410h127v-635h-105l-279 412h21v-412h-127v635h104l279 -410h-20z" />
    <glyph glyph-name="ncaron" unicode="&#x148;" horiz-adv-x="485" 
d="M181 556l-96 162h115l59 -107h-13l67 107h111l-102 -162h-141zM289 500h26q68 0 99 -28.5t31 -96.5v-375h-142v371q0 14 -14 14h-83q-14 0 -14 -14l2 -371h-142l-2 490h129l13 -105h-5q0 53 24.5 84t77.5 31z" />
    <glyph glyph-name="Omacron" unicode="&#x14c;" horiz-adv-x="600" 
d="M381 512h-162q-14 0 -14 -14v-361q0 -14 14 -14h162q14 0 14 14v361q0 14 -14 14zM55 150v335q0 79 45 119.5t135 40.5h130q90 0 135 -40.5t45 -119.5v-335q0 -79 -45 -119.5t-135 -40.5h-130q-90 0 -135 40.5t-45 119.5zM443 803v-100h-282v100h282z" />
    <glyph glyph-name="omacron" unicode="&#x14d;" horiz-adv-x="478" 
d="M281 380h-84q-14 0 -14 -14v-242q0 -14 14 -14h84q14 0 14 14v242q0 14 -14 14zM40 140v210q0 79 40 114.5t130 35.5h58q90 0 130 -35.5t40 -114.5v-210q0 -79 -40 -114.5t-130 -35.5h-58q-90 0 -130 35.5t-40 114.5zM383 668v-100h-282v100h282z" />
    <glyph glyph-name="Ohungarumlaut" unicode="&#x150;" horiz-adv-x="600" 
d="M381 512h-162q-14 0 -14 -14v-361q0 -14 14 -14h162q14 0 14 14v361q0 14 -14 14zM55 150v335q0 79 45 119.5t135 40.5h130q90 0 135 -40.5t45 -119.5v-335q0 -79 -45 -119.5t-135 -40.5h-130q-90 0 -135 40.5t-45 119.5zM167 686h98l95 166l-132 1zM340 686h98l103 166
l-135 1z" />
    <glyph glyph-name="ohungarumlaut" unicode="&#x151;" horiz-adv-x="478" 
d="M281 380h-84q-14 0 -14 -14v-242q0 -14 14 -14h84q14 0 14 14v242q0 14 -14 14zM40 140v210q0 79 40 114.5t130 35.5h58q90 0 130 -35.5t40 -114.5v-210q0 -79 -40 -114.5t-130 -35.5h-58q-90 0 -130 35.5t-40 114.5zM107 551h98l95 166l-132 1zM280 551h98l103 166
l-135 1z" />
    <glyph glyph-name="OE" unicode="&#x152;" horiz-adv-x="817" 
d="M787 0l-549 -5q-90 -1 -135 40t-45 120v325q0 79 44.5 120t135.5 40l544 -5v-129h-256l20 20v-161l-20 20h236v-127h-236l20 20v-169l-20 20h261v-129zM418 128l-20 -24v423l20 -20h-196q-14 0 -14 -14v-351q0 -14 14 -14h196z" />
    <glyph glyph-name="oe" unicode="&#x153;" horiz-adv-x="714" 
d="M283 380h-86q-14 0 -14 -14v-242q0 -14 14 -14h86q14 0 14 14v242q0 14 -14 14zM354 57h28q-15 -34 -48 -50.5t-91 -16.5h-33q-90 0 -130 35.5t-40 114.5v210q0 79 40 114.5t130 35.5h33q56 0 87.5 -13t46.5 -39h-27q11 27 39 39.5t82 12.5h58q83 0 116.5 -30.5
t33.5 -109.5v-178h-259v100h119v89q0 14 -14 14h-75q-14 0 -14 -14v-243q0 -14 14 -14h214v-120h-173q-55 0 -88 16t-49 47z" />
    <glyph glyph-name="Racute" unicode="&#x154;" horiz-adv-x="571" 
d="M218 0h-148v635l270 5q90 2 137.5 -42t47.5 -123v-77q0 -59 -33 -104.5t-97 -60.5v29q37 -7 58.5 -26.5t35.5 -59.5l62 -176h-148l-69 211q-3 8 -5.5 12t-11.5 4h-119l20 23v-250zM218 535v-200l-20 20h163q14 0 14 14v128q0 14 -14 14h-163zM214 686h102l102 166l-139 1
z" />
    <glyph glyph-name="racute" unicode="&#x155;" horiz-adv-x="307" 
d="M286 500h25v-125h-108q-14 0 -14 -14l2 -361h-142l-2 490h129l13 -105h-5q0 53 24.5 84t77.5 31zM70 551h102l102 166l-139 1z" />
    <glyph glyph-name="uni0156" unicode="&#x156;" horiz-adv-x="511" 
d="M218 0h-148v635l270 5q90 2 137.5 -42t47.5 -123v-77q0 -59 -33 -104.5t-97 -60.5v29q37 -7 58.5 -26.5t35.5 -59.5l62 -176h-148l-69 211q-3 8 -5.5 12t-11.5 4h-119l20 23v-250zM218 535v-200l-20 20h163q14 0 14 14v128q0 14 -14 14h-163zM220 -126h51l-11 7
q0 -21 -9 -47t-29 -56l42 -34q35 34 55.5 71t20.5 80v112h-120v-133z" />
    <glyph glyph-name="uni0157" unicode="&#x157;" horiz-adv-x="307" 
d="M65 -177h49l-11 7q0 -20 -8 -45t-28 -53l40 -33q34 32 53.5 67t19.5 77v107h-115v-127zM286 500h25v-125h-108q-14 0 -14 -14l2 -361h-142l-2 490h129l13 -105h-5q0 53 24.5 84t77.5 31z" />
    <glyph glyph-name="Rcaron" unicode="&#x158;" horiz-adv-x="571" 
d="M199 691l-96 162h115l59 -107h-13l67 107h111l-102 -162h-141zM218 0h-148v635l270 5q90 2 137.5 -42t47.5 -123v-77q0 -59 -33 -104.5t-97 -60.5v29q37 -7 58.5 -26.5t35.5 -59.5l62 -176h-148l-69 211q-3 8 -5.5 12t-11.5 4h-119l20 23v-250zM218 535v-200l-20 20h163
q14 0 14 14v128q0 14 -14 14h-163z" />
    <glyph glyph-name="rcaron" unicode="&#x159;" horiz-adv-x="307" 
d="M98 556l-96 162h115l59 -107h-13l67 107h111l-102 -162h-141zM286 500h25v-125h-108q-14 0 -14 -14l2 -361h-142l-2 490h129l13 -105h-5q0 53 24.5 84t77.5 31z" />
    <glyph glyph-name="Sacute" unicode="&#x15a;" horiz-adv-x="490" 
d="M191 386h89q90 0 137.5 -44.5t47.5 -123.5v-58q0 -79 -47.5 -123t-137.5 -42l-237 5v129h258q14 0 14 14v95q0 14 -14 14h-89q-90 0 -137.5 44.5t-47.5 123.5v55q0 79 47.5 123t137.5 42l229 -5v-129h-250q-14 0 -14 -14v-92q0 -14 14 -14zM190 686h102l102 166l-139 1z
" />
    <glyph glyph-name="sacute" unicode="&#x15b;" horiz-adv-x="409" 
d="M259 -1h-218l-1 115h195q14 0 14 14v50q0 14 -14 14h-55q-82 0 -116 30.5t-34 105.5v27q0 79 36.5 112.5t118.5 32.5l174 -1v-120l-172 1q-14 0 -14 -14v-48q0 -14 14 -14h52q83 0 116.5 -30t33.5 -105v-45q0 -67 -31 -96t-99 -29zM151 551h102l102 166l-139 1z" />
    <glyph glyph-name="uni015E" unicode="&#x15e;" horiz-adv-x="490" 
d="M191 386h89q90 0 137.5 -44.5t47.5 -123.5v-58q0 -79 -47.5 -123t-137.5 -42l-237 5v129h258q14 0 14 14v95q0 14 -14 14h-89q-90 0 -137.5 44.5t-47.5 123.5v55q0 79 47.5 123t137.5 42l229 -5v-129h-250q-14 0 -14 -14v-92q0 -14 14 -14zM252 -140v30q0 7 -7 7h-81
l25 119l63 -11l-8 -43h7q38 0 59 -14t21 -50v-38q0 -80 -89 -80h-88v73h91q7 0 7 7z" />
    <glyph glyph-name="uni015F" unicode="&#x15f;" horiz-adv-x="409" 
d="M259 -1h-218l-1 115h195q14 0 14 14v50q0 14 -14 14h-55q-82 0 -116 30.5t-34 105.5v27q0 79 36.5 112.5t118.5 32.5l174 -1v-120l-172 1q-14 0 -14 -14v-48q0 -14 14 -14h52q83 0 116.5 -30t33.5 -105v-45q0 -67 -31 -96t-99 -29zM226 -140v30q0 7 -7 7h-81l25 119
l63 -11l-8 -43h7q38 0 59 -14t21 -50v-38q0 -80 -89 -80h-88v73h91q7 0 7 7z" />
    <glyph glyph-name="Scaron" unicode="&#x160;" horiz-adv-x="490" 
d="M175 691l-96 162h115l59 -107h-13l67 107h111l-102 -162h-141zM191 386h89q90 0 137.5 -44.5t47.5 -123.5v-58q0 -79 -47.5 -123t-137.5 -42l-237 5v129h258q14 0 14 14v95q0 14 -14 14h-89q-90 0 -137.5 44.5t-47.5 123.5v55q0 79 47.5 123t137.5 42l229 -5v-129h-250
q-14 0 -14 -14v-92q0 -14 14 -14z" />
    <glyph glyph-name="scaron" unicode="&#x161;" horiz-adv-x="409" 
d="M144 556l-96 162h115l59 -107h-13l67 107h111l-102 -162h-141zM259 -1h-218l-1 115h195q14 0 14 14v50q0 14 -14 14h-55q-82 0 -116 30.5t-34 105.5v27q0 79 36.5 112.5t118.5 32.5l174 -1v-120l-172 1q-14 0 -14 -14v-48q0 -14 14 -14h52q83 0 116.5 -30t33.5 -105v-45
q0 -67 -31 -96t-99 -29z" />
    <glyph glyph-name="uni0162" unicode="&#x162;" horiz-adv-x="446" 
d="M297 0h-148v526l20 -20h-164v129h436v-129h-164l20 20v-526zM236 -140v30q0 7 -7 7h-81l25 119l63 -11l-8 -43h7q38 0 59 -14t21 -50v-38q0 -80 -89 -80h-88v73h91q7 0 7 7z" />
    <glyph glyph-name="uni0163" unicode="&#x163;" horiz-adv-x="333" 
d="M324 490v-110h-120l10 10v-256q0 -14 14 -14h96v-120h-82q-90 0 -130 35.5t-40 114.5v240l10 -10h-60v110h60l-10 -10v135h142v-135l-10 10h120zM210 -140v30q0 7 -7 7h-81l25 119l63 -11l-8 -43h7q38 0 59 -14t21 -50v-38q0 -80 -89 -80h-88v73h91q7 0 7 7z" />
    <glyph glyph-name="Tcaron" unicode="&#x164;" horiz-adv-x="446" 
d="M156 681l-96 162h115l59 -107h-13l67 107h111l-102 -162h-141zM297 0h-148v526l20 -20h-164v129h436v-129h-164l20 20v-526z" />
    <glyph glyph-name="tcaron" unicode="&#x165;" horiz-adv-x="357" 
d="M244 627h44l-10 6q0 -18 -7.5 -40.5t-24.5 -48.5l36 -29q30 29 47.5 60.5t17.5 69.5v95h-103v-113zM324 490v-110h-120l10 10v-256q0 -14 14 -14h96v-120h-82q-90 0 -130 35.5t-40 114.5v240l10 -10h-60v110h60l-10 -10v135h142v-135l-10 10h120z" />
    <glyph glyph-name="Umacron" unicode="&#x16a;" horiz-adv-x="596" 
d="M361 -10h-126q-90 0 -135 40.5t-45 119.5v485h150v-498q0 -14 14 -14h158q14 0 14 14v498h150v-485q0 -79 -45 -119.5t-135 -40.5zM439 803v-100h-282v100h282z" />
    <glyph glyph-name="umacron" unicode="&#x16b;" horiz-adv-x="485" 
d="M196 -10h-26q-67 0 -98.5 29t-31.5 96v375h142v-371q0 -14 14 -14h97l-2 385h142l2 -490h-129l-13 105h5q0 -52 -24.5 -83.5t-77.5 -31.5zM371 668v-100h-282v100h282z" />
    <glyph glyph-name="Uring" unicode="&#x16e;" horiz-adv-x="596" 
d="M361 -10h-126q-90 0 -135 40.5t-45 119.5v485h150v-498q0 -14 14 -14h158q14 0 14 14v498h150v-485q0 -79 -45 -119.5t-135 -40.5zM417 774q0 -58 -24.5 -84t-89.5 -26q-64 0 -87.5 26t-23.5 84q0 60 23.5 85t87.5 25q65 0 89.5 -25t24.5 -85zM259 774q0 -26 8.5 -37.5
t35.5 -11.5q28 0 37.5 11.5t9.5 37.5q0 29 -9.5 39t-37.5 10q-27 0 -35.5 -10t-8.5 -39z" />
    <glyph glyph-name="uring" unicode="&#x16f;" horiz-adv-x="485" 
d="M196 -10h-26q-67 0 -98.5 29t-31.5 96v375h142v-371q0 -14 14 -14h97l-2 385h142l2 -490h-129l-13 105h5q0 -52 -24.5 -83.5t-77.5 -31.5zM349 639q0 -58 -24.5 -84t-89.5 -26q-64 0 -87.5 26t-23.5 84q0 60 23.5 85t87.5 25q65 0 89.5 -25t24.5 -85zM191 639
q0 -26 8.5 -37.5t35.5 -11.5q28 0 37.5 11.5t9.5 37.5q0 29 -9.5 39t-37.5 10q-27 0 -35.5 -10t-8.5 -39z" />
    <glyph glyph-name="Uhungarumlaut" unicode="&#x170;" horiz-adv-x="596" 
d="M361 -10h-126q-90 0 -135 40.5t-45 119.5v485h150v-498q0 -14 14 -14h158q14 0 14 14v498h150v-485q0 -79 -45 -119.5t-135 -40.5zM163 686h98l95 166l-132 1zM336 686h98l103 166l-135 1z" />
    <glyph glyph-name="uhungarumlaut" unicode="&#x171;" horiz-adv-x="485" 
d="M196 -10h-26q-67 0 -98.5 29t-31.5 96v375h142v-371q0 -14 14 -14h97l-2 385h142l2 -490h-129l-13 105h5q0 -52 -24.5 -83.5t-77.5 -31.5zM95 551h98l95 166l-132 1zM268 551h98l103 166l-135 1z" />
    <glyph glyph-name="Uogonek" unicode="&#x172;" horiz-adv-x="596" 
d="M361 -10h-126q-90 0 -135 40.5t-45 119.5v485h150v-498q0 -14 14 -14h158q14 0 14 14v498h150v-485q0 -79 -45 -119.5t-135 -40.5zM387 -223h-89q-45 0 -73 15t-28 60v25q0 43 26 66l65 60l84 -6l-62 -80q-5 -6 -6.5 -8t-1.5 -9v-26q0 -7 7 -7h78v-90z" />
    <glyph glyph-name="uogonek" unicode="&#x173;" horiz-adv-x="485" 
d="M196 -10h-26q-67 0 -98.5 29t-31.5 96v375h142v-371q0 -14 14 -14h97l-2 385h142l2 -490h-129l-13 105h5q0 -52 -24.5 -83.5t-77.5 -31.5zM450 -220h-89q-45 0 -73 15t-28 60v25q0 43 26 66l65 60l84 -6l-62 -80q-5 -6 -6.5 -8t-1.5 -9v-26q0 -7 7 -7h78v-90z" />
    <glyph glyph-name="Ydieresis" unicode="&#x178;" horiz-adv-x="557" 
d="M307 358l96 277h147l-114 -310q-17 -46 -32.5 -69.5t-43 -31.5t-80.5 -8h-3q-52 0 -82 10t-47.5 34t-32.5 66l-110 309h155l94 -277q4 -13 16 -13h21q12 0 16 13zM349 0h-148v308h148v-308zM246 701h-115v119h115v-119zM436 701h-115v119h115v-119z" />
    <glyph glyph-name="Zacute" unicode="&#x179;" horiz-adv-x="486" 
d="M465 119l-1 -120h-359q-49 0 -72 30.5t-23 79.5l290 389q5 7 2 13t-11 6l-249 -1v120l335 1q56 0 81 -33.5t25 -86.5l-285 -378q-4 -6 -2.5 -13t9.5 -7h260zM194 686h102l102 166l-139 1z" />
    <glyph glyph-name="zacute" unicode="&#x17a;" horiz-adv-x="377" 
d="M360 110l-1 -110h-260q-49 0 -72 25.5t-23 74.5l192 261q5 7 2 13t-11 6h-161v110h238q56 0 81 -28.5t25 -81.5l-187 -250q-5 -7 -3 -13.5t10 -6.5h170zM137 551h102l102 166l-139 1z" />
    <glyph glyph-name="Zdotaccent" unicode="&#x17b;" horiz-adv-x="486" 
d="M465 119l-1 -120h-359q-49 0 -72 30.5t-23 79.5l290 389q5 7 2 13t-11 6l-249 -1v120l335 1q56 0 81 -33.5t25 -86.5l-285 -378q-4 -6 -2.5 -13t9.5 -7h260zM306 697h-120v129h120v-129z" />
    <glyph glyph-name="zdotaccent" unicode="&#x17c;" horiz-adv-x="377" 
d="M360 110l-1 -110h-260q-49 0 -72 25.5t-23 74.5l192 261q5 7 2 13t-11 6h-161v110h238q56 0 81 -28.5t25 -81.5l-187 -250q-5 -7 -3 -13.5t10 -6.5h170zM249 562h-120v129h120v-129z" />
    <glyph glyph-name="Zcaron" unicode="&#x17d;" horiz-adv-x="486" 
d="M179 691l-96 162h115l59 -107h-13l67 107h111l-102 -162h-141zM465 119l-1 -120h-359q-49 0 -72 30.5t-23 79.5l290 389q5 7 2 13t-11 6l-249 -1v120l335 1q56 0 81 -33.5t25 -86.5l-285 -378q-4 -6 -2.5 -13t9.5 -7h260z" />
    <glyph glyph-name="zcaron" unicode="&#x17e;" horiz-adv-x="377" 
d="M122 556l-96 162h115l59 -107h-13l67 107h111l-102 -162h-141zM360 110l-1 -110h-260q-49 0 -72 25.5t-23 74.5l192 261q5 7 2 13t-11 6h-161v110h238q56 0 81 -28.5t25 -81.5l-187 -250q-5 -7 -3 -13.5t10 -6.5h170z" />
    <glyph glyph-name="florin" unicode="&#x192;" horiz-adv-x="419" 
d="M83 -190l-77 1v120l76 -1q13 0 14 14l32 386l20 -20h-70v110h76l-20 -20l12 140q7 78 40 112t115 33l102 -1v-120l-101 1q-13 0 -14 -14l-12 -151l-20 20h109v-110h-115l20 20l-32 -375q-7 -79 -39.5 -112.5t-115.5 -32.5z" />
    <glyph glyph-name="uni0218" unicode="&#x218;" horiz-adv-x="466" 
d="M191 386h89q90 0 137.5 -44.5t47.5 -123.5v-58q0 -79 -47.5 -123t-137.5 -42l-237 5v129h258q14 0 14 14v95q0 14 -14 14h-89q-90 0 -137.5 44.5t-47.5 123.5v55q0 79 47.5 123t137.5 42l229 -5v-129h-250q-14 0 -14 -14v-92q0 -14 14 -14zM190 -126h51l-11 7
q0 -21 -9 -47t-29 -56l42 -34q35 34 55.5 71t20.5 80v112h-120v-133z" />
    <glyph glyph-name="uni0219" unicode="&#x219;" horiz-adv-x="409" 
d="M153 -177h49l-11 7q0 -20 -8 -45t-28 -53l40 -33q34 32 53.5 67t19.5 77v107h-115v-127zM259 -1h-218l-1 115h195q14 0 14 14v50q0 14 -14 14h-55q-82 0 -116 30.5t-34 105.5v27q0 79 36.5 112.5t118.5 32.5l174 -1v-120l-172 1q-14 0 -14 -14v-48q0 -14 14 -14h52
q83 0 116.5 -30t33.5 -105v-45q0 -67 -31 -96t-99 -29z" />
    <glyph glyph-name="uni021A" unicode="&#x21a;" horiz-adv-x="390" 
d="M297 0h-148v526l20 -20h-164v129h436v-129h-164l20 20v-526zM152 -126h51l-11 7q0 -21 -9 -47t-29 -56l42 -34q35 34 55.5 71t20.5 80v112h-120v-133z" />
    <glyph glyph-name="uni021B" unicode="&#x21b;" horiz-adv-x="333" 
d="M138 -177h49l-11 7q0 -20 -8 -45t-28 -53l40 -33q34 32 53.5 67t19.5 77v107h-115v-127zM324 490v-110h-120l10 10v-256q0 -14 14 -14h96v-120h-82q-90 0 -130 35.5t-40 114.5v240l10 -10h-60v110h60l-10 -10v135h142v-135l-10 10h120z" />
    <glyph glyph-name="circumflex" unicode="&#x2c6;" horiz-adv-x="449" 
d="M300 713l96 -162h-115l-59 107h13l-67 -107h-111l102 162h141z" />
    <glyph glyph-name="caron" unicode="&#x2c7;" horiz-adv-x="449" 
d="M149 556l-96 162h115l59 -107h-13l67 107h111l-102 -162h-141z" />
    <glyph glyph-name="uni02C9" unicode="&#x2c9;" horiz-adv-x="362" 
d="M322 668v-100h-282v100h282z" />
    <glyph glyph-name="breve" unicode="&#x2d8;" horiz-adv-x="348" 
d="M45 699h87q0 -28 11 -45.5t50 -17.5q36 0 46 17.5t10 45.5h86q0 -50 -12 -82.5t-42.5 -48.5t-87.5 -16q-60 0 -92 16t-44 49t-12 82z" />
    <glyph glyph-name="dotaccent" unicode="&#x2d9;" horiz-adv-x="200" 
d="M160 562h-120v129h120v-129z" />
    <glyph glyph-name="ring" unicode="&#x2da;" horiz-adv-x="385" 
d="M312 639q0 -58 -24.5 -84t-89.5 -26q-64 0 -87.5 26t-23.5 84q0 60 23.5 85t87.5 25q65 0 89.5 -25t24.5 -85zM154 639q0 -26 8.5 -37.5t35.5 -11.5q28 0 37.5 11.5t9.5 37.5q0 29 -9.5 39t-37.5 10q-27 0 -35.5 -10t-8.5 -39z" />
    <glyph glyph-name="ogonek" unicode="&#x2db;" horiz-adv-x="392" 
d="M305 -220h-89q-45 0 -73 15t-28 60v25q0 43 26 66l65 60l84 -6l-62 -80q-5 -6 -6.5 -8t-1.5 -9v-26q0 -7 7 -7h78v-90z" />
    <glyph glyph-name="tilde" unicode="&#x2dc;" horiz-adv-x="457" 
d="M147 563l-83 1q0 77 20.5 105.5t59.5 28.5q26 0 49.5 -9.5t44 -19.5t37.5 -10q16 0 21.5 10t5.5 30h84q0 -73 -23.5 -103.5t-62.5 -30.5q-25 0 -49 10t-45 19.5t-36 9.5q-13 0 -18 -10t-5 -31z" />
    <glyph glyph-name="hungarumlaut" unicode="&#x2dd;" horiz-adv-x="459" 
d="M69 551h98l95 166l-132 1zM242 551h98l103 166l-135 1z" />
    <glyph glyph-name="pi" unicode="&#x3c0;" horiz-adv-x="530" 
d="M210 0h-142v390l10 -10h-65v110h504v-110h-65l10 10v-390h-142v390l10 -10h-130l10 10v-390z" />
    <glyph glyph-name="sinCandrabindu" unicode="&#xd81;" horiz-adv-x="0" 
d="M-326 885v-94h102v94h-102zM-59 884h-124v-90q0 -17 -4 -21.5t-21 -4.5h-142q-18 0 -21 5t-3 18v93h-124v-175q0 -27 12 -37.5t34 -10.5h338q26 0 37.5 9t14.5 23.5t3 28.5v162z" />
    <glyph glyph-name="sinAnusvara" unicode="&#xd82;" horiz-adv-x="417" 
d="M76 18h254q32 0 44 14.5t12 40.5v315q0 26 -11.5 42t-43.5 16h-247q-33 0 -47.5 -16.5t-14.5 -40.5v-320q0 -27 14.5 -39t39.5 -12zM146 324q0 20 21 20h73q14 0 18 -4.5t4 -15.5v-179q0 -20 -21 -20h-72q-13 0 -18 4.5t-5 14.5v180z" />
    <glyph glyph-name="sinVisarga" unicode="&#xd83;" horiz-adv-x="276" 
d="M32 204q0 14 16 14h176q16 0 16 -14v-192q0 -12 -14 -12h-179q-15 0 -15 13v191zM112 142q-7 0 -7 -6v-48q0 -7 7 -7h45q7 0 7 7v48q0 6 -7 6h-45zM32 484q0 14 16 14h176q16 0 16 -14v-192q0 -12 -14 -12h-179q-15 0 -15 13v191zM112 422q-7 0 -7 -6v-48q0 -7 7 -7h45
q7 0 7 7v48q0 6 -7 6h-45z" />
    <glyph glyph-name="sinA" unicode="&#xd85;" horiz-adv-x="542" 
d="M270 429v-322h-107q-8 0 -12.5 5.5t-4.5 15.5v100q0 15 4 20t19 5h72v178q0 32 -20 49t-52 17h-147v-103h107q12 0 16.5 -3t4.5 -14v-22h-73q-55 0 -55 -56v-248q0 -28 10 -39.5t38 -11.5h200v-140h124v140h117v107h-117v64h69q25 0 37.5 14t12.5 39v98q0 27 -11.5 43.5
t-23 26.5t-11.5 17q0 3 2 6.5t11 3.5h36v78h-184q-24 0 -43 -18t-19 -50zM393 265v111q0 13 4.5 18t11.5 6q-2 -3 -2 -8q0 -8 5.5 -17t10.5 -20t5 -26v-43q0 -12 -3 -16.5t-15 -4.5h-17z" />
    <glyph glyph-name="sinAa" unicode="&#xd86;" horiz-adv-x="781" 
d="M561 497v-103h38q18 0 18 -17v-251q0 -9 -4 -14t-14 -5h-38v-107h139q41 0 41 38v417q0 20 -9.5 31t-31.5 11h-139zM270 429v-322h-107q-8 0 -12.5 5.5t-4.5 15.5v100q0 15 4 20t19 5h72v178q0 32 -20 49t-52 17h-147v-103h107q12 0 16.5 -3t4.5 -14v-22h-73
q-55 0 -55 -56v-248q0 -28 10 -39.5t38 -11.5h200v-140h124v140h117v107h-117v64h69q25 0 37.5 14t12.5 39v98q0 27 -11.5 43.5t-23 26.5t-11.5 17q0 3 2 6.5t11 3.5h36v78h-184q-24 0 -43 -18t-19 -50zM393 265v111q0 13 4.5 18t11.5 6q-2 -3 -2 -8q0 -8 5.5 -17t10.5 -20
t5 -26v-43q0 -12 -3 -16.5t-15 -4.5h-17z" />
    <glyph glyph-name="sinAe" unicode="&#xd87;" horiz-adv-x="804" 
d="M270 429v-322h-107q-8 0 -12.5 5.5t-4.5 15.5v100q0 15 4 20t19 5h72v178q0 32 -20 49t-52 17h-147v-103h107q12 0 16.5 -3t4.5 -14v-22h-73q-55 0 -55 -56v-248q0 -28 10 -39.5t38 -11.5h200v-140h124v140h117v107h-117v64h69q25 0 37.5 14t12.5 39v98q0 27 -11.5 43.5
t-23 26.5t-11.5 17q0 3 2 6.5t11 3.5h36v78h-184q-24 0 -43 -18t-19 -50zM393 265v111q0 13 4.5 18t11.5 6q-2 -3 -2 -8q0 -8 5.5 -17t10.5 -20t5 -26v-43q0 -12 -3 -16.5t-15 -4.5h-17zM566 497v-103h76l-62 -138q-8 -17 -11 -33.5t-3 -38.5v-148q0 -18 9.5 -27t25.5 -9
h163v107h-54q-20 0 -20 19v52q0 14 2 26t6 23l66 161v109h-198z" />
    <glyph glyph-name="sinAae" unicode="&#xd88;" horiz-adv-x="800" 
d="M563 497v-102h61l-61 -42v-89h68l-48 -48q-13 -13 -16.5 -27t-3.5 -33v-120q0 -36 30 -36h166v107h-55q-12 0 -14.5 3t-2.5 16v30q0 14 2.5 25t12.5 23l57 67v85h-73l73 44v97h-196zM270 429v-322h-107q-8 0 -12.5 5.5t-4.5 15.5v100q0 15 4 20t19 5h72v178q0 32 -20 49
t-52 17h-147v-103h107q12 0 16.5 -3t4.5 -14v-22h-73q-55 0 -55 -56v-248q0 -28 10 -39.5t38 -11.5h200v-140h124v140h117v107h-117v64h69q25 0 37.5 14t12.5 39v98q0 27 -11.5 43.5t-23 26.5t-11.5 17q0 3 2 6.5t11 3.5h36v78h-184q-24 0 -43 -18t-19 -50zM393 265v111
q0 13 4.5 18t11.5 6q-2 -3 -2 -8q0 -8 5.5 -17t10.5 -20t5 -26v-43q0 -12 -3 -16.5t-15 -4.5h-17z" />
    <glyph glyph-name="sinI" unicode="&#xd89;" horiz-adv-x="519" 
d="M311 346h-112v-69q0 -12 -3 -16t-14 -4h-20q-10 0 -13 4t-3 16v99q0 18 22 18h179q9 0 13.5 -5t4.5 -15v-236q0 -15 -8 -23t-25 -8h-285v-107h277q15 0 19.5 -3t4.5 -10v-24q0 -9 -4.5 -11t-19.5 -2h-278v-109h370q29 0 42.5 14t13.5 46v109q0 18 -8 29.5t-20 20.5
q17 5 31 19t14 44v319q0 25 -14 40t-47 15h-345q-29 0 -45 -14.5t-16 -40.5v-232q0 -54 56 -54h180q25 0 39 12.5t14 37.5v140z" />
    <glyph glyph-name="sinIi" unicode="&#xd8a;" horiz-adv-x="451" 
d="M22 48v382q0 18 11.5 34t29.5 34l159 165h143l-153 -166h148q32 0 46.5 -16t14.5 -43v-377q0 -14 -3 -28.5t-15 -23.5t-37 -9h-298q-22 0 -34 10.5t-12 37.5zM146 367v-237q0 -13 3 -18t21 -5h102q17 0 21 4.5t4 21.5v239q0 14 -4.5 18t-20.5 4h-101q-17 0 -21 -5.5
t-4 -21.5zM22 663v-94h102v94h-102zM333 612v-94h102v94h-102z" />
    <glyph glyph-name="sinU" unicode="&#xd8b;" horiz-adv-x="521" 
d="M93 497v-103h259q9 0 12 -4.5t3 -10.5v-24h-271q-74 0 -74 -72v-369q0 -28 11.5 -47.5t42.5 -19.5h359q30 0 44.5 13t14.5 48v190h-124v-121q0 -10 -3.5 -15t-15.5 -5h-183q-14 0 -18 4.5t-4 18.5v242q0 21 5 26t26 5h314v185q0 30 -17.5 44.5t-47.5 14.5h-333z" />
    <glyph glyph-name="sinUu" unicode="&#xd8c;" horiz-adv-x="889" 
d="M546 497h71v-138q0 -13 1.5 -17.5t7.5 -4.5h12q7 0 8.5 6t1.5 18v96q0 21 5 30.5t22 9.5h155q19 0 30.5 -12t11.5 -29v-410q0 -22 -13.5 -34t-34.5 -12h-235q-18 0 -29 12t-11 35v125h134v-48q0 -11 2.5 -14t12.5 -3h48q11 0 11 17v256q0 14 -9 14h-10q-5 0 -7.5 -4
t-2.5 -12v-108q0 -20 -16.5 -27.5t-35.5 -7.5h-97q-33 0 -33 33v229zM93 497v-103h259q9 0 12 -4.5t3 -10.5v-24h-271q-74 0 -74 -72v-369q0 -28 11.5 -47.5t42.5 -19.5h359q30 0 44.5 13t14.5 48v190h-124v-121q0 -10 -3.5 -15t-15.5 -5h-183q-14 0 -18 4.5t-4 18.5v242
q0 21 5 26t26 5h314v185q0 30 -17.5 44.5t-47.5 14.5h-333z" />
    <glyph glyph-name="sinRVocalic" unicode="&#xd8d;" horiz-adv-x="909" 
d="M278 46q0 -20 16.5 -33t36.5 -13h153q28 0 39 13t11 41v242q0 32 -15.5 46t-48.5 14h-82v23q0 8 5.5 11.5t15.5 3.5h124v103h-169q-29 0 -50.5 -13t-21.5 -41v-190h95q11 0 17 -4.5t6 -12.5v-106q0 -23 -18 -23h-31q-13 0 -20 6.5t-7 19.5v57h-112v-57q0 -13 -6.5 -19.5
t-20.5 -6.5h-31q-18 0 -18 23v106q0 17 23 17h95v190q0 28 -21.5 41t-50.5 13h-169v-103h124q11 0 16 -3.5t5 -11.5v-23h-82q-33 0 -48.5 -14t-15.5 -46v-242q0 -28 11 -41t39 -13h153q20 0 36.5 13t16.5 33zM585 497v-103h149q15 0 18 -3.5t3 -18.5v-49h-128
q-17 0 -29.5 -10t-12.5 -33v-238q0 -42 37 -42h93q18 0 29.5 11t18.5 29l13 -40h103v450q0 47 -49 47h-245zM755 224v-90q0 -10 -5 -18.5t-14 -8.5h-12q-10 0 -12.5 3.5t-2.5 12.5v85q0 9 3 12.5t11 3.5h32z" />
    <glyph glyph-name="sinRrVocalic" unicode="&#xd8e;" horiz-adv-x="1243" 
d="M278 46q0 -20 16.5 -33t36.5 -13h153q28 0 39 13t11 41v242q0 32 -15.5 46t-48.5 14h-82v23q0 8 5.5 11.5t15.5 3.5h124v103h-169q-29 0 -50.5 -13t-21.5 -41v-190h95q11 0 17 -4.5t6 -12.5v-106q0 -23 -18 -23h-31q-13 0 -20 6.5t-7 19.5v57h-112v-57q0 -13 -6.5 -19.5
t-20.5 -6.5h-31q-18 0 -18 23v106q0 17 23 17h95v190q0 28 -21.5 41t-50.5 13h-169v-103h124q11 0 16 -3.5t5 -11.5v-23h-82q-33 0 -48.5 -14t-15.5 -46v-242q0 -28 11 -41t39 -13h153q20 0 36.5 13t16.5 33zM919 497v-103h149q15 0 18 -3.5t3 -18.5v-49h-128
q-17 0 -29.5 -10t-12.5 -33v-238q0 -42 37 -42h92q18 0 29.5 11t18.5 29l14 -40h103v450q0 47 -49 47h-245zM1089 224v-90q0 -10 -5 -18.5t-14 -8.5h-12q-10 0 -12.5 3.5t-2.5 12.5v85q0 9 3 12.5t10 3.5h33zM580 497v-103h149q15 0 18 -3.5t3 -18.5v-49h-128
q-17 0 -29.5 -10t-12.5 -33v-238q0 -42 37 -42h92q18 0 29.5 11t18.5 29l14 -40h103v450q0 47 -49 47h-245zM750 224v-90q0 -10 -5 -18.5t-14 -8.5h-12q-10 0 -12.5 3.5t-2.5 12.5v85q0 9 3 12.5t10 3.5h33z" />
    <glyph glyph-name="sinLlVocalic" unicode="&#xd90;" horiz-adv-x="1230" 
d="M744 128v-26q0 -3 -2.5 -4.5t-7.5 -1.5h-40q-4 0 -6.5 1.5t-2.5 5.5v25q0 4 2.5 5.5t6.5 1.5h41q5 0 7 -1.5t2 -5.5zM536 495h92v14q0 5 4.5 8t14.5 3h69q13 0 19.5 -6t6.5 -18v-288q-1 2 -3 2.5t-4 0.5h-55q-20 0 -33.5 -9.5t-13.5 -35.5v-113q0 -20 18.5 -29.5
t35.5 -9.5h98q54 0 54 64v449q0 28 -18.5 51t-60.5 23h-157q-41 0 -54 -16t-13 -47v-43zM117 128q0 4 2.5 5.5t6.5 1.5h41q5 0 7 -1.5t2 -5.5v-25q0 -4 -2 -5.5t-7 -1.5h-40q-5 0 -7.5 1.5t-2.5 4.5v26zM325 495v43q0 31 -13 47t-54 16h-157q-42 0 -60.5 -23t-18.5 -51v-449
q0 -64 54 -64h98q17 0 35.5 9.5t18.5 29.5v113q0 26 -13.5 35.5t-33.5 9.5h-56q-3 0 -4 -0.5t-2 -1.5v287q0 12 6.5 18t19.5 6h69q10 0 14.5 -3t4.5 -8v-14h92zM199 54q0 -28 11 -41t39 -13h60.5h60.5h60.5h60.5h60.5h60.5q28 0 39 13t11 41v246q0 56 -56 56h-66v24
q0 14 16 14h105v103h-145q-29 0 -50.5 -13t-21.5 -41v-190h73q11 0 16 -4.5t5 -14.5v-105q0 -11 -4.5 -16.5t-13.5 -5.5h-179q-9 0 -13.5 5.5t-4.5 16.5v105q0 10 6.5 14.5t14.5 4.5h73v190q0 28 -21.5 41t-50.5 13h-145v-103h105q8 0 12 -3.5t4 -10.5v-24h-66
q-56 0 -56 -56v-246zM877 497h71v-138q0 -13 1.5 -17.5t7.5 -4.5h12q7 0 8.5 6t1.5 18v96q0 21 5 30.5t22 9.5h155q19 0 30.5 -12t11.5 -29v-410q0 -22 -13.5 -34t-34.5 -12h-235q-18 0 -29 12t-11 35v125h134v-48q0 -11 2.5 -14t12.5 -3h48q11 0 11 17v256q0 14 -9 14h-10
q-5 0 -7.5 -4t-2.5 -12v-108q0 -20 -16.5 -27.5t-35.5 -7.5h-97q-33 0 -33 33v229z" />
    <glyph glyph-name="sinE" unicode="&#xd91;" horiz-adv-x="534" 
d="M241 576h2q2 0 4.5 -1t4.5 -2l109 -47q5 -2 10.5 -5.5t5.5 -9.5v-2h-114q-11 0 -16.5 2t-5.5 16v49zM504 494q0 39 -21.5 57t-48.5 30l-14.5 6.5t-36.5 16t-43.5 19t-36.5 16l-15 6.5q-32 14 -47 16.5t-38 2.5h-123v-87h51v-90q0 -27 10.5 -37t35.5 -10h202v-313
q0 -20 -19 -20h-174q-15 0 -19.5 5.5t-4.5 17.5v29q0 14 9.5 22.5t29.5 8.5h108v156q0 29 -14.5 45t-45.5 16h-208v-88h130q6 0 10 -3t4 -8v-21h-181v-91h60q-9 -5 -17.5 -16.5t-8.5 -34.5v-101q0 -23 13 -33.5t35 -10.5h372q22 0 34 14t12 37v443z" />
    <glyph glyph-name="sinEe" unicode="&#xd92;" horiz-adv-x="534" 
d="M388 708v-228h116v228h-116zM241 576h2q2 0 4.5 -1t4.5 -2l109 -47q5 -2 10.5 -5.5t5.5 -9.5v-2h-114q-11 0 -16.5 2t-5.5 16v49zM504 494q0 39 -21.5 57t-48.5 30l-14.5 6.5t-36.5 16t-43.5 19t-36.5 16l-15 6.5q-32 14 -47 16.5t-38 2.5h-123v-87h51v-90
q0 -27 10.5 -37t35.5 -10h202v-313q0 -20 -19 -20h-174q-15 0 -19.5 5.5t-4.5 17.5v29q0 14 9.5 22.5t29.5 8.5h108v156q0 29 -14.5 45t-45.5 16h-208v-88h130q6 0 10 -3t4 -8v-21h-181v-91h60q-9 -5 -17.5 -16.5t-8.5 -34.5v-101q0 -23 13 -33.5t35 -10.5h372q22 0 34 14
t12 37v443z" />
    <glyph glyph-name="sinAi" unicode="&#xd93;" horiz-adv-x="911" 
d="M341 497v-103h-172q-13 0 -18 -4.5t-5 -15.5v-248q0 -11 4 -15t14 -4h40q18 0 18 19v80q0 12 -3.5 16.5t-15.5 4.5h-20v99h110q53 0 53 -50v-227q0 -23 -13 -36t-38 -13h-227q-24 0 -35 12.5t-11 33.5v399q0 24 14 38t39 14h266zM618 576h2q2 0 4.5 -1t4.5 -2l109 -47
q5 -2 10.5 -5.5t5.5 -9.5v-2h-114q-11 0 -16.5 2t-5.5 16v49zM881 494q0 39 -21.5 57t-48.5 30l-14.5 6.5t-36.5 16t-43.5 19t-36.5 16l-15 6.5q-32 14 -47 16.5t-38 2.5h-123v-87h51v-90q0 -27 10.5 -37t35.5 -10h202v-313q0 -20 -19 -20h-174q-15 0 -19.5 5.5t-4.5 17.5
v29q0 14 9.5 22.5t29.5 8.5h108v156q0 29 -14.5 45t-45.5 16h-208v-88h130q6 0 10 -3t4 -8v-21h-181v-91h60q-9 -5 -17.5 -16.5t-8.5 -34.5v-101q0 -23 13 -33.5t35 -10.5h372q22 0 34 14t12 37v443z" />
    <glyph glyph-name="sinO" unicode="&#xd94;" 
d="M293 247q39 0 39 35v177h-69v-101q0 -11 -9 -11h-9q-9 0 -9 12v65q0 19 -11 27t-30 8h-114q-31 0 -45 -18t-14 -47v-346q0 -48 47 -48h137q17 0 30.5 11t16.5 26q10 -37 49 -37h136q25 0 36 13.5t11 36.5v510q0 37 -20.5 51.5t-52.5 14.5h-390v-116h308q18 0 24.5 -6
t6.5 -25v-351q0 -10 -4.5 -15.5t-12.5 -5.5h-18q-11 0 -17 7t-6 20v64h-99v-66q0 -13 -5.5 -19t-16.5 -6h-17q-9 0 -14 4.5t-5 14.5v220q0 10 10 10h9q9 0 9 -9v-70q0 -16 9.5 -23t25.5 -7h84z" />
    <glyph glyph-name="sinOo" unicode="&#xd95;" 
d="M485 400v77q0 43 -13.5 62t-55.5 19h-219q-8 0 -13 5t-5 12t7 10.5t20 3.5h277v84h-384q-49 0 -49 -41v-39q0 -16 11 -27t33 -16h-80v-86h321q14 0 20 -4.5t6 -18.5v-41h124zM361 416v-288q0 -10 -4.5 -15.5t-12.5 -5.5h-18q-11 0 -17 7t-6 20v47h-99v-49q0 -13 -5.5 -19
t-16.5 -6h-17q-9 0 -14 4.5t-5 14.5v187q0 10 10 10h9q9 0 9 -9v-57q0 -16 9.5 -23t25.5 -7h84q39 0 39 35v164h-69v-101q0 -11 -9 -11h-9q-9 0 -9 12v65q0 19 -11 27t-30 8h-114q-31 0 -45 -18t-14 -47v-313q0 -48 47 -48h137q17 0 30.5 11t16.5 26q10 -37 49 -37h136
q25 0 36 13t11 38v365h-124z" />
    <glyph glyph-name="sinAu" unicode="&#xd96;" horiz-adv-x="867" 
d="M541 497h41v-177q0 -13 4 -16.5t15 -3.5h36q11 0 16 4t5 16v133q0 22 9.5 33t26.5 11h95q19 0 30.5 -12t11.5 -29v-409q0 -22 -13.5 -34t-34.5 -12h-201q-18 0 -29 12t-11 35v103h46v-86q0 -14 5.5 -19.5t18.5 -5.5h152q22 0 22 26v371q0 21 -19 21h-49q-10 0 -14 -4.5
t-4 -18.5v-139q0 -20 -11.5 -27t-31.5 -7h-83q-33 0 -33 32v203zM283 251q39 0 39 35v173h-40v-153q0 -16 -14 -16h-54q-14 0 -14 16v118q0 20 -10.5 27.5t-30.5 7.5h-78q-31 0 -45 -18t-14 -47v-346q0 -48 47 -48h126q18 0 31 7.5t16 21.5q7 -29 49 -29h124q26 0 36.5 14
t10.5 36v510q0 37 -20.5 51.5t-52.5 14.5h-367v-40h352q23 0 33 -9t10 -32v-476q0 -15 -5.5 -22t-21.5 -7h-86q-18 0 -29 8t-11 36v94h-43v-95q0 -27 -11 -35t-28 -8h-88q-16 0 -21 6t-5 23v317q0 34 27 34h53q12 0 12 -14v-125q0 -16 9.5 -23t25.5 -7h88z" />
    <glyph glyph-name="sinKa" unicode="&#xd9a;" horiz-adv-x="592" 
d="M275 243v-113q0 -14 -2.5 -18.5t-10.5 -4.5h-11q-8 0 -11 4t-3 15v62h-68v-64q0 -9 -2.5 -13t-12.5 -4h-8q-9 0 -11.5 3.5t-2.5 16.5v54q0 18 4 28t8 13v14h-29l30 26h115q8 0 11.5 -5t3.5 -14zM221 459v2q0 7 -6 21.5t-30 14.5h-163v-103h85q10 0 17 -2.5t7 -9.5v-2
l-119 -104v-73h36q-10 -6 -18 -19t-8 -44v-90q0 -23 10 -36.5t34 -13.5h99q14 0 25 7t14 22q7 -29 37 -29h90q23 0 38 12t15 39v247q0 30 -14.5 43.5t-38.5 13.5h-80l30 26q9 8 15 10.5t17 2.5h104q20 0 20 -18v-252q0 -17 -14 -17h-21v-107h106q22 0 38 11t16 38v395
q0 24 -15.5 38.5t-43.5 14.5h-200q-18 0 -32 -3.5t-31 -17.5z" />
    <glyph glyph-name="sinKha" unicode="&#xd9b;" horiz-adv-x="516" 
d="M22 406v-358q0 -48 43 -48h93l7 107h-8q-7 0 -9 5t-2 11v214q0 11 3.5 16.5t16.5 5.5h15q11 0 14.5 -4.5t3.5 -15.5v-48l-21 -296h92l15 85l21 -39q10 -18 26 -29.5t37 -11.5h70q26 0 36 16t10 35v515q0 30 -20.5 45t-49.5 15h-393v-116h296q21 0 32 -7.5t11 -23.5v-295
l1 -52q0 -3 -1.5 -6.5t-7.5 -3.5h-10q-8 11 -15 22.5t-13 24t-10 22.5l7 75v149q0 28 -16 41.5t-40 13.5h-175q-30 0 -44.5 -18.5t-14.5 -45.5z" />
    <glyph glyph-name="sinGa" unicode="&#xd9c;" horiz-adv-x="592" 
d="M197 497h-116q-28 0 -43.5 -16.5t-15.5 -44.5v-375q0 -28 12.5 -44.5t39.5 -16.5h214q36 0 51.5 12t15.5 48v196q0 31 -22 32h-3l15 85q2 8 8 12.5t16 4.5h51q9 0 13.5 -4.5t4.5 -13.5v-239q0 -16 -3.5 -21t-18.5 -5h-14v-107h97q37 0 50 13.5t13 50.5v370q0 34 -16 48.5
t-51 14.5h-180q-63 0 -72 -51l-38 -230h14q15 0 15 -20v-64q0 -15 -2.5 -20t-17.5 -5h-51q-8 0 -12.5 5.5t-4.5 15.5v241q0 15 4 20t19 5h28v103z" />
    <glyph glyph-name="sinGha" unicode="&#xd9d;" horiz-adv-x="564" 
d="M331 0h153q28 0 39 13t11 41v242q0 32 -15.5 46t-48.5 14h-82v23q0 8 5.5 11.5t15.5 3.5h124v103h-169q-29 0 -50.5 -13t-21.5 -41v-190h95q11 0 17 -4.5t6 -12.5v-106q0 -23 -18 -23h-33q-6 0 -12 2t-6 9v4q0 6 4.5 9t10.5 6t12.5 7t6.5 14v41q0 24 -26 24h-71h-71
q-26 0 -26 -24v-41q0 -10 6 -14t13 -7q6 -3 10.5 -6t4.5 -9v-4q0 -7 -6 -9t-12 -2h-33q-18 0 -18 23v106q0 8 6 12.5t17 4.5h95v190q0 28 -21.5 41t-50.5 13h-169v-103h125q10 0 15 -3.5t5 -11.5v-23h-90q-14 0 -19 -11.5t-5.5 -27.5t-1.5 -32t-7 -24q-11 -5 -17 -16t-6 -27
v-164q0 -28 11 -41t39 -13h153q21 0 36.5 13.5t15.5 33.5v84q0 6 -5 10t-10 7t-8.5 6.5t-3.5 9.5v8q0 10 11 10h17h17q11 0 11 -10v-8q0 -6 -3.5 -9.5t-8.5 -6.5t-10 -7t-5 -10v-84q0 -20 15 -33.5t37 -13.5zM-6 356v-97h94v97h-94z" />
    <glyph glyph-name="sinNga" unicode="&#xd9e;" horiz-adv-x="578" 
d="M2 422v-59q0 -47 46 -47h124q12 0 20 7t8 21v53q0 9 -9 11h32q11 0 16 -4.5t5 -12.5v-113h-104q-28 0 -42 -17t-14 -42v-165q0 -28 10 -41t38 -13h136q17 0 31 11t16 26q10 -37 49 -37h136q25 0 36 13.5t11 36.5v510q0 37 -20.5 51.5t-52.5 14.5h-390v-116h308
q18 0 24.5 -6t6.5 -25v-351q0 -10 -4 -15.5t-13 -5.5h-17q-12 0 -17.5 7t-5.5 20v32h-100v-34q0 -13 -5.5 -19t-16.5 -6h-17q-19 0 -19 23v60q0 8 6 12.5t17 4.5h118v200q0 38 -21.5 51t-50.5 13h-218q-28 0 -42.5 -13t-14.5 -36zM67 402q0 3 2 4.5t4 1.5h54q7 -1 7 -9v-21
q0 -2 -2 -4t-4 -2h-54q-3 0 -5 1.5t-2 4.5v24z" />
    <glyph glyph-name="sinNnga" unicode="&#xd9f;" horiz-adv-x="760" 
d="M365 497h-120q-18 0 -30.5 -6t-18.5 -18.5t-6 -31.5v-390q0 -28 10.5 -39.5t37.5 -11.5h218q36 0 51.5 12t15.5 48v196q0 31 -22 32h-3l15 85q2 8 8 12.5t16 4.5h51q9 0 13.5 -4.5t4.5 -13.5v-239q0 -16 -3.5 -21t-18.5 -5h-14v-107h97q37 0 50 13.5t13 50.5v370
q0 34 -16 48.5t-51 14.5h-180q-63 0 -72 -51l-38 -230h14q15 0 15 -20v-64q0 -15 -2.5 -20t-17.5 -5h-51q-8 0 -12.5 5.5t-4.5 15.5v241q0 15 4 20t19 5h28v103zM159 398h43l53 99h-147q-39 0 -62.5 -25.5t-23.5 -65.5v-406h118v374q0 13 5 18.5t14 5.5z" />
    <glyph glyph-name="sinCa" unicode="&#xda0;" horiz-adv-x="539" 
d="M509 415h-124v-286q0 -22 -18 -22h-179q-18 0 -18 22v51q0 22 7.5 33.5t27.5 11.5h87v187q0 27 -16 42.5t-47 15.5h-183v-103h106q8 0 12 -3.5t4 -10.5v-34h-20q-11 0 -25.5 -13.5t-28.5 -31t-23 -31l-9 -13.5q-6 -7 -11 -18.5t-5 -35.5v-122q0 -28 11 -41t39 -13h363
q28 0 39 13t11 41v361zM440 625h-394v-107h313q14 0 20 -5t6 -18v-95h124v144q0 43 -14 62t-55 19zM-6 319v-94h168v94h-168z" />
    <glyph glyph-name="sinCha" unicode="&#xda1;" horiz-adv-x="513" 
d="M300 371q0 9 5 16t15 7h26q20 0 20 -22v-50q0 -8 -5.5 -14t-16.5 -6h-22q-11 0 -16.5 5t-5.5 15v49zM388 486q6 3 20 9t31 29l85 119h-133l-86 -110q-15 -19 -23.5 -27t-15 -11.5t-15.5 -8.5h137zM164 107q-9 0 -13.5 5.5t-4.5 16.5v105q0 10 6.5 14.5t14.5 4.5h93v185
q0 31 -17.5 45t-46.5 14h-173v-103h131q16 0 16 -15v-24h-92q-56 0 -56 -55v-246q0 -28 11 -41t39 -13h363q28 0 39 13t11 41v127q0 29 -6 46.5t-25 29.5q19 13 25 32.5t6 42.5v104q0 61 -55 61h-144q-29 0 -49 -23.5t-20 -54.5v-164q0 -21 9.5 -34t29.5 -13h76
q13 0 21 -5.5t8 -18.5v-55q0 -11 -4.5 -16.5t-13.5 -5.5h-179z" />
    <glyph glyph-name="sinJa" unicode="&#xda2;" horiz-adv-x="513" 
d="M343 107h-179q-18 0 -18 22v105q0 10 6.5 14.5t14.5 4.5h73v190q0 28 -21.5 41t-50.5 13h-145v-103h105q8 0 12 -3.5t4 -10.5v-24h-66q-56 0 -56 -56v-246q0 -28 11 -41t39 -13h363q28 0 39 13t11 41v246q0 56 -56 56h-66v24q0 14 16 14h105v103h-145q-29 0 -50.5 -13
t-21.5 -41v-190h73q11 0 16 -4.5t5 -14.5v-105q0 -11 -4.5 -16.5t-13.5 -5.5zM429 486q6 3 17.5 12.5t19.5 25.5l58 119h-133l-60 -111q-13 -25 -22.5 -32.5t-16.5 -13.5h137z" />
    <glyph glyph-name="sinJha" unicode="&#xda3;" horiz-adv-x="917" 
d="M12 203h36q-10 -6 -18 -19t-8 -44v-90q0 -23 10 -36.5t34 -13.5h99q14 0 25 7.5t14 21.5q7 -29 37 -29h90q23 0 38 12t15 39v247q0 30 -14.5 43.5t-38.5 13.5h-80l25 22q12 10 20.5 12.5t20.5 2.5q2 0 6 -0.5t7 -0.5l110 -14l221 70l-315 40q-12 2 -26 3t-19 1
q-16 0 -28 -2t-29 -14l-23 -16v3q0 6 -6 20.5t-30 14.5h-163v-103h85q10 0 17 -2.5t7 -9.5v-2l-119 -104v-73zM275 243v-113q0 -14 -2.5 -18.5t-10.5 -4.5h-11q-8 0 -11 4t-3 15v62h-68v-64q0 -8 -2.5 -12.5t-12.5 -4.5h-8q-9 0 -11.5 3.5t-2.5 16.5v54q0 18 4 28t8 13v14
h-29l30 26h115q8 0 11.5 -5t3.5 -14zM661 338v108l-178 -1q-31 0 -45 -21t-14 -53v-323q0 -48 47 -48h137q17 0 30.5 11t16.5 26q10 -37 49 -37h136q25 0 36 13.5t11 36.5v510q0 37 -20.5 51.5t-52.5 14.5h-390v-116h308q18 0 24.5 -6t6.5 -25v-351q0 -10 -4 -15.5t-13 -5.5
h-18q-11 0 -17 7t-6 20v111h-99v-113q0 -13 -5.5 -19t-16.5 -6h-17q-9 0 -14 4.5t-5 14.5v202q0 5 2.5 7.5t7.5 2.5h103z" />
    <glyph glyph-name="sinNya" unicode="&#xda4;" horiz-adv-x="1015" 
d="M438 244v-113q0 -14 -3 -18.5t-10 -4.5h-11q-9 0 -11.5 4t-2.5 15v62h-68v-64q0 -8 -2.5 -12.5t-12.5 -4.5h-9q-8 0 -11 3.5t-3 16.5v54q0 18 4 28t8 13v14h-28l29 26h116q7 0 11 -5t4 -14zM592 394v103h-106q-15 0 -31.5 -2.5t-32.5 -10.5l-8 -4t-8 -5l-23 -16v3
q0 6 -5.5 20.5t-29.5 14.5h-164v-103h85q10 0 17 -2.5t7 -9.5v-2l-119 -104v-73h36q-10 -6 -18 -19t-8 -44v-90q0 -23 10 -36.5t34 -13.5h100q13 0 24 7.5t15 21.5q7 -29 37 -29h90q22 0 37.5 12t15.5 39v247q0 30 -14.5 43.5t-38.5 13.5h-80l20 17q7 6 14.5 10.5t12.5 6.5
q7 3 17 4t22 1h92zM159 411h43l53 86h-147q-39 0 -62.5 -25.5t-23.5 -65.5v-406h118v387q0 13 5 18.5t14 5.5zM983 0v107h-262q-12 0 -16.5 5.5t-4.5 20.5v98q0 11 5 16.5t17 5.5h257v191q0 53 -53 53h-350v-103h265q7 0 10.5 -3t3.5 -13v-23h-221q-27 0 -42.5 -13.5
t-15.5 -43.5v-248q0 -24 9.5 -37t34.5 -13h72q-17 -7 -23 -19t-6 -37v-70q0 -25 15.5 -35t36.5 -10h291v107h-193q-9 0 -15 4t-6 14v16q0 15 8 22.5t23 7.5h160z" />
    <glyph glyph-name="sinJnya" unicode="&#xda5;" horiz-adv-x="1011" 
d="M588 394v103h-105q-63 0 -72 -51l-38 -230h14q15 0 15 -20v-64q0 -15 -2.5 -20t-17.5 -5h-51q-8 0 -12.5 5.5t-4.5 15.5v241q0 15 4 20t19 5h28v103h-120q-18 0 -30.5 -6t-18.5 -18.5t-6 -31.5v-390q0 -28 10.5 -39.5t37.5 -11.5h218q36 0 51.5 12t15.5 48v196
q0 31 -22 32h-3l18 89q2 9 8 13t16 4h48zM159 398h43l53 99h-147q-39 0 -62.5 -25.5t-23.5 -65.5v-406h118v374q0 14 5 19t14 5zM979 0v107h-263q-11 0 -15.5 5.5t-4.5 20.5v98q0 11 5 16.5t17 5.5h257v191q0 53 -53 53h-350v-103h265q7 0 10.5 -3t3.5 -13v-23h-221
q-27 0 -42.5 -13.5t-15.5 -43.5v-248q0 -24 9.5 -37t34.5 -13h72q-17 -7 -23 -19t-6 -37v-70q0 -25 15.5 -35t36.5 -10h291v107h-193q-10 0 -15.5 4t-5.5 14v16q0 15 7.5 22.5t23.5 7.5h160z" />
    <glyph glyph-name="sinNyja" unicode="&#xda6;" horiz-adv-x="683" 
d="M159 409h43l53 88h-147q-39 0 -62.5 -25.5t-23.5 -65.5v-406h118v385q0 14 5 19t14 5zM512 107h-179q-18 0 -18 22v105q0 10 6.5 14.5t14.5 4.5h73v190q0 28 -21.5 41t-50.5 13h-145v-103h105q8 0 12 -3.5t4 -10.5v-24h-66q-56 0 -56 -56v-246q0 -28 11 -41t39 -13h363
q28 0 39 13t11 41v246q0 56 -56 56h-66v24q0 14 16 14h105v103h-145q-29 0 -50.5 -13t-21.5 -41v-190h73q11 0 16 -4.5t5 -14.5v-105q0 -11 -4.5 -16.5t-13.5 -5.5zM598 486q7 3 18.5 12.5t18.5 25.5l58 119h-133l-60 -111q-13 -25 -22 -32.5t-17 -13.5h137z" />
    <glyph glyph-name="sinTta" unicode="&#xda7;" 
d="M254 363v107h-176q-56 0 -56 -55v-361q0 -28 11 -41t39 -13h363q28 0 39 13t11 41v361h-124v-286q0 -22 -18 -22h-179q-9 0 -13.5 5.5t-4.5 16.5v215q0 10 5.5 14.5t15.5 4.5h87zM416 625h-394v-107h313q14 0 20 -5t6 -18v-95h124v144q0 43 -14 62t-55 19z" />
    <glyph glyph-name="sinTtha" unicode="&#xda8;" 
d="M293 538h54q8 0 10 -5t2 -11v-26h-44q-11 0 -16.5 2.5t-5.5 16.5v23zM485 394v165q0 39 -15 53t-51 14h-281v-87h45v-65q0 -27 10.5 -37t35.5 -10h132v-33h124zM485 407h-124v-280q0 -9 -4 -14.5t-14 -5.5h-18q-12 0 -17 7t-5 20v88h-99v-90q0 -13 -5.5 -19t-16.5 -6h-17
q-9 0 -14 4.5t-5 14.5v150q0 5 2.5 7.5t7.5 2.5h103v108h-178q-31 0 -45 -18t-14 -47v-281q0 -48 47 -48h137q17 0 30.5 11t16.5 26q10 -37 49 -37h136q25 0 36 13.5t11 36.5v357z" />
    <glyph glyph-name="sinDda" unicode="&#xda9;" 
d="M-6 329v-97h94v97h-94zM70 0h136q17 0 30.5 11t16.5 26q10 -37 49 -37h136q25 0 36 13.5t11 36.5v510q0 37 -20.5 51.5t-52.5 14.5h-390v-116h308q18 0 24.5 -6t6.5 -25v-351q0 -10 -4.5 -15.5t-12.5 -5.5h-18q-11 0 -17 7t-6 20v51h-99v-53q0 -13 -6 -19t-16 -6h-17
q-19 0 -19 23v79q0 9 6 13t17 4h95v190q0 28 -21.5 41t-50.5 13h-169v-103h103q10 0 15 -3.5t5 -11.5v-23h-68q-14 0 -19 -11.5t-5.5 -27.5t-1.5 -32t-7 -24q-11 -5 -17 -16t-6 -27v-137q0 -28 10 -41t38 -13z" />
    <glyph glyph-name="sinDdha" unicode="&#xdaa;" 
d="M293 538h53q8 0 10 -5t2 -11v-26h-43q-11 0 -16.5 2.5t-5.5 16.5v23zM485 394v165q0 39 -15 53t-51 14h-281v-87h45v-65q0 -27 10.5 -37t35.5 -10h132v-33h124zM-6 291v-83h94v83h-94zM22 167v-113q0 -28 10 -41t38 -13h136q17 0 30.5 11t16.5 26q10 -37 49 -37h136
q25 0 36 13.5t11 36.5v362h-124v-284q0 -10 -4.5 -15.5t-12.5 -5.5h-18q-11 0 -17 7t-6 20v27h-99v-29q0 -13 -6 -19t-16 -6h-17q-19 0 -19 23v55q0 8 6 12.5t17 4.5h95v164q0 28 -21.5 41t-50.5 13h-169v-94h125q10 0 15 -4t5 -11v-20h-90q-14 0 -19 -9.5t-5.5 -23
t-1.5 -27t-7 -21.5q-11 -6 -17 -16.5t-6 -26.5z" />
    <glyph glyph-name="sinNna" unicode="&#xdab;" horiz-adv-x="845" 
d="M390 497h-289q-23 0 -41.5 -11.5t-18.5 -42.5v-216q0 -35 17 -55t41 -20h180v84h-100q-14 0 -19.5 5t-5.5 19v116q0 22 28 22h112q7 0 12.5 -3t9 -8.5t3.5 -14.5v-239q0 -13 -5 -19.5t-15 -6.5h-116q-15 0 -17.5 6.5t-2.5 12.5q0 2 -1.5 5.5t-4.5 3.5l327 481h-121
l-341 -483v-120l35 38q9 0 13.5 -3t4.5 -10q0 -27 12.5 -32.5t41.5 -5.5h242q40 0 56 20t16 55v298q0 11 6 16t17 5h18q12 0 17.5 -6.5t5.5 -18.5v-188h109v191q0 11 5.5 16.5t15.5 5.5h32q12 0 16.5 -4t4.5 -19v-236q0 -13 -4 -20.5t-21 -7.5h-181v-107h257q43 0 58 17.5
t15 47.5v374q0 58 -61 58h-130q-28 0 -40 -9.5t-17 -23.5q-5 14 -14.5 23.5t-34.5 9.5h-31q-39 0 -54 -30q-6 12 -15.5 21t-26.5 9z" />
    <glyph glyph-name="sinNndda" unicode="&#xdac;" horiz-adv-x="700" 
d="M159 384h55l41 86h-147q-39 0 -62.5 -25.5t-23.5 -65.5v-379h118v360q0 14 5 19t14 5zM179 329v-97h94v97h-94zM255 0h136q17 0 30.5 11t16.5 26q10 -37 49 -37h136q25 0 36 13.5t11 36.5v510q0 37 -20.5 51.5t-52.5 14.5h-390v-116h308q18 0 24.5 -6t6.5 -25v-351
q0 -10 -4.5 -15.5t-12.5 -5.5h-18q-11 0 -17 7t-6 20v51h-99v-53q0 -13 -6 -19t-16 -6h-17q-19 0 -19 23v79q0 9 5.5 13t17.5 4h95v190q0 28 -21.5 41t-50.5 13h-169v-103h102q10 0 15 -3.5t5 -11.5v-23h-67q-14 0 -19 -11.5t-5.5 -27.5t-1.5 -32t-7 -24q-12 -5 -17.5 -16
t-5.5 -27v-137q0 -28 10 -41t38 -13z" />
    <glyph glyph-name="sinTa" unicode="&#xdad;" horiz-adv-x="592" 
d="M264 243v-113q0 -14 -3 -18.5t-10 -4.5h-93q-8 0 -11 3.5t-3 16.5v54q0 18 4 28t8 13v14h-41l30 26h104q7 0 11 -5t4 -14zM221 459v2q0 7 -6 21.5t-30 14.5h-163v-103h85q10 0 17 -2.5t7 -9.5v-2l-119 -104v-73h36q-10 -6 -18 -19t-8 -44v-90q0 -23 10 -36.5t34 -13.5
h265q23 0 38 12t15 39v247q0 30 -14.5 43.5t-38.5 13.5h-80l30 26q9 8 15 10.5t17 2.5h104q20 0 20 -18v-252q0 -17 -14 -17h-21v-107h106q22 0 38 11t16 38v395q0 24 -15.5 38.5t-43.5 14.5h-200q-18 0 -32 -3.5t-31 -17.5z" />
    <glyph glyph-name="sinTha" unicode="&#xdae;" 
d="M293 538h53q8 0 10 -5t2 -11v-26h-43q-11 0 -16.5 2.5t-5.5 16.5v23zM485 394v165q0 39 -15 53t-51 14h-281v-87h45v-65q0 -27 10.5 -37t35.5 -10h131v-33h125zM254 287v107h-176q-56 0 -56 -55v-285q0 -28 11 -41t39 -13h363q28 0 39 13t11 41v361h-125v-286
q0 -22 -18 -22h-178q-9 0 -13.5 5.5t-4.5 16.5v139q0 10 5.5 14.5t15.5 4.5h87z" />
    <glyph glyph-name="sinDa" unicode="&#xdaf;" horiz-adv-x="460" 
d="M429 0v107h-263q-11 0 -15.5 5.5t-4.5 20.5v98q0 11 4.5 16.5t17.5 5.5h257v191q0 53 -53 53h-350v-103h265q7 0 10.5 -3t3.5 -13v-23h-221q-28 0 -43 -13.5t-15 -43.5v-248q0 -24 9.5 -37t34.5 -13h72q-17 -7 -23 -19t-6 -37v-70q0 -25 15.5 -35t36.5 -10h291v107h-193
q-10 0 -15.5 4t-5.5 14v16q0 15 7.5 22.5t23.5 7.5h160z" />
    <glyph glyph-name="sinDha" unicode="&#xdb0;" 
d="M259 362v108h-178q-31 0 -45 -18t-14 -47v-357q0 -48 47 -48h137q17 0 30.5 11t16.5 26q10 -37 49 -37h136q25 0 36 13.5t11 36.5v510q0 37 -20.5 51.5t-52.5 14.5h-390v-116h308q18 0 24.5 -6t6.5 -25v-351q0 -10 -4.5 -15.5t-12.5 -5.5h-18q-11 0 -17 7t-6 20v111h-99
v-113q0 -13 -5.5 -19t-16.5 -6h-17q-9 0 -14 4.5t-5 14.5v227q0 4 2.5 6.5t7.5 2.5h103z" />
    <glyph glyph-name="sinNa" unicode="&#xdb1;" horiz-adv-x="591" 
d="M266 418v13q0 32 -19.5 49t-51.5 17h-173v-103h131q11 0 17 -5t6 -15v-63zM212 223h36q15 0 15 -20v-71q0 -15 -2.5 -20t-17.5 -5h-81q-11 0 -14.5 4t-2.5 14v46l-8 108v62h-115v-290q0 -28 10.5 -39.5t37.5 -11.5h247q36 0 51.5 12t15.5 48v207q0 24 -11 35.5t-37 12.5
h-44zM170 173l187 200q8 8 14.5 12.5t13.5 4.5h34q18 0 18 -18v-239q0 -16 -3.5 -21t-18.5 -5h-13v-107h97q36 0 49.5 13.5t13.5 50.5v370q0 34 -16.5 48.5t-50.5 14.5h-138q-32 0 -48 -11.5t-33 -31.5l-127 -154q-2 -2 -4 -3.5t-4 -1.5q-1 0 -5 1t-6 2v-130q1 -3 7 -5
t13 -2q10 0 20 12z" />
    <glyph glyph-name="sinNda" unicode="&#xdb3;" horiz-adv-x="624" 
d="M159 406h43l53 91h-147q-39 0 -62.5 -25.5t-23.5 -65.5v-406h118v382q0 13 5 18.5t14 5.5zM593 0v107h-263q-11 0 -15.5 5.5t-4.5 20.5v98q0 11 4.5 16.5t17.5 5.5h257v191q0 53 -53 53h-350v-103h265q7 0 10.5 -3t3.5 -13v-23h-221q-28 0 -43 -13.5t-15 -43.5v-248
q0 -24 9.5 -37t34.5 -13h72q-17 -7 -23 -19t-6 -37v-70q0 -25 15.5 -35t36.5 -10h291v107h-193q-10 0 -15.5 4t-5.5 14v16q0 15 7.5 22.5t23.5 7.5h160z" />
    <glyph glyph-name="sinPa" unicode="&#xdb4;" horiz-adv-x="513" 
d="M22 54q0 -28 11 -41t39 -13h60.5h60.5h60.5h60.5h60.5h60.5q28 0 39 13t11 41v246q0 56 -56 56h-66v24q0 14 16 14h105v103h-145q-29 0 -50.5 -13t-21.5 -41v-190h73q11 0 16 -4.5t5 -14.5v-105q0 -11 -4.5 -16.5t-13.5 -5.5h-179q-9 0 -13.5 5.5t-4.5 16.5v105
q0 10 6.5 14.5t14.5 4.5h73v190q0 28 -21.5 41t-50.5 13h-145v-103h105q8 0 12 -3.5t4 -10.5v-24h-66q-56 0 -56 -56v-246z" />
    <glyph glyph-name="sinPha" unicode="&#xdb5;" 
d="M293 538h53q8 0 10 -5t2 -11v-26h-43q-11 0 -16.5 2.5t-5.5 16.5v23zM485 394v165q0 39 -15 53t-51 14h-281v-87h45v-65q0 -27 10.5 -37t35.5 -10h132v-33h124zM485 415h-124v-286q0 -22 -18 -22h-179q-9 0 -13.5 5.5t-4.5 16.5v42q0 9 5.5 14t15.5 5h101v167
q0 28 -16 43t-47 15h-183v-95h106q8 0 12 -3.5t4 -10.5v-34h-66q-56 0 -56 -55v-163q0 -28 11 -41t39 -13h363q28 0 39 13t11 41v361z" />
    <glyph glyph-name="sinBa" unicode="&#xdb6;" 
d="M361 415v-290q0 -11 -3.5 -14.5t-12.5 -3.5h-18q-10 0 -13 4t-3 15v290q0 30 -15.5 42t-39.5 12h-178q-56 0 -56 -55v-361q0 -28 11 -41t39 -13h100v107h-8q-9 0 -13.5 5.5t-4.5 16.5v215q0 10 2.5 14.5t13.5 4.5h21q9 0 11.5 -4.5t2.5 -13.5l1 -291q0 -28 12 -41t40 -13
h185q28 0 39 13t11 41v361v129q0 43 -14 62t-55 19h-394v-107h313q14 0 20 -5t6 -18v-80z" />
    <glyph glyph-name="sinBha" unicode="&#xdb7;" horiz-adv-x="592" 
d="M22 51q0 -28 10.5 -39.5t37.5 -11.5h233q36 0 51.5 12t15.5 48v196q0 16 -5.5 24t-16.5 8h-3l15 85q4 17 24 17h36q9 0 13.5 -4.5t4.5 -13.5v-239q0 -16 -3.5 -21t-18.5 -5h-14v-107h97q37 0 50 13.5t13 50.5v370q0 34 -16 48.5t-51 14.5h-165q-31 0 -49 -12.5t-23 -38.5
l-38 -230h14q8 0 11.5 -5t3.5 -15v-64q0 -15 -2.5 -20t-17.5 -5h-66q-8 0 -12.5 5.5t-4.5 15.5v100q0 15 4 20t19 5h28v178q0 32 -20 49t-52 17h-103v-103h63q12 0 16.5 -3t4.5 -14v-22h-28q-14 0 -19 -11.5t-5.5 -28.5t-1.5 -32.5t-7 -24.5q-11 -5 -17 -15t-6 -26v-166z
M-6 355v-97h94v97h-94z" />
    <glyph glyph-name="sinMa" unicode="&#xdb8;" 
d="M416 625h-394v-107h313q14 0 20 -5t6 -18v-95h124v144q0 43 -14 62t-55 19zM134 250v-100h131q29 0 40.5 14t11.5 44v211q0 28 -16 39.5t-43 11.5h-175q-28 0 -44.5 -15t-16.5 -43v-355q0 -57 53 -57h354q56 0 56 59v356h-124v-286q0 -22 -18 -22h-179q-18 0 -18 22v221
q0 9 3.5 14t14.5 5h20q8 0 12 -4t4 -13v-88q0 -8 -3.5 -11t-11.5 -3h-51z" />
    <glyph glyph-name="sinMba" unicode="&#xdb9;" 
d="M22 54q0 -28 10 -41t35 -13h139q19 0 33 13.5t14 33.5v84q0 6 -4.5 10t-9.5 7q-4 3 -7.5 6.5t-3.5 9.5v8q0 10 10 10h16h15q10 0 10 -10v-8q0 -6 -3.5 -9.5t-7.5 -6.5q-5 -3 -9.5 -7t-4.5 -10v-84q0 -20 14 -33.5t33 -13.5h139q25 0 35 13t10 41v361h-124v-285
q0 -8 -4 -15.5t-12 -7.5h-30q-5 0 -10.5 2t-5.5 9v4q0 6 4 9t9 6q4 2 8 4.5t7 6.5t3 10v41q0 12 -6.5 18t-17.5 6h-52h-53q-11 0 -17 -6t-6 -18v-41q0 -10 5.5 -14t11.5 -7q5 -3 9 -6t4 -9v-4q0 -7 -5 -9t-11 -2h-30q-16 0 -16 23v220q0 9 3.5 14t14.5 5h20q16 0 16 -17v-14
q0 -8 -3.5 -11t-11.5 -3h-51v-64h131q29 0 40.5 14.5t11.5 43.5v101q0 28 -16 39.5t-43 11.5h-175q-30 0 -45.5 -16.5t-15.5 -40.5v-359zM416 625h-394v-107h313q14 0 20 -5t6 -18v-95h124v144q0 43 -14 62t-55 19z" />
    <glyph glyph-name="sinYa" unicode="&#xdba;" horiz-adv-x="564" 
d="M235 497h-157q-32 0 -44 -18t-12 -41v-384q0 -28 11 -41t39 -13h153q20 0 36.5 13t16.5 33q0 -20 16.5 -33t36.5 -13h153q28 0 39 13t11 41v242q0 32 -15.5 46t-48.5 14h-86v23q0 8 5.5 11.5t15.5 3.5h128v103h-190q-36 0 -54 -16.5t-18 -44.5v-183h116q11 0 17 -4.5
t6 -12.5v-106q0 -23 -18 -23h-31q-13 0 -20 6.5t-7 19.5v57h-112v-57q0 -13 -6.5 -19.5t-19.5 -6.5h-32q-18 0 -18 23v238q0 13 4.5 19.5t15.5 6.5h69v103z" />
    <glyph glyph-name="sinRa" unicode="&#xdbb;" horiz-adv-x="466" 
d="M22 424v-376q0 -25 13 -36.5t32 -11.5h323q20 0 32.5 13t12.5 35v390q0 29 -16.5 44t-45.5 15h-133l198 145h-178l-197 -144q-20 -15 -30.5 -32.5t-10.5 -41.5zM146 366q0 16 5.5 22t22.5 6h112q14 0 19.5 -6.5t5.5 -19.5v-230q0 -18 -7 -24.5t-20 -6.5h-114
q-9 0 -16.5 6t-7.5 25v228z" />
    <glyph glyph-name="sinLa" unicode="&#xdbd;" horiz-adv-x="557" 
d="M212 48q0 -20 12 -34t37 -14h213q28 0 40 18t12 43v367q0 27 -17 48t-44 21h-389q-21 0 -37.5 -17.5t-16.5 -45.5v-525q0 -41 20 -56.5t50 -15.5h434v115h-338q-24 0 -33 9.5t-9 31.5v377q0 11 5 17.5t19 6.5h207q15 0 20 -6t5 -17v-247q0 -8 -3.5 -12.5t-10.5 -4.5h-34
q-12 0 -15 2.5t-3 13.5v101h39v88h-202v-90h39v-174z" />
    <glyph glyph-name="sinVa" unicode="&#xdc0;" 
d="M485 415h-124v-286q0 -22 -18 -22h-179q-9 0 -13.5 5.5t-4.5 16.5v89q0 9 5.5 14t15.5 5h101v175q0 27 -16 42.5t-47 15.5h-183v-103h106q8 0 12 -3.5t4 -10.5v-22h-66q-56 0 -56 -55v-222q0 -28 11 -41t39 -13h363q28 0 39 13t11 41v361zM416 625h-394v-107h313
q14 0 20 -5t6 -18v-95h124v144q0 43 -14 62t-55 19z" />
    <glyph glyph-name="sinSha" unicode="&#xdc1;" horiz-adv-x="592" 
d="M410 96h-52v-96h141q37 0 50 13.5t13 50.5v370q0 34 -16 48.5t-51 14.5h-201q-63 0 -72 -51l-38 -230h14q15 0 15 -20v-64q0 -15 -2.5 -20t-17.5 -5h-30q-8 0 -12.5 5.5t-4.5 15.5v241q0 15 4 20t19 5h20v103h-108q-28 0 -43.5 -16.5t-15.5 -44.5v-375q0 -28 12.5 -44.5
t39.5 -16.5h193q36 0 51.5 12t15.5 48v196q0 31 -22 32h-3l15 85q2 8 8 12.5t16 4.5h75q9 0 13.5 -4.5t4.5 -13.5v-14.5v-14.5v-14.5v-14.5h-38q-44 0 -44 -40v-103q0 -33 13.5 -51t37.5 -24zM449 236v-108q-8 3 -15.5 7.5t-12 14t-4.5 27.5v50q0 9 7 9h25z" />
    <glyph glyph-name="sinSsa" unicode="&#xdc2;" horiz-adv-x="513" 
d="M286 262l-70 -58q-11 -8 -15.5 -18.5t-4.5 -26.5v-26h114v20q0 15 4.5 22.5t12.5 15.5l69 71h-110zM22 54q0 -28 11 -41t39 -13h363q28 0 39 13t11 41v239q0 56 -56 56h-79v31q0 7 4.5 10.5t11.5 3.5h26q5 0 7 -2t2 -6q0 -6 -3 -10.5t-10 -11.5l-37 -34l101 1l21 23
q12 15 12 38v58q0 28 -16 37.5t-32 9.5h-111q-29 0 -50.5 -13t-21.5 -41v-190h86q11 0 16 -4.5t5 -14.5v-105q0 -11 -4.5 -16.5t-13.5 -5.5h-179q-9 0 -13.5 5.5t-4.5 16.5v105q0 10 6.5 14.5t14.5 4.5h64v190q0 28 -21.5 41t-50.5 13h-136v-103h96q8 0 12 -3.5t4 -10.5v-24
h-57q-56 0 -56 -56v-246z" />
    <glyph glyph-name="sinSa" unicode="&#xdc3;" horiz-adv-x="564" 
d="M22 218v-164q0 -28 11 -41t39 -13h153q20 0 36.5 13t16.5 33q0 -20 16.5 -33t36.5 -13h153q28 0 39 13t11 41v242q0 32 -15.5 46t-48.5 14h-82v23q0 8 5.5 11.5t15.5 3.5h124v103h-169q-29 0 -50.5 -13t-21.5 -41v-190h95q11 0 17 -4.5t6 -12.5v-106q0 -23 -18 -23h-31
q-13 0 -20 6.5t-7 19.5v57h-112v-57q0 -13 -6.5 -19.5t-19.5 -6.5h-32q-18 0 -18 23v106q0 8 6 12.5t17 4.5h95v190q0 28 -21.5 41t-50.5 13h-169v-103h125q10 0 15 -3.5t5 -11.5v-23h-90q-14 0 -19 -11.5t-5.5 -27.5t-1.5 -32t-7 -24q-11 -5 -17 -16t-6 -27zM-6 356v-97h94
v97h-94z" />
    <glyph glyph-name="sinHa" unicode="&#xdc4;" horiz-adv-x="592" 
d="M146 128v100q0 15 4 20t19 5h28v178q0 32 -20 49t-52 17h-103v-103h63q12 0 16.5 -3t4.5 -14v-22h-29q-55 0 -55 -56v-248q0 -28 10.5 -39.5t37.5 -11.5h233q36 0 51.5 12t15.5 48v196q0 31 -22 32h-3l15 85q2 8 8 12.5t16 4.5h36q9 0 13.5 -4.5t4.5 -13.5v-239
q0 -16 -3.5 -21t-18.5 -5h-14v-107h97q37 0 50 13.5t13 50.5v370q0 34 -16 48.5t-51 14.5h-165q-63 0 -72 -51l-38 -230h14q15 0 15 -20v-64q0 -15 -2.5 -20t-17.5 -5h-66q-8 0 -12.5 5.5t-4.5 15.5z" />
    <glyph glyph-name="sinLla" unicode="&#xdc5;" horiz-adv-x="553" 
d="M146 232q0 5 1.5 10.5t6.5 5.5h369v197q0 31 -18.5 41.5t-39.5 10.5h-130q-24 0 -36 -21q-5 11 -12 16t-22 5h-139q-54 0 -54 -56v-108q-21 -3 -35.5 -19.5t-14.5 -46.5v-341q0 -40 20.5 -59t57.5 -19h423v116h-346q-18 0 -24.5 8t-6.5 23v237zM398 340h-54v44
q0 19 17 19h20q9 0 13 -4.5t4 -14.5v-44zM191 340v43q0 20 19 20h20q9 0 13 -3.5t4 -14.5v-45h-56zM144 92q0 -19 18 -29.5t39 -10.5h320v118h-301q-13 0 -20 6.5t-7 18.5v61h-49v-164z" />
    <glyph glyph-name="sinFa" unicode="&#xdc6;" horiz-adv-x="564" 
d="M307 107v-107h173q23 0 38.5 15.5t15.5 45.5v384q0 28 -17 40t-37 12h-144q-27 0 -40 -8.5t-18 -25.5q-4 17 -16 25.5t-40 8.5h-146q-28 0 -41 -18t-13 -38v-379q0 -26 12 -44t39 -18h173v107h-76q-13 0 -18.5 3.5t-5.5 15.5v244q0 24 21 24h34q10 0 15 -5.5t5 -20.5
v-201h111v202q0 8 2 13.5t7 8.5t12 3h37q19 0 19 -24v-244q0 -10 -5 -14.5t-16 -4.5h-81z" />
    <glyph glyph-name="sinVirama" unicode="&#xdca;" horiz-adv-x="2" 
d="M-159 492h35q19 0 33.5 -7.5t23.5 -13.5t18.5 -23t13.5 -22v223h-124v-157z" />
    <glyph glyph-name="sinMatraAa" unicode="&#xdcf;" horiz-adv-x="231" 
d="M21 497v-103h38q18 0 18 -17v-251q0 -9 -4 -14t-14 -5h-38v-107h139q41 0 41 38v417q0 20 -9.5 31t-31.5 11h-139z" />
    <glyph glyph-name="sinMatraAe" unicode="&#xdd0;" horiz-adv-x="250" 
d="M22 497v-103h76l-62 -138q-8 -17 -11 -33.5t-3 -38.5v-148q0 -18 9.5 -27t25.5 -9h163v107h-54q-20 0 -20 19v52q0 14 2 26t6 23l66 161v109h-198z" />
    <glyph glyph-name="sinMatraAae" unicode="&#xdd1;" horiz-adv-x="248" 
d="M22 497v-102h61l-61 -42v-89h68l-48 -48q-13 -13 -16.5 -27t-3.5 -33v-120q0 -36 30 -36h166v107h-55q-12 0 -14.5 3t-2.5 16v30q0 14 2.5 25t12.5 23l57 67v85h-73l73 44v97h-196z" />
    <glyph glyph-name="sinMatraI" unicode="&#xdd2;" horiz-adv-x="2" 
d="M-590 511h124v17q0 9 2 13.5t11 4.5h248q10 0 12 -4t2 -14v-17h124v86q0 24 -11 33.5t-30 9.5h-438q-20 0 -32 -11t-12 -33v-85z" />
    <glyph glyph-name="sinMatraIi" unicode="&#xdd3;" 
d="M-217 582h41q17 0 17 -12v-7q0 -7 -4 -10.5t-12 -3.5h-41q-8 0 -12 3.5t-4 9.5v8q0 12 15 12zM-453 546h130q-2 -2 -2 -8v-6q0 -9 5.5 -15t22.5 -6h200q30 0 30 30v59q0 40 -42 40h-438q-20 0 -31.5 -11t-11.5 -33v-85h124v17q0 9 2.5 13.5t10.5 4.5z" />
    <glyph glyph-name="sinMatraU" unicode="&#xdd4;" horiz-adv-x="2" 
d="M-42 -159v227q-4 -20 -16.5 -29.5t-34.5 -9.5h-72v-82h-338v-106h461z" />
    <glyph glyph-name="sinMatraUu" unicode="&#xdd6;" horiz-adv-x="2" 
d="M-42 -159v215q-3 -21 -14 -31.5t-31 -10.5h-78v-69l-5.5 5.5t-5.5 4.5q-7 4 -17.5 5t-18.5 1h-30q-12 0 -22 -1.5t-20 -5.5l-33 -13q-12 -5 -24 -7.5t-22 -2.5h-6q-17 0 -17 18v22h-117v-93q0 -41 48 -41h86q21 0 32 3t20 6l43 17q10 4 17.5 6t16.5 2h26q8 0 16.5 -1
t15.5 -6q6 -4 12 -10.5t11 -12.5h117z" />
    <glyph glyph-name="sinMatraR" unicode="&#xdd8;" horiz-adv-x="346" 
d="M22 497v-103h149q15 0 18 -3.5t3 -18.5v-49h-128q-17 0 -29.5 -10t-12.5 -33v-238q0 -42 37 -42h93q18 0 29.5 11t18.5 29l13 -40h103v450q0 47 -49 47h-245zM192 224v-90q0 -10 -5 -18.5t-14 -8.5h-12q-10 0 -12.5 3.5t-2.5 12.5v85q0 9 3 12.5t11 3.5h32z" />
    <glyph glyph-name="sinMatraE" unicode="&#xdd9;" horiz-adv-x="376" 
d="M341 497v-103h-172q-13 0 -18 -4.5t-5 -15.5v-248q0 -11 4 -15t14 -4h40q18 0 18 19v80q0 12 -3.5 16.5t-15.5 4.5h-20v99h110q53 0 53 -50v-227q0 -23 -13 -36t-38 -13h-227q-24 0 -35 12.5t-11 33.5v399q0 24 14 38t39 14h266z" />
    <glyph glyph-name="sinMatraEe" unicode="&#xdda;" horiz-adv-x="1040" 
d="M831 492h35q19 0 33.5 -7.5t23.5 -13.5t18.5 -23t13.5 -22v223h-124v-157zM609 232v87q0 38 20 55.5t63 17.5h20q44 0 63.5 -17.5t19.5 -55.5v-87q0 -37 -19.5 -55t-63.5 -18h-20q-43 0 -63 18t-20 55zM341 497v-103h-172q-13 0 -18 -4.5t-5 -15.5v-248q0 -11 4 -15
t14 -4h40q18 0 18 19v80q0 12 -3.5 16.5t-15.5 4.5h-20v99h110q53 0 53 -50v-227q0 -23 -13 -36t-38 -13h-227q-24 0 -35 12.5t-11 33.5v399q0 24 14 38t39 14h266z" />
    <glyph glyph-name="sinMatraAi" unicode="&#xddb;" horiz-adv-x="756" 
d="M721 497v-103h-172q-13 0 -18 -4.5t-5 -15.5v-248q0 -11 4 -15t14 -4h40q18 0 18 19v80q0 12 -3.5 16.5t-15.5 4.5h-20v99h110q53 0 53 -50v-227q0 -23 -13 -36t-38 -13h-227q-24 0 -35 12.5t-11 33.5v399q0 24 14 38t39 14h266zM341 497v-103h-172q-13 0 -18 -4.5
t-5 -15.5v-248q0 -11 4 -15t14 -4h40q18 0 18 19v80q0 12 -3.5 16.5t-15.5 4.5h-20v99h110q53 0 53 -50v-227q0 -23 -13 -36t-38 -13h-227q-24 0 -35 12.5t-11 33.5v399q0 24 14 38t39 14h266z" />
    <glyph glyph-name="sinMatraO" unicode="&#xddc;" horiz-adv-x="903" 
d="M341 497v-103h-172q-13 0 -18 -4.5t-5 -15.5v-248q0 -11 4 -15t14 -4h40q18 0 18 19v80q0 12 -3.5 16.5t-15.5 4.5h-20v99h110q53 0 53 -50v-227q0 -23 -13 -36t-38 -13h-227q-24 0 -35 12.5t-11 33.5v399q0 24 14 38t39 14h266zM431 232v87q0 38 20 55.5t63 17.5h20
q44 0 63.5 -17.5t19.5 -55.5v-87q0 -37 -19.5 -55t-63.5 -18h-20q-43 0 -63 18t-20 55zM693 497v-103h38q18 0 18 -17v-251q0 -9 -4 -14t-14 -5h-38v-107h139q41 0 41 38v417q0 20 -9.5 31t-31.5 11h-139z" />
    <glyph glyph-name="sinMatraOo" unicode="&#xddd;" horiz-adv-x="920" 
d="M341 497v-103h-172q-13 0 -18 -4.5t-5 -15.5v-248q0 -11 4 -15t14 -4h40q18 0 18 19v80q0 12 -3.5 16.5t-15.5 4.5h-20v99h110q53 0 53 -50v-227q0 -23 -13 -36t-38 -13h-227q-24 0 -35 12.5t-11 33.5v399q0 24 14 38t39 14h266zM431 232v87q0 38 20 55.5t63 17.5h20
q44 0 63.5 -17.5t19.5 -55.5v-87q0 -37 -19.5 -55t-63.5 -18h-20q-43 0 -63 18t-20 55zM710 497v-103h38q18 0 18 -17v-251q0 -9 -4 -14t-14 -5h-38v-107h139q41 0 41 38v417q0 20 -9.5 31t-31.5 11h-139zM766 492h35q19 0 33.5 -7.5t23.5 -13.5t18.5 -23t13.5 -22v223h-124
v-157z" />
    <glyph glyph-name="sinMatraAu" unicode="&#xdde;" horiz-adv-x="1041" 
d="M341 497v-103h-172q-13 0 -18 -4.5t-5 -15.5v-248q0 -11 4 -15t14 -4h40q18 0 18 19v80q0 12 -3.5 16.5t-15.5 4.5h-20v99h110q53 0 53 -50v-227q0 -23 -13 -36t-38 -13h-227q-24 0 -35 12.5t-11 33.5v399q0 24 14 38t39 14h266zM431 232v87q0 38 20 55.5t63 17.5h20
q44 0 63.5 -17.5t19.5 -55.5v-87q0 -37 -19.5 -55t-63.5 -18h-20q-43 0 -63 18t-20 55zM688 497h71v-138q0 -13 1.5 -17.5t7.5 -4.5h12q7 0 8.5 6t1.5 18v96q0 21 5 30.5t22 9.5h155q19 0 30.5 -12t11.5 -29v-410q0 -22 -13.5 -34t-34.5 -12h-235q-18 0 -29 12t-11 35v125
h134v-48q0 -11 2.5 -14t12.5 -3h48q11 0 11 17v256q0 14 -9 14h-10q-5 0 -7.5 -4t-2.5 -12v-108q0 -20 -16.5 -27.5t-35.5 -7.5h-97q-33 0 -33 33v229z" />
    <glyph glyph-name="sinMatraLs" unicode="&#xddf;" horiz-adv-x="369" 
d="M16 497h71v-138q0 -13 1.5 -17.5t7.5 -4.5h12q7 0 8.5 6t1.5 18v96q0 21 5 30.5t22 9.5h155q19 0 30.5 -12t11.5 -29v-410q0 -22 -13.5 -34t-34.5 -12h-235q-18 0 -29 12t-11 35v125h134v-48q0 -11 2.5 -14t12.5 -3h48q11 0 11 17v256q0 14 -9 14h-10q-5 0 -7.5 -4
t-2.5 -12v-108q0 -20 -16.5 -27.5t-35.5 -7.5h-97q-33 0 -33 33v229z" />
    <glyph glyph-name="sinZerolith" unicode="&#xde6;" horiz-adv-x="363" 
d="M165 152v162q14 -6 31.5 -10.5t34.5 -4.5q44 0 77 28t33 74q0 41 -23 67.5t-57 42.5t-69.5 24.5t-59.5 12.5v-376zM165 503q59 -26 77.5 -52.5t18.5 -53.5q0 -12 -5 -26.5t-17 -25t-35 -10.5q-24 0 -39 8v160zM132 534v-454h33v619q-24 -14 -49.5 -22.5t-46.5 -16.5
t-34 -22t-13 -40q0 -21 14 -36t34 -25t40.5 -16.5t32.5 -9.5l11 32q-39 10 -63.5 22t-24.5 33q0 12 12 26.5t54 23.5v-114z" />
    <glyph glyph-name="sinOnelith" unicode="&#xde7;" horiz-adv-x="779" 
d="M250 312q0 23 20 39t46 16t45 -16t19 -39q0 -22 -19 -38.5t-45 -16.5t-46 16.5t-20 38.5zM29 236q0 -75 36.5 -131.5t100 -87.5t143.5 -31q85 0 143 28.5t88 76t30 104.5q0 69 -32.5 115.5t-86 70t-118.5 23.5q-52 0 -88 -25.5t-36 -67.5q0 -26 15.5 -46t40.5 -31.5
t51 -11.5q27 0 51 11.5t39 31.5t15 46q0 15 -6 30t-18 26q44 -10 65 -37.5t21 -55.5q0 -38 -21.5 -66.5t-60.5 -44t-92 -15.5q-63 0 -106 21t-65 55.5t-22 73.5q0 35 17 64.5t47.5 51.5t72.5 34t93 12q75 0 141 -27t116.5 -84t81 -146t34.5 -214h36q-4 132 -36.5 227.5
t-88 157.5t-128 92t-156.5 30q-73 0 -131.5 -18t-100 -52t-63.5 -82t-22 -108z" />
    <glyph glyph-name="sinTwolith" unicode="&#xde8;" horiz-adv-x="1143" 
d="M1062 188q0 -80 -40 -124t-98 -44q-24 0 -39 4.5t-25 9.5v-35q11 -6 29.5 -10.5t40.5 -4.5q60 0 100.5 34t61 89t20.5 117q0 38 -6 77t-19.5 74t-37.5 62t-60 43t-86 16q-51 0 -91 -23t-66 -62t-34.5 -89t1.5 -104l11 -57l24 -77q-4 29 -5 55.5t-1 49.5q0 49 17.5 87
t53.5 59.5t90 21.5q51 0 86.5 -23t54 -61.5t18.5 -84.5zM250 312q0 23 20 39t46 16t45 -16t19 -39q0 -22 -19 -38.5t-45 -16.5t-46 16.5t-20 38.5zM29 236q0 -75 36.5 -131.5t100 -87.5t143.5 -31q85 0 143 28.5t88 76t30 104.5q0 69 -32.5 115.5t-86 70t-118.5 23.5
q-52 0 -88 -25.5t-36 -67.5q0 -26 15.5 -46t40.5 -31.5t51 -11.5q27 0 51 11.5t39 31.5t15 46q0 15 -6 30t-18 26q44 -10 65 -37.5t21 -55.5q0 -38 -21.5 -66.5t-60.5 -44t-92 -15.5q-63 0 -106 21t-65 55.5t-22 73.5q0 35 17 64.5t47.5 51.5t72.5 34t93 12q75 0 141 -27
t116.5 -84t81 -146t34.5 -214h36q-4 132 -36.5 227.5t-88 157.5t-128 92t-156.5 30q-73 0 -131.5 -18t-100 -52t-63.5 -82t-22 -108z" />
    <glyph glyph-name="sinThreelith" unicode="&#xde9;" horiz-adv-x="1525" 
d="M1166 111q0 -61 36 -96.5t96 -35.5q80 0 121 63t41 176t-41 176t-121 63q-35 0 -65 -16t-48.5 -45t-18.5 -70v-14t1 -13h34q-1 5 -1 9.5v8.5q0 28 7.5 41t17.5 17.5t16 4.5q13 0 26 -13t21.5 -48t8.5 -101q0 -65 -8.5 -100t-21.5 -47.5t-26 -12.5q-6 0 -16 3.5
t-17.5 16.5t-7.5 41v9.5t1 8.5h-34q-1 -7 -1 -13v-13zM250 312q0 23 20 39t46 16t45 -16t19 -39q0 -22 -19 -38.5t-45 -16.5t-46 16.5t-20 38.5zM29 236q0 -75 36.5 -131.5t100 -87.5t143.5 -31q85 0 143 28.5t88 76t30 104.5q0 69 -32.5 115.5t-86 70t-118.5 23.5
q-52 0 -88 -25.5t-36 -67.5q0 -26 15.5 -46t40.5 -31.5t51 -11.5q27 0 51 11.5t39 31.5t15 46q0 15 -6 30t-18 26q44 -10 65 -37.5t21 -55.5q0 -38 -21.5 -66.5t-60.5 -44t-92 -15.5q-63 0 -106 21t-65 55.5t-22 73.5q0 35 17 64.5t47.5 51.5t72.5 34t93 12q75 0 141 -27
t116.5 -84t81 -146t34.5 -214h36q-4 132 -36.5 227.5t-88 157.5t-128 92t-156.5 30q-73 0 -131.5 -18t-100 -52t-63.5 -82t-22 -108zM1062 188q0 -80 -40 -124t-98 -44q-24 0 -39 4.5t-25 9.5v-35q11 -6 29.5 -10.5t40.5 -4.5q60 0 100.5 34t61 89t20.5 117q0 38 -6 77
t-19.5 74t-37.5 62t-60 43t-86 16q-51 0 -91 -23t-66 -62t-34.5 -89t1.5 -104l11 -57l24 -77q-4 29 -5 55.5t-1 49.5q0 49 17.5 87t53.5 59.5t90 21.5q51 0 86.5 -23t54 -61.5t18.5 -84.5z" />
    <glyph glyph-name="sinFourlith" unicode="&#xdea;" horiz-adv-x="693" 
d="M27 187q0 -55 25.5 -93.5t69.5 -62t100.5 -34t117.5 -10.5q56 0 109 10.5t95.5 34t67.5 61.5t25 92q0 51 -20 84t-53.5 51.5t-73.5 26t-81 7.5q-11 0 -19 -0.5t-16 -1.5q-3 17 -3 29q0 35 22.5 60t84.5 25q39 0 64 -15.5t25 -44.5q0 -23 -17 -37.5t-43 -14.5t-40.5 20.5
t-14.5 48.5q0 39 13.5 71t33 55.5t37.5 36.5q26 18 48 29.5t39.5 21t27 19.5t9.5 24q0 12 -7.5 24.5t-33.5 12.5q-17 0 -44.5 -12.5t-53.5 -36.5t-50 -61t-39 -84t-15 -101q0 -22 9 -45t28.5 -38.5t51.5 -15.5q38 0 59 13t29.5 32t8.5 36q0 35 -20 56t-47.5 30.5t-52.5 9.5
q-40 0 -74 -11.5t-54.5 -38.5t-20.5 -73q0 -25 9 -54q13 1 29.5 2.5t35.5 1.5q68 0 101 -14t43 -33t10 -33q0 -26 -18 -44.5t-49.5 -29.5t-73 -16t-88.5 -5q-45 0 -87 4.5t-74.5 14.5t-51.5 27t-19 43q0 12 5.5 26t21 27.5t47.5 22t84 8.5q8 0 18.5 -0.5t20.5 -1.5
q3 12 4 25t1 23q0 60 -37 93t-96 33q-28 0 -54.5 -9t-43.5 -27.5t-17 -48.5q0 -22 13 -35t35 -13q20 0 32.5 10t22.5 31q6 14 19.5 26t32.5 12q22 0 33.5 -11t16.5 -26t5 -29v-11t-1 -12q-7 2 -10 2h-20q-66 0 -112 -22.5t-70.5 -61t-24.5 -85.5z" />
    <glyph glyph-name="sinFivelith" unicode="&#xdeb;" horiz-adv-x="529" 
d="M282 -20q25 0 49 2t47 8q-43 -42 -69.5 -80.5t-26.5 -89.5q0 -34 14 -63.5t44 -48t78 -18.5q15 0 33.5 3t36.5 7v38q-36 12 -55 34t-25.5 48.5t-6.5 51.5q0 33 8 62t20.5 54t27.5 45t28 36l-30 23q-35 -40 -60 -49.5t-52 -9.5q-29 0 -57 17.5t-45.5 51.5t-17.5 83
q0 74 39.5 106.5t117.5 32.5h73q-16 86 -56.5 127.5t-116.5 41.5q-49 0 -81.5 -21t-32.5 -53q0 -19 14.5 -32t36.5 -13q17 0 31.5 7.5t23.5 26.5q8 15 20.5 24.5t29.5 9.5q29 0 53 -22.5t32 -63.5h-138q-106 0 -167 -41t-61 -135q0 -88 62.5 -144t178.5 -56z" />
    <glyph glyph-name="sinSixlith" unicode="&#xdec;" horiz-adv-x="828" 
d="M396 348q49 0 96.5 -6t88.5 -18t72.5 -31.5t49 -47t17.5 -63.5q0 -45 -14.5 -76t-38 -49.5t-50 -27t-50.5 -9.5v-24q34 0 70 11t66.5 36t49.5 65.5t19 100.5q0 73 -26.5 124.5t-69 85.5t-93 53t-100 26.5t-87.5 7.5q-39 0 -86.5 -9t-95.5 -29.5t-88.5 -55t-65 -86
t-24.5 -122.5q0 -57 18.5 -96.5t47.5 -64t63 -36t65 -11.5q68 0 104.5 35.5t36.5 94.5v14t-1 13h-34q1 -4 1 -8.5v-9.5q0 -50 -26.5 -77.5t-80.5 -27.5q-19 0 -42 8t-43.5 24t-33.5 40.5t-13 57.5q0 35 12.5 64.5t37.5 52.5t61 39t83 24t104 8zM567 -4q29 0 53.5 14.5
t39 38.5t14.5 53t-14.5 53.5t-39 39t-53.5 14.5t-53 -14.5t-38.5 -39t-14.5 -53.5q0 -43 31.5 -74.5t74.5 -31.5zM567 169q28 0 47.5 -20t19.5 -47t-19.5 -46.5t-47.5 -19.5q-27 0 -46.5 19.5t-19.5 46.5t19.5 47t46.5 20z" />
    <glyph glyph-name="sinSevenlith" unicode="&#xded;" horiz-adv-x="754" 
d="M284 492q-56 0 -92 -19.5t-36 -59.5q0 -17 13.5 -32.5t41.5 -15.5q23 0 37 12.5t21 23.5q11 20 27.5 27t35.5 7q24 0 47 -13.5t39 -36.5t18 -53h-119q-84 0 -146 -31t-95.5 -83.5t-33.5 -117.5q0 -71 29 -128t79 -97t112.5 -61.5t129.5 -21.5t126 20t104 56.5t70.5 86
t25.5 108.5h-38q0 -46 -18.5 -82.5t-49.5 -62t-68 -39t-73 -13.5q-68 0 -123.5 29t-88.5 85.5t-33 139.5t44.5 131t154.5 48h52v5.5v4.5q0 56 -25 97t-68.5 63.5t-99.5 22.5z" />
    <glyph glyph-name="sinEightlith" unicode="&#xdee;" horiz-adv-x="656" 
d="M59 189q0 -73 33.5 -130t92 -89.5t131.5 -32.5q80 0 142.5 36.5t98.5 97t36 132.5q0 50 -15.5 91t-47.5 76q-37 41 -82.5 60.5t-80.5 19.5q25 7 58 18t65 24.5t53 24.5q56 29 79 55t23 51q0 21 -15.5 30t-29.5 9q-24 0 -40 -11t-30.5 -29.5t-31.5 -39t-42 -40.5
q-37 -28 -69.5 -45t-67.5 -29.5t-81 -30.5q-50 -19 -91 -52.5t-64.5 -82t-23.5 -113.5zM116 240q0 42 20 76t52.5 57.5t70 36t71.5 12.5q54 0 92.5 -18t59 -49.5t20.5 -73.5q0 -59 -26.5 -99.5t-73.5 -61t-109 -20.5q-63 0 -102 20.5t-57 53t-18 66.5z" />
    <glyph glyph-name="sinNinelith" unicode="&#xdef;" horiz-adv-x="1172" 
d="M691 660q0 33 23 54.5t54 21.5q32 0 55.5 -22t23.5 -54q0 -28 -22.5 -50.5t-56.5 -22.5t-55.5 22.5t-21.5 50.5zM280 652q0 -44 34 -81t98 -52l7 12q-59 20 -82.5 50t-23.5 53q0 48 38 77t98.5 42.5t128.5 13.5q34 0 66.5 -3.5t56.5 -8.5t31 -9l18 20q-31 0 -52 -16.5
t-32 -41t-11 -49.5q0 -30 16 -54t42 -38t55 -14q48 0 81.5 31.5t33.5 78.5q0 46 -28 81t-73.5 59t-99 36t-105.5 12q-79 0 -135.5 -19t-92.5 -49t-52.5 -64.5t-16.5 -66.5zM250 312q0 23 20 39t46 16t45 -16t19 -39q0 -22 -19 -38.5t-45 -16.5t-46 16.5t-20 38.5zM29 236
q0 -75 36.5 -131.5t100 -87.5t143.5 -31q85 0 143 28.5t88 76t30 104.5q0 69 -32.5 115.5t-86 70t-118.5 23.5q-52 0 -88 -25.5t-36 -67.5q0 -26 15.5 -46t40.5 -31.5t51 -11.5q27 0 51 11.5t39 31.5t15 46q0 15 -6 30t-18 26q44 -10 65 -37.5t21 -55.5q0 -38 -21.5 -66.5
t-60.5 -44t-92 -15.5q-63 0 -106 21t-65 55.5t-22 73.5q0 35 17 64.5t47.5 51.5t72.5 34t93 12q75 0 141 -27t116.5 -84t81 -146t34.5 -214h36q-4 132 -36.5 227.5t-88 157.5t-128 92t-156.5 30q-73 0 -131.5 -18t-100 -52t-63.5 -82t-22 -108zM1062 188q0 -80 -40 -124
t-98 -44q-24 0 -39 4.5t-25 9.5v-35q11 -6 29.5 -10.5t40.5 -4.5q60 0 100.5 34t61 89t20.5 117q0 38 -6 77t-19.5 74t-37.5 62t-60 43t-86 16q-51 0 -91 -23t-66 -62t-34.5 -89t1.5 -104l11 -57l24 -77q-4 29 -5 55.5t-1 49.5q0 49 17.5 87t53.5 59.5t90 21.5
q51 0 86.5 -23t54 -61.5t18.5 -84.5z" />
    <glyph glyph-name="sinMatraRr" unicode="&#xdf2;" horiz-adv-x="685" 
d="M361 497v-103h149q15 0 18 -3.5t3 -18.5v-49h-128q-17 0 -29.5 -10t-12.5 -33v-238q0 -42 37 -42h93q18 0 29.5 11t18.5 29l13 -40h103v450q0 47 -49 47h-245zM531 224v-90q0 -10 -5 -18.5t-14 -8.5h-12q-10 0 -12.5 3.5t-2.5 12.5v85q0 9 3 12.5t11 3.5h32zM22 497v-103
h149q15 0 18 -3.5t3 -18.5v-49h-128q-17 0 -29.5 -10t-12.5 -33v-238q0 -42 37 -42h93q18 0 29.5 11t18.5 29l13 -40h103v450q0 47 -49 47h-245zM192 224v-90q0 -10 -5 -18.5t-14 -8.5h-12q-10 0 -12.5 3.5t-2.5 12.5v85q0 9 3 12.5t11 3.5h32z" />
    <glyph glyph-name="sinMatraLl" unicode="&#xdf3;" horiz-adv-x="369" 
d="M16 497h71v-138q0 -13 1.5 -17.5t7.5 -4.5h12q7 0 8.5 6t1.5 18v96q0 21 5 30.5t22 9.5h155q19 0 30.5 -12t11.5 -29v-410q0 -22 -13.5 -34t-34.5 -12h-235q-18 0 -29 12t-11 35v125h134v-48q0 -11 2.5 -14t12.5 -3h48q11 0 11 17v256q0 14 -9 14h-10q-5 0 -7.5 -4
t-2.5 -12v-108q0 -20 -16.5 -27.5t-35.5 -7.5h-97q-33 0 -33 33v229z" />
    <glyph glyph-name="sinkundaliya" unicode="&#xdf4;" horiz-adv-x="1838" 
d="M162 221l-98 -58q-14 -8 -13 -23t8 -27l60 -101q9 -15 30.5 -18.5t39.5 6.5l154 83q9 5 20.5 8.5t19.5 -3.5l47 -34l60 65l16 -43l119 106l18 -80l135 114l23 -102l133 108l11 -135l149 95l-10 -107l143 66l-21 -99l140 64l-21 -74l122 52q12 4 22.5 2t20.5 -8l154 -83
q18 -9 38.5 -4.5t31.5 16.5l60 102q8 12 8 26.5t-13 22.5l-98 59l-59 -100l24 -13l-5 -9q-1 -3 -6.5 -1.5t-9.5 3.5l-114 62q-8 4 -15 6t-13 2l-20 -3l16 45q7 19 -7 26t-31 -1l-82 -40l14 63q4 18 -9 26.5t-32 -0.5l-107 -48l11 93q2 24 -12 31t-34 -6l-131 -79l-7 108
q-1 15 -14 17.5t-25 -6.5l-121 -101l-15 69q-3 14 -17 18t-25 -6l-113 -96l-10 45q-3 15 -17.5 18t-24.5 -6l-112 -102l-13 30q-6 13 -17.5 13.5t-20.5 -9.5l-88 -104l-9 7q-26 18 -63 -3l-119 -64q-5 -3 -9.5 -4.5t-6.5 0.5l-6 8l26 14z" />
    <glyph glyph-name="zwnj" unicode="&#x200c;" horiz-adv-x="0" 
d="M-39 -11h79v792h-79v-792z" />
    <glyph glyph-name="uni200D" unicode="&#x200d;" horiz-adv-x="0" 
d="M55 655l125 121l-56 56l-124 -124l-124 124l-56 -56l125 -121l-125 -123l56 -55l85 84v-571h79v571l84 -84l56 55z" />
    <glyph glyph-name="endash" unicode="&#x2013;" horiz-adv-x="442" 
d="M422 349v-115h-402v115h402z" />
    <glyph glyph-name="emdash" unicode="&#x2014;" horiz-adv-x="700" 
d="M701 349v-115h-702v115h702z" />
    <glyph glyph-name="quoteleft" unicode="&#x2018;" horiz-adv-x="195" 
d="M160 577h-49l11 -7q0 20 8 45t28 53l-40 33q-34 -32 -53.5 -67t-19.5 -77v-107h115v127z" />
    <glyph glyph-name="quoteright" unicode="&#x2019;" horiz-adv-x="145" 
d="M25 590h51l-11 7q0 -21 -9 -47t-29 -56l42 -34q35 34 55.5 71t20.5 80v112h-120v-133z" />
    <glyph glyph-name="quotesinglbase" unicode="&#x201a;" horiz-adv-x="195" 
d="M35 2h51l-11 7q0 -21 -9 -47t-29 -56l42 -34q35 34 55.5 71t20.5 80v112h-120v-133z" />
    <glyph glyph-name="quotedblleft" unicode="&#x201c;" horiz-adv-x="348" 
d="M160 577h-49l11 -7q0 20 8 45t28 53l-40 33q-34 -32 -53.5 -67t-19.5 -77v-107h115v127zM313 577h-49l11 -7q0 20 8 45t28 53l-40 33q-34 -32 -53.5 -67t-19.5 -77v-107h115v127z" />
    <glyph glyph-name="quotedblright" unicode="&#x201d;" horiz-adv-x="257" 
d="M132 590h51l-11 7q0 -21 -9 -47t-29 -56l42 -34q35 34 55.5 71t20.5 80v112h-120v-133zM32 590h51l-11 7q0 -21 -9 -47t-29 -56l42 -34q35 34 55.5 71t20.5 80v112h-120v-133z" />
    <glyph glyph-name="quotedblbase" unicode="&#x201e;" horiz-adv-x="343" 
d="M188 8h49l-11 7q0 -20 -8 -45t-28 -53l40 -33q34 32 53.5 67t19.5 77v107h-115v-127zM35 8h49l-11 7q0 -20 -8 -45t-28 -53l40 -33q34 32 53.5 67t19.5 77v107h-115v-127z" />
    <glyph glyph-name="dagger" unicode="&#x2020;" horiz-adv-x="416" 
d="M237 0h-56l-16 239v117l25 92h38l24 -93v-115zM107 433l-92 1v86h93l72 -25v-38zM401 434l-91 -1l-73 24v38l72 25h92v-86zM228 505h-38l-25 72v103h86l1 -102z" />
    <glyph glyph-name="daggerdbl" unicode="&#x2021;" horiz-adv-x="416" 
d="M228 217h-38l-25 92v52l25 92h38l24 -93v-50zM251 -10h-86v98l25 72h38l24 -73zM108 145h-93v86l92 1l73 -24v-38zM401 145h-92l-72 25v38l73 24l91 -1v-86zM180 462l-73 -24l-92 1v86h93l72 -25v-38zM401 439l-91 -1l-73 24v38l72 25h92v-86zM228 510h-38l-25 72v98h86
l1 -97z" />
    <glyph glyph-name="bullet" unicode="&#x2022;" horiz-adv-x="296" 
d="M55 232v87q0 38 20 55.5t63 17.5h20q44 0 63.5 -17.5t19.5 -55.5v-87q0 -37 -19.5 -55t-63.5 -18h-20q-43 0 -63 18t-20 55z" />
    <glyph glyph-name="ellipsis" unicode="&#x2026;" horiz-adv-x="565" 
d="M340 0h-120v135h120v-135zM520 0h-120v135h120v-135zM160 0h-120v135h120v-135z" />
    <glyph glyph-name="perthousand" unicode="&#x2030;" horiz-adv-x="1159" 
d="M840 84v186q0 50 25 72.5t80 22.5h85q55 0 80 -22.5t25 -72.5v-186q0 -49 -25 -71.5t-80 -22.5h-85q-55 0 -80 22.5t-25 71.5zM1016 268h-57q-14 0 -14 -13v-155q0 -13 14 -13h57q14 0 14 13v155q0 13 -14 13zM24 364v186q0 50 25 72.5t80 22.5h85q55 0 79.5 -22.5
t25.5 -72.5l4 -186q1 -49 -26.5 -71.5t-82.5 -22.5h-85q-55 0 -80 22.5t-25 71.5zM200 548h-57q-14 0 -14 -13v-155q0 -13 14 -13h57q14 0 14 13v155q0 13 -14 13zM489 84v186q0 50 25 72.5t80 22.5h85q55 0 80 -22.5t25 -72.5v-186q0 -49 -25 -71.5t-80 -22.5h-85
q-55 0 -80 22.5t-25 71.5zM665 268h-57q-14 0 -14 -13v-155q0 -13 14 -13h57q14 0 14 13v155q0 13 -14 13zM533 645h112l-365 -655h-113z" />
    <glyph glyph-name="guilsinglleft" unicode="&#x2039;" horiz-adv-x="288" 
d="M34 240q-5 8 -5.5 13t5.5 14l105 165h125l-87 -169q-4 -7 0 -16l84 -170h-130z" />
    <glyph glyph-name="guilsinglright" unicode="&#x203a;" horiz-adv-x="288" 
d="M254 269q5 -8 5.5 -13t-5.5 -14l-105 -165h-125l87 169q4 7 0 16l-84 170h130z" />
    <glyph glyph-name="fraction" unicode="&#x2044;" horiz-adv-x="482" 
d="M368 645h112l-365 -655h-113z" />
    <glyph glyph-name="uni2074" unicode="&#x2074;" horiz-adv-x="406" 
d="M321 249h-116v82l6 -6h-200v75l99 177q19 34 36 49.5t55 14.5l120 -3v-224l-6 6h71v-95h-71l6 6v-82zM193 536l-72 -122l-8 6h98l-6 -6v129h-1q-7 0 -11 -7z" />
    <glyph glyph-name="Euro" unicode="&#x20ac;" horiz-adv-x="477" 
d="M452 467h-208q-14 0 -14 -14v-70l-20 20h143v-80h-143l20 20v-80l-20 20h143v-80h-143l20 20v-76q0 -14 14 -14h208v-133h-192q-90 0 -135 40.5t-45 119.5v63l20 -20h-70v80h70l-20 -20v80l20 -20h-70v80h70l-20 -20v57q0 79 45 119.5t135 40.5h192v-133z" />
    <glyph glyph-name="uni20BA" unicode="&#x20ba;" horiz-adv-x="551" 
d="M337 -10h-254v215l10 -10l-63 -23v76l63 23l-10 -10v64l10 -10l-63 -23v76l63 23l-10 -10v219h148v-176l-10 14l122 44v-76l-122 -44l10 10v-68l-10 14l122 44v-76l-122 -44l10 10v-150l-22 21h144q14 0 14 14v120h150v-107q0 -79 -45 -119.5t-135 -40.5z" />
    <glyph glyph-name="uni20BD" unicode="&#x20bd;" horiz-adv-x="543" 
d="M218 0h-148v113l20 -20h-75v100h75l-20 -20v80l20 -20h-75v100h75l-20 -20v287l258 5q90 2 137.5 -42t47.5 -123v-37q0 -82 -42.5 -126t-132.5 -44h-140l20 23v-83l-20 20h148v-100h-148l20 20v-113zM218 500v-187l-20 20h151q14 0 14 14v115q0 14 -14 14h-151z" />
    <glyph glyph-name="uni2113" unicode="&#x2113;" horiz-adv-x="497" 
d="M479 -10h-195q-90 0 -135 40.5t-45 119.5v375q0 79 44 119.5t126 40.5h38q83 0 126.5 -40.5t43.5 -119.5v-110q0 -49 -26.5 -75.5t-75.5 -55.5l-316 -185l-59 111l313 185q8 5 11 8.5t3 10.5v124q0 14 -14 14h-50q-14 0 -14 -14v-401q0 -14 14 -14h211v-133z" />
    <glyph glyph-name="trademark" unicode="&#x2122;" horiz-adv-x="708" 
d="M607 645q61 0 61 -53v-344h-107v279h36l-92 -169h-54l-88 163h39v-273h-99v397h58q22 0 30 -6t15 -20l95 -173h-32l108 199h30zM199 248h-112v321l12 -13h-89v89h266v-89h-89l12 13v-321z" />
    <glyph glyph-name="uni2126" unicode="&#x2126;" horiz-adv-x="582" 
d="M246 0h-216v129h161l38 -41q-90 0 -135 40.5t-45 119.5v237q0 79 45 119.5t135 40.5h120q90 0 135 -40.5t45 -119.5v-237q0 -79 -45 -119.5t-135 -40.5l37 41h166v-129h-220v125l33 9q14 3 14 15v349q0 14 -14 14h-152q-14 0 -14 -14v-349q0 -12 14 -15l33 -9v-125z" />
    <glyph glyph-name="estimated" unicode="&#x212e;" horiz-adv-x="491" 
d="M145 54q21 -16 46.5 -25t54.5 -9q47 0 89.5 21t69.5 55l20 -20q-30 -38 -79.5 -62t-99.5 -24q-69 0 -116 36.5t-71 94.5t-24 122q0 47 13.5 92.5t41 82.5t68 59t94.5 22q51 0 98 -27t76.5 -81t29.5 -135h-311v-202zM344 442q-19 14 -42 21t-49 7q-29 0 -57 -10t-51 -28
v-146h199v156z" />
    <glyph glyph-name="partialdiff" unicode="&#x2202;" horiz-adv-x="531" 
d="M286 -5h-68q-90 0 -137.5 43t-47.5 122v77q0 86 38.5 124.5t115.5 38.5h25q66 0 91 -34.5t25 -104.5h-7q0 14 -14 14h-110q-14 0 -14 -14v-118q0 -14 14 -14h110q14 0 14 14v349q0 14 -14 14h-234v129l213 5q90 2 137.5 -42t47.5 -123v-314q0 -79 -47.5 -122.5
t-137.5 -43.5z" />
    <glyph glyph-name="uni2206" unicode="&#x2206;" horiz-adv-x="571" 
d="M566 0h-561l208 635h150zM301 515l-125 -400l-6 14h227l-5 -14l-120 400h29z" />
    <glyph glyph-name="product" unicode="&#x220f;" horiz-adv-x="625" 
d="M610 635v-129h-90l20 20v-526h-148v526l20 -20h-199l20 20v-526h-148v526l20 -20h-90v129h595z" />
    <glyph glyph-name="summation" unicode="&#x2211;" horiz-adv-x="436" 
d="M15 0v108l161 241v-51l-152 229v108h389v-129h-274l33 51l145 -229l-166 -257l-27 58h289v-129h-398z" />
    <glyph glyph-name="minus" unicode="&#x2212;" horiz-adv-x="550" 
d="M505 349v-100h-460v100h460z" />
    <glyph glyph-name="uni2215" unicode="&#x2215;" horiz-adv-x="482" 
d="M368 645h112l-365 -655h-113z" />
    <glyph glyph-name="uni2219" unicode="&#x2219;" horiz-adv-x="296" 
d="M55 232v87q0 38 20 55.5t63 17.5h20q44 0 63.5 -17.5t19.5 -55.5v-87q0 -37 -19.5 -55t-63.5 -18h-20q-43 0 -63 18t-20 55z" />
    <glyph glyph-name="radical" unicode="&#x221a;" horiz-adv-x="610" 
d="M370 -50h-140l-145 426l25 -15h-95v129h177l136 -430h-47l186 625h127z" />
    <glyph glyph-name="infinity" unicode="&#x221e;" horiz-adv-x="798" 
d="M626 88h-72q-42 0 -66.5 7.5t-43.5 26.5t-46 52l-116 146q-4 6 -6.5 9t-9.5 3h-94q-13 0 -13 -12v-102q0 -12 13 -12h104q7 0 9.5 3t6.5 9l121 146q21 26 38.5 45t42 30t66.5 11h66q65 0 103.5 -31t38.5 -114v-72q0 -83 -38.5 -114t-103.5 -31zM246 88h-74
q-53 0 -84.5 13t-44.5 45t-13 87v72q0 56 13 87.5t44.5 44.5t84.5 13h75q43 0 68 -9.5t44.5 -30t45.5 -53.5l109 -136q7 -9 12.5 -12t15.5 -3h84q13 0 13 12v102q0 12 -13 12h-94q-10 0 -15 -3.5t-13 -11.5l-114 -136q-23 -27 -41.5 -48t-41.5 -33t-61 -12z" />
    <glyph glyph-name="integral" unicode="&#x222b;" horiz-adv-x="398" 
d="M120 525q0 79 44 119.5t134 40.5h80v-133h-96q-14 0 -14 -14v-578q0 -79 -44 -119.5t-134 -40.5h-80v133h96q14 0 14 14v578z" />
    <glyph glyph-name="approxequal" unicode="&#x2248;" horiz-adv-x="454" 
d="M124 293h-91q2 76 22.5 113.5t70.5 37.5q27 0 59 -13t61 -26t48 -13q23 0 30 16t7 37h90q0 -77 -22 -120t-79 -43q-27 0 -58 13t-59 25.5t-47 12.5q-16 0 -23 -11.5t-9 -28.5zM123 92l-90 1q0 83 20.5 123.5t72.5 40.5q27 0 59 -13t61 -26t48 -13q20 0 28 12.5t9 28.5h90
q-1 -72 -23.5 -111.5t-77.5 -39.5q-27 0 -58 12.5t-59 25.5t-47 13t-26 -15.5t-7 -38.5z" />
    <glyph glyph-name="notequal" unicode="&#x2260;" horiz-adv-x="540" 
d="M315 518h107l-205 -518h-109zM495 409v-100h-450v100h450zM495 211v-100h-450v100h450z" />
    <glyph glyph-name="lessequal" unicode="&#x2264;" horiz-adv-x="478" 
d="M40 275v92l398 162v-115l-326 -114v44l326 -114v-116zM438 99v-100h-398v100h398z" />
    <glyph glyph-name="greaterequal" unicode="&#x2265;" horiz-adv-x="478" 
d="M438 368v-92l-398 -162v115l326 114v-44l-326 114v116zM428 99v-100h-388v100h388z" />
    <glyph glyph-name="lozenge" unicode="&#x25ca;" horiz-adv-x="528" 
d="M306 -4h-87l-209 315l214 328h91l203 -323zM273 133h-18l123 187l2 -13l-125 193h17l-122 -193l-1 20z" />
    <glyph glyph-name="uni25CC" unicode="&#x25cc;" horiz-adv-x="558" 
d="M96 97q0 -15 9 -24t24 -9q31 0 32 31q1 15 -8 24t-24 9q-31 0 -33 -31zM54 164q-1 -15 8 -24t23 -9q15 0 23.5 9t8.5 23q1 15 -7.5 24t-23.5 9q-14 0 -22.5 -9t-9.5 -23zM162 54q-1 -15 7.5 -24t23.5 -9q31 0 32 31q1 15 -7.5 24t-23.5 9q-31 0 -32 -31zM238 38
q-1 -15 7.5 -24t23.5 -9q14 0 22.5 8.5t9.5 22.5q1 15 -8 24t-23 9t-22.5 -8.5t-9.5 -22.5zM40 240q-1 -14 8 -23t24 -9q30 0 32 31q1 15 -8 24t-24 9q-32 0 -32 -32zM52 319q-1 -15 8 -24t25 -9q13 0 21 9t9 23q1 15 -7.5 24t-22.5 9q-15 0 -23.5 -9t-9.5 -23zM317 54
q-1 -15 7.5 -24t23.5 -9q31 0 32 31q1 15 -7.5 24t-23.5 9q-31 0 -32 -31zM102 384q-1 -14 8 -23t23 -9q31 0 33 31q1 14 -7.5 23t-23.5 9q-30 0 -33 -31zM384 97q-1 -15 7.5 -24t23.5 -9q30 0 32 31q1 15 -7.5 24t-23.5 9q-30 0 -32 -31zM168 428q0 -15 8.5 -24t23.5 -9
t23.5 9t8.5 23q1 15 -7.5 24t-23.5 9t-23.5 -9t-9.5 -23zM428 164q-1 -15 7.5 -24t23.5 -9q32 0 34 32q1 15 -8 24t-24 9q-31 0 -33 -32zM246 443q0 -15 8.5 -24t22.5 -9q15 0 23.5 9t8.5 23q1 15 -7.5 24t-23.5 9q-14 0 -22.5 -9t-9.5 -23zM445 240q-1 -14 8 -23t24 -9
q30 0 32 31q1 15 -8 24t-24 9q-32 0 -32 -32zM323 428q0 -15 8.5 -24t23.5 -9t23.5 9t8.5 23q1 15 -7.5 24t-23.5 9t-23.5 -9t-9.5 -23zM431 317q-1 -15 8 -24t24 -9q31 0 33 32q0 15 -8.5 24t-23.5 9q-32 0 -33 -32zM388 384q-1 -15 8 -23.5t24 -8.5q31 0 33 31
q0 15 -9 23.5t-23 8.5q-32 0 -33 -31z" />
    <glyph glyph-name="u111E1" unicode="&#x111e1;" horiz-adv-x="830" 
d="M719 475v-485h34v485h-34zM248 312q0 23 20 39t46 16t45 -16t19 -39q0 -22 -19 -38.5t-45 -16.5t-46 16.5t-20 38.5zM27 236q0 -75 36.5 -131.5t100 -87.5t143.5 -31q85 0 143 28.5t88 76t30 104.5q0 69 -32.5 115.5t-86 70t-118.5 23.5q-52 0 -88 -25.5t-36 -67.5
q0 -26 15.5 -46t40.5 -31.5t51 -11.5q27 0 51 11.5t39 31.5t15 46q0 15 -6 30t-18 26q44 -10 65 -37.5t21 -55.5q0 -38 -21.5 -66.5t-60.5 -44t-92 -15.5q-63 0 -106 21t-65 55.5t-22 73.5q0 35 17 64.5t47.5 51.5t72.5 34t93 12q75 0 141 -27t116.5 -84t81 -146t34.5 -214
h36q-4 132 -36.5 227.5t-88 157.5t-128 92t-156.5 30q-73 0 -131.5 -18t-100 -52t-63.5 -82t-22 -108z" />
    <glyph glyph-name="u111E2" unicode="&#x111e2;" horiz-adv-x="1091" 
d="M333 345q26 0 45 -15.5t19 -38.5q0 -22 -19 -39t-45 -17t-45.5 17t-19.5 39q0 23 19.5 38.5t45.5 15.5zM46 215q0 -74 35.5 -130.5t99 -88.5t145.5 -32q78 0 137 26.5t91.5 73.5t32.5 109q0 63 -29.5 110.5t-82.5 73.5t-125 26q-53 0 -88 -26t-35 -67q0 -37 31.5 -63.5
t74.5 -26.5t74 26.5t31 63.5q0 15 -6.5 30t-17.5 25q38 -9 62 -34.5t24 -58.5q0 -38 -21.5 -66.5t-60.5 -44t-92 -15.5q-56 0 -99.5 19t-68 53t-24.5 78q0 48 29 84.5t80 57t116 20.5q85 0 145 -27t104.5 -89t81.5 -167q31 -85 60.5 -141t60.5 -88t65.5 -45.5t73.5 -13.5
q64 0 107.5 41t67.5 114l-38 18q-25 -37 -59.5 -56.5t-80.5 -19.5t-87 22.5t-75 68.5t-60 114q-42 111 -92.5 178t-116.5 97.5t-157 30.5q-96 0 -166 -32t-108.5 -90.5t-38.5 -137.5z" />
    <glyph glyph-name="u111E3" unicode="&#x111e3;" horiz-adv-x="1357" 
d="M723 187l11 -180l19 -18v127q0 46 10 70.5t25.5 33.5t32.5 9q35 0 57.5 -29.5t40.5 -77.5q24 -65 49 -109.5t53.5 -72t62 -40t72.5 -12.5q64 0 107.5 41t66.5 114l-37 18q-25 -37 -59.5 -56.5t-81.5 -19.5q-46 0 -87 22.5t-74.5 68.5t-59.5 114q-10 25 -23 54t-34.5 50
t-58.5 21q-48 0 -72 -35.5t-20 -92.5zM248 312q0 23 20 39t46 16t45 -16t19 -39q0 -22 -19 -38.5t-45 -16.5t-46 16.5t-20 38.5zM27 236q0 -75 36.5 -131.5t100 -87.5t143.5 -31q85 0 143 28.5t88 76t30 104.5q0 69 -32.5 115.5t-86 70t-118.5 23.5q-52 0 -88 -25.5
t-36 -67.5q0 -26 15.5 -46t40.5 -31.5t51 -11.5q27 0 51 11.5t39 31.5t15 46q0 15 -6 30t-18 26q44 -10 65 -37.5t21 -55.5q0 -38 -21.5 -66.5t-60.5 -44t-92 -15.5q-63 0 -106 21t-65 55.5t-22 73.5q0 35 17 64.5t47.5 51.5t72.5 34t93 12q75 0 141 -27t116.5 -84t81 -146
t34.5 -214h36q-4 132 -36.5 227.5t-88 157.5t-128 92t-156.5 30q-73 0 -131.5 -18t-100 -52t-63.5 -82t-22 -108z" />
    <glyph glyph-name="u111E4" unicode="&#x111e4;" horiz-adv-x="914" 
d="M190 485q-50 0 -87 -31t-56.5 -89t-19.5 -138q0 -70 25.5 -127.5t68.5 -91t95 -33.5q25 0 45 8v33q-10 -4 -19.5 -6t-19.5 -2q-40 0 -71.5 23.5t-50 64.5t-18.5 91q0 68 30.5 104t86.5 36q51 0 79.5 -36t28.5 -101v-24h38v24q0 66 28 101.5t80 35.5t80 -35.5t28 -101.5
v-24h38v24q0 65 30 101t82 36q57 0 86 -38.5t29 -115.5v-374h-61q-41 0 -69.5 23t-28.5 57q0 38 19 66.5t54 45.5q6 3 9 5t10.5 5t28 11.5t61.5 24.5l-12 29q-25 -10 -53 -20.5t-66 -27.5q-73 -31 -107.5 -67.5t-34.5 -83.5q0 -57 44 -89t121 -32h126v520q0 100 -40.5 159.5
t-109.5 59.5q-71 0 -107 -46.5t-36 -137.5h24q0 90 -37 137t-108 47q-70 0 -107.5 -47t-37.5 -137h24q0 91 -35.5 137.5t-106.5 46.5z" />
    <glyph glyph-name="u111E5" unicode="&#x111e5;" horiz-adv-x="1312" 
d="M842 319q-31 0 -58.5 -16t-44 -47t-14.5 -75l9 -171l19 -21v89q0 48 14.5 74t35.5 36.5t39 10.5q23 0 45.5 -10.5t37.5 -36.5t15 -74v-89h34v201q0 31 -16 60.5t-45.5 49t-70.5 19.5zM962 61l12 -36v33q0 47 19 71t50 24q32 0 50 -20t34 -66q18 -54 53.5 -73.5t91.5 -3.5
v30q-38 -10 -61 -5t-36 23.5t-24 49.5q-11 34 -22.5 70t-32 60.5t-58.5 24.5q-49 0 -70.5 -44t-8.5 -117zM248 312q0 23 20 39t46 16t45 -16t19 -39q0 -22 -19 -38.5t-45 -16.5t-46 16.5t-20 38.5zM27 236q0 -75 36.5 -131.5t100 -87.5t143.5 -31q85 0 143 28.5t88 76
t30 104.5q0 69 -32.5 115.5t-86 70t-118.5 23.5q-52 0 -88 -25.5t-36 -67.5q0 -26 15.5 -46t40.5 -31.5t51 -11.5q27 0 51 11.5t39 31.5t15 46q0 15 -6 30t-18 26q44 -10 65 -37.5t21 -55.5q0 -38 -21.5 -66.5t-60.5 -44t-92 -15.5q-63 0 -106 21t-65 55.5t-22 73.5
q0 35 17 64.5t47.5 51.5t72.5 34t93 12q75 0 141 -27t116.5 -84t81 -146t34.5 -214h36q-4 132 -36.5 227.5t-88 157.5t-128 92t-156.5 30q-73 0 -131.5 -18t-100 -52t-63.5 -82t-22 -108z" />
    <glyph glyph-name="u111E6" unicode="&#x111e6;" horiz-adv-x="825" 
d="M448 269v31h-86q-90 0 -143 -44.5t-53 -119.5q0 -53 23 -90t62.5 -60.5t89 -34t102.5 -10.5q109 0 182.5 41.5t111.5 115t38 167.5q0 75 -23.5 140t-66 113.5t-101.5 76t-130 27.5q-87 0 -151 -32t-108 -94h41q39 47 93.5 71.5t124.5 24.5q60 0 106.5 -23t79.5 -62.5
t50 -88.5t17 -102q0 -94 -62.5 -151.5t-197.5 -57.5q-33 0 -68 3t-65 12t-48.5 26t-18.5 45q0 22 14.5 39t43.5 27t72 10h71zM178 -59v40q-89 77 -89 218q0 60 19.5 110t64 80.5t118.5 30.5h52t52 -1v29q-24 1 -47.5 1.5t-46.5 0.5q-124 0 -187.5 -65.5t-63.5 -182.5
q0 -90 35 -161t93 -100zM235 361q0 -38 31 -64t96 -26l45 14v18h-35q-43 0 -70.5 12t-27.5 46q0 23 17 41t70 18v28q-48 0 -75.5 -13t-39 -33t-11.5 -41z" />
    <glyph glyph-name="u111E7" unicode="&#x111e7;" horiz-adv-x="823" 
d="M578 72v-295h-29q-44 0 -70 12.5t-38 30.5t-15.5 36t-3.5 29q0 17 8.5 41t30 42t60.5 18q17 0 32.5 -0.5t31.5 -5.5l21 -7q39 -12 69.5 -32.5t69.5 -61.5h28v609h-43v-573l26 -9q-28 29 -64 55.5t-86 42.5l-16 7q-33 6 -69 6q-71 0 -113 -20t-59.5 -52.5t-17.5 -70.5
q0 -29 21 -58.5t64 -49.5t110 -20h93v444q0 55 -15 107.5t-49 95t-88.5 67.5t-134.5 25q-79 0 -133.5 -26.5t-87 -69t-47 -92t-14.5 -95.5q0 -41 11 -81.5t32.5 -73.5t55 -53t78.5 -20q21 0 45 9v30q-20 -7 -39 -7q-41 0 -73.5 21t-50.5 54t-18 67q0 44 15 77t44.5 55.5
t75 34t106.5 11.5q84 0 138.5 -24t81 -79.5t26.5 -150.5z" />
    <glyph glyph-name="u111E8" unicode="&#x111e8;" horiz-adv-x="944" 
d="M210 485q-76 0 -119.5 -63.5t-43.5 -181.5q0 -72 25.5 -120t68.5 -72.5t95 -24.5q12 0 23 2t22 7v32q-20 -7 -39 -7q-60 0 -100 32.5t-40 110.5q0 65 30.5 96t86.5 31q51 0 79.5 -36t28.5 -101v-24h38v24q0 66 28 101.5t80 35.5t80 -35.5t28 -101.5v-24h38v24
q0 65 30 101t82 36q41 0 66 -19t37 -53.5t12 -81.5q0 -91 -29.5 -157t-76 -110t-101 -70.5t-105 -37.5t-85.5 -12q-56 0 -103 7.5t-74.5 26t-27.5 51.5q0 39 41 61t129 22q75 0 140 -16.5t123 -46t110 -67t100 -79.5v43q-41 39 -90.5 75.5t-108.5 65.5t-127.5 46.5
t-146.5 17.5q-44 0 -93 -5.5t-91.5 -18.5t-69 -37t-26.5 -61q0 -38 27.5 -62.5t73.5 -38t101.5 -19t112.5 -5.5q48 0 106.5 13.5t117 44.5t107 84.5t78 133.5t29.5 191q0 62 -8.5 112t-26.5 86t-46.5 55t-68.5 19q-71 0 -107 -46.5t-36 -137.5h24q0 90 -37 137t-108 47
q-70 0 -107.5 -47t-37.5 -137h24q0 91 -35.5 137.5t-106.5 46.5z" />
    <glyph glyph-name="u111E9" unicode="&#x111e9;" horiz-adv-x="1331" 
d="M355 466q-76 0 -120 -64.5t-44 -187.5q0 -69 25.5 -119t68.5 -76.5t95 -26.5q25 0 45 8v33q-10 -4 -19 -6t-20 -2q-40 0 -71.5 17t-50 50t-18.5 82q0 70 30.5 101.5t86.5 31.5q51 0 79.5 -35.5t28.5 -100.5v-25h39v25q0 66 27.5 101t79.5 35t80 -35t28 -101v-25h39v25
q0 65 29.5 100.5t81.5 35.5q41 0 66 -18.5t37 -53t12 -81.5q0 -64 -23.5 -121t-74 -100.5t-130.5 -68.5t-193 -25q-105 0 -195 25t-158 73.5t-105.5 119t-37.5 160.5q0 136 62 231.5t178 146.5t278 51q296 0 457 -192t203 -594h28v609h-42v-464l25 -118q0 130 -25.5 249.5
t-78 220t-132.5 175t-188.5 115.5t-246.5 41q-174 0 -299 -56.5t-192.5 -161.5t-67.5 -253q0 -113 39.5 -203.5t111.5 -154.5t172.5 -98t221.5 -34q149 0 250 58t152.5 163.5t51.5 245.5q0 62 -8.5 112t-26.5 85.5t-46.5 55t-68.5 19.5q-70 0 -106.5 -46.5t-36.5 -137.5h25
q0 90 -37.5 137t-108.5 47q-70 0 -107.5 -47t-37.5 -137h24q0 91 -35.5 137.5t-105.5 46.5z" />
    <glyph glyph-name="u111EA" unicode="&#x111ea;" horiz-adv-x="1095" 
d="M668 466q-45 0 -84.5 -23t-70 -62t-49.5 -89.5t-23 -105.5l31 -10q6 19 15 26.5t22 7.5q11 0 19 -6t8 -23q0 -22 -22 -35.5t-51.5 -19.5t-52.5 -6q-32 0 -64 8t-53.5 27t-21.5 50q0 29 29.5 55t99.5 26v28h-12q-85 0 -137.5 -48t-52.5 -127q0 -54 25 -95.5t70 -65
t104 -23.5q88 0 142 47.5t54 125.5q0 50 -21.5 81.5t-56.5 31.5q-16 0 -32 -8q15 47 60 76.5t101 29.5q64 0 107.5 -28.5t66.5 -83.5t23 -134v-106h-29q-43 0 -68 26.5t-25 64.5q0 43 25 68.5t65 25.5q11 0 20.5 -1t18.5 -3l19 -7q33 -12 56 -33.5t43.5 -62t44.5 -109.5h31
v510h-43v-474l26 -8q-22 64 -43.5 103.5t-47.5 63t-65 40.5l-16 6q-9 2 -28 4t-28 2q-75 0 -122 -34.5t-47 -90.5q0 -57 48 -89.5t131 -32.5h68v249q0 77 -26.5 135.5t-73 92t-107.5 33.5zM172 -44v40q-90 77 -90 218q0 60 20 110t64.5 80.5t117.5 30.5h104v30h-47h-47
q-124 0 -187.5 -65.5t-63.5 -182.5q0 -90 35.5 -161t93.5 -100zM229 376q0 -38 30.5 -64t96.5 -26l44 13v19h-35q-43 0 -70.5 12t-27.5 46q0 23 17 41t70 18v28q-47 0 -74.5 -13t-39 -33t-11.5 -41z" />
    <glyph glyph-name="u111EB" unicode="&#x111eb;" horiz-adv-x="1005" 
d="M311 271h196v30h-364v-38q14 3 60 5.5t108 2.5zM197 118q0 -46 21.5 -88t61.5 -68.5t96 -26.5q60 0 97.5 26t56.5 72q17 -45 55 -70.5t95 -25.5q87 0 143 50.5t56 145.5q0 91 -58 134t-158 43q-21 0 -43 -2t-32 -5q5 50 31.5 74t72.5 24h53v32q-36 0 -64 13t-44 36.5
t-16 55.5q0 41 29 70t74 29q40 0 72 -18t56 -46t41 -60.5t28.5 -62t18.5 -49.5h35v268h-42v-198l23 -41q-6 17 -17.5 46.5t-30 62.5t-47 62.5t-69 48.5t-95.5 19q-37 0 -75.5 -12t-65 -40.5t-26.5 -77.5q0 -34 17.5 -57.5t45 -37.5t58 -20t56.5 -6v15q-65 0 -109 -38
t-44 -115v-5.5v-5.5q31 7 57 9t57 2q62 0 97.5 -22.5t35.5 -63.5q0 -43 -37.5 -67.5t-102.5 -24.5q-38 0 -63.5 7.5t-37.5 22.5t-12 38v19h-32v-19q0 -21 -13 -36.5t-38 -23.5t-62 -8t-65 11t-44 30.5t-16 44.5q0 28 13 46t38.5 27.5t62.5 9.5h115l-36 30h-16
q-30 0 -72.5 -8t-75.5 -20q-52 -16 -81 -57t-29 -98zM50 198q0 -60 15.5 -112.5t44.5 -91t68 -57.5v40q-90 77 -90 217q0 60 20.5 110.5t67.5 81t127 30.5h92v31h-95q-123 0 -186.5 -66t-63.5 -183zM259 358q0 -38 33 -59.5t88 -21.5l51 12v12h-41q-48 0 -72.5 15.5
t-24.5 41.5q0 24 16.5 41t54.5 17h21v23q-126 0 -126 -81z" />
    <glyph glyph-name="u111EC" unicode="&#x111ec;" horiz-adv-x="848" 
d="M276 416q58 0 98 -22t57 -72q58 -1 77.5 -25.5t19.5 -57.5q0 -31 -21 -50t-48 -19q-15 0 -35.5 5t-35.5 24t-15 60q0 47 -28.5 68t-68.5 21q-52 0 -86 -44t-34 -113q0 -77 38 -135.5t105 -91.5t155 -33q158 0 243.5 85t85.5 243l-82 55q0 -103 -67 -163t-183 -60
q-111 0 -176.5 38.5t-65.5 105.5q0 35 20 58.5t53 23.5q26 0 42.5 -14.5t16.5 -43.5q0 -48 18 -74t45 -36t55 -10q40 0 70 28.5t30 71.5q0 47 -24.5 76t-80.5 36q-22 50 -70.5 75.5t-113.5 25.5q-72 0 -125 -33t-81.5 -94t-28.5 -145t36 -148.5t100 -99.5v40
q-46 31 -73 87.5t-27 120.5q0 76 24 128.5t70 80t111 27.5zM411 629q87 0 155.5 -19t113 -54t58.5 -83h35v255h-42v-221l10 2q-15 44 -49.5 82.5t-81.5 67.5t-101.5 46t-109.5 17q-67 0 -118.5 -16t-80 -44.5t-28.5 -66.5q0 -35 21 -55.5t75.5 -30.5t156.5 -16q56 -3 92 -6
t59 -8.5t39.5 -15t34.5 -24.5q23 -20 37 -54t14 -74l82 -62q0 72 -26 131t-75 93q-23 17 -57.5 27.5t-83.5 17t-117 8.5q-77 3 -116 7.5t-52 13.5t-13 25q0 27 44.5 42t123.5 15z" />
    <glyph glyph-name="u111ED" unicode="&#x111ed;" horiz-adv-x="1283" 
d="M176 -44v41q-49 35 -69 77.5t-20 104.5q0 46 14 81.5t39.5 56.5t58.5 21q16 0 29 -3t30 -8l4 35q-16 5 -31 8.5t-36 3.5q-35 0 -69 -21t-56 -65.5t-22 -115.5q0 -38 12.5 -78.5t41 -76.5t74.5 -61zM429 377q0 44 -29 67t-68 23q-19 0 -40 -8t-35 -26.5t-14 -52.5
q0 -10 3 -23.5t12 -29.5l22 13q-4 11 -5 17.5t-1 15.5q0 32 18 45.5t43 13.5q31 0 47 -19t16 -45q0 -17 -8.5 -30t-16.5 -21q-33 -37 -67.5 -91.5t-60.5 -116.5t-34 -124l27 -19q8 40 20 61.5t33 21.5q18 0 30.5 -9.5t25.5 -24t33 -29t53 -24t86 -9.5q62 0 109 24.5
t73.5 68.5t26.5 101q0 58 -25.5 99.5t-72.5 64t-113 22.5q-59 0 -94 -16q28 35 80.5 54.5t116.5 19.5q42 0 78.5 -13.5t65.5 -38.5t49 -62h26l1 11q4 29 23 54t56 25q29 0 49.5 -13t32 -38.5t11.5 -63.5v-265h-28q-29 0 -54 11.5t-40 32t-15 47.5q0 41 28.5 67.5t71.5 26.5
q14 0 24.5 -1t19.5 -4l20 -6q36 -13 62.5 -37.5t49 -65t44.5 -102.5h30v510h-42v-474l25 -9q-20 59 -43 98t-52.5 65t-72.5 44l-16 4q-19 5 -38 6.5t-36 1.5q-49 0 -86 -15.5t-58 -43.5t-21 -65q0 -59 50 -90.5t143 -31.5h68v357q0 53 -14.5 88t-40 52t-59.5 17
q-27 0 -49 -11t-37 -31t-23 -45.5t-8 -55.5h23q0 28 -17 53.5t-46 45.5t-66 32t-77 12q-57 0 -105 -24t-99 -80q1 7 1 11zM372 262q29 20 66 30.5t81 10.5q41 0 68.5 -13t42 -34t14.5 -44q0 -33 -18.5 -53t-52 -29t-77.5 -9q-40 0 -67.5 7.5t-49 14.5t-43.5 7
q-10 0 -20.5 -2t-18.5 -8q17 33 32 60.5t43 61.5z" />
    <glyph glyph-name="u111EE" unicode="&#x111ee;" horiz-adv-x="900" 
d="M226 19q-10 -19 -16.5 -36t-26.5 -17q-25 0 -45 20.5t-33 52t-20 65.5t-7 61q0 126 42 185.5t118 59.5q44 0 83.5 -25.5t57.5 -57.5l20 23q-12 21 -33.5 42.5t-52.5 36.5t-74 15q-53 0 -98 -26.5t-71.5 -86.5t-26.5 -163q0 -40 9 -81.5t26.5 -77t43.5 -57t61 -21.5
q29 0 42.5 19.5t24.5 47.5zM314 -70q35 0 64.5 24.5t29.5 67.5q0 37 -28 63t-66 26q-37 0 -59.5 -20.5t-26.5 -51.5q-4 11 -6.5 29.5t-2.5 25.5q0 50 27 86.5t72 56.5t99 20q42 0 66.5 -8t34.5 -20.5t10 -25.5q0 -21 -8.5 -32.5t-21 -20t-25.5 -19t-21.5 -27t-8.5 -45.5
q0 -52 37 -91t107 -39q61 0 104.5 28.5t71.5 77t41 108.5t13 123l-82 56q0 -60 -15.5 -109t-43 -85t-65 -55t-81.5 -19q-14 0 -31 5t-17 22t13.5 27t33 19.5t39.5 22.5t33.5 35.5t13.5 60.5q0 52 -26.5 86t-70.5 50.5t-99 16.5q-67 0 -122.5 -30.5t-88 -86t-32.5 -130.5
q0 -56 14.5 -107t45 -83t78.5 -32zM314 77q23 0 40 -16.5t17 -39.5t-17 -39.5t-40 -16.5q-22 0 -39 16.5t-17 39.5t17 39.5t39 16.5zM446 629q80 0 138 -13.5t97 -36.5t61 -50.5t30 -55.5h36v255h-43v-221l10 2q-7 20 -29.5 55.5t-63.5 71.5t-102.5 61t-145.5 25
q-38 0 -78 -6.5t-74 -21t-55 -39t-21 -60.5q0 -38 22.5 -58t60 -28t82 -10.5t88.5 -4.5q60 -3 99.5 -6.5t68.5 -13.5t57 -35q29 -24 40 -60t11 -68l82 -62q0 78 -28 135.5t-72 88.5q-33 24 -79 34.5t-94 14t-86 4.5q-60 3 -100 5.5t-60 11.5t-20 29q0 19 16.5 30t42.5 17
t55 8t54 2z" />
    <glyph glyph-name="u111EF" unicode="&#x111ef;" horiz-adv-x="1043" 
d="M546 311q0 -73 -18.5 -114t-46.5 -59t-57 -22t-50 -4h-81v33h81q31 0 58 8.5t44 31t17 64.5q0 24 -10 41.5t-28 27t-42 9.5q-37 0 -59 -23.5t-22 -77.5v-12h-39v12q0 53 -25 77t-68 24q-37 0 -57.5 -20.5t-28 -51.5t-7.5 -61q0 -91 37.5 -139.5t100.5 -48.5q20 0 38 7
v-30q-11 -4 -22 -6t-22 -2q-60 0 -102 37t-64.5 100.5t-22.5 141.5q0 42 9 83t27.5 74.5t46.5 53.5t65 20q58 0 89.5 -35t31.5 -103h-13q0 68 31.5 103t85.5 35q43 0 70 -25t40 -65t13 -84zM326 145q76 0 146 -24t125.5 -65.5t88 -94.5t32.5 -112q0 -41 -17.5 -72t-44.5 -31
q-40 0 -63 43.5t-23 152.5q0 15 0.5 51t3 86t9.5 105.5t20 108.5t34.5 96.5t53 69.5t74.5 26t73.5 -30.5t51 -79.5t32.5 -106.5t18 -113t8 -98.5t2 -62l-17 101v389h40v-509h-41q0 48 -4.5 97.5t-16 95t-30.5 81t-47.5 56.5t-68.5 21q-21 0 -44 -12t-44 -39t-38 -71.5
t-27 -109.5t-10 -153q0 -63 6 -97.5t18.5 -48t29.5 -13.5q11 0 17.5 11t9.5 26.5t3 28.5q0 57 -31.5 105t-84 83.5t-116 55t-127.5 19.5z" />
    <glyph glyph-name="u111F0" unicode="&#x111f0;" horiz-adv-x="1569" 
d="M404 485q-54 0 -85.5 -35t-31.5 -103h13q0 68 -31.5 103t-89.5 35q-37 0 -64.5 -20t-46 -53.5t-28 -74.5t-9.5 -83q0 -78 22.5 -141.5t64.5 -101t102 -37.5q22 0 44 9v30q-18 -7 -38 -7q-63 0 -100.5 48t-37.5 139q0 31 7.5 61.5t28 51.5t57.5 21q43 0 68 -24t25 -77v-12
h39v12q0 53 22 77t59 24q24 0 42 -9.5t28 -27t10 -41.5q0 -42 -17 -64.5t-44 -31t-58 -8.5h-81v-33h81q21 0 50 4t57 22t46.5 59t18.5 114q0 44 -13 84t-40 65t-70 25zM602 -58v133q0 84 6 148t21.5 108.5t44 70.5t73.5 35l60 44q-97 -9 -148 -49.5t-69.5 -120t-18.5 -205.5
v-164q0 -109 22.5 -152.5t63.5 -43.5q27 0 44 31t17 72q0 59 -35 112t-94.5 94.5t-132.5 65.5t-149 24l1 -33q64 0 130.5 -19.5t123 -55t91 -83.5t34.5 -105q0 -13 -3 -28.5t-9.5 -26.5t-17.5 -11q-18 0 -30 13.5t-18.5 48t-6.5 97.5zM705 396q0 -38 31 -64t96 -26l45 13v18
h-35q-43 0 -70.5 12.5t-27.5 46.5q0 23 16.5 41t70.5 18v28q-48 0 -75.5 -13t-39 -33t-11.5 -41zM1144 486q-45 0 -84 -23t-69.5 -62t-49.5 -89.5t-23 -105.5l30 -10q7 19 16 26.5t22 7.5q10 0 18 -6.5t8 -22.5q0 -22 -22 -35.5t-51.5 -19.5t-52.5 -6q-32 0 -64 8t-53.5 27
t-21.5 50q0 19 12.5 37.5t41.5 31t76 12.5v28h-12q-85 0 -137.5 -48t-52.5 -128q0 -54 25 -95.5t70 -65t103 -23.5q88 0 142 47.5t54 125.5q0 51 -21 82.5t-56 31.5q-17 0 -33 -8q16 47 60.5 76.5t100.5 29.5q64 0 107.5 -28.5t66.5 -83.5t23 -135v-105h-29q-43 0 -68 26.5
t-25 64.5q0 43 25 68.5t66 25.5q11 0 20 -1t18 -4l20 -6q32 -12 55 -34t44 -62.5t45 -108.5h30v510h-42v-474l25 -9q-22 65 -43.5 104t-47.5 62.5t-65 40.5l-16 6q-9 2 -27.5 4t-27.5 2q-76 0 -123 -34t-47 -90q0 -57 48 -89.5t131 -32.5h68v249q0 76 -26.5 135t-73 92.5
t-107.5 33.5z" />
    <glyph glyph-name="u111F1" unicode="&#x111f1;" horiz-adv-x="936" 
d="M46 198q0 -90 35 -161.5t93 -100.5v40q-46 41 -67.5 94t-21.5 124q0 60 20 110.5t67 81t127 30.5q23 0 46 -0.5t46 -4.5v29q-24 4 -47.5 5.5t-47.5 1.5q-123 0 -186.5 -66t-63.5 -183zM230 370q0 -26 20.5 -42t51 -23t61.5 -7v24q-93 5 -93 50q0 9 7 20t25.5 18t54.5 4
l3 15h-38q-39 3 -65.5 -11.5t-26.5 -47.5zM481 102q-45 0 -89 5t-80 17t-58 33t-22 53q0 26 18 44t50 27.5t75 9.5q1 0 12 -0.5t26 -1.5t26 -3q2 8 3 15.5t1 13.5q-21 3 -44.5 5t-35.5 2q-95 0 -151 -44t-56 -125q0 -61 26 -102.5t71 -66.5t103.5 -36.5t124.5 -11.5
q62 0 119 13t101.5 39.5t70 68.5t25.5 100q0 66 -30 102.5t-76.5 50.5t-95.5 14q-14 0 -28 -1t-30 -3q-1 4 -1 7v6q0 41 26 54.5t73 13.5h35v32q-36 0 -64 13t-44 36.5t-16 55.5q0 41 29 70t73 29q41 0 72.5 -18t56 -46.5t41.5 -60.5t28.5 -61.5t18.5 -49.5h35v268h-42v-198
l23 -41q-6 17 -17.5 46.5t-30 62.5t-47 62.5t-69 48.5t-95.5 19q-37 0 -75.5 -12t-65 -40.5t-26.5 -77.5q0 -34 17.5 -57.5t44.5 -37.5t57.5 -20t57.5 -6v15q-60 0 -97.5 -24t-37.5 -85q0 -9 1 -19t3 -20q20 4 42 6t41 2q44 0 73.5 -9.5t44.5 -26.5t15 -39
q0 -32 -20.5 -54.5t-54.5 -36t-76 -19.5t-85 -6z" />
    <glyph glyph-name="u111F2" unicode="&#x111f2;" horiz-adv-x="926" 
d="M36 198q0 -90 35 -161.5t93 -100.5v40q-46 41 -67.5 94t-21.5 124q0 60 20 110.5t67 81t127 30.5q23 0 46 -0.5t46 -4.5v29q-24 4 -47.5 5.5t-47.5 1.5q-123 0 -186.5 -66t-63.5 -183zM220 370q0 -26 20.5 -42t51 -23t61.5 -7v24q-93 5 -93 50q0 9 7 20t25.5 18t54.5 4
l3 15h-38q-39 3 -65.5 -11.5t-26.5 -47.5zM471 -64q63 0 119.5 13t101 39.5t70 68.5t25.5 100q0 96 -71 138q17 13 24 27.5t7 32.5q0 35 -30.5 64t-88.5 29q-64 0 -102.5 -31.5t-38.5 -92.5q0 -18 4 -37q20 4 42 6.5t41 2.5q38 0 70 -9t51.5 -29t19.5 -54q0 -30 -21 -53
t-56.5 -38t-79.5 -23t-90 -8q-47 0 -91.5 8t-80 24t-56.5 40t-21 56q0 31 20.5 49t54 26t71.5 8q1 0 12 -0.5t26 -1.5t26 -2q4 12 4 26q-21 3 -44.5 5t-35.5 2q-95 0 -151.5 -43.5t-56.5 -124.5q0 -61 26 -103t71.5 -67t104 -36.5t124.5 -11.5zM619 416q42 0 64 -19.5
t22 -44.5t-18 -43q-22 8 -47.5 11.5t-54.5 3.5q-14 0 -28 -1t-30 -3q-1 4 -1 7v6q0 41 27.5 62t65.5 21zM386 142q64 -16 116.5 -11.5t83.5 23.5t31 46q0 15 -12.5 28.5t-38.5 18.5l-3 -4q36 5 76 16t60 31l-38 8q-7 -8 -32.5 -16t-60.5 -13q-27 -4 -59 -6t-54 -2v-26
q66 0 97.5 -8.5t31.5 -26.5q0 -14 -25.5 -26t-70 -14t-102.5 12v-30zM622 420h38v13q-36 0 -64 13t-44 36.5t-16 55.5q0 41 29 70t73 29q41 0 72.5 -18t56 -46.5t41.5 -60.5t28.5 -61.5t18.5 -49.5h35v268h-42v-198l23 -41q-6 17 -17.5 46.5t-30 62.5t-47 62.5t-69 48.5
t-95.5 19q-37 0 -75.5 -12t-65 -40.5t-26.5 -77.5q0 -34 17.5 -57.5t44.5 -36.5t57.5 -19t57.5 -6z" />
    <glyph glyph-name="u111F3" unicode="&#x111f3;" horiz-adv-x="1347" 
d="M829 173q0 -76 -25.5 -145t-75.5 -122.5t-124 -85.5t-172 -35q-56 -1 -97.5 9.5t-64 30t-22.5 45.5q0 43 53 58.5t156 15.5v32q-110 0 -189 -8t-121 -30.5t-42 -67.5q0 -39 41.5 -67t113 -42.5t160.5 -14.5q140 0 240.5 58.5t155 163.5t54.5 245q0 62 -8.5 112
t-26.5 85.5t-46.5 55t-68.5 19.5q-71 0 -107 -46.5t-36 -137.5h24q0 90 -37 137t-108 47q-70 0 -107.5 -47t-37.5 -137h24q0 91 -35.5 137.5t-106.5 46.5q-76 0 -119.5 -63.5t-43.5 -181.5q0 -72 25.5 -120t68.5 -72.5t95 -24.5q12 0 23 2t22 6v33q-10 -4 -19.5 -5.5
t-19.5 -1.5q-60 0 -100 32.5t-40 110.5q0 65 30.5 96t86.5 31q51 0 79.5 -36t28.5 -101v-24h38v24q0 66 28 101.5t80 35.5t80 -35.5t28 -101.5v-24h38v24q0 65 30 101t82 36q41 0 66 -19t37 -53.5t12 -81.5zM906 51q0 -154 37 -229.5t91 -75.5q22 0 39.5 15.5t17.5 46.5
q0 49 -60.5 87t-186 59.5t-319.5 21.5h-68v-32h68q192 0 309 -19t170 -49.5t53 -64.5q0 -28 -27 -28q-37 0 -64.5 66t-27.5 202q0 83 13 136.5t35.5 84t49 43t53.5 12.5q40 0 68.5 -21t47.5 -56.5t30.5 -81t16 -95t4.5 -97.5h41v509h-40v-389l17 -101q0 19 -2 62t-8 98.5
t-18 113t-32.5 106.5t-51 79.5t-73.5 30.5q-51 0 -84.5 -29.5t-53.5 -76t-29.5 -100t-13 -102.5t-3 -83.5t0.5 -42.5z" />
    <glyph glyph-name="u111F4" unicode="&#x111f4;" horiz-adv-x="1060" 
d="M197 490q-50 0 -87 -31t-56.5 -88.5t-19.5 -137.5q0 -71 25 -128.5t68 -91t96 -33.5q11 0 22.5 2t21.5 6v33q-10 -4 -19 -5.5t-19 -1.5q-40 0 -72 23.5t-50.5 64t-18.5 91.5q0 67 31 103t87 36q50 0 78.5 -36t28.5 -101v-24h39v24q0 66 28 101.5t80 35.5t80 -35.5
t28 -101.5v-24h38v24q0 65 29.5 101t82.5 36q57 0 85.5 -38.5t28.5 -115.5v-374l42 -53v520q0 100 -40.5 159.5t-109.5 59.5q-71 0 -107 -46.5t-36 -137.5h24q0 90 -37 137t-108 47t-108 -47t-37 -137h24q0 91 -36 137.5t-106 46.5zM708 110q-55 0 -105 -17t-85 -58l28 -18
q30 37 72 50t87 13q53 0 104 -18t98.5 -60.5t88.5 -117.5h30v608h-42v-572l25 -8q-54 105 -134.5 151.5t-166.5 46.5zM577 -47q0 -13 -8 -26t-23 -13q-16 0 -27 10.5t-11 28.5q0 14 8.5 31t25.5 30l-19 18q-24 -13 -35 -36t-11 -43q0 -34 21.5 -52t47.5 -18q21 0 42 16.5
t21 53.5q0 38 -33.5 64t-101.5 26q-44 0 -89 -21t-75 -61.5t-30 -100.5q0 -54 28 -92.5t70 -58.5t82 -20q34 0 58.5 11t44.5 27.5t39.5 33t41.5 27.5t52 11q40 0 70 -16.5t50 -40.5t29 -45h29v522l-42 -70v-379q-23 29 -62.5 45t-77.5 16q-42 0 -70 -9.5t-49 -21.5
t-40.5 -21.5t-43.5 -9.5q-27 0 -56 14.5t-49 41.5t-20 66q0 38 14 64.5t40.5 41t61.5 14.5q55 0 76 -19t21 -39z" />
    <glyph glyph-name="sinLVocalic" horiz-adv-x="861" 
d="M744 128v-26q0 -3 -2.5 -4.5t-7.5 -1.5h-40q-4 0 -6.5 1.5t-2.5 5.5v25q0 4 2.5 5.5t6.5 1.5h41q5 0 7 -1.5t2 -5.5zM536 495h92v14q0 5 4.5 8t14.5 3h69q13 0 19.5 -6t6.5 -18v-288q-1 2 -3 2.5t-4 0.5h-55q-20 0 -33.5 -9.5t-13.5 -35.5v-113q0 -20 18.5 -29.5
t35.5 -9.5h98q54 0 54 64v449q0 28 -18.5 51t-60.5 23h-157q-41 0 -54 -16t-13 -47v-43zM117 128q0 4 2.5 5.5t6.5 1.5h41q5 0 7 -1.5t2 -5.5v-25q0 -4 -2 -5.5t-7 -1.5h-40q-5 0 -7.5 1.5t-2.5 4.5v26zM325 495v43q0 31 -13 47t-54 16h-157q-42 0 -60.5 -23t-18.5 -51v-449
q0 -64 54 -64h98q17 0 35.5 9.5t18.5 29.5v113q0 26 -13.5 35.5t-33.5 9.5h-56q-3 0 -4 -0.5t-2 -1.5v287q0 12 6.5 18t19.5 6h69q10 0 14.5 -3t4.5 -8v-14h92zM199 54q0 -28 11 -41t39 -13h60.5h60.5h60.5h60.5h60.5h60.5q28 0 39 13t11 41v246q0 56 -56 56h-66v24
q0 14 16 14h105v103h-145q-29 0 -50.5 -13t-21.5 -41v-190h73q11 0 16 -4.5t5 -14.5v-105q0 -11 -4.5 -16.5t-13.5 -5.5h-179q-9 0 -13.5 5.5t-4.5 16.5v105q0 10 6.5 14.5t14.5 4.5h73v190q0 28 -21.5 41t-50.5 13h-145v-103h105q8 0 12 -3.5t4 -10.5v-24h-66
q-56 0 -56 -56v-246z" />
    <glyph glyph-name="sinKSsa" horiz-adv-x="920" 
d="M285 244v-113q0 -14 -2.5 -18.5t-10.5 -4.5h-11q-8 0 -11 4t-3 15v62h-68v-64q0 -8 -2.5 -12.5t-12.5 -4.5h-8q-9 0 -11.5 3.5t-2.5 16.5v54q0 18 4 28t8 13v14h-29l30 26h115q8 0 11.5 -5t3.5 -14zM22 276v-73h36q-10 -6 -18 -19t-8 -44v-90q0 -23 10 -36.5t34 -13.5h99
q14 0 25 7.5t14 21.5q7 -29 37 -29h90q23 0 38 12t15 39v247q0 30 -14.5 43.5t-38.5 13.5h-80l48 34q7 3 17 4t22 1h92v103h-106q-19 0 -40 -4.5t-40 -17.5l-23 -16v3q0 6 -6 20.5t-30 14.5h-163v-103h85q10 0 17 -2.5t7 -9.5v-2zM690 262l-70 -58q-11 -8 -15.5 -18.5
t-4.5 -26.5v-26h114v20q0 15 4.5 22.5t12.5 15.5l69 71h-110zM426 54q0 -28 11 -41t39 -13h363q28 0 39 13t11 41v239q0 56 -56 56h-79v31q0 7 4.5 10.5t11.5 3.5h26q5 0 7 -2t2 -6q0 -6 -3 -10.5t-10 -11.5l-37 -34l101 1l21 23q12 15 12 38v58q0 28 -16 37.5t-32 9.5h-111
q-29 0 -50.5 -13t-21.5 -41v-190h86q11 0 16 -4.5t5 -14.5v-105q0 -11 -4.5 -16.5t-13.5 -5.5h-179q-9 0 -13.5 5.5t-4.5 16.5v105q0 10 6.5 14.5t14.5 4.5h64v190q0 28 -21.5 41t-50.5 13h-136v-103h96q8 0 12 -3.5t4 -10.5v-24h-57q-56 0 -56 -56v-246z" />
    <glyph glyph-name="sinKVa" horiz-adv-x="912" 
d="M12 276v-73h36q-10 -6 -18 -19t-8 -44v-90q0 -23 10 -36.5t34 -13.5h99q14 0 25 7.5t14 21.5q7 -29 37 -29h90q23 0 38 12t15 39v247q0 30 -14.5 43.5t-38.5 13.5h-80l25 22q10 8 20.5 11t19.5 3l49 -6l91 -18l12 103l-96 16l-66 8q-15 0 -31 -4t-31 -15l-23 -16v3
q0 6 -6 20.5t-30 14.5h-163v-103h85q10 0 17 -2.5t7 -9.5v-2zM882 415h-124v-286q0 -22 -18 -22h-179q-9 0 -13.5 5.5t-4.5 16.5v89q0 9 5.5 14t15.5 5h101v175q0 27 -15.5 42.5t-47.5 15.5h-146v-103h69q8 0 12 -3.5t4 -10.5v-22h-66q-56 0 -56 -55v-222q0 -28 11.5 -41
t38.5 -13h363q28 0 39 13t11 41v361zM275 243v-113q0 -14 -2.5 -18.5t-10.5 -4.5h-11q-8 0 -11 4t-3 15v62h-68v-64q0 -8 -2.5 -12.5t-12.5 -4.5h-8q-9 0 -11.5 3.5t-2.5 16.5v54q0 18 4 28t8 13v14h-29l30 26h115q8 0 11.5 -5t3.5 -14zM813 625h-394v-107h313q15 0 20.5 -5
t5.5 -18v-95h124v144q0 43 -13.5 62t-55.5 19z" />
    <glyph glyph-name="sinTVa" horiz-adv-x="919" 
d="M528 355l106 91l-235 35q-11 2 -38.5 6.5t-56.5 4.5q-24 0 -40.5 -6.5t-33.5 -19.5l-9 -7v2q0 7 -6 21.5t-30 14.5h-163v-103h85q10 0 17 -2.5t7 -9.5v-2l-119 -104v-73h36q-10 -6 -18 -19t-8 -44v-90q0 -23 10 -36.5t34 -13.5h265q23 0 38 12t15 39v247q0 30 -14.5 43.5
t-38.5 13.5h-80l28 24q6 6 13.5 8t15.5 2q5 0 11 -1l12 -2zM889 415h-124v-286q0 -22 -18 -22h-179q-9 0 -13.5 5.5t-4.5 16.5v76q0 10 5.5 14.5t15.5 4.5h101v167q0 28 -16 43t-47 15h-183l84 -90l22 -5q7 -1 11.5 -4t4.5 -10v-22h-66q-56 0 -56 -55v-209q0 -28 11 -41
t39 -13h363q28 0 39 13t11 41v361zM264 243v-113q0 -14 -3 -18.5t-10 -4.5h-93q-8 0 -11 3.5t-3 16.5v54q0 18 4 28t8 13v14h-41l30 26h104q7 0 11 -5t4 -14zM820 625h-394v-107h313q14 0 20 -5t6 -18v-95h124v144q0 43 -14 62t-55 19z" />
    <glyph glyph-name="sinTTha" horiz-adv-x="940" 
d="M441 355l223 39l-250 78q-11 3 -41 11.5t-59 8.5q-24 0 -40.5 -6.5t-33.5 -19.5l-9 -7v2q0 7 -6 21.5t-30 14.5h-163v-103h85q10 0 17 -2.5t7 -9.5v-2l-119 -104v-73h36q-10 -6 -18 -19t-8 -44v-90q0 -23 10 -36.5t34 -13.5h265q23 0 38 12t15 39v247q0 30 -14.5 43.5
t-38.5 13.5h-80l28 24q6 6 13.5 8.5t15.5 2.5q5 0 11 -1t12 -3zM274 243v-113q0 -14 -3 -18.5t-10 -4.5h-93q-8 0 -11 3.5t-3 16.5v54q0 18 4 28t8 13v14h-41l30 26h104q7 0 11 -5t4 -14zM703 538h53q8 0 10 -5t2 -11v-26h-43q-11 0 -16.5 2.5t-5.5 16.5v23zM895 394v165
q0 39 -15 53t-51 14h-281v-87h45v-65q0 -27 10.5 -37t35.5 -10h131v-33h125zM664 287v107h-176q-56 0 -56 -55v-285q0 -28 11 -41t39 -13h363q28 0 39 13t11 41v361h-125v-286q0 -22 -18 -22h-178q-9 0 -13.5 5.5t-4.5 16.5v139q0 10 5.5 14.5t15.5 4.5h87z" />
    <glyph glyph-name="sinNDa" horiz-adv-x="853" 
d="M266 418v13q0 32 -19.5 49t-51.5 17h-173v-103h131q11 0 17 -5t6 -15v-63zM212 223h36q15 0 15 -20v-71q0 -15 -2.5 -20t-17.5 -5h-81q-11 0 -14 4t-3 14v36l-8 118v62h-115v-290q0 -28 10.5 -39.5t37.5 -11.5h247q36 0 51.5 12t15.5 48v207q0 24 -10.5 35.5t-37.5 12.5
h-44zM150 151q10 0 20 12l190 210q9 10 16 15.5t22 5.5h34v103h-76q-24 0 -42.5 -11t-39.5 -36l-125 -150q-2 -2 -4 -3.5t-4 -1.5q-1 0 -3 1l-4 2l2 -140q0 -7 14 -7zM823 0v107h-263q-12 0 -16 5.5t-4 20.5v98q0 11 4.5 16.5t17.5 5.5h257v191q0 53 -53 53h-350v-103h265
q7 0 10.5 -3t3.5 -13v-23h-221q-28 0 -43 -13.5t-15 -43.5v-248q0 -24 9 -37t35 -13h72q-18 -7 -23.5 -19t-5.5 -37v-70q0 -25 15 -35t37 -10h291v107h-193q-10 0 -15.5 4t-5.5 14v16q0 15 7.5 22.5t23.5 7.5h160z" />
    <glyph glyph-name="sinNDha" horiz-adv-x="910" 
d="M266 418v13q0 32 -19.5 49t-51.5 17h-173v-103h131q11 0 17 -5t6 -15v-63zM212 223h36q15 0 15 -20v-71q0 -15 -2.5 -20t-17.5 -5h-81q-11 0 -14 4t-3 14v36l-8 118v62h-115v-290q0 -28 10.5 -39.5t37.5 -11.5h247q36 0 51.5 12t15.5 48v207q0 24 -10.5 35.5t-37.5 12.5
h-44zM150 151q10 0 20 12l175 194q4 5 10 10t14 8q7 3 16 3t17 -1l28 -3l94 96l-149 16l-33 2q-8 0 -15.5 -1.5t-13.5 -3.5q-9 -3 -16.5 -9t-10.5 -10l-137 -164q-2 -2 -4 -3.5t-4 -1.5q-1 0 -3 1l-4 2l2 -140q0 -7 14 -7zM654 362v108h-178q-31 0 -45 -18t-14 -47v-357
q0 -48 47 -48h137q17 0 30.5 11t16.5 26q10 -37 49 -37h136q25 0 36 13.5t11 36.5v510q0 37 -20.5 51.5t-52.5 14.5h-390v-116h308q18 0 24.5 -6t6.5 -25v-351q0 -10 -4.5 -15.5t-12.5 -5.5h-18q-11 0 -17 7t-6 20v111h-99v-113q0 -13 -5.5 -19t-16.5 -6h-17q-9 0 -14 4.5
t-5 14.5v227q0 4 2.5 6.5t7.5 2.5h103z" />
    <glyph glyph-name="sinNVa" horiz-adv-x="908" 
d="M879 415h-124v-286q0 -22 -18 -22h-179q-9 0 -13.5 5.5t-4.5 16.5v89q0 9 5 14t16 5h101v175q0 58 -63 58h-169l75 -101l17 -1q8 -1 12 -4t4 -10v-23h-66q-56 0 -56 -55v-222q0 -28 11 -41t39 -13h363q27 0 38.5 13t11.5 41v361zM810 625h-394v-107h313q14 0 20 -5t6 -18
v-95h124v144q0 43 -14 62t-55 19zM266 418v13q0 32 -19.5 49t-51.5 17h-173v-103h131q11 0 17 -5t6 -15v-63zM212 223h36q15 0 15 -20v-71q0 -15 -2.5 -20t-17.5 -5h-81q-11 0 -14 4t-3 14v36l-8 118v62h-115v-290q0 -28 10.5 -39.5t37.5 -11.5h247q36 0 51.5 12t15.5 48
v207q0 24 -10.5 35.5t-37.5 12.5h-44zM150 151q10 0 20 12l175 194q4 5 10 10t14 8q7 3 16 2.5t17 -0.5l103 -8l94 101l-224 16q-6 0 -16.5 1t-16.5 1q-17 0 -29 -5q-9 -3 -16.5 -9t-10.5 -10l-137 -164q-2 -2 -4 -3.5t-4 -1.5q-1 0 -3 1l-4 2l2 -140q0 -7 14 -7z" />
    <glyph glyph-name="sinNTha" horiz-adv-x="914" 
d="M691 538h53q8 0 10 -5t2 -11v-26h-43q-11 0 -16.5 2.5t-5.5 16.5v23zM883 394v165q0 39 -15 53t-51 14h-281v-87h45v-65q0 -27 10.5 -37t35.5 -10h131v-33h125zM652 287v107h-176q-56 0 -56 -55v-285q0 -28 11 -41t39 -13h363q28 0 39 13t11 41v361h-125v-286
q0 -22 -18 -22h-178q-9 0 -13.5 5.5t-4.5 16.5v139q0 10 5.5 14.5t15.5 4.5h87zM266 418v13q0 32 -19.5 49t-51.5 17h-173v-103h131q11 0 17 -5t6 -15v-63zM212 223h36q15 0 15 -20v-71q0 -15 -2.5 -20t-17.5 -5h-81q-11 0 -14 4t-3 14v36l-8 118v62h-115v-290
q0 -28 10.5 -39.5t37.5 -11.5h247q36 0 51.5 12t15.5 48v207q0 24 -10.5 35.5t-37.5 12.5h-44zM150 151q10 0 20 12l170 190q6 7 13.5 10t12.5 3q8 0 19 -2.5t17 -4.5l23 -8l227 43l-247 82l-55 10q-8 0 -17 -1t-17 -4q-8 -2 -18 -8t-18 -16l-131 -157q-2 -2 -4 -3.5
t-4 -1.5q-1 0 -3 1l-4 2l2 -140q0 -7 14 -7z" />
    <glyph glyph-name="sinDVa" horiz-adv-x="678" 
d="M159 367h43l53 103h-147q-39 0 -62.5 -25.5t-23.5 -65.5v-379h118v343q0 14 5 19t14 5zM648 415h-124v-286q0 -22 -18 -22h-179q-9 0 -13.5 5.5t-4.5 16.5v89q0 9 5.5 14t15.5 5h101v175q0 27 -16 42.5t-47 15.5h-183v-103h106q8 0 12 -3.5t4 -10.5v-22h-66
q-56 0 -56 -55v-222q0 -28 11 -41t39 -13h363q28 0 39 13t11 41v361zM579 625h-394v-107h313q14 0 20 -5t6 -18v-95h124v144q0 43 -14 62t-55 19z" />
    <glyph glyph-name="sinDDha" horiz-adv-x="673" 
d="M159 371h43l53 99h-147q-39 0 -62.5 -25.5t-23.5 -65.5v-379h118v347q0 14 5 19t14 5zM417 362v108h-178q-31 0 -45 -18t-14 -47v-357q0 -48 47 -48h137q17 0 30.5 11t16.5 26q10 -37 49 -37h136q25 0 36 13.5t11 36.5v510q0 37 -20.5 51.5t-52.5 14.5h-390v-116h308
q18 0 24.5 -6t6.5 -25v-351q0 -10 -4.5 -15.5t-12.5 -5.5h-18q-11 0 -17 7t-6 20v111h-99v-113q0 -13 -5.5 -19t-16.5 -6h-17q-9 0 -14 4.5t-5 14.5v227q0 4 2.5 6.5t7.5 2.5h103z" />
    <glyph glyph-name="sinTtTtha" horiz-adv-x="684" 
d="M447 538h54q8 0 10 -5t2 -11v-26h-44q-11 0 -16.5 2.5t-5.5 16.5v23zM639 394v165q0 39 -15 53t-51 14h-281v-87h45v-65q0 -27 10.5 -37t35.5 -10h132v-33h124zM639 407h-124v-280q0 -9 -4 -14.5t-14 -5.5h-18q-12 0 -17 7t-5 20v88h-99v-90q0 -13 -5.5 -19t-16.5 -6h-17
q-9 0 -14 4.5t-5 14.5v150q0 5 2.5 7.5t7.5 2.5h103v108h-178q-31 0 -45 -18t-14 -47v-281q0 -48 47 -48h137q17 0 30.5 11t16.5 26q10 -37 49 -37h136q25 0 36 13.5t11 36.5v357zM159 295h43l53 99h-147q-39 0 -62.5 -25.5t-23.5 -65.5v-303h118v271q0 13 5 18.5t14 5.5z
" />
    <glyph glyph-name="sinMatraU.sub" horiz-adv-x="251" 
d="M26 189v-101h71l-54 -74q-8 -11 -9 -23t-1 -27v-100q0 -26 24 -26h162v95h-68q-13 0 -13 12v16q0 9 1 17t5 15l65 100v96h-183z" />
    <glyph glyph-name="sinMatraUu.sub" horiz-adv-x="216" 
d="M34 189v-63h62l-62 -39v-57h62l-43 -33q-11 -8 -12.5 -18t-1.5 -23v-92q0 -24 21 -24h127v92h-48q-8 0 -9.5 2t-1.5 11v10q0 6 0.5 13.5t9.5 14.5l49 39v67h-60l60 38v62h-153z" />
    <glyph glyph-name="sinRakar" horiz-adv-x="2" 
d="M-601 -16v-99q0 -22 12 -33t32 -11h452q19 0 30 10t11 33v100h-124v-19q0 -9 -2 -13.5t-11 -4.5h-263q-8 0 -10.5 4.5t-2.5 13.5v19h-124z" />
    <glyph glyph-name="sinReph" horiz-adv-x="2" 
d="M-469 621v-13q0 -8 -2.5 -12t-10.5 -4h-22q-12 0 -12 13v28q0 13 16 13h133q16 0 16 -23v-102h113v133q0 30 -13 43t-38 13h-285q-28 0 -41 -13t-13 -35v-98q0 -46 40 -46h172q15 0 23 8.5t8 28.5v66h-84z" />
    <glyph glyph-name="sinYansaya" horiz-adv-x="500" 
d="M225 253h102q9 0 13.5 -3.5t4.5 -13.5v-109q0 -12 -5 -16t-15 -4h-60q-13 0 -21.5 2t-15.5 6.5t-16 12.5l-41 36l39 221q1 5 1.5 12t1 13.5t0.5 11.5q0 31 -16.5 53t-48.5 22h-126v-103h41q8 0 14 -3.5t6 -11.5q0 -4 -1 -11l-69 -368h123l11 50l29 -24q10 -8 23.5 -17
t42.5 -9h161q67 0 67 70v215q0 35 -15.5 52.5t-56.5 17.5h-59v22q0 7 3.5 12t12.5 5h115v103h-168q-37 0 -57 -17.5t-20 -57.5v-169z" />
    <glyph glyph-name="sinMatraAa.virama" horiz-adv-x="248" 
d="M38 497v-103h38q18 0 18 -17v-251q0 -9 -4 -14t-14 -5h-38v-107h139q41 0 41 38v417q0 20 -9.5 31t-31.5 11h-139zM94 492h35q19 0 33.5 -7.5t23.5 -13.5t18.5 -23t13.5 -22v223h-124v-157z" />
    <glyph glyph-name="sinTouch" horiz-adv-x="600" 
 />
    <glyph glyph-name="sinK" horiz-adv-x="592" 
d="M437 492h35q19 0 33.5 -7.5t23.5 -13.5t18.5 -23t13.5 -22v223h-124v-157zM275 243v-113q0 -14 -2.5 -18.5t-10.5 -4.5h-11q-8 0 -11 4t-3 15v62h-68v-64q0 -9 -2.5 -13t-12.5 -4h-8q-9 0 -11.5 3.5t-2.5 16.5v54q0 18 4 28t8 13v14h-29l30 26h115q8 0 11.5 -5t3.5 -14z
M221 459v2q0 7 -6 21.5t-30 14.5h-163v-103h85q10 0 17 -2.5t7 -9.5v-2l-119 -104v-73h36q-10 -6 -18 -19t-8 -44v-90q0 -23 10 -36.5t34 -13.5h99q14 0 25 7t14 22q7 -29 37 -29h90q23 0 38 12t15 39v247q0 30 -14.5 43.5t-38.5 13.5h-80l30 26q9 8 15 10.5t17 2.5h104
q20 0 20 -18v-252q0 -17 -14 -17h-21v-107h106q22 0 38 11t16 38v395q0 24 -15.5 38.5t-43.5 14.5h-200q-18 0 -32 -3.5t-31 -17.5z" />
    <glyph glyph-name="sinKh" horiz-adv-x="518" 
d="M485 418h-124v-290q0 -10 -2.5 -15.5t-12.5 -5.5h-6q-6 0 -11.5 5.5t-11.5 14t-12 17.5l7 68v168q0 28 -16 41.5t-40 13.5h-175q-30 0 -44.5 -18.5t-14.5 -45.5v-323q0 -48 43 -48h93l10 107h-11q-7 0 -9 5t-2 11v179q0 11 3.5 16.5t16.5 5.5h15q11 0 14.5 -4.5
t3.5 -12.5v-104l-21 -208h92l18 49q3 -12 11.5 -22t21 -16t29.5 -6h89q26 0 36 16t10 35v367zM485 400v77q0 43 -13.5 62t-55.5 19h-219q-8 0 -13 5t-5 12t7 10.5t20 3.5h277v84h-384q-49 0 -49 -41v-39q0 -16 11 -27t33 -16h-80v-86h321q14 0 20 -4.5t6 -18.5v-41h124z" />
    <glyph glyph-name="sinG" horiz-adv-x="592" 
d="M438 492h35q19 0 33.5 -7.5t23.5 -13.5t18.5 -23t13.5 -22v223h-124v-157zM197 497h-116q-28 0 -43.5 -16.5t-15.5 -44.5v-375q0 -28 12.5 -44.5t39.5 -16.5h214q36 0 51.5 12t15.5 48v196q0 31 -22 32h-3l15 85q2 8 8 12.5t16 4.5h51q9 0 13.5 -4.5t4.5 -13.5v-239
q0 -16 -3.5 -21t-18.5 -5h-14v-107h97q37 0 50 13.5t13 50.5v370q0 34 -16 48.5t-51 14.5h-180q-63 0 -72 -51l-38 -230h14q15 0 15 -20v-64q0 -15 -2.5 -20t-17.5 -5h-51q-8 0 -12.5 5.5t-4.5 15.5v241q0 15 4 20t19 5h28v103z" />
    <glyph glyph-name="sinGh" horiz-adv-x="564" 
d="M409 492h35q19 0 33.5 -7.5t23.5 -13.5t18.5 -23t13.5 -22v223h-124v-157zM331 0h153q28 0 39 13t11 41v242q0 32 -15.5 46t-48.5 14h-82v23q0 8 5.5 11.5t15.5 3.5h124v103h-169q-29 0 -50.5 -13t-21.5 -41v-190h95q11 0 17 -4.5t6 -12.5v-106q0 -23 -18 -23h-33
q-6 0 -12 2t-6 9v4q0 6 4.5 9t10.5 6t12.5 7t6.5 14v41q0 24 -26 24h-71h-71q-26 0 -26 -24v-41q0 -10 6 -14t13 -7q6 -3 10.5 -6t4.5 -9v-4q0 -7 -6 -9t-12 -2h-33q-18 0 -18 23v106q0 8 6 12.5t17 4.5h95v190q0 28 -21.5 41t-50.5 13h-169v-103h125q10 0 15 -3.5t5 -11.5
v-23h-90q-14 0 -19 -11.5t-5.5 -27.5t-1.5 -32t-7 -24q-11 -5 -17 -16t-6 -27v-164q0 -28 11 -41t39 -13h153q21 0 36.5 13.5t15.5 33.5v84q0 6 -5 10t-10 7t-8.5 6.5t-3.5 9.5v8q0 10 11 10h17h17q11 0 11 -10v-8q0 -6 -3.5 -9.5t-8.5 -6.5t-10 -7t-5 -10v-84
q0 -20 15 -33.5t37 -13.5zM-6 356v-97h94v97h-94z" />
    <glyph glyph-name="sinNg" horiz-adv-x="578" 
d="M2 390v-59q0 -50 46 -50h124q12 0 20 7.5t8 23.5v53q0 5 -4.5 8l-4.5 3h32q11 0 16 -4.5t5 -12.5v-93h-104q-28 0 -42 -17t-14 -42v-153q0 -28 10 -41t38 -13h136q17 0 31 11t16 26q10 -37 49 -37h136q25 0 36 13.5t11 36.5v370l-124 -1v-291q0 -10 -4 -15.5t-13 -5.5
h-17q-12 0 -17.5 7t-5.5 20v32h-100v-34q0 -13 -5.5 -19t-16.5 -6h-17q-19 0 -19 23v60q0 8 6 12.5t17 4.5h118v168q0 38 -21.5 51t-50.5 13h-218q-28 0 -42.5 -13t-14.5 -36zM76 464h321q14 0 20 -4.5t6 -18.5v-41h124v77q0 43 -13.5 62t-55.5 19h-219q-7 0 -12.5 5
t-5.5 12t7 10.5t20 3.5h277v84h-384q-49 0 -49 -41v-39q0 -16 11 -27t33 -16h-80v-86zM64 370q0 3 2 4.5t4 1.5h57q7 0 7 -9v-22q0 -2 -2 -4t-4 -2h-57q-3 0 -5 1.5t-2 4.5v25z" />
    <glyph glyph-name="sinNng" horiz-adv-x="760" 
d="M606 492h35q19 0 33.5 -7.5t23.5 -13.5t18.5 -23t13.5 -22v223h-124v-157zM365 497h-120q-18 0 -30.5 -6t-18.5 -18.5t-6 -31.5v-390q0 -28 10.5 -39.5t37.5 -11.5h218q36 0 51.5 12t15.5 48v196q0 31 -22 32h-3l15 85q2 8 8 12.5t16 4.5h51q9 0 13.5 -4.5t4.5 -13.5
v-239q0 -16 -3.5 -21t-18.5 -5h-14v-107h97q37 0 50 13.5t13 50.5v370q0 34 -16 48.5t-51 14.5h-180q-63 0 -72 -51l-38 -230h14q15 0 15 -20v-64q0 -15 -2.5 -20t-17.5 -5h-51q-8 0 -12.5 5.5t-4.5 15.5v241q0 15 4 20t19 5h28v103zM159 398h43l53 99h-147
q-39 0 -62.5 -25.5t-23.5 -65.5v-406h118v374q0 13 5 18.5t14 5.5z" />
    <glyph glyph-name="sinC" horiz-adv-x="539" 
d="M-6 294v-94h168v94h-168zM509 400v77q0 43 -13.5 62t-55.5 19h-219q-8 0 -13 5t-5 12t7 10.5t20 3.5h277v84h-384q-49 0 -49 -41v-39q0 -16 11 -27t33 -16h-80v-86h321q14 0 20 -4.5t6 -18.5v-41h124zM509 415h-124v-286q0 -22 -18 -22h-179q-18 0 -18 22v26
q0 22 7.5 33.5t27.5 11.5h87v172q0 27 -16 42.5t-47 15.5h-183v-103h106q8 0 12 -3.5t4 -10.5v-19h-20q-11 0 -25.5 -13.5t-28.5 -31t-23 -31l-9 -13.5q-6 -7 -11 -18.5t-5 -35.5v-97q0 -28 11 -41t39 -13h363q28 0 39 13t11 41v361z" />
    <glyph glyph-name="sinCh" horiz-adv-x="513" 
d="M200 477q39 0 57.5 -2t28.5 -11t24 -31v223h-110v-179zM300 371q0 9 5 16t15 7h26q20 0 20 -22v-50q0 -8 -5.5 -14t-16.5 -6h-22q-11 0 -16.5 5t-5.5 15v49zM388 486q6 3 20 9t31 29l85 119h-133l-86 -110q-15 -19 -23.5 -27t-15 -11.5t-15.5 -8.5h137zM164 107
q-9 0 -13.5 5.5t-4.5 16.5v105q0 10 6.5 14.5t14.5 4.5h93v185q0 31 -17.5 45t-46.5 14h-173v-103h131q16 0 16 -15v-24h-92q-56 0 -56 -55v-246q0 -28 11 -41t39 -13h363q28 0 39 13t11 41v127q0 29 -6 46.5t-25 29.5q19 13 25 32.5t6 42.5v104q0 61 -55 61h-144
q-29 0 -49 -23.5t-20 -54.5v-164q0 -21 9.5 -34t29.5 -13h76q13 0 21 -5.5t8 -18.5v-55q0 -11 -4.5 -16.5t-13.5 -5.5h-179z" />
    <glyph glyph-name="sinJ" horiz-adv-x="513" 
d="M72 0h363q28 0 39 13t11 41v246q0 56 -56 56h-90v24q0 7 4 10.5t12 3.5h129v103h-169q-29 0 -50.5 -13t-21.5 -41v-190h97q11 0 16 -4.5t5 -14.5v-105q0 -11 -4.5 -16.5t-13.5 -5.5h-179q-9 0 -13.5 5.5t-4.5 16.5v105q0 10 6.5 14.5t14.5 4.5h49v190q0 28 -21.5 41
t-50.5 13h-121v-103h86q8 0 12 -3.5t4 -10.5v-24h-47q-56 0 -56 -56v-246q0 -28 11 -41t39 -13zM429 486q6 3 17.5 12.5t19.5 25.5l58 119h-133l-60 -111q-14 -25 -23 -32.5t-16 -13.5h137zM243 438l103 -1v219h-103v-218z" />
    <glyph glyph-name="sinJh" horiz-adv-x="912" 
d="M881 400v77q0 43 -13.5 62t-55.5 19h-225q-7 0 -12.5 5t-5.5 12t7 10.5t20 3.5h283v84h-390q-49 0 -49 -41v-39q0 -16 11 -27t33 -16h-59v-86h306q14 0 20 -4.5t6 -18.5v-41h124zM881 415h-124v-287q0 -10 -4.5 -15.5t-12.5 -5.5h-18q-11 0 -17 7t-6 20v111h-99v-113
q0 -13 -5.5 -19t-16.5 -6h-17q-9 0 -14 4.5t-5 14.5v148q0 5 2.5 7.5t7.5 2.5h47v108h-122q-31 0 -45 -18t-14 -47v-279q0 -48 47 -48h137q17 0 30.5 11t16.5 26q10 -37 49 -37h136q25 0 36 12.5t11 36.5v366zM275 243v-113q0 -14 -2.5 -18.5t-10.5 -4.5h-11q-8 0 -11 4
t-3 15v62h-68v-64q0 -8 -2.5 -12.5t-12.5 -4.5h-8q-9 0 -11.5 3.5t-2.5 16.5v54q0 18 4 28t8 13v14h-29l30 26h115q8 0 11.5 -5t3.5 -14zM12 203h36q-10 -6 -18 -19t-8 -44v-90q0 -23 10 -36.5t34 -13.5h99q14 0 25 7.5t14 21.5q7 -29 37 -29h90q23 0 38 12t15 39v247
q0 30 -14.5 43.5t-38.5 13.5h-80l25 22q12 10 18 12t15 2q5 0 15 -3t19 -6l90 -32l166 42l-248 89q-12 4 -28.5 7t-21.5 3q-16 0 -28 -2t-29 -14l-23 -16v3q0 6 -6 20.5t-30 14.5h-163v-103h85q10 0 17 -2.5t7 -9.5v-2l-119 -104v-73z" />
    <glyph glyph-name="sinNy" horiz-adv-x="1015" 
d="M855 492h35q19 0 33.5 -7.5t23.5 -13.5t18.5 -23t13.5 -22v223h-124v-157zM438 244v-113q0 -14 -3 -18.5t-10 -4.5h-11q-9 0 -11.5 4t-2.5 15v62h-68v-64q0 -8 -2.5 -12.5t-12.5 -4.5h-9q-8 0 -11 3.5t-3 16.5v54q0 18 4 28t8 13v14h-28l29 26h116q7 0 11 -5t4 -14z
M592 394v103h-106q-15 0 -31.5 -2.5t-32.5 -10.5l-8 -4t-8 -5l-23 -16v3q0 6 -5.5 20.5t-29.5 14.5h-164v-103h85q10 0 17 -2.5t7 -9.5v-2l-119 -104v-73h36q-10 -6 -18 -19t-8 -44v-90q0 -23 10 -36.5t34 -13.5h100q13 0 24 7.5t15 21.5q7 -29 37 -29h90q22 0 37.5 12
t15.5 39v247q0 30 -14.5 43.5t-38.5 13.5h-80l20 17q7 6 14.5 10.5t12.5 6.5q7 3 17 4t22 1h92zM159 411h43l53 86h-147q-39 0 -62.5 -25.5t-23.5 -65.5v-406h118v387q0 13 5 18.5t14 5.5zM983 0v107h-262q-12 0 -16.5 5.5t-4.5 20.5v98q0 11 5 16.5t17 5.5h257v191
q0 53 -53 53h-350v-103h265q7 0 10.5 -3t3.5 -13v-23h-221q-27 0 -42.5 -13.5t-15.5 -43.5v-248q0 -24 9.5 -37t34.5 -13h72q-17 -7 -23 -19t-6 -37v-70q0 -25 15.5 -35t36.5 -10h291v107h-193q-9 0 -15 4t-6 14v16q0 15 8 22.5t23 7.5h160z" />
    <glyph glyph-name="sinJny" horiz-adv-x="1011" 
d="M851 492h35q19 0 33.5 -7.5t23.5 -13.5t18.5 -23t13.5 -22v223h-124v-157zM588 394v103h-105q-63 0 -72 -51l-38 -230h14q15 0 15 -20v-64q0 -15 -2.5 -20t-17.5 -5h-51q-8 0 -12.5 5.5t-4.5 15.5v241q0 15 4 20t19 5h28v103h-120q-18 0 -30.5 -6t-18.5 -18.5t-6 -31.5
v-390q0 -28 10.5 -39.5t37.5 -11.5h218q36 0 51.5 12t15.5 48v196q0 31 -22 32h-3l18 89q2 9 8 13t16 4h48zM159 398h43l53 99h-147q-39 0 -62.5 -25.5t-23.5 -65.5v-406h118v374q0 14 5 19t14 5zM979 0v107h-263q-11 0 -15.5 5.5t-4.5 20.5v98q0 11 5 16.5t17 5.5h257v191
q0 53 -53 53h-350v-103h265q7 0 10.5 -3t3.5 -13v-23h-221q-27 0 -42.5 -13.5t-15.5 -43.5v-248q0 -24 9.5 -37t34.5 -13h72q-17 -7 -23 -19t-6 -37v-70q0 -25 15.5 -35t36.5 -10h291v107h-193q-10 0 -15.5 4t-5.5 14v16q0 15 7.5 22.5t23.5 7.5h160z" />
    <glyph glyph-name="sinNyj" horiz-adv-x="683" 
d="M241 0h363q28 0 39 13t11 41v246q0 56 -56 56h-90v24q0 14 16 14h129v103h-169q-29 0 -50.5 -13t-21.5 -41v-190h97q11 0 16 -4.5t5 -14.5v-105q0 -11 -4.5 -16.5t-13.5 -5.5h-179q-9 0 -13.5 5.5t-4.5 16.5v105q0 10 6.5 14.5t14.5 4.5h49v190q0 28 -21.5 41t-50.5 13
h-121v-103h86q16 0 16 -14v-24h-47q-56 0 -56 -56v-246q0 -28 11 -41t39 -13zM159 409h43l53 88h-147q-39 0 -62.5 -25.5t-23.5 -65.5v-406h118v385q0 14 5 19t14 5zM598 486q7 3 18 12.5t19 25.5l58 119h-133l-60 -111q-13 -25 -22 -32.5t-17 -13.5h137zM412 438l103 -1
v219h-103v-218z" />
    <glyph glyph-name="sinTt" 
d="M485 400v77q0 43 -13.5 62t-55.5 19h-219q-8 0 -13 5t-5 12t7 10.5t20 3.5h277v84h-384q-49 0 -49 -41v-39q0 -16 11 -27t33 -16h-80v-86h321q14 0 20 -4.5t6 -18.5v-41h124zM254 313v107h-176q-56 0 -56 -55v-311q0 -28 11 -41t39 -13h363q28 0 39 13t11 41v361h-124
v-286q0 -22 -18 -22h-179q-9 0 -13.5 5.5t-4.5 16.5v165q0 10 5.5 14.5t15.5 4.5h87z" />
    <glyph glyph-name="sinTth" 
d="M369 708v-228h116v228h-116zM222 576h2q2 0 4.5 -1t4.5 -2l109 -47q5 -2 11 -5.5t6 -9.5v-2h-115q-11 0 -16.5 2t-5.5 16v49zM485 394v100q0 39 -21.5 57t-48.5 30l-14.5 6.5t-36.5 16t-43.5 19t-36.5 16l-15 6.5q-32 14 -47 16.5t-38 2.5h-123v-87h51v-90
q0 -27 10.5 -37t35.5 -10h203v-46h124zM485 407h-124v-280q0 -9 -4 -14.5t-14 -5.5h-18q-12 0 -17 7t-5 20v88h-99v-90q0 -13 -5.5 -19t-16.5 -6h-17q-9 0 -14 4.5t-5 14.5v150q0 5 2.5 7.5t7.5 2.5h103v108h-178q-31 0 -45 -18t-14 -47v-281q0 -48 47 -48h137q17 0 30.5 11
t16.5 26q10 -37 49 -37h136q25 0 36 13.5t11 36.5v357z" />
    <glyph glyph-name="sinDd" 
d="M485 400v77q0 43 -13.5 62t-55.5 19h-219q-8 0 -13 5t-5 12t7 10.5t20 3.5h277v84h-384q-49 0 -49 -41v-39q0 -16 11 -27t33 -16h-80v-86h321q14 0 20 -4.5t6 -18.5v-41h124zM-6 296v-97h94v97h-94zM70 0h136q17 0 30.5 11t16.5 26q10 -37 49 -37h136q25 0 36 13.5
t11 36.5v373h-124v-295q0 -10 -4.5 -15.5t-12.5 -5.5h-18q-11 0 -17 7t-6 20v27h-99v-29q0 -13 -6 -19t-16 -6h-17q-19 0 -19 23v46q0 9 6 13t17 4h95v190q0 29 -21.5 41.5t-50.5 12.5h-169v-103h103q10 0 15 -3.5t5 -11.5v-23h-68q-14 0 -19 -11t-5.5 -27.5t-1.5 -32
t-7 -24.5q-11 -5 -17 -16t-6 -37v-94q0 -28 10 -41t38 -13z" />
    <glyph glyph-name="sinDdh" 
d="M70 0h136q17 0 30.5 11t16.5 26q10 -37 49 -37h136q25 0 36 13.5t11 36.5v362h-124v-284q0 -10 -4.5 -15.5t-12.5 -5.5h-18q-11 0 -17 7t-6 20v27h-99v-29q0 -13 -6 -19t-16 -6h-17q-19 0 -19 23v55q0 8 6 12.5t17 4.5h95v164q0 28 -21.5 41t-50.5 13h-169v-94h125
q10 0 15 -4t5 -11v-20h-90q-14 0 -19 -9.5t-5.5 -23t-1.5 -27t-7 -21.5q-11 -6 -17 -16.5t-6 -26.5v-113q0 -28 10 -41t38 -13zM485 394v100q0 39 -21.5 57t-48.5 30l-14.5 6.5t-36.5 16t-43.5 19t-36.5 16l-15 6.5q-32 14 -47 16.5t-38 2.5h-123v-87h51v-90q0 -27 10.5 -37
t35.5 -10h203v-46h124zM222 576h2q2 0 4.5 -1t4.5 -2l109 -47q5 -2 11 -5.5t6 -9.5v-2h-115q-11 0 -16.5 2t-5.5 16v49zM-6 291v-83h94v83h-94zM369 708v-228h116v228h-116z" />
    <glyph glyph-name="sinNn" horiz-adv-x="845" 
d="M690 492h35q19 0 33.5 -7.5t23.5 -13.5t18.5 -23t13.5 -22v223h-124v-157zM390 497h-289q-23 0 -41.5 -11.5t-18.5 -42.5v-216q0 -35 17 -55t41 -20h180v84h-100q-14 0 -19.5 5t-5.5 19v116q0 22 28 22h112q7 0 12.5 -3t9 -8.5t3.5 -14.5v-239q0 -13 -5 -19.5t-15 -6.5
h-116q-15 0 -17.5 6.5t-2.5 12.5q0 2 -1.5 5.5t-4.5 3.5l327 481h-121l-341 -483v-120l35 38q9 0 13.5 -3t4.5 -10q0 -27 12.5 -32.5t41.5 -5.5h242q40 0 56 20t16 55v298q0 11 6 16t17 5h18q12 0 17.5 -6.5t5.5 -18.5v-188h109v191q0 11 5.5 16.5t15.5 5.5h32q12 0 16.5 -4
t4.5 -19v-236q0 -13 -4 -20.5t-21 -7.5h-181v-107h257q43 0 58 17.5t15 47.5v374q0 58 -61 58h-130q-28 0 -40 -9.5t-17 -23.5q-5 14 -14.5 23.5t-34.5 9.5h-31q-39 0 -54 -30q-6 12 -15.5 21t-26.5 9z" />
    <glyph glyph-name="sinNndd" horiz-adv-x="700" 
d="M670 394v77q0 43 -14 62t-55 19h-219q-8 0 -13 5t-5 12t6.5 10.5t20.5 3.5h277v84h-384q-49 0 -49 -41v-39q0 -16 11 -27t33 -16h-80v-86h321q14 0 20 -4.5t6 -18.5v-41h124zM179 290v-97h94v97h-94zM255 -6h136q17 0 30.5 11t16.5 26q10 -37 49 -37h136q25 0 36 13.5
t11 36.5v373h-124v-295q0 -10 -4.5 -15.5t-12.5 -5.5h-18q-11 0 -17 7t-6 20v27h-99v-29q0 -13 -6 -19t-16 -6h-17q-19 0 -19 23v46q0 9 5.5 13t17.5 4h95v190q0 29 -21.5 41.5t-50.5 12.5h-169v-103h102q10 0 15 -3.5t5 -11.5v-23h-67q-14 0 -19 -11t-5.5 -27.5t-1.5 -32
t-7 -24.5q-12 -5 -17.5 -16t-5.5 -37v-94q0 -28 10 -41t38 -13zM159 345h55l41 86h-147q-39 0 -62.5 -25t-23.5 -66v-340h118v321q0 14 5 19t14 5z" />
    <glyph glyph-name="sinT" horiz-adv-x="592" 
d="M438 492h35q19 0 33.5 -7.5t23.5 -13.5t18.5 -23t13.5 -22v223h-124v-157zM264 243v-113q0 -14 -3 -18.5t-10 -4.5h-93q-8 0 -11 3.5t-3 16.5v54q0 18 4 28t8 13v14h-41l30 26h104q7 0 11 -5t4 -14zM221 459v2q0 7 -6 21.5t-30 14.5h-163v-103h85q10 0 17 -2.5t7 -9.5v-2
l-119 -104v-73h36q-10 -6 -18 -19t-8 -44v-90q0 -23 10 -36.5t34 -13.5h265q23 0 38 12t15 39v247q0 30 -14.5 43.5t-38.5 13.5h-80l30 26q9 8 15 10.5t17 2.5h104q20 0 20 -18v-252q0 -17 -14 -17h-21v-107h106q22 0 38 11t16 38v395q0 24 -15.5 38.5t-43.5 14.5h-200
q-18 0 -32 -3.5t-31 -17.5z" />
    <glyph glyph-name="sinTh" 
d="M369 708v-228h116v228h-116zM222 576h2q2 0 4.5 -1t4.5 -2l109 -47q5 -2 11 -5.5t6 -9.5v-2h-115q-11 0 -16.5 2t-5.5 16v49zM485 394v100q0 39 -21.5 57t-48.5 30l-14.5 6.5t-36.5 16t-43.5 19t-36.5 16l-15 6.5q-32 14 -47 16.5t-38 2.5h-123v-87h51v-90
q0 -27 10.5 -37t35.5 -10h202v-46h125zM254 287v107h-176q-56 0 -56 -55v-285q0 -28 11 -41t39 -13h363q28 0 39 13t11 41v361h-125v-286q0 -22 -18 -22h-178q-9 0 -13.5 5.5t-4.5 16.5v139q0 10 5.5 14.5t15.5 4.5h87z" />
    <glyph glyph-name="sinD" horiz-adv-x="460" 
d="M301 492h35q19 0 33.5 -7.5t23.5 -13.5t18.5 -23t13.5 -22v223h-124v-157zM429 0v107h-263q-11 0 -15.5 5.5t-4.5 20.5v98q0 11 4.5 16.5t17.5 5.5h257v191q0 53 -53 53h-350v-103h265q7 0 10.5 -3t3.5 -13v-23h-221q-28 0 -43 -13.5t-15 -43.5v-248q0 -24 9.5 -37
t34.5 -13h72q-17 -7 -23 -19t-6 -37v-70q0 -25 15.5 -35t36.5 -10h291v107h-193q-10 0 -15.5 4t-5.5 14v16q0 15 7.5 22.5t23.5 7.5h160z" />
    <glyph glyph-name="sinDh" 
d="M485 400v77q0 43 -13.5 62t-55.5 19h-219q-8 0 -13 5t-5 12t7 10.5t20 3.5h277v84h-384q-49 0 -49 -41v-39q0 -16 11 -27t33 -16h-80v-86h321q14 0 20 -4.5t6 -18.5v-41h124zM485 415h-124v-287q0 -10 -4.5 -15.5t-12.5 -5.5h-18q-11 0 -17 7t-6 20v111h-99v-113
q0 -13 -5.5 -19t-16.5 -6h-17q-9 0 -14 4.5t-5 14.5v183q0 4 2.5 6.5t7.5 2.5h103v108h-178q-31 0 -45 -18t-14 -47v-313q0 -48 47 -48h137q17 0 30.5 11t16.5 26q10 -37 49 -37h136q25 0 36 12.5t11 36.5v366z" />
    <glyph glyph-name="sinN" horiz-adv-x="591" 
d="M437 492h35q19 0 33.5 -7.5t23.5 -13.5t18.5 -23t13.5 -22v223h-124v-157zM266 418v13q0 32 -19.5 49t-51.5 17h-173v-103h131q11 0 17 -5t6 -15v-63zM212 223h36q15 0 15 -20v-71q0 -15 -2.5 -20t-17.5 -5h-81q-11 0 -14.5 4t-2.5 14v46l-8 108v62h-115v-290
q0 -28 10.5 -39.5t37.5 -11.5h247q36 0 51.5 12t15.5 48v207q0 24 -11 35.5t-37 12.5h-44zM170 173l187 200q8 8 14.5 12.5t13.5 4.5h34q18 0 18 -18v-239q0 -16 -3.5 -21t-18.5 -5h-13v-107h97q36 0 49.5 13.5t13.5 50.5v370q0 34 -16.5 48.5t-50.5 14.5h-138
q-32 0 -48 -11.5t-33 -31.5l-127 -154q-2 -2 -4 -3.5t-4 -1.5q-1 0 -5 1t-6 2v-130q1 -3 7 -5t13 -2q10 0 20 12z" />
    <glyph glyph-name="sinNd" horiz-adv-x="624" 
d="M465 492h35q19 0 33.5 -7.5t23.5 -13.5t18.5 -23t13.5 -22v223h-124v-157zM159 406h43l53 91h-147q-39 0 -62.5 -25.5t-23.5 -65.5v-406h118v382q0 13 5 18.5t14 5.5zM593 0v107h-263q-11 0 -15.5 5.5t-4.5 20.5v98q0 11 4.5 16.5t17.5 5.5h257v191q0 53 -53 53h-350
v-103h265q7 0 10.5 -3t3.5 -13v-23h-221q-28 0 -43 -13.5t-15 -43.5v-248q0 -24 9.5 -37t34.5 -13h72q-17 -7 -23 -19t-6 -37v-70q0 -25 15.5 -35t36.5 -10h291v107h-193q-10 0 -15.5 4t-5.5 14v16q0 15 7.5 22.5t23.5 7.5h160z" />
    <glyph glyph-name="sinP" horiz-adv-x="513" 
d="M360 492h35q19 0 33.5 -7.5t23.5 -13.5t18.5 -23t13.5 -22v223h-124v-157zM22 54q0 -28 11 -41t39 -13h60.5h60.5h60.5h60.5h60.5h60.5q28 0 39 13t11 41v246q0 56 -56 56h-66v24q0 14 16 14h105v103h-145q-29 0 -50.5 -13t-21.5 -41v-190h73q11 0 16 -4.5t5 -14.5v-105
q0 -11 -4.5 -16.5t-13.5 -5.5h-179q-9 0 -13.5 5.5t-4.5 16.5v105q0 10 6.5 14.5t14.5 4.5h73v190q0 28 -21.5 41t-50.5 13h-145v-103h105q8 0 12 -3.5t4 -10.5v-24h-66q-56 0 -56 -56v-246z" />
    <glyph glyph-name="sinPh" 
d="M369 708v-228h116v228h-116zM222 576h2q2 0 4.5 -1t4.5 -2l109 -47q5 -2 11 -5.5t6 -9.5v-2h-115q-11 0 -16.5 2t-5.5 16v49zM485 394v100q0 39 -21.5 57t-48.5 30l-14.5 6.5t-36.5 16t-43.5 19t-36.5 16l-15 6.5q-32 14 -47 16.5t-38 2.5h-123v-87h51v-90
q0 -27 10.5 -37t35.5 -10h203v-46h124zM485 415h-124v-286q0 -22 -18 -22h-179q-9 0 -13.5 5.5t-4.5 16.5v42q0 9 5.5 14t15.5 5h101v167q0 28 -16 43t-47 15h-183v-95h106q8 0 12 -3.5t4 -10.5v-34h-66q-56 0 -56 -55v-163q0 -28 11 -41t39 -13h363q28 0 39 13t11 41v361z
" />
    <glyph glyph-name="sinB" 
d="M485 400v77q0 43 -13.5 62t-55.5 19h-219q-8 0 -13 5t-5 12t7 10.5t20 3.5h277v84h-384q-49 0 -49 -41v-39q0 -16 11 -27t33 -16h-80v-86h321q14 0 20 -4.5t6 -18.5v-41h124zM198 54q0 -28 12 -41t40 -13h185q28 0 39 13t11 41v361h-124v-290q0 -11 -3.5 -14.5
t-12.5 -3.5h-18q-10 0 -13 3.5t-3 15.5v244q0 29 -15.5 41t-39.5 12h-178q-56 0 -56 -55v-314q0 -28 11 -41t39 -13h100v107h-8q-9 0 -13.5 5.5t-4.5 16.5v169q0 9 2.5 14t13.5 5h21q9 0 11.5 -5t2.5 -13z" />
    <glyph glyph-name="sinBh" horiz-adv-x="592" 
d="M438 492h35q19 0 33.5 -7.5t23.5 -13.5t18.5 -23t13.5 -22v223h-124v-157zM22 51q0 -28 10.5 -39.5t37.5 -11.5h233q36 0 51.5 12t15.5 48v196q0 16 -5.5 24t-16.5 8h-3l15 85q4 17 24 17h36q9 0 13.5 -4.5t4.5 -13.5v-239q0 -16 -3.5 -21t-18.5 -5h-14v-107h97
q37 0 50 13.5t13 50.5v370q0 34 -16 48.5t-51 14.5h-165q-31 0 -49 -12.5t-23 -38.5l-38 -230h14q8 0 11.5 -5t3.5 -15v-64q0 -15 -2.5 -20t-17.5 -5h-66q-8 0 -12.5 5.5t-4.5 15.5v100q0 15 4 20t19 5h28v178q0 32 -20 49t-52 17h-103v-103h63q12 0 16.5 -3t4.5 -14v-22
h-28q-14 0 -19 -11.5t-5.5 -28.5t-1.5 -32.5t-7 -24.5q-11 -5 -17 -15t-6 -26v-166zM-6 355v-97h94v97h-94z" />
    <glyph glyph-name="sinM" horiz-adv-x="518" 
d="M485 400v77q0 43 -13.5 62t-55.5 19h-219q-8 0 -13 5t-5 12t7 10.5t20 3.5h277v84h-384q-49 0 -49 -41v-39q0 -16 11 -27t33 -16h-80v-86h321q14 0 20 -4.5t6 -18.5v-41h124zM485 415h-124v-286q0 -22 -18 -22h-179q-18 0 -18 22v23h129q43 0 43 44v182q0 23 -13.5 36
t-36.5 13h-194q-24 0 -38 -15t-14 -39v-319q0 -29 11 -41.5t39 -12.5h363q28 0 39 13t11 41v361zM143 244v71q0 7 4.5 10.5t13.5 3.5h25q15 0 15 -14v-52q0 -19 -15 -19h-43z" />
    <glyph glyph-name="sinMb" 
d="M485 400v77q0 43 -13.5 62t-55.5 19h-219q-8 0 -13 5t-5 12t7 10.5t20 3.5h277v84h-384q-49 0 -49 -41v-39q0 -16 11 -27t33 -16h-80v-86h321q14 0 20 -4.5t6 -18.5v-41h124zM485 54v355h-124v-279q0 -8 -4 -15.5t-12 -7.5h-30q-5 0 -10.5 2t-5.5 9v4q0 6 4 9t9 6
q4 2 8 4.5t7 6.5t3 10v41q0 12 -6.5 18t-17.5 6h-52h-53q-11 0 -17 -6t-6 -18v-41q0 -10 5.5 -14t11.5 -7q5 -3 9 -6t4 -9v-4q0 -7 -5 -9t-11 -2h-30q-16 0 -16 23v206q0 9 3.5 14t14.5 5h20q16 0 16 -16v-7q0 -14 -15 -14h-51v-64h131q29 0 40.5 14t11.5 44v69
q0 28 -16 39.5t-43 11.5h-175q-30 0 -45.5 -16.5t-15.5 -40.5v-321q0 -28 10 -41t35 -13h139q19 0 33 13.5t14 33.5v84q0 6 -4.5 10t-9.5 7q-4 3 -7.5 6.5t-3.5 9.5v8q0 10 10 10h16h15q10 0 10 -10v-8q0 -6 -3.5 -9.5t-7.5 -6.5q-5 -3 -9.5 -7t-4.5 -10v-84q0 -20 14 -33.5
t33 -13.5h139q25 0 35 13t10 41z" />
    <glyph glyph-name="sinY" horiz-adv-x="564" 
d="M409 492h35q19 0 33.5 -7.5t23.5 -13.5t18.5 -23t13.5 -22v223h-124v-157zM235 497h-157q-32 0 -44 -18t-12 -41v-384q0 -28 11 -41t39 -13h153q20 0 36.5 13t16.5 33q0 -20 16.5 -33t36.5 -13h153q28 0 39 13t11 41v242q0 32 -15.5 46t-48.5 14h-86v23q0 8 5.5 11.5
t15.5 3.5h128v103h-190q-36 0 -54 -16.5t-18 -44.5v-183h116q11 0 17 -4.5t6 -12.5v-106q0 -23 -18 -23h-31q-13 0 -20 6.5t-7 19.5v57h-112v-57q0 -13 -6.5 -19.5t-19.5 -6.5h-32q-18 0 -18 23v238q0 13 4.5 19.5t15.5 6.5h69v103z" />
    <glyph glyph-name="sinR" horiz-adv-x="466" 
d="M67 0h323q20 0 32.5 13t12.5 35v390q0 29 -16.5 44t-45.5 15h-126l191 145h-178l-186 -144q-21 -15 -36.5 -32.5t-15.5 -41.5v-376q0 -25 13 -36.5t32 -11.5zM146 366q0 16 5.5 22t22.5 6h112q14 0 19.5 -6.5t5.5 -19.5v-230q0 -18 -7 -24.5t-20 -6.5h-114q-9 0 -16.5 6
t-7.5 25v228zM22 412l117 -1v245h-117v-244z" />
    <glyph glyph-name="sinL" horiz-adv-x="557" 
d="M402 492h35q19 0 33.5 -7.5t23.5 -13.5t18.5 -23t13.5 -22v223h-124v-157zM212 48q0 -20 12 -34t37 -14h213q28 0 40 18t12 43v367q0 27 -17 48t-44 21h-389q-21 0 -37.5 -17.5t-16.5 -45.5v-525q0 -41 20 -56.5t50 -15.5h434v115h-338q-24 0 -33 9.5t-9 31.5v377
q0 11 5 17.5t19 6.5h207q15 0 20 -6t5 -17v-247q0 -8 -3.5 -12.5t-10.5 -4.5h-34q-12 0 -15 2.5t-3 13.5v101h39v88h-202v-90h39v-174z" />
    <glyph glyph-name="sinV" horiz-adv-x="518" 
d="M485 415h-124v-286q0 -22 -18 -22h-179q-9 0 -13.5 5.5t-4.5 16.5v51q0 10 5.5 14.5t15.5 4.5h101v179q0 27 -15 42t-48 15h-182v-103h105q8 0 12 -3.5t4 -10.5v-25h-66q-56 0 -56 -55v-184q0 -28 11 -41t39 -13h363q28 0 39 13t11 41v361zM485 400v77q0 43 -13.5 62
t-55.5 19h-219q-8 0 -13 5t-5 12t7 10.5t20 3.5h277v84h-384q-49 0 -49 -41v-39q0 -16 11 -27t33 -16h-80v-86h321q14 0 20 -4.5t6 -18.5v-41h124z" />
    <glyph glyph-name="sinSh" horiz-adv-x="592" 
d="M438 492h35q19 0 33.5 -7.5t23.5 -13.5t18.5 -23t13.5 -22v223h-124v-157zM410 96h-52v-96h141q37 0 50 13.5t13 50.5v370q0 34 -16 48.5t-51 14.5h-201q-63 0 -72 -51l-38 -230h14q15 0 15 -20v-64q0 -15 -2.5 -20t-17.5 -5h-30q-8 0 -12.5 5.5t-4.5 15.5v241q0 15 4 20
t19 5h20v103h-108q-28 0 -43.5 -16.5t-15.5 -44.5v-375q0 -28 12.5 -44.5t39.5 -16.5h193q36 0 51.5 12t15.5 48v196q0 31 -22 32h-3l15 85q2 8 8 12.5t16 4.5h75q9 0 13.5 -4.5t4.5 -13.5v-14.5v-14.5v-14.5v-14.5h-38q-44 0 -44 -40v-103q0 -33 13.5 -51t37.5 -24z
M449 236v-108q-8 3 -15.5 7.5t-12 14t-4.5 27.5v50q0 9 7 9h25z" />
    <glyph glyph-name="sinSs" horiz-adv-x="513" 
d="M361 492h35q19 0 33.5 -7.5t23.5 -13.5t18.5 -23t13.5 -22v223h-124v-157zM286 262l-70 -58q-11 -8 -15.5 -18.5t-4.5 -26.5v-26h114v20q0 15 4.5 22.5t12.5 15.5l69 71h-110zM22 54q0 -28 11 -41t39 -13h363q28 0 39 13t11 41v239q0 56 -56 56h-79v31q0 7 4.5 10.5
t11.5 3.5h26q5 0 7 -2t2 -6q0 -6 -3 -10.5t-10 -11.5l-37 -34l101 1l21 23q12 15 12 38v58q0 28 -16 37.5t-32 9.5h-111q-29 0 -50.5 -13t-21.5 -41v-190h86q11 0 16 -4.5t5 -14.5v-105q0 -11 -4.5 -16.5t-13.5 -5.5h-179q-9 0 -13.5 5.5t-4.5 16.5v105q0 10 6.5 14.5
t14.5 4.5h64v190q0 28 -21.5 41t-50.5 13h-136v-103h96q8 0 12 -3.5t4 -10.5v-24h-57q-56 0 -56 -56v-246z" />
    <glyph glyph-name="sinS" horiz-adv-x="564" 
d="M409 492h35q19 0 33.5 -7.5t23.5 -13.5t18.5 -23t13.5 -22v223h-124v-157zM22 218v-164q0 -28 11 -41t39 -13h153q20 0 36.5 13t16.5 33q0 -20 16.5 -33t36.5 -13h153q28 0 39 13t11 41v242q0 32 -15.5 46t-48.5 14h-82v23q0 8 5.5 11.5t15.5 3.5h124v103h-169
q-29 0 -50.5 -13t-21.5 -41v-190h95q11 0 17 -4.5t6 -12.5v-106q0 -23 -18 -23h-31q-13 0 -20 6.5t-7 19.5v57h-112v-57q0 -13 -6.5 -19.5t-19.5 -6.5h-32q-18 0 -18 23v106q0 8 6 12.5t17 4.5h95v190q0 28 -21.5 41t-50.5 13h-169v-103h125q10 0 15 -3.5t5 -11.5v-23h-90
q-14 0 -19 -11.5t-5.5 -27.5t-1.5 -32t-7 -24q-11 -5 -17 -16t-6 -27zM-6 356v-97h94v97h-94z" />
    <glyph glyph-name="sinH" horiz-adv-x="592" 
d="M438 492h35q19 0 33.5 -7.5t23.5 -13.5t18.5 -23t13.5 -22v223h-124v-157zM146 128v100q0 15 4 20t19 5h28v178q0 32 -20 49t-52 17h-103v-103h63q12 0 16.5 -3t4.5 -14v-22h-29q-55 0 -55 -56v-248q0 -28 10.5 -39.5t37.5 -11.5h233q36 0 51.5 12t15.5 48v196
q0 31 -22 32h-3l15 85q2 8 8 12.5t16 4.5h36q9 0 13.5 -4.5t4.5 -13.5v-239q0 -16 -3.5 -21t-18.5 -5h-14v-107h97q37 0 50 13.5t13 50.5v370q0 34 -16 48.5t-51 14.5h-165q-63 0 -72 -51l-38 -230h14q15 0 15 -20v-64q0 -15 -2.5 -20t-17.5 -5h-66q-8 0 -12.5 5.5
t-4.5 15.5z" />
    <glyph glyph-name="sinLl" horiz-adv-x="553" 
d="M399 492h35q19 0 33 -7.5t24 -13.5q9 -6 18.5 -23t13.5 -22v223h-124v-157zM146 232q0 5 1.5 10.5t6.5 5.5h369v197q0 31 -18.5 41.5t-39.5 10.5h-130q-24 0 -36 -21q-5 11 -12 16t-22 5h-139q-54 0 -54 -56v-108q-21 -3 -35.5 -19.5t-14.5 -46.5v-341q0 -40 20.5 -59
t57.5 -19h423v116h-346q-18 0 -24.5 8t-6.5 23v237zM398 340h-54v44q0 19 17 19h20q9 0 13 -4.5t4 -14.5v-44zM191 340v43q0 20 19 20h20q9 0 13 -3.5t4 -14.5v-45h-56zM144 92q0 -19 18 -29.5t39 -10.5h320v118h-301q-13 0 -20 6.5t-7 18.5v61h-49v-164z" />
    <glyph glyph-name="sinF" horiz-adv-x="564" 
d="M410 492h35q19 0 33.5 -7.5t23.5 -13.5t18.5 -23t13.5 -22v223h-124v-157zM307 107v-107h173q23 0 38.5 15.5t15.5 45.5v384q0 28 -17 40t-37 12h-144q-27 0 -40 -8.5t-18 -25.5q-4 17 -16 25.5t-40 8.5h-146q-28 0 -41 -18t-13 -38v-379q0 -26 12 -44t39 -18h173v107
h-76q-13 0 -18.5 3.5t-5.5 15.5v244q0 24 21 24h34q10 0 15 -5.5t5 -20.5v-201h111v202q0 8 2 13.5t7 8.5t12 3h37q19 0 19 -24v-244q0 -10 -5 -14.5t-16 -4.5h-81z" />
    <glyph glyph-name="sinKSs" horiz-adv-x="920" 
d="M765 492h35q19 0 33.5 -7.5t23.5 -13.5t18.5 -23t13.5 -22v223h-124v-157zM285 244v-113q0 -14 -2.5 -18.5t-10.5 -4.5h-11q-8 0 -11 4t-3 15v62h-68v-64q0 -8 -2.5 -12.5t-12.5 -4.5h-8q-9 0 -11.5 3.5t-2.5 16.5v54q0 18 4 28t8 13v14h-29l30 26h115q8 0 11.5 -5
t3.5 -14zM22 276v-73h36q-10 -6 -18 -19t-8 -44v-90q0 -23 10 -36.5t34 -13.5h99q14 0 25 7.5t14 21.5q7 -29 37 -29h90q23 0 38 12t15 39v247q0 30 -14.5 43.5t-38.5 13.5h-80l48 34q7 3 17 4t22 1h92v103h-106q-19 0 -40 -4.5t-40 -17.5l-23 -16v3q0 6 -6 20.5t-30 14.5
h-163v-103h85q10 0 17 -2.5t7 -9.5v-2zM690 262l-70 -58q-11 -8 -15.5 -18.5t-4.5 -26.5v-26h114v20q0 15 4.5 22.5t12.5 15.5l69 71h-110zM426 54q0 -28 11 -41t39 -13h363q28 0 39 13t11 41v239q0 56 -56 56h-79v31q0 7 4.5 10.5t11.5 3.5h26q5 0 7 -2t2 -6q0 -6 -3 -10.5
t-10 -11.5l-37 -34l101 1l21 23q12 15 12 38v58q0 28 -16 37.5t-32 9.5h-111q-29 0 -50.5 -13t-21.5 -41v-190h86q11 0 16 -4.5t5 -14.5v-105q0 -11 -4.5 -16.5t-13.5 -5.5h-179q-9 0 -13.5 5.5t-4.5 16.5v105q0 10 6.5 14.5t14.5 4.5h64v190q0 28 -21.5 41t-50.5 13h-136
v-103h96q8 0 12 -3.5t4 -10.5v-24h-57q-56 0 -56 -56v-246z" />
    <glyph glyph-name="sinKV" horiz-adv-x="912" 
d="M12 276v-73h36q-10 -6 -18 -19t-8 -44v-90q0 -23 10 -36.5t34 -13.5h99q14 0 25 7.5t14 21.5q7 -29 37 -29h90q23 0 38 12t15 39v247q0 30 -14.5 43.5t-38.5 13.5h-80l25 22q8 7 15.5 8.5t16.5 1.5q5 0 18 -3t22 -7l71 -28l180 43l-248 89q-12 4 -28.5 7t-21.5 3
q-16 0 -28 -2t-29 -14l-23 -16v3q0 6 -6 20.5t-30 14.5h-163v-103h85q10 0 17 -2.5t7 -9.5v-2zM881 415h-124v-286q0 -22 -18 -22h-179q-9 0 -13.5 5.5t-4.5 16.5v51q0 10 5.5 14.5t15.5 4.5h101v179q0 27 -15 42t-48 15h-182v-86h105q8 0 12 -3.5t4 -10.5v-42h-66
q-56 0 -56 -55v-184q0 -28 11 -41t39 -13h363q28 0 39 13t11 41v361zM275 243v-113q0 -14 -2.5 -18.5t-10.5 -4.5h-11q-8 0 -11 4t-3 15v62h-68v-64q0 -8 -2.5 -12.5t-12.5 -4.5h-8q-9 0 -11.5 3.5t-2.5 16.5v54q0 18 4 28t8 13v14h-29l30 26h115q8 0 11.5 -5t3.5 -14z
M881 400v77q0 43 -13.5 62t-55.5 19h-216q-7 0 -12.5 5t-5.5 12t7 10.5t20 3.5h274v84h-381q-49 0 -49 -41v-39q0 -16 11 -27t33 -16h-61v-86h299q14 0 20 -4.5t6 -18.5v-41h124z" />
    <glyph glyph-name="sinTV" horiz-adv-x="919" 
d="M528 323l106 91l-235 51q-7 1 -27.5 5.5t-44.5 8t-44 3.5q-24 0 -38.5 -7t-19.5 -12l-4 -4v2q0 7 -6 21.5t-30 14.5h-163v-103h85q10 0 17 -2.5t7 -9.5v-2l-119 -104v-73h36q-10 -6 -18 -19t-8 -44v-90q0 -23 10 -36.5t34 -13.5h265q23 0 38 12t15 39v247
q0 30 -14.5 43.5t-38.5 13.5h-80l13 11q7 6 14.5 8t15.5 2q5 0 18 -2.5t19 -3.5zM889 415h-124v-286q0 -22 -18 -22h-179q-9 0 -13.5 5.5t-4.5 16.5v44q0 10 5.5 14.5t15.5 4.5h101v167q0 28 -16 43t-47 15l-183 32l84 -122l22 -5q7 -1 11.5 -4t4.5 -10v-22h-66
q-56 0 -56 -55v-177q0 -28 11 -41t39 -13h363q28 0 39 13t11 41v361zM889 400v77q0 43 -13.5 62t-55.5 19h-211q-7 0 -12.5 5t-5.5 12t7 10.5t20 3.5h269v84h-376q-49 0 -49 -41v-39q0 -16 11 -27t33 -16h-67v-86h300q14 0 20 -4.5t6 -18.5v-41h124zM264 243v-113
q0 -14 -3 -18.5t-10 -4.5h-93q-8 0 -11 3.5t-3 16.5v54q0 18 4 28t8 13v14h-41l30 26h104q7 0 11 -5t4 -14z" />
    <glyph glyph-name="sinTTh" horiz-adv-x="940" 
d="M441 355l223 39l-250 78q-10 3 -40.5 11.5t-59.5 8.5q-24 0 -40.5 -6.5t-33.5 -19.5l-9 -7v2q0 7 -6 21.5t-30 14.5h-163v-103h85q10 0 17 -2.5t7 -9.5v-2l-119 -104v-73h36q-10 -6 -18 -19t-8 -44v-90q0 -22 10 -36t34 -14h265q23 0 38 12t15 39v247q0 29 -14.5 43
t-38.5 14h-80l28 24q7 6 14 8.5t15 2.5q5 0 11 -1t12 -3zM274 243v-113q0 -13 -2.5 -18t-10.5 -5h-93q-8 0 -11 3.5t-3 16.5v54q0 18 4 28t8 13v14h-41l30 26h104q8 0 11.5 -5t3.5 -14zM779 708v-228h116v228h-116zM632 576h2q2 0 4.5 -1t4.5 -2l109 -47q5 -2 11 -5.5
t6 -9.5v-2h-115q-10 0 -16 2.5t-6 15.5v49zM895 394v100q0 39 -21.5 57t-48.5 30l-14.5 6.5t-36.5 16l-44 19t-36.5 16l-14.5 6.5q-31 14 -46.5 16.5t-38.5 2.5h-123v-87h51v-90q0 -27 10.5 -37t35.5 -10h202v-46h125zM664 287v107h-176q-56 0 -56 -55v-285q0 -28 11 -41
t39 -13h363q28 0 39 13t11 41v361h-125v-286q0 -22 -18 -22h-178q-9 0 -13.5 5.5t-4.5 16.5v139q0 10 5.5 14.5t15.5 4.5h87z" />
    <glyph glyph-name="sinND" horiz-adv-x="853" 
d="M695 492h35q19 0 33.5 -7.5t23.5 -13.5t18.5 -23t13.5 -22v223h-124v-157zM266 418v13q0 32 -19.5 49t-51.5 17h-173v-103h131q11 0 17 -5t6 -15v-63zM212 223h36q15 0 15 -20v-71q0 -15 -2.5 -20t-17.5 -5h-81q-11 0 -14 4t-3 14v36l-8 118v62h-115v-290
q0 -28 10.5 -39.5t37.5 -11.5h247q36 0 51.5 12t15.5 48v207q0 24 -10.5 35.5t-37.5 12.5h-44zM150 151q10 0 20 12l190 210q9 10 16 15.5t22 5.5h34v103h-76q-24 0 -42.5 -11t-39.5 -36l-125 -150q-2 -2 -4 -3.5t-4 -1.5q-1 0 -3 1l-4 2l2 -140q0 -7 14 -7zM823 0v107h-263
q-12 0 -16 5.5t-4 20.5v98q0 11 4.5 16.5t17.5 5.5h257v191q0 53 -53 53h-350v-103h265q7 0 10.5 -3t3.5 -13v-23h-221q-28 0 -43 -13.5t-15 -43.5v-248q0 -24 9 -37t35 -13h72q-18 -7 -23.5 -19t-5.5 -37v-70q0 -25 15 -35t37 -10h291v107h-193q-10 0 -15.5 4t-5.5 14v16
q0 15 7.5 22.5t23.5 7.5h160z" />
    <glyph glyph-name="sinNDh" horiz-adv-x="910" 
d="M880 415h-124v-287q0 -10 -4.5 -15.5t-12.5 -5.5h-18q-11 0 -17 7t-6 20v111h-99v-113q0 -13 -5.5 -19t-16.5 -6h-17q-9 0 -14 4.5t-5 14.5v183q0 4 2.5 6.5t7.5 2.5h47v108h-122q-31 0 -45 -18t-14 -47v-313q0 -48 47 -48h137q17 0 30.5 11t16.5 26q10 -37 49 -37h136
q25 0 36 12.5t11 36.5v366zM212 223h36q15 0 15 -20v-71q0 -15 -2.5 -20t-17.5 -5h-81q-11 0 -14 4t-3 14v36l-8 118v62h-115v-290q0 -28 10.5 -39.5t37.5 -11.5h247q36 0 51.5 12t15.5 48v207q0 24 -10.5 35.5t-37.5 12.5h-44zM880 400v77q0 43 -13.5 62t-55.5 19h-215
q-7 0 -12.5 5t-5.5 12t7 10.5t20 3.5h273v84h-380q-49 0 -49 -41v-39q0 -16 11 -27t33 -16h-61v-86h298q14 0 20 -4.5t6 -18.5v-41h124zM150 151q10 0 20 12l158 173q3 4 10 8t16 5q7 1 21.5 -2t18.5 -4l30 -7l168 89l-224 35q-6 1 -24.5 3t-25.5 2q-8 -1 -12.5 -1.5
t-10.5 -2.5t-13.5 -6.5t-12.5 -10.5l-120 -144q-2 -2 -4 -3.5t-4 -1.5q-1 0 -3 1l-4 2l2 -140q0 -7 14 -7zM266 418v13q0 32 -19.5 49t-51.5 17h-173v-103h131q11 0 17 -5t6 -15v-63z" />
    <glyph glyph-name="sinNV" horiz-adv-x="908" 
d="M879 415h-124v-286q0 -22 -18 -22h-179q-9 0 -13.5 5.5t-4.5 16.5v39q0 10 5 14.5t16 4.5h101v158q0 58 -63 58h-169l88 -90l4 -1q4 -1 10 -4t6 -10v-17h-66q-56 0 -56 -55v-172q0 -28 11 -41t39 -13h363q27 0 38.5 13t11.5 41v361zM212 223h36q15 0 15 -20v-71
q0 -15 -2.5 -20t-17.5 -5h-81q-11 0 -14 4t-3 14v36l-8 118v62h-115v-290q0 -28 10.5 -39.5t37.5 -11.5h247q36 0 51.5 12t15.5 48v207q0 24 -10.5 35.5t-37.5 12.5h-44zM879 400v77q0 43 -14 62t-55 19h-219q-8 0 -13 5t-5 12t6.5 10.5t20.5 3.5h277v84h-384q-49 0 -49 -41
v-39q0 -16 11 -27t33 -16h-61v-86h302q14 0 20 -4.5t6 -18.5v-41h124zM134 298l2 -140q0 -7 14 -7q10 0 20 12l151 172q7 8 15.5 11.5t13.5 4.5q9 2 22.5 -1t19.5 -4l132 -35l96 90l-215 53q-13 3 -30 7t-31.5 6.5t-20.5 2.5q-8 0 -15 -1t-15 -4q-7 -3 -13 -8.5t-8 -8.5
l-123 -148q-2 -2 -4 -3.5t-4 -1.5q-1 0 -3 1zM266 418v13q0 32 -19.5 49t-51.5 17h-173v-103h131q11 0 17 -5t6 -15v-63z" />
    <glyph glyph-name="sinNTh" horiz-adv-x="917" 
d="M212 223h36q15 0 15 -20v-71q0 -15 -2.5 -20t-17.5 -5h-81q-11 0 -14 4t-3 14v36l-8 118v62h-115v-290q0 -28 10.5 -39.5t37.5 -11.5h247q36 0 51.5 12t15.5 48v207q0 24 -10.5 35.5t-37.5 12.5h-44zM150 151q10 0 20 12l170 190q6 7 13.5 10t12.5 3q8 0 19 -2.5t17 -4.5
l23 -8l227 43l-247 82q-18 6 -33.5 8t-21.5 2q-8 0 -17 -1t-17 -4q-8 -2 -18 -8t-18 -16l-131 -157q-2 -2 -4 -3.5t-4 -1.5q-1 0 -3 1l-4 2l2 -140q0 -7 14 -7zM266 418v13q0 32 -19.5 49t-51.5 17h-173v-103h131q11 0 17 -5t6 -15v-63zM771 708v-228h116v228h-116zM624 576
h2q2 0 4.5 -1t4.5 -2l109 -47q5 -2 11 -5.5t6 -9.5v-2h-115q-11 0 -16.5 2t-5.5 16v49zM887 394v100q0 39 -21.5 57t-48.5 30l-14.5 6.5t-36.5 16t-43.5 19t-36.5 16l-15 6.5q-32 14 -47 16.5t-38 2.5h-123v-87h51v-90q0 -27 10.5 -37t35.5 -10h202v-46h125zM656 287v107
h-176q-56 0 -56 -55v-285q0 -28 11 -41t39 -13h363q28 0 39 13t11 41v361h-125v-286q0 -22 -18 -22h-178q-9 0 -13.5 5.5t-4.5 16.5v139q0 10 5.5 14.5t15.5 4.5h87z" />
    <glyph glyph-name="sinDV" horiz-adv-x="673" 
d="M159 332h43l53 103h-147q-39 0 -62.5 -25.5t-23.5 -65.5v-344h118v308q0 14 5 19t14 5zM643 415h-124v-286q0 -22 -18 -22h-179q-9 0 -13.5 5.5t-4.5 16.5v51q0 10 5 14.5t16 4.5h101v179q0 27 -15 42t-48 15h-182v-103h105q8 0 12 -3.5t4 -10.5v-25h-66q-56 0 -56 -55
v-184q0 -28 11 -41t39 -13h363q28 0 39 13t11 41v361zM643 400v77q0 43 -14 62t-55 19h-219q-8 0 -13 5t-5 12t6.5 10.5t20.5 3.5h277v84h-384q-49 0 -49 -41v-39q0 -16 11 -27t33 -16h-80v-86h321q14 0 20 -4.5t6 -18.5v-41h124z" />
    <glyph glyph-name="sinDDh" horiz-adv-x="673" 
d="M643 400v77q0 43 -13.5 62t-55.5 19h-215q-7 0 -12.5 5t-5.5 12t7 10.5t20 3.5h273v84h-380q-49 0 -49 -41v-39q0 -16 11 -27t33 -16h-61v-86h298q14 0 20 -4.5t6 -18.5v-41h124zM643 415h-124v-287q0 -10 -4.5 -15.5t-12.5 -5.5h-18q-11 0 -17 7t-6 20v111h-99v-113
q0 -13 -5.5 -19t-16.5 -6h-17q-9 0 -14 4.5t-5 14.5v183q0 4 2.5 6.5t7.5 2.5h47v108h-122q-31 0 -45 -18t-14 -47v-313q0 -48 47 -48h137q17 0 30.5 11t16.5 26q10 -37 49 -37h136q25 0 36 12.5t11 36.5v366zM159 327h43l53 99h-147q-39 0 -62.5 -25.5t-23.5 -65.5v-335
h118v303q0 14 5 19t14 5z" />
    </font>
</defs>
</svg>
