<?xml version="1.0" standalone="no"?>
<!DOCTYPE svg PUBLIC "-//W3C//DTD SVG 1.1//EN" "http://www.w3.org/Graphics/SVG/1.1/DTD/svg11.dtd" >
<svg xmlns="http://www.w3.org/2000/svg" xmlns:xlink="http://www.w3.org/1999/xlink" version="1.1">
<metadata>
Created by FontForge 20190801 at Thu Jun 24 11:03:17 2021
 By www-data
Copyright 2021 The Gemunu Libre Project Authors (https://github.com/mooniak/gemunu-libre-font/)
</metadata>
<defs>
<font id="GemunuLibreRegular" horiz-adv-x="515" >
  <font-face 
    font-family="GemunuLibreRegular"
    font-weight="400"
    font-stretch="normal"
    units-per-em="1000"
    panose-1="0 0 0 0 0 0 0 0 0 0"
    ascent="800"
    descent="-200"
    x-height="490"
    cap-height="635"
    bbox="-628 -311 1787.55 863"
    underline-thickness="50"
    underline-position="-125"
    unicode-range="U+0020-111F4"
  />
<missing-glyph horiz-adv-x="631" 
d="M50 -86h531v823h-531v-823zM264 95q0 -13 9.5 -22.5t22.5 -9.5t22.5 9.5t9.5 22.5q0 14 -9.5 23t-22.5 9t-22.5 -9t-9.5 -23zM112 674h406v-698h-406v698zM184 482l35 -33q8 11 19 22t28 19t41 8q41 0 64.5 -26.5t23.5 -62.5q0 -53 -32.5 -72t-93.5 -20v-162h53v115
q18 0 39.5 8t41.5 24.5t33 43.5t12 65q-1 60 -37.5 98t-100.5 38q-33 0 -57.5 -10.5t-41 -25.5t-27.5 -29z" />
    <glyph glyph-name="fi" unicode="fi" horiz-adv-x="490" 
d="M166 0h-79v569q0 62 28.5 86t90.5 23h86v-66h-117q-9 0 -9 -9v-603zM425 0h-79v490h79v-490zM277 428h-253v62h253v-62zM425 600h-79v78h79v-78z" />
    <glyph glyph-name="fl" unicode="fl" horiz-adv-x="495" 
d="M164 0h-79v573q0 62 28.5 85.5t90.5 23.5l90 -1v-66l-121 1q-9 0 -9 -10v-606zM285 428h-261v62h261v-62zM430 0h-79v675h79v-675z" />
    <glyph glyph-name=".notdef" horiz-adv-x="631" 
d="M50 -86h531v823h-531v-823zM264 95q0 -13 9.5 -22.5t22.5 -9.5t22.5 9.5t9.5 22.5q0 14 -9.5 23t-22.5 9t-22.5 -9t-9.5 -23zM112 674h406v-698h-406v698zM184 482l35 -33q8 11 19 22t28 19t41 8q41 0 64.5 -26.5t23.5 -62.5q0 -53 -32.5 -72t-93.5 -20v-162h53v115
q18 0 39.5 8t41.5 24.5t33 43.5t12 65q-1 60 -37.5 98t-100.5 38q-33 0 -57.5 -10.5t-41 -25.5t-27.5 -29z" />
    <glyph glyph-name=".null" horiz-adv-x="0" 
 />
    <glyph glyph-name="nonmarkingreturn" horiz-adv-x="333" 
 />
    <glyph glyph-name="space" unicode=" " horiz-adv-x="191" 
 />
    <glyph glyph-name="exclam" unicode="!" horiz-adv-x="220" 
d="M142 190h-47l-19 297v158h85v-158zM158 0h-80v95h80v-95z" />
    <glyph glyph-name="quotedbl" unicode="&#x22;" horiz-adv-x="261" 
d="M37 483h40l26 114v84h-66v-198zM147 483h40l26 114v84h-66v-198z" />
    <glyph glyph-name="numbersign" unicode="#" horiz-adv-x="523" 
d="M66 0h61l122 640h-60zM272 0h61l122 640h-60zM64 415h442v59h-442v-59zM17 167h442v59h-442v-59z" />
    <glyph glyph-name="dollar" unicode="$" horiz-adv-x="481" 
d="M146 347h141q68 0 102 -29t34 -91v-88q0 -64 -33.5 -95t-101.5 -29l-226 3v71h266q12 0 12 13v158q0 13 -12 13h-143q-68 0 -101.5 27.5t-33.5 91.5v81q0 62 35 95t103 32l217 -3v-72h-259q-13 0 -13 -13v-153q0 -12 13 -12zM205 588v110h71v-110h-71zM205 -82v110h71
v-110h-71z" />
    <glyph glyph-name="percent" unicode="%" horiz-adv-x="723" 
d="M31 359v201q0 41 20.5 59.5t66.5 18.5h82q46 0 66.5 -18.5t21.5 -59.5l1 -201q1 -39 -21 -58t-68 -19h-82q-46 0 -66.5 19t-20.5 58zM212 580h-105q-10 0 -10 -9v-222q0 -9 10 -9h105q10 0 10 9v222q0 9 -10 9zM436 74v201q0 40 20.5 59t65.5 19h83q46 0 66.5 -19
t20.5 -59v-201q0 -39 -20.5 -58t-66.5 -19h-83q-45 0 -65.5 19t-20.5 58zM617 295h-106q-9 0 -9 -9v-222q0 -9 9 -9h106q9 0 9 9v222q0 9 -9 9zM502 642h68l-346 -649h-68z" />
    <glyph glyph-name="ampersand" unicode="&#x26;" horiz-adv-x="567" 
d="M322 -4h-113q-68 0 -103.5 32.5t-35.5 94.5v119q0 63 35 88t106 24l6 -30q-67 0 -104.5 25.5t-37.5 83.5v81q0 64 34 94.5t102 30.5h109q68 0 102 -30.5t34 -94.5v-56h-84v94q0 13 -13 13h-187q-13 0 -13 -13v-168q0 -13 13 -13h128v-63h-133q-13 0 -13 -12v-212
q0 -13 13 -13h197q13 0 13 13v155q0 62 32 91t101 29h28l-1 -75h-64q-12 0 -12 -13v-148q0 -62 -35.5 -94.5t-103.5 -32.5z" />
    <glyph glyph-name="quotesingle" unicode="'" horiz-adv-x="155" 
d="M37 483h41l29 113v85h-70v-198z" />
    <glyph glyph-name="parenleft" unicode="(" horiz-adv-x="278" 
d="M257 -170h-59q-67 0 -101 29.5t-34 91.5v608q0 63 34 92t101 29h59v-62h-102q-10 0 -10 -10v-706q0 -10 10 -10h102v-62z" />
    <glyph glyph-name="parenright" unicode=")" horiz-adv-x="278" 
d="M22 -170v62h102q9 0 9 10v706q0 10 -9 10h-102v62h59q67 0 100.5 -29t33.5 -92v-608q0 -62 -33.5 -91.5t-100.5 -29.5h-59z" />
    <glyph glyph-name="asterisk" unicode="*" horiz-adv-x="357" 
d="M150 434l-35 -48l-42 30l34 49l45 39l21 -15zM285 418l-42 -31l-35 48l-24 56l21 14l45 -39zM267 520l-59 -5l-8 23l51 31l56 19l17 -50zM191 545h-25l-14 58v59h52l1 -59zM148 515l-59 4l-56 19l16 49l57 -18l51 -31z" />
    <glyph glyph-name="plus" unicode="+" horiz-adv-x="530" 
d="M474 328v-61h-417v61h417zM297 95h-64v406h64v-406z" />
    <glyph glyph-name="comma" unicode="," horiz-adv-x="172" 
d="M43 2h36l-6 5q0 -14 -6.5 -37.5t-22.5 -46.5l28 -22q26 26 40 56.5t14 60.5v86h-83v-102z" />
    <glyph glyph-name="hyphen" unicode="-" horiz-adv-x="320" 
d="M289 317v-65h-257v65h257z" />
    <glyph glyph-name="period" unicode="." horiz-adv-x="183" 
d="M134 0h-84v104h84v-104z" />
    <glyph glyph-name="slash" unicode="/" horiz-adv-x="418" 
d="M334 675h75l-315 -771h-77z" />
    <glyph glyph-name="zero" unicode="0" horiz-adv-x="540" 
d="M375 568h-210q-9 0 -9 -10v-481q0 -10 9 -10h210q9 0 9 10v481q0 10 -9 10zM72 108v419q0 62 31 88.5t96 26.5h141q66 0 97 -26.5t31 -88.5v-419q0 -62 -31 -88.5t-97 -26.5h-141q-65 0 -96 26.5t-31 88.5z" />
    <glyph glyph-name="one" unicode="1" horiz-adv-x="424" 
d="M396 66v-66h-341v66h341zM26 518l179 117h75v-635h-82v555l7 -3l-144 -90z" />
    <glyph glyph-name="two" unicode="2" horiz-adv-x="454" 
d="M42 191q0 35 8.5 53.5t26.5 30.5t46 25l194 96q7 3 10 7t3 11v138q0 12 -13 12h-262v71l228 4q46 1 74.5 -13.5t42 -42.5t13.5 -67v-91q0 -40 -18 -61t-62 -42l-191 -95q-12 -5 -14.5 -12t-2.5 -23v-121h287v-71h-370v191z" />
    <glyph glyph-name="three" unicode="3" horiz-adv-x="455" 
d="M385 123q0 -62 -35.5 -95t-103.5 -32l-221 4v71h263q13 0 13 13v196q0 13 -13 13h-205v70h200q13 0 13 13v176q0 13 -13 13h-255v70l216 4q68 1 102 -30t34 -95v-92q0 -59 -37.5 -84.5t-105.5 -25.5l7 30q72 0 106.5 -24.5t34.5 -86.5v-108z" />
    <glyph glyph-name="four" unicode="4" horiz-adv-x="534" 
d="M403 0h-81v156l7 -7h-311v57l191 349q16 29 28.5 47.5t32.5 26.5t56 8l77 -2v-425l-6 7h101v-68h-101l6 7v-156zM284 556l-186 -346l-6 7h237l-7 -7v355h-25q-6 0 -8.5 -2t-4.5 -7z" />
    <glyph glyph-name="five" unicode="5" horiz-adv-x="455" 
d="M129 387h135q68 0 104 -30t36 -92v-144q0 -64 -34 -95t-102 -30l-228 4v71h267q13 0 13 13v219q0 13 -13 13h-260v319h335v-71h-253v-177z" />
    <glyph glyph-name="six" unicode="6" horiz-adv-x="500" 
d="M320 -3h-111q-68 0 -102 27t-34 91v397q0 62 36 95t103 32l215 -4v-71h-257q-13 0 -13 -13v-467q0 -13 14 -13h188q13 0 13 13v223q0 12 -13 12h-212v70h175q68 0 101 -27.5t33 -91.5v-149q0 -64 -34 -94t-102 -30z" />
    <glyph glyph-name="seven" unicode="7" horiz-adv-x="411" 
d="M156 -2h-87l228 557q3 6 1.5 9.5t-7.5 3.5h-273v67l291 1q41 0 59.5 -20.5t18.5 -58.5z" />
    <glyph glyph-name="eight" unicode="8" horiz-adv-x="543" 
d="M334 -4h-125q-68 0 -103.5 32.5t-35.5 94.5v108q0 62 35 86.5t106 24.5l6 -30q-67 0 -104.5 25.5t-37.5 84.5v92q0 64 34 94.5t102 30.5h121q68 0 102 -30.5t34 -94.5v-92q0 -59 -37.5 -84.5t-105.5 -25.5l7 30q71 0 106 -24.5t35 -86.5v-108q0 -62 -35.5 -94.5
t-103.5 -32.5zM154 84q0 -13 13 -13h209q13 0 13 13v197q0 12 -13 12h-209q-13 0 -13 -12v-197zM159 375q0 -13 13 -13h199q13 0 13 13v177q0 13 -13 13h-199q-13 0 -13 -13v-177z" />
    <glyph glyph-name="nine" unicode="9" horiz-adv-x="500" 
d="M427 123q0 -62 -35.5 -95t-103.5 -32l-222 4v71h264q13 0 13 13v467q0 13 -13 13h-189q-13 0 -13 -13v-228q0 -13 13 -13h213v-69h-175q-68 0 -101.5 27.5t-33.5 91.5v154q0 64 34 94t102 30h111q68 0 102 -26.5t34 -91.5v-397z" />
    <glyph glyph-name="colon" unicode=":" horiz-adv-x="210" 
d="M147 27h-84v103h84v-103zM147 289h-84v104h84v-104z" />
    <glyph glyph-name="semicolon" unicode=";" horiz-adv-x="215" 
d="M63 2h35l-5 5q0 -14 -7 -36.5t-21 -43.5l29 -24q26 26 39.5 55.5t13.5 59.5v86h-84v-102zM147 268h-84v103h84v-103z" />
    <glyph glyph-name="less" unicode="&#x3c;" horiz-adv-x="465" 
d="M46 256v50l359 180v-70l-306 -148v27l306 -147v-71z" />
    <glyph glyph-name="equal" unicode="=" horiz-adv-x="504" 
d="M443 388v-61h-388v61h388zM443 210v-61h-388v61h388z" />
    <glyph glyph-name="greater" unicode="&#x3e;" horiz-adv-x="468" 
d="M418 327v-50l-358 -180v70l306 148v-27l-306 147v71z" />
    <glyph glyph-name="question" unicode="?" horiz-adv-x="367" 
d="M171 159h-78v68q0 21 4.5 33.5t15 24.5t28.5 32l86 89q5 5 6.5 8t1.5 10v134q0 9 -10 9h-194v70h160q63 0 93.5 -26t30.5 -88v-85q0 -31 -15 -51.5t-45 -52.5l-66 -69q-11 -11 -14 -20t-3 -26zM172 0h-80v95h80v-95z" />
    <glyph glyph-name="at" unicode="@" horiz-adv-x="650" 
d="M453 -47h-260q-65 0 -95.5 26.5t-30.5 88.5v419q0 62 30.5 88.5t95.5 26.5h273q66 0 96.5 -26.5t30.5 -88.5v-296q0 -53 -17.5 -73.5t-65.5 -20.5h-52q-25 0 -41 5.5t-23 17t-7 29.5v4l6 28q0 -27 -6.5 -45.5t-22.5 -28.5t-44 -10h-21q-51 0 -75 21.5t-24 73.5v169
q0 56 27 78.5t84 20.5l142 -3v-298q0 -10 10 -10h53q10 0 10 10v375q0 9 -10 9h-373q-9 0 -9 -9v-513q0 -9 9 -9h310v-59zM267 162q0 -9 9 -9h102q5 0 7 1.5t2 7.5v254l10 -11l-121 2q-9 0 -9 -9v-236z" />
    <glyph glyph-name="A" unicode="A" horiz-adv-x="528" 
d="M517 0h-82l-43 176l12 -10h-281l13 10l-47 -176h-77l152 542q10 39 21.5 59t31.5 28t58 8l86 -2zM238 555l-89 -328l-8 10h248l-8 -10l-81 338h-51q-5 0 -7 -2.5t-4 -7.5z" />
    <glyph glyph-name="B" unicode="B" horiz-adv-x="544" 
d="M483 123q0 -62 -36 -95t-104 -32l-271 4v635l259 4q68 1 102.5 -30t34.5 -95v-97q0 -59 -36 -84t-104 -25l13 29q72 1 107 -23.5t35 -87.5v-103zM153 305v-251l-15 14h248q12 0 12 13v196q0 12 -12 12h-247zM153 585v-243l-14 15h232q12 0 12 13v186q0 13 -12 13h-231z
" />
    <glyph glyph-name="C" unicode="C" horiz-adv-x="431" 
d="M410 74v-74h-221q-66 0 -97 26.5t-31 87.5v407q0 62 31 88t97 26h221v-74h-255q-10 0 -10 -9v-469q0 -9 10 -9h255z" />
    <glyph glyph-name="D" unicode="D" horiz-adv-x="544" 
d="M386 568h-233v-501h233q12 0 12 13v475q0 13 -12 13zM72 -1v636l274 5q70 1 103.5 -29t33.5 -97v-393q0 -67 -35.5 -97t-104.5 -29z" />
    <glyph glyph-name="E" unicode="E" horiz-adv-x="461" 
d="M427 0h-355v635h350v-71h-282l13 13v-232l-13 13h265v-70h-265l13 13v-243l-13 13h287v-71z" />
    <glyph glyph-name="F" unicode="F" horiz-adv-x="428" 
d="M398 349v-71h-260l15 15v-293h-81v635h81v-302l-15 16h260zM126 564v71h289v-71h-289z" />
    <glyph glyph-name="G" unicode="G" horiz-adv-x="529" 
d="M350 -7h-161q-65 0 -96 26.5t-31 88.5v419q0 62 31 88.5t96 26.5h277v-74h-311q-9 0 -9 -10v-481q0 -10 9 -10h232q10 0 10 10v201l10 -14h-123v69h193v-225q0 -62 -31 -88.5t-96 -26.5z" />
    <glyph glyph-name="H" unicode="H" horiz-adv-x="576" 
d="M423 342v293h81v-635h-81v301l15 -14h-300l15 14v-301h-81v635h81v-293l-15 16h300z" />
    <glyph glyph-name="I" unicode="I" horiz-adv-x="251" 
d="M166 0h-81v635h81v-635z" />
    <glyph glyph-name="J" unicode="J" horiz-adv-x="274" 
d="M201 635v-530q0 -61 -29 -86.5t-89 -25.5h-73v74h100q9 0 9 10v558h82z" />
    <glyph glyph-name="K" unicode="K" horiz-adv-x="544" 
d="M158 0h-81v635h81v-635zM285 312h-140v45h159q5 0 6.5 2.5t3.5 7.5l116 268h82l-102 -233q-11 -27 -21 -44.5t-22.5 -27.5t-32 -14t-49.5 -4zM304 286h-165v45h151q41 0 62 -8t34.5 -27.5t30.5 -53.5l120 -242h-88l-135 277q-2 5 -3.5 7t-6.5 2z" />
    <glyph glyph-name="L" unicode="L" horiz-adv-x="396" 
d="M391 71v-71h-319v635h81v-579l-15 15h253z" />
    <glyph glyph-name="M" unicode="M" horiz-adv-x="648" 
d="M526 635q32 0 44 -13.5t12 -44.5v-577h-78v545h20l-180 -344h-48l-169 334h14v-535h-73v635h46q23 0 34.5 -8t22.5 -30l166 -325h-23l188 363h24z" />
    <glyph glyph-name="N" unicode="N" horiz-adv-x="571" 
d="M432 117v518h71v-635h-56l-326 510l18 9v-519h-72v635h57l326 -509z" />
    <glyph glyph-name="O" unicode="O" horiz-adv-x="558" 
d="M402 568h-247q-9 0 -9 -10v-481q0 -10 9 -10h247q10 0 10 10v481q0 10 -10 10zM62 108v419q0 62 31 88.5t96 26.5h179q66 0 97 -26.5t31 -88.5v-419q0 -62 -31 -88.5t-97 -26.5h-179q-65 0 -96 26.5t-31 88.5z" />
    <glyph glyph-name="P" unicode="P" horiz-adv-x="502" 
d="M156 0h-83v635l266 4q68 1 102 -30t34 -95v-143q0 -40 -15 -68.5t-45 -43t-76 -14.5h-203l19 16zM155 584v-284l-14 16h237q13 0 13 13v226q0 13 -13 13h-237z" />
    <glyph glyph-name="Q" unicode="Q" horiz-adv-x="561" 
d="M402 568h-247q-9 0 -9 -10v-481q0 -10 9 -10h247q10 0 10 10v481q0 10 -10 10zM62 108v419q0 62 31 88.5t96 26.5h179q66 0 97 -26.5t31 -88.5v-419q0 -62 -31 -88.5t-97 -26.5h-179q-65 0 -96 26.5t-31 88.5zM309 -115l-37 145h72l43 -145h-78z" />
    <glyph glyph-name="R" unicode="R" horiz-adv-x="532" 
d="M156 0h-83v635l267 4q68 1 102 -30t34 -95v-128q0 -57 -29 -88.5t-88 -36.5l1 17q25 -5 39 -22t25 -50l72 -206h-83l-84 247q-3 6 -5.5 9t-11.5 3h-176l19 16zM155 584v-271l-14 15h238q13 0 13 13v214q0 13 -13 13h-238z" />
    <glyph glyph-name="S" unicode="S" horiz-adv-x="474" 
d="M140 356h157q68 0 103.5 -29.5t35.5 -91.5v-114q0 -64 -34 -95t-102 -30l-249 4v71h288q13 0 13 13v185q0 13 -13 13h-160q-68 0 -102 28t-34 92v110q0 62 35.5 95t103.5 32l236 -4v-71h-278q-13 0 -13 -13v-182q0 -13 13 -13z" />
    <glyph glyph-name="T" unicode="T" horiz-adv-x="410" 
d="M246 0h-82v577l13 -13h-172v71h400v-71h-173l14 13v-577z" />
    <glyph glyph-name="U" unicode="U" horiz-adv-x="556" 
d="M367 -7h-178q-65 0 -96 26.5t-31 88.5v527h84v-558q0 -10 9 -10h246q10 0 10 10v558h84v-527q0 -62 -31 -88.5t-97 -26.5z" />
    <glyph glyph-name="V" unicode="V" horiz-adv-x="514" 
d="M360 96q-10 -42 -21.5 -63t-30.5 -28t-56 -6l-86 1l-156 635h81l137 -564h45q4 0 6 2.5t3 7.5l147 554h77z" />
    <glyph glyph-name="W" unicode="W" horiz-adv-x="769" 
d="M290 -7h-109q-59 0 -85.5 22.5t-26.5 79.5v540h83v-558q0 -10 9 -10h173q10 0 10 10v558h80v-558q0 -10 10 -10h174q9 0 9 10l-1 558h84v-539q0 -57 -26 -80t-84 -23h-111q-53 0 -78.5 25t-25.5 77h18q-1 -52 -25.5 -77t-77.5 -25z" />
    <glyph glyph-name="X" unicode="X" horiz-adv-x="552" 
d="M319 366l128 269h83l-114 -234q-13 -27 -22.5 -44.5t-21.5 -27t-31 -14t-49 -4.5h-34q-40 0 -62 8.5t-35 28t-29 54.5l-112 234h89l126 -270q3 -5 5 -7t7 -2h61q8 0 11 9zM290 332q41 0 61.5 -8.5t34 -28t31.5 -54.5l126 -241h-89l-138 277q-2 5 -4.5 7t-7.5 2h-61
q-5 0 -7 -2t-5 -7l-138 -276h-84l123 241q13 25 23 43t21.5 28t31 14.5t49.5 4.5h33z" />
    <glyph glyph-name="Y" unicode="Y" horiz-adv-x="525" 
d="M302 309l128 326h83l-126 -318q-14 -35 -26 -54.5t-31.5 -27t-57.5 -7.5h-16q-38 0 -59 8t-33.5 27.5t-26.5 54.5l-125 318h87l128 -327q4 -10 12 -10h52q8 0 11 10zM303 0h-82v278h82v-278z" />
    <glyph glyph-name="Z" unicode="Z" horiz-adv-x="478" 
d="M441 66v-66h-333q-36 0 -55.5 17t-19.5 54l321 485q4 6 2 9.5t-8 3.5h-292v66l314 1q41 0 60 -20.5t19 -58.5l-316 -476q-3 -5 -1.5 -10t6.5 -5h303z" />
    <glyph glyph-name="bracketleft" unicode="[" horiz-adv-x="282" 
d="M251 -170h-188v850h188v-59h-107v-732h107v-59z" />
    <glyph glyph-name="backslash" unicode="\" horiz-adv-x="400" 
d="M314 -96l-309 771h79l311 -771h-81z" />
    <glyph glyph-name="bracketright" unicode="]" horiz-adv-x="282" 
d="M31 -170v59h108v732h-108v59h188v-850h-188z" />
    <glyph glyph-name="asciicircum" unicode="^" horiz-adv-x="446" 
d="M198 675h50l152 -309h-65l-120 257h15l-119 -257h-64z" />
    <glyph glyph-name="underscore" unicode="_" horiz-adv-x="441" 
d="M421 -44v-53h-401v53h401z" />
    <glyph glyph-name="grave" unicode="`" horiz-adv-x="282" 
d="M38 692l94 -139h58l-67 140z" />
    <glyph glyph-name="a" unicode="a" horiz-adv-x="416" 
d="M207 -7h-65q-57 0 -83.5 22.5t-26.5 79.5v82q0 61 27 83.5t90 22.5h149v-58h-178q-10 0 -10 -10v-148q0 -9 10 -9h168v357q0 10 -9 10l-220 -1v66l190 1q63 0 91 -23.5t28 -86.5v-381h-70l-10 58l6 27q0 -47 -19.5 -69.5t-67.5 -22.5z" />
    <glyph glyph-name="b" unicode="b" horiz-adv-x="443" 
d="M279 -4l-222 4v675h79v-243l-5 -27q0 47 19.5 69.5t67.5 22.5h68q59 0 85 -22t26 -80v-293q0 -60 -27 -83.5t-91 -22.5zM136 423v-370l-9 10l182 -2q9 0 9 10v352q0 9 -9 9h-163q-10 0 -10 -9z" />
    <glyph glyph-name="c" unicode="c" horiz-adv-x="340" 
d="M323 -7h-152q-65 0 -94.5 25t-29.5 86v282q0 62 29.5 86.5t94.5 24.5h152v-66h-187q-10 0 -10 -10v-352q0 -10 10 -10h187v-66z" />
    <glyph glyph-name="d" unicode="d" horiz-adv-x="443" 
d="M307 675h79v-675h-69l-10 58l6 27q0 -47 -20 -69.5t-67 -22.5h-69q-57 0 -83.5 22.5t-26.5 79.5v292q0 61 27 84t90 22l143 -1v183zM307 67v371l10 -11l-182 2q-10 0 -10 -9v-353q0 -9 10 -9h163q9 0 9 9z" />
    <glyph glyph-name="e" unicode="e" horiz-adv-x="426" 
d="M373 -5h-200q-65 0 -95 24.5t-30 86.5v283q0 62 26 85t88 23h105q64 0 91 -23t27 -85v-197h-267v59h188v172q0 9 -10 9h-159q-9 0 -9 -9v-353q0 -9 9 -9h236v-66z" />
    <glyph glyph-name="f" unicode="f" horiz-adv-x="292" 
d="M306 615l-134 1q-10 0 -10 -10v-129l-13 13h140v-62h-140l13 14v-442h-79v442l14 -14h-73v62h73l-14 -13v96q0 62 28.5 85.5t91.5 23.5l103 -1v-66z" />
    <glyph glyph-name="g" unicode="g" horiz-adv-x="431" 
d="M307 67v369l10 -10l-182 2q-10 0 -10 -10v-351q0 -9 10 -9h163q9 0 9 9zM298 -131q9 0 9 9v180l6 27q0 -47 -20 -69.5t-67 -22.5h-69q-57 0 -83.5 22.5t-26.5 79.5v292q0 61 27 84t90 22l222 -3v-576q0 -61 -29 -86t-95 -25h-198v66h234z" />
    <glyph glyph-name="h" unicode="h" horiz-adv-x="442" 
d="M214 497h69q59 0 85 -22t26 -80v-395h-79v423q0 9 -10 9h-163q-9 0 -9 -9l1 -423h-79l-1 675h79v-243l-10 -27q0 47 22 69.5t69 22.5z" />
    <glyph glyph-name="i" unicode="i" horiz-adv-x="209" 
d="M144 0h-79v490h79v-490zM144 588h-79v77h79v-77z" />
    <glyph glyph-name="j" unicode="j" horiz-adv-x="200" 
d="M142 588h-79v77h79v-77zM54 -131q9 0 9 10v611h79v-576q0 -61 -29.5 -86t-95.5 -25h-49v66h86z" />
    <glyph glyph-name="k" unicode="k" horiz-adv-x="447" 
d="M143 0h-78v675h78v-675zM235 245h-117v43h138q7 0 10 9l62 193h77l-50 -155q-12 -39 -24 -58t-33 -25.5t-63 -6.5zM273 222h-155v43h137q41 0 62 -6.5t33.5 -26t25.5 -57.5l67 -175h-80l-80 213q-2 5 -3.5 7t-6.5 2z" />
    <glyph glyph-name="l" unicode="l" horiz-adv-x="208" 
d="M144 0h-79v675h79v-675z" />
    <glyph glyph-name="m" unicode="m" horiz-adv-x="674" 
d="M209 497h58q59 0 85 -22t26 -80v-395h-79v423q0 9 -9 9h-153q-10 0 -10 -9l1 -423h-79l-1 490h69l10 -58l-9 -27q0 47 21.5 69.5t69.5 22.5zM459 497h59q58 0 84 -22t26 -80v-395h-79v423q0 9 -9 9h-153q-9 0 -9 -9l-2 -30l-8 12q0 47 22 69.5t69 22.5z" />
    <glyph glyph-name="n" unicode="n" horiz-adv-x="445" 
d="M217 497h69q58 0 84 -22t26 -80v-395h-79v423q0 9 -9 9h-163q-10 0 -10 -9l1 -423h-79v490h69l9 -58l-9 -27q0 47 21.5 69.5t69.5 22.5z" />
    <glyph glyph-name="o" unicode="o" horiz-adv-x="442" 
d="M306 431h-170q-10 0 -10 -10v-352q0 -10 10 -10h170q9 0 9 10v352q0 10 -9 10zM47 104v282q0 62 29.5 86.5t94.5 24.5h100q66 0 95 -24.5t29 -86.5v-282q0 -61 -29 -86t-95 -25h-100q-65 0 -94.5 25t-29.5 86z" />
    <glyph glyph-name="p" unicode="p" horiz-adv-x="443" 
d="M136 -190h-79v680h69l10 -58l-6 -27q0 47 20 69.5t67 22.5h69q58 0 84 -22t26 -80v-292q0 -60 -27 -83t-90 -23l-143 2v-189zM136 423v-370l-10 11l182 -2q9 0 9 9v352q0 9 -9 9h-163q-9 0 -9 -9z" />
    <glyph glyph-name="q" unicode="q" horiz-adv-x="443" 
d="M164 493l222 -3v-680h-79v248l6 27q0 -47 -20 -69.5t-67 -22.5h-69q-57 0 -83.5 22.5t-26.5 79.5v292q0 61 27 84t90 22zM307 67v369l10 -10l-182 2q-10 0 -10 -10v-351q0 -9 10 -9h163q9 0 9 9z" />
    <glyph glyph-name="r" unicode="r" horiz-adv-x="271" 
d="M216 497h55v-68h-127q-10 0 -10 -9l1 -420h-79l-1 490h70l9 -58l-9 -27q0 47 21.5 69.5t69.5 22.5z" />
    <glyph glyph-name="s" unicode="s" horiz-adv-x="377" 
d="M243 -4h-202v65h225q9 0 9 9v139q0 9 -9 9h-115q-63 0 -90.5 23t-27.5 83v64q0 62 28.5 85.5t90.5 23.5l178 -1v-66l-207 1q-10 0 -10 -10v-131q0 -9 10 -9h113q64 0 91 -22.5t27 -83.5v-76q0 -58 -26 -80.5t-85 -22.5z" />
    <glyph glyph-name="t" unicode="t" horiz-adv-x="282" 
d="M278 490v-62h-126l10 10v-363q0 -9 9 -9h107v-66h-70q-66 0 -95.5 25t-29.5 86v327l10 -10h-70v62h70l-10 -10v135h79v-135l-10 10h126z" />
    <glyph glyph-name="u" unicode="u" horiz-adv-x="446" 
d="M229 -7h-69q-58 0 -84.5 22.5t-26.5 79.5v395h79v-423q0 -9 9 -9h174l-1 432h79v-490h-69l-9 58l6 27q0 -47 -20 -69.5t-68 -22.5z" />
    <glyph glyph-name="v" unicode="v" horiz-adv-x="411" 
d="M314 93q-8 -37 -19 -59.5t-31 -31.5t-59 -7l-91 5l-110 490h79l95 -432h50q5 0 7 2t3 7l92 423h76z" />
    <glyph glyph-name="w" unicode="w" horiz-adv-x="676" 
d="M243 -7h-81q-57 0 -83.5 19.5t-26.5 76.5v401h78v-423q0 -9 10 -9h150q9 0 9 9v423h78v-423q0 -9 9 -9h150q10 0 10 9l-1 423h79l1 -395q0 -57 -26 -79.5t-85 -22.5h-81q-53 0 -78.5 25t-25.5 77h18q-1 -52 -26 -77t-78 -25z" />
    <glyph glyph-name="x" unicode="x" horiz-adv-x="439" 
d="M90 0h-82l78 166q17 36 28.5 55t30 26.5t54.5 8.5l1 -19q-31 1 -48 9t-29 27t-26 53l-71 164h81l86 -203q2 -5 3.5 -6.5t5.5 -1.5h37q7 0 10 8l87 203h77l-72 -164q-14 -33 -25 -52t-27 -27t-45 -10v18q35 -1 53 -8.5t29.5 -26.5t28.5 -54l79 -166h-84l-94 205
q-3 8 -10 8h-55q-5 0 -6.5 -1.5t-3.5 -6.5z" />
    <glyph glyph-name="y" unicode="y" horiz-adv-x="444" 
d="M300 -131q9 0 9 9v180l7 27q0 -47 -20 -69.5t-68 -22.5h-69q-57 0 -84 22.5t-27 79.5v395h79v-423q0 -9 10 -9h172v432h78l1 -576q0 -61 -29 -86t-95 -25h-199v66h235z" />
    <glyph glyph-name="z" unicode="z" horiz-adv-x="359" 
d="M333 62v-62h-242q-37 0 -57 15.5t-20 51.5l232 348q4 6 2 9.5t-8 3.5h-206v62h222q40 0 60 -18.5t20 -57.5l-228 -337q-3 -6 -1.5 -10.5t6.5 -4.5h220z" />
    <glyph glyph-name="braceleft" unicode="{" horiz-adv-x="310" 
d="M177 610v-268q0 -49 -23.5 -69t-66.5 -20v4q43 0 66.5 -20.5t23.5 -68.5v-268q0 -9 9 -9h102v-61h-59q-66 0 -100 29.5t-34 91.5v258q0 10 -11 10h-31v71h31q11 0 11 11v258q0 63 34 92t100 29h59v-61h-102q-9 0 -9 -9z" />
    <glyph glyph-name="bar" unicode="|" horiz-adv-x="265" 
d="M166 -57h-66v732h66v-732z" />
    <glyph glyph-name="braceright" unicode="}" horiz-adv-x="310" 
d="M133 610q0 9 -9 9h-102v61h59q67 0 100.5 -29t33.5 -92v-258q0 -11 11 -11h31v-71h-31q-11 0 -11 -10v-258q0 -62 -33.5 -91.5t-100.5 -29.5h-59v61h102q9 0 9 9v268q0 48 23.5 68.5t66.5 20.5v-4q-43 0 -66.5 20t-23.5 69v268z" />
    <glyph glyph-name="asciitilde" unicode="~" horiz-adv-x="420" 
d="M100 223h-59q0 63 18 90t58 27q28 0 60 -12.5t61 -25.5t48 -13t27 13t8 38h58q0 -61 -18 -88.5t-61 -27.5q-27 0 -58.5 12.5t-60 25t-47.5 12.5q-17 0 -25.5 -12.5t-8.5 -38.5z" />
    <glyph glyph-name="uni00A0" unicode="&#xa0;" horiz-adv-x="191" 
 />
    <glyph glyph-name="exclamdown" unicode="&#xa1;" horiz-adv-x="218" 
d="M90 300h47l19 -297v-158h-85v158zM73 490h80v-95h-80v95z" />
    <glyph glyph-name="cent" unicode="&#xa2;" horiz-adv-x="345" 
d="M325 63h-158q-65 0 -94.5 25t-29.5 86v272q0 62 29.5 86.5t94.5 24.5h158v-66h-193q-9 0 -9 -9v-343q0 -9 9 -9h193v-67zM164 543v97h66v-97h-66zM164 -18v97h66v-97h-66z" />
    <glyph glyph-name="sterling" unicode="&#xa3;" horiz-adv-x="430" 
d="M398 0h-356v72h51q10 0 10 10v210l14 -13h-75v61h75l-14 -13v160q0 62 31.5 88.5t96.5 26.5h160v-73h-196q-10 0 -10 -10v-195l-13 16h184v-61h-184l13 13v-177q0 -22 -9 -35t-33 -13v5h255v-72z" />
    <glyph glyph-name="currency" unicode="&#xa4;" horiz-adv-x="583" 
d="M376 432h-165q-10 0 -10 -10v-223q0 -9 10 -9h165q10 0 10 9v223q0 10 -10 10zM123 233v155q0 61 30.5 86t93.5 25h93q62 0 93 -25t31 -86v-155q0 -60 -31 -85t-93 -25h-93q-63 0 -93.5 25t-30.5 85zM404 481l90 90l44 -44l-90 -90zM45 96l89 90l45 -44l-90 -90zM448 186
l90 -90l-44 -44l-90 90zM91 569l88 -88l-45 -44l-87 88z" />
    <glyph glyph-name="yen" unicode="&#xa5;" horiz-adv-x="534" 
d="M302 299l120 301h83l-125 -293q-12 -27 -21 -43t-20.5 -23t-31.5 -10v-231h-82v232q-29 4 -42.5 20t-30.5 56l-123 293h86l122 -302q3 -10 11 -10h42q8 0 12 10zM235 123h-144v51h144v-51zM235 229h-144v51h144v-51zM443 123h-145v51h145v-51zM443 229h-145v51h145v-51z
" />
    <glyph glyph-name="brokenbar" unicode="&#xa6;" horiz-adv-x="278" 
d="M172 -57h-66v284h66v-284zM172 392h-66v283h66v-283z" />
    <glyph glyph-name="section" unicode="&#xa7;" horiz-adv-x="447" 
d="M406 21q0 -38 -14 -65.5t-42 -41.5t-74 -14l-221 4v71h256q13 0 13 13v112q0 12 -14 18l-188 75q-28 12 -46 23.5t-26.5 31t-8.5 53.5v217q1 39 14.5 66.5t42 41.5t73.5 13l221 -4v-71h-256q-12 0 -12 -12v-112q0 -13 13 -18l188 -76q29 -11 47 -23t26 -31.5t8 -53.5
v-217zM329 182l-5 -4v67q0 16 -2.5 23.5t-15.5 11.5l-188 78l6 3v-67q0 -16 2.5 -23t14.5 -12z" />
    <glyph glyph-name="dieresis" unicode="&#xa8;" horiz-adv-x="348" 
d="M125 576h-75v87h75v-87zM301 576h-75v87h75v-87z" />
    <glyph glyph-name="copyright" unicode="&#xa9;" horiz-adv-x="512" 
d="M386 601h-259q-9 0 -9 -9v-372q0 -9 9 -9h259q8 0 8 9v372q0 9 -8 9zM68 264v284q0 53 24.5 73.5t79.5 20.5h168q56 0 80 -20.5t24 -73.5v-284q0 -53 -24 -73.5t-80 -20.5h-168q-55 0 -79.5 20.5t-24.5 73.5zM355 248h-91q-56 0 -81 21.5t-25 76.5v120q0 56 25 77t81 21
h91v-55h-121q-9 0 -9 -10v-186q0 -10 9 -10h121v-55z" />
    <glyph glyph-name="ordfeminine" unicode="&#xaa;" horiz-adv-x="343" 
d="M156 294h-20q-53 0 -76 22.5t-23 78.5v24q0 61 24.5 81.5t82.5 20.5h93v-51h-124q-10 0 -10 -10v-97q0 -10 10 -10h114v249q0 9 -10 9h-160v56h131q42 0 65.5 -9.5t33 -31.5t9.5 -61v-264h-59l-10 52l6 30q0 -46 -16 -67.5t-61 -21.5z" />
    <glyph glyph-name="guillemotleft" unicode="&#xab;" horiz-adv-x="389" 
d="M43 240q-6 8 -6.5 13t6.5 14l108 158h66l-100 -162q-5 -8 0 -16l97 -163h-69zM190 240q-5 8 -5.5 13t5.5 14l106 158h69l-100 -162q-5 -8 0 -16l96 -163h-71z" />
    <glyph glyph-name="logicalnot" unicode="&#xac;" horiz-adv-x="526" 
d="M471 328v-186h-68v127h-363v59h431z" />
    <glyph glyph-name="uni00AD" unicode="&#xad;" horiz-adv-x="320" 
d="M289 317v-65h-257v65h257z" />
    <glyph glyph-name="registered" unicode="&#xae;" horiz-adv-x="524" 
d="M409 601h-282q-9 0 -9 -9v-372q0 -9 9 -9h282q9 0 9 9v372q0 9 -9 9zM68 264v284q0 53 24.5 73.5t79.5 20.5h192q56 0 80 -20.5t24 -73.5v-284q0 -53 -24 -73.5t-80 -20.5h-192q-55 0 -79.5 20.5t-24.5 73.5zM222 241h-63v323l133 3q47 1 70.5 -21.5t23.5 -64.5v-27
q0 -40 -19.5 -62t-52.5 -25l-1 14q24 -4 33 -17t19 -42l27 -81h-62l-39 115q-1 4 -3.5 6.5t-9.5 2.5h-72l16 12v-136zM222 530v-129l-11 12h100q10 0 10 10v85q0 10 -10 10h-99z" />
    <glyph glyph-name="macron" unicode="&#xaf;" horiz-adv-x="362" 
d="M309 641v-59h-256v59h256z" />
    <glyph glyph-name="degree" unicode="&#xb0;" horiz-adv-x="293" 
d="M30 438v126q0 40 20.5 59t66.5 19h59q46 0 66.5 -19t20.5 -59v-126q0 -39 -20.5 -58.5t-66.5 -19.5h-59q-46 0 -66.5 19.5t-20.5 58.5zM192 587h-91q-9 0 -9 -9v-154q0 -9 9 -9h91q9 0 9 9v154q0 9 -9 9z" />
    <glyph glyph-name="plusminus" unicode="&#xb1;" horiz-adv-x="530" 
d="M474 365v-61h-417v61h417zM297 150h-64v369h64v-369zM474 91v-61h-417v61h417z" />
    <glyph glyph-name="uni00B2" unicode="&#xb2;" horiz-adv-x="331" 
d="M42 370q0 32 11.5 43.5t37.5 23.5l123 59q5 2 7 4.5t2 6.5v67q0 7 -8 7h-163v54l160 3q42 1 60.5 -19t18.5 -56v-59q0 -25 -11 -38t-38 -25l-121 -57q-7 -4 -9 -7.5t-2 -13.5v-60h180v-54h-248v121z" />
    <glyph glyph-name="uni00B3" unicode="&#xb3;" horiz-adv-x="345" 
d="M276 324q0 -38 -21.5 -57.5t-63.5 -18.5l-166 1v54h175q8 0 8 8v104q0 8 -8 8h-139v53h136q8 0 8 7v91q0 7 -8 7h-169v54l162 3q42 1 62.5 -17.5t20.5 -58.5v-56q0 -36 -23.5 -51.5t-69.5 -15.5l4 18q48 1 70 -14t22 -53v-66z" />
    <glyph glyph-name="acute" unicode="&#xb4;" horiz-adv-x="278" 
d="M62 553h60l87 139l-85 1z" />
    <glyph glyph-name="uni00B5" unicode="&#xb5;" horiz-adv-x="446" 
d="M127 -190h-78v680h79v-423q0 -9 9 -9h174l-1 432h79v-490h-69l-9 58l6 27q0 -47 -17.5 -69.5t-59.5 -22.5h-65q-29 0 -43 7t-22 21h10z" />
    <glyph glyph-name="paragraph" unicode="&#xb6;" horiz-adv-x="502" 
d="M357 0v583l15 -15h-96l15 15v-583h-72v343l16 -16h-68q-45 0 -75 14t-45.5 42t-15.5 67v68q0 61 34.5 91.5t101.5 29.5l262 -4v-635h-72z" />
    <glyph glyph-name="periodcentered" unicode="&#xb7;" horiz-adv-x="187" 
d="M140 233h-93v107h93v-107z" />
    <glyph glyph-name="cedilla" unicode="&#xb8;" horiz-adv-x="262" 
d="M159 -148v47q0 7 -7 7h-83l23 105l41 -7l-10 -52h12q38 0 59 -14t21 -50v-15q0 -80 -89 -80h-69v52h95q7 0 7 7z" />
    <glyph glyph-name="uni00B9" unicode="&#xb9;" horiz-adv-x="315" 
d="M288 303v-54h-245v54h245zM26 554l125 81h62v-386h-66v326l9 -5l-101 -63z" />
    <glyph glyph-name="ordmasculine" unicode="&#xba;" horiz-adv-x="365" 
d="M245 612h-124q-10 0 -10 -9v-242q0 -9 10 -9h124q9 0 9 9v242q0 9 -9 9zM43 402v159q0 61 28 84.5t88 23.5h48q61 0 88.5 -23.5t27.5 -84.5v-159q0 -60 -27.5 -83.5t-88.5 -23.5h-48q-60 0 -88 23.5t-28 83.5z" />
    <glyph glyph-name="guillemotright" unicode="&#xbb;" horiz-adv-x="390" 
d="M337 269q5 -8 5.5 -13t-5.5 -14l-109 -158h-66l100 162q5 8 0 16l-97 163h69zM189 269q5 -8 5.5 -13t-5.5 -14l-106 -158h-68l100 162q4 8 0 16l-97 163h71z" />
    <glyph glyph-name="onequarter" unicode="&#xbc;" horiz-adv-x="794" 
d="M700 0h-66v90l4 -4h-205v44l120 208q16 27 28 38.5t45 11.5l74 -1v-251l-4 4h61v-54h-61l4 4v-90zM611 328l-112 -192l-5 4h144l-4 -4v197h-16q-4 0 -7 -5zM288 303v-54h-245v54h245zM26 554l125 81h62v-386h-66v326l9 -5l-101 -63zM542 642h67l-345 -649h-68z" />
    <glyph glyph-name="onehalf" unicode="&#xbd;" horiz-adv-x="768" 
d="M288 303v-54h-245v54h245zM26 554l125 81h62v-386h-66v326l9 -5l-101 -63zM537 642h67l-345 -649h-68zM483 121q0 32 11.5 43.5t37.5 23.5l123 59q5 2 7 4.5t2 6.5v67q0 7 -8 7h-163v54l160 3q42 1 60.5 -19t18.5 -56v-59q0 -25 -11 -38t-38 -25l-121 -57q-7 -4 -9 -7.5
t-2 -13.5v-60h180v-54h-248v121z" />
    <glyph glyph-name="threequarters" unicode="&#xbe;" horiz-adv-x="796" 
d="M276 324q0 -38 -21.5 -57.5t-63.5 -18.5l-166 1v54h175q8 0 8 8v104q0 8 -8 8h-139v53h136q8 0 8 7v91q0 7 -8 7h-169v54l162 3q42 1 62.5 -17.5t20.5 -58.5v-56q0 -36 -23.5 -51.5t-69.5 -15.5l4 18q48 1 70 -14t22 -53v-66zM542 642h67l-345 -649h-68zM702 0h-66v90
l4 -4h-205v44l120 208q16 27 28 38.5t45 11.5l74 -1v-251l-4 4h61v-54h-61l4 4v-90zM613 328l-112 -192l-5 4h144l-4 -4v197h-16q-4 0 -7 -5z" />
    <glyph glyph-name="questiondown" unicode="&#xbf;" horiz-adv-x="377" 
d="M206 331h78v-68q0 -20 -4.5 -32.5t-15 -25t-28.5 -32.5l-86 -89q-5 -5 -6.5 -8t-1.5 -10v-134q0 -9 10 -9h193v-70h-159q-63 0 -93.5 26.5t-30.5 87.5v85q0 32 14.5 52t45.5 52l66 69q11 11 14 20t3 26zM205 490h80v-95h-80v95z" />
    <glyph glyph-name="Agrave" unicode="&#xc0;" horiz-adv-x="528" 
d="M517 0h-82l-43 176l12 -10h-281l13 10l-47 -176h-77l152 542q10 39 21.5 59t31.5 28t58 8l86 -2zM238 555l-89 -328l-8 10h248l-8 -10l-81 338h-51q-5 0 -7 -2.5t-4 -7.5zM162 820l94 -139h58l-67 140z" />
    <glyph glyph-name="Aacute" unicode="&#xc1;" horiz-adv-x="528" 
d="M517 0h-82l-43 176l12 -10h-281l13 10l-47 -176h-77l152 542q10 39 21.5 59t31.5 28t58 8l86 -2zM238 555l-89 -328l-8 10h248l-8 -10l-81 338h-51q-5 0 -7 -2.5t-4 -7.5zM243 681h60l87 139l-85 1z" />
    <glyph glyph-name="Acircumflex" unicode="&#xc2;" horiz-adv-x="528" 
d="M517 0h-82l-43 176l12 -10h-281l13 10l-47 -176h-77l152 542q10 39 21.5 59t31.5 28t58 8l86 -2zM238 555l-89 -328l-8 10h248l-8 -10l-81 338h-51q-5 0 -7 -2.5t-4 -7.5zM318 816l89 -135h-73l-64 102h9l-72 -102h-69l94 135h86z" />
    <glyph glyph-name="Atilde" unicode="&#xc3;" horiz-adv-x="528" 
d="M517 0h-82l-43 176l12 -10h-281l13 10l-47 -176h-77l152 542q10 39 21.5 59t31.5 28t58 8l86 -2zM238 555l-89 -328l-8 10h248l-8 -10l-81 338h-51q-5 0 -7 -2.5t-4 -7.5zM194 706h-54q0 55 16 75.5t46 20.5q25 0 47 -9t41.5 -19t37.5 -10q15 0 21 8.5t6 29.5h54
q0 -55 -18 -75t-48 -20q-24 0 -46.5 9.5t-42.5 18.5t-36 9q-11 0 -17.5 -8t-6.5 -30z" />
    <glyph glyph-name="Adieresis" unicode="&#xc4;" horiz-adv-x="528" 
d="M517 0h-82l-43 176l12 -10h-281l13 10l-47 -176h-77l152 542q10 39 21.5 59t31.5 28t58 8l86 -2zM238 555l-89 -328l-8 10h248l-8 -10l-81 338h-51q-5 0 -7 -2.5t-4 -7.5zM228 704h-75v87h75v-87zM404 704h-75v87h75v-87z" />
    <glyph glyph-name="Aring" unicode="&#xc5;" horiz-adv-x="528" 
d="M517 0h-82l-43 176l12 -10h-281l13 10l-47 -176h-77l152 542q10 39 21.5 59t31.5 28t58 8l86 -2zM238 555l-89 -328l-8 10h248l-8 -10l-81 338h-51q-5 0 -7 -2.5t-4 -7.5zM371 755q0 -47 -20 -68.5t-73 -21.5q-52 0 -71 21.5t-19 68.5q0 49 19 69t71 20q53 0 73 -20
t20 -69zM233 755q0 -28 7.5 -39.5t37.5 -11.5q32 0 40 11.5t8 39.5q0 31 -8 41t-40 10q-30 0 -37.5 -10t-7.5 -41z" />
    <glyph glyph-name="AE" unicode="&#xc6;" horiz-adv-x="776" 
d="M84 0h-81l235 542q16 37 27.5 57.5t30.5 28.5t57 8l381 -1v-71h-279l13 13v-236l-13 14h262v-70h-262l13 13v-240l-13 13h284v-71h-352v198l13 -13h-251l19 13zM320 555l-134 -313l-9 13h223l-13 -13v336l13 -14h-69q-5 0 -7 -2t-4 -7z" />
    <glyph glyph-name="Ccedilla" unicode="&#xc7;" horiz-adv-x="431" 
d="M410 74v-74h-221q-66 0 -97 26.5t-31 87.5v407q0 62 31 88t97 26h221v-74h-255q-10 0 -10 -9v-469q0 -9 10 -9h255zM285 -148v47q0 7 -7 7h-83l23 105l41 -7l-10 -52h12q38 0 59 -14t21 -50v-15q0 -80 -89 -80h-69v52h95q7 0 7 7z" />
    <glyph glyph-name="Egrave" unicode="&#xc8;" horiz-adv-x="461" 
d="M427 0h-355v635h350v-71h-282l13 13v-232l-13 13h265v-70h-265l13 13v-243l-13 13h287v-71zM136 820l94 -139h58l-67 140z" />
    <glyph glyph-name="Eacute" unicode="&#xc9;" horiz-adv-x="461" 
d="M427 0h-355v635h350v-71h-282l13 13v-232l-13 13h265v-70h-265l13 13v-243l-13 13h287v-71zM217 681h60l87 139l-85 1z" />
    <glyph glyph-name="Ecircumflex" unicode="&#xca;" horiz-adv-x="461" 
d="M427 0h-355v635h350v-71h-282l13 13v-232l-13 13h265v-70h-265l13 13v-243l-13 13h287v-71zM292 816l89 -135h-73l-64 102h9l-72 -102h-69l94 135h86z" />
    <glyph glyph-name="Edieresis" unicode="&#xcb;" horiz-adv-x="461" 
d="M427 0h-355v635h350v-71h-282l13 13v-232l-13 13h265v-70h-265l13 13v-243l-13 13h287v-71zM202 704h-75v87h75v-87zM378 704h-75v87h75v-87z" />
    <glyph glyph-name="Igrave" unicode="&#xcc;" horiz-adv-x="251" 
d="M166 0h-81v635h81v-635zM11 820l94 -139h58l-67 140z" />
    <glyph glyph-name="Iacute" unicode="&#xcd;" horiz-adv-x="251" 
d="M166 0h-81v635h81v-635zM90 681h60l87 139l-85 1z" />
    <glyph glyph-name="Icircumflex" unicode="&#xce;" horiz-adv-x="251" 
d="M166 0h-81v635h81v-635zM166 816l89 -135h-73l-64 102h9l-72 -102h-69l94 135h86z" />
    <glyph glyph-name="Idieresis" unicode="&#xcf;" horiz-adv-x="251" 
d="M166 0h-81v635h81v-635zM77 704h-75v87h75v-87zM253 704h-75v87h75v-87z" />
    <glyph glyph-name="Eth" unicode="&#xd0;" horiz-adv-x="544" 
d="M386 568h-233v-501h233q12 0 12 13v475q0 13 -12 13zM72 -1v636l274 5q70 1 103.5 -29t33.5 -97v-393q0 -67 -35.5 -97t-104.5 -29zM274 354v-65h-257v65h257z" />
    <glyph glyph-name="Ntilde" unicode="&#xd1;" horiz-adv-x="571" 
d="M432 117v518h71v-635h-56l-326 510l18 9v-519h-72v635h57l326 -509zM199 706h-54q0 55 16 75.5t46 20.5q25 0 47 -9t41.5 -19t37.5 -10q15 0 21 8.5t6 29.5h54q0 -55 -18 -75t-48 -20q-24 0 -46.5 9.5t-42.5 18.5t-36 9q-11 0 -17.5 -8t-6.5 -30z" />
    <glyph glyph-name="Ograve" unicode="&#xd2;" horiz-adv-x="558" 
d="M402 568h-247q-9 0 -9 -10v-481q0 -10 9 -10h247q10 0 10 10v481q0 10 -10 10zM62 108v419q0 62 31 88.5t96 26.5h179q66 0 97 -26.5t31 -88.5v-419q0 -62 -31 -88.5t-97 -26.5h-179q-65 0 -96 26.5t-31 88.5zM166 820l94 -139h58l-67 140z" />
    <glyph glyph-name="Oacute" unicode="&#xd3;" horiz-adv-x="558" 
d="M402 568h-247q-9 0 -9 -10v-481q0 -10 9 -10h247q10 0 10 10v481q0 10 -10 10zM62 108v419q0 62 31 88.5t96 26.5h179q66 0 97 -26.5t31 -88.5v-419q0 -62 -31 -88.5t-97 -26.5h-179q-65 0 -96 26.5t-31 88.5zM247 681h60l87 139l-85 1z" />
    <glyph glyph-name="Ocircumflex" unicode="&#xd4;" horiz-adv-x="558" 
d="M402 568h-247q-9 0 -9 -10v-481q0 -10 9 -10h247q10 0 10 10v481q0 10 -10 10zM62 108v419q0 62 31 88.5t96 26.5h179q66 0 97 -26.5t31 -88.5v-419q0 -62 -31 -88.5t-97 -26.5h-179q-65 0 -96 26.5t-31 88.5zM322 816l89 -135h-73l-64 102h9l-72 -102h-69l94 135h86z
" />
    <glyph glyph-name="Otilde" unicode="&#xd5;" horiz-adv-x="558" 
d="M402 568h-247q-9 0 -9 -10v-481q0 -10 9 -10h247q10 0 10 10v481q0 10 -10 10zM62 108v419q0 62 31 88.5t96 26.5h179q66 0 97 -26.5t31 -88.5v-419q0 -62 -31 -88.5t-97 -26.5h-179q-65 0 -96 26.5t-31 88.5zM198 706h-54q0 55 16 75.5t46 20.5q25 0 47 -9t41.5 -19
t37.5 -10q15 0 21 8.5t6 29.5h54q0 -55 -18 -75t-48 -20q-24 0 -46.5 9.5t-42.5 18.5t-36 9q-11 0 -17.5 -8t-6.5 -30z" />
    <glyph glyph-name="Odieresis" unicode="&#xd6;" horiz-adv-x="558" 
d="M402 568h-247q-9 0 -9 -10v-481q0 -10 9 -10h247q10 0 10 10v481q0 10 -10 10zM62 108v419q0 62 31 88.5t96 26.5h179q66 0 97 -26.5t31 -88.5v-419q0 -62 -31 -88.5t-97 -26.5h-179q-65 0 -96 26.5t-31 88.5zM232 704h-75v87h75v-87zM408 704h-75v87h75v-87z" />
    <glyph glyph-name="multiply" unicode="&#xd7;" horiz-adv-x="452" 
d="M353 467l43 -43l-297 -298l-44 44zM397 170l-45 -44l-297 297l44 45z" />
    <glyph glyph-name="Oslash" unicode="&#xd8;" horiz-adv-x="558" 
d="M430 683h56l-358 -734h-56zM402 568h-247q-9 0 -9 -10v-481q0 -10 9 -10h247q10 0 10 10v481q0 10 -10 10zM62 108v419q0 62 31 88.5t96 26.5h179q66 0 97 -26.5t31 -88.5v-419q0 -62 -31 -88.5t-97 -26.5h-179q-65 0 -96 26.5t-31 88.5z" />
    <glyph glyph-name="Ugrave" unicode="&#xd9;" horiz-adv-x="556" 
d="M367 -7h-178q-65 0 -96 26.5t-31 88.5v527h84v-558q0 -10 9 -10h246q10 0 10 10v558h84v-527q0 -62 -31 -88.5t-97 -26.5zM164 820l94 -139h58l-67 140z" />
    <glyph glyph-name="Uacute" unicode="&#xda;" horiz-adv-x="556" 
d="M367 -7h-178q-65 0 -96 26.5t-31 88.5v527h84v-558q0 -10 9 -10h246q10 0 10 10v558h84v-527q0 -62 -31 -88.5t-97 -26.5zM245 681h60l87 139l-85 1z" />
    <glyph glyph-name="Ucircumflex" unicode="&#xdb;" horiz-adv-x="556" 
d="M367 -7h-178q-65 0 -96 26.5t-31 88.5v527h84v-558q0 -10 9 -10h246q10 0 10 10v558h84v-527q0 -62 -31 -88.5t-97 -26.5zM320 816l89 -135h-73l-64 102h9l-72 -102h-69l94 135h86z" />
    <glyph glyph-name="Udieresis" unicode="&#xdc;" horiz-adv-x="556" 
d="M367 -7h-178q-65 0 -96 26.5t-31 88.5v527h84v-558q0 -10 9 -10h246q10 0 10 10v558h84v-527q0 -62 -31 -88.5t-97 -26.5zM230 704h-75v87h75v-87zM406 704h-75v87h75v-87z" />
    <glyph glyph-name="Yacute" unicode="&#xdd;" horiz-adv-x="525" 
d="M302 309l128 326h83l-126 -318q-14 -35 -26 -54.5t-31.5 -27t-57.5 -7.5h-16q-38 0 -59 8t-33.5 27.5t-26.5 54.5l-125 318h87l128 -327q4 -10 12 -10h52q8 0 11 10zM303 0h-82v278h82v-278zM229 681h60l87 139l-85 1z" />
    <glyph glyph-name="Thorn" unicode="&#xde;" horiz-adv-x="520" 
d="M156 0h-83v635h82v-123l-17 14h200q68 0 102.5 -29.5t34.5 -93.5v-143q0 -40 -15.5 -68.5t-45.5 -43t-76 -14.5h-198l15 16zM155 471v-281l-15 15h238q12 0 12 13v224q0 13 -12 13h-238z" />
    <glyph glyph-name="germandbls" unicode="&#xdf;" horiz-adv-x="477" 
d="M77 442l13 -14h-69v62h69l-13 -13v38q0 62 33 93t100 31h73q68 0 102 -30.5t34 -94.5v-80q0 -59 -36.5 -84.5t-104.5 -25.5l17 29q71 1 105 -24.5t34 -86.5v-119q0 -62 -35.5 -94.5t-103.5 -32.5h-89v66h135q13 0 13 13v217q0 13 -13 13h-135v64h118q6 0 10.5 3.5
t4.5 9.5v178q0 13 -13 13h-158q-12 0 -12 -13v-560h-79v442z" />
    <glyph glyph-name="agrave" unicode="&#xe0;" horiz-adv-x="416" 
d="M207 -7h-65q-57 0 -83.5 22.5t-26.5 79.5v82q0 61 27 83.5t90 22.5h149v-58h-178q-10 0 -10 -10v-148q0 -9 10 -9h168v357q0 10 -9 10l-220 -1v66l190 1q63 0 91 -23.5t28 -86.5v-381h-70l-10 58l6 27q0 -47 -19.5 -69.5t-67.5 -22.5zM93 692l94 -139h58l-67 140z" />
    <glyph glyph-name="aacute" unicode="&#xe1;" horiz-adv-x="416" 
d="M207 -7h-65q-57 0 -83.5 22.5t-26.5 79.5v82q0 61 27 83.5t90 22.5h149v-58h-178q-10 0 -10 -10v-148q0 -9 10 -9h168v357q0 10 -9 10l-220 -1v66l190 1q63 0 91 -23.5t28 -86.5v-381h-70l-10 58l6 27q0 -47 -19.5 -69.5t-67.5 -22.5zM174 553h60l87 139l-85 1z" />
    <glyph glyph-name="acircumflex" unicode="&#xe2;" horiz-adv-x="416" 
d="M207 -7h-65q-57 0 -83.5 22.5t-26.5 79.5v82q0 61 27 83.5t90 22.5h149v-58h-178q-10 0 -10 -10v-148q0 -9 10 -9h168v357q0 10 -9 10l-220 -1v66l190 1q63 0 91 -23.5t28 -86.5v-381h-70l-10 58l6 27q0 -47 -19.5 -69.5t-67.5 -22.5zM249 688l89 -135h-73l-64 102h9
l-72 -102h-69l94 135h86z" />
    <glyph glyph-name="atilde" unicode="&#xe3;" horiz-adv-x="416" 
d="M207 -7h-65q-57 0 -83.5 22.5t-26.5 79.5v82q0 61 27 83.5t90 22.5h149v-58h-178q-10 0 -10 -10v-148q0 -9 10 -9h168v357q0 10 -9 10l-220 -1v66l190 1q63 0 91 -23.5t28 -86.5v-381h-70l-10 58l6 27q0 -47 -19.5 -69.5t-67.5 -22.5zM125 578h-54q0 55 16 75.5t46 20.5
q25 0 47 -9t41.5 -19t37.5 -10q15 0 21 8.5t6 29.5h54q0 -55 -18 -75t-48 -20q-24 0 -46.5 9.5t-42.5 18.5t-36 9q-11 0 -17.5 -8t-6.5 -30z" />
    <glyph glyph-name="adieresis" unicode="&#xe4;" horiz-adv-x="416" 
d="M207 -7h-65q-57 0 -83.5 22.5t-26.5 79.5v82q0 61 27 83.5t90 22.5h149v-58h-178q-10 0 -10 -10v-148q0 -9 10 -9h168v357q0 10 -9 10l-220 -1v66l190 1q63 0 91 -23.5t28 -86.5v-381h-70l-10 58l6 27q0 -47 -19.5 -69.5t-67.5 -22.5zM159 576h-75v87h75v-87zM335 576
h-75v87h75v-87z" />
    <glyph glyph-name="aring" unicode="&#xe5;" horiz-adv-x="416" 
d="M207 -7h-65q-57 0 -83.5 22.5t-26.5 79.5v82q0 61 27 83.5t90 22.5h149v-58h-178q-10 0 -10 -10v-148q0 -9 10 -9h168v357q0 10 -9 10l-220 -1v66l190 1q63 0 91 -23.5t28 -86.5v-381h-70l-10 58l6 27q0 -47 -19.5 -69.5t-67.5 -22.5zM302 627q0 -47 -20 -68.5t-73 -21.5
q-52 0 -71 21.5t-19 68.5q0 49 19 69t71 20q53 0 73 -20t20 -69zM164 627q0 -28 7.5 -39.5t37.5 -11.5q32 0 40 11.5t8 39.5q0 31 -8 41t-40 10q-30 0 -37.5 -10t-7.5 -41z" />
    <glyph glyph-name="ae" unicode="&#xe6;" horiz-adv-x="665" 
d="M612 -5h-203q-60 0 -90 23.5t-30 74.5v322q0 9 -10 9h-220v66h183q47 0 70.5 -13.5t29.5 -46.5h-25q6 38 25.5 52.5t69.5 14.5h94q64 0 91 -23t27 -85v-183h-266v58h187v159q0 9 -10 9h-158q-9 0 -9 -9v-353q0 -9 9 -9h235v-66zM214 -7h-72q-57 0 -83.5 22.5t-26.5 79.5
v69q0 61 27 83.5t90 22.5h150v-58h-179q-10 0 -10 -10v-135q0 -9 10 -9h177q-3 -32 -23 -48.5t-60 -16.5z" />
    <glyph glyph-name="ccedilla" unicode="&#xe7;" horiz-adv-x="340" 
d="M323 -7h-152q-65 0 -94.5 25t-29.5 86v282q0 62 29.5 86.5t94.5 24.5h152v-66h-187q-10 0 -10 -10v-352q0 -10 10 -10h187v-66zM232 -148v47q0 7 -7 7h-83l23 105l41 -7l-10 -52h12q38 0 59 -14t21 -50v-15q0 -80 -89 -80h-69v52h95q7 0 7 7z" />
    <glyph glyph-name="egrave" unicode="&#xe8;" horiz-adv-x="426" 
d="M373 -5h-200q-65 0 -95 24.5t-30 86.5v283q0 62 26 85t88 23h105q64 0 91 -23t27 -85v-197h-267v59h188v172q0 9 -10 9h-159q-9 0 -9 -9v-353q0 -9 9 -9h236v-66zM101 692l94 -139h58l-67 140z" />
    <glyph glyph-name="eacute" unicode="&#xe9;" horiz-adv-x="426" 
d="M373 -5h-200q-65 0 -95 24.5t-30 86.5v283q0 62 26 85t88 23h105q64 0 91 -23t27 -85v-197h-267v59h188v172q0 9 -10 9h-159q-9 0 -9 -9v-353q0 -9 9 -9h236v-66zM182 553h60l87 139l-85 1z" />
    <glyph glyph-name="ecircumflex" unicode="&#xea;" horiz-adv-x="426" 
d="M373 -5h-200q-65 0 -95 24.5t-30 86.5v283q0 62 26 85t88 23h105q64 0 91 -23t27 -85v-197h-267v59h188v172q0 9 -10 9h-159q-9 0 -9 -9v-353q0 -9 9 -9h236v-66zM257 688l89 -135h-73l-64 102h9l-72 -102h-69l94 135h86z" />
    <glyph glyph-name="edieresis" unicode="&#xeb;" horiz-adv-x="426" 
d="M373 -5h-200q-65 0 -95 24.5t-30 86.5v283q0 62 26 85t88 23h105q64 0 91 -23t27 -85v-197h-267v59h188v172q0 9 -10 9h-159q-9 0 -9 -9v-353q0 -9 9 -9h236v-66zM167 576h-75v87h75v-87zM343 576h-75v87h75v-87z" />
    <glyph glyph-name="igrave" unicode="&#xec;" horiz-adv-x="211" 
d="M145 0h-79v490h79v-490zM-9 692l94 -139h58l-67 140z" />
    <glyph glyph-name="iacute" unicode="&#xed;" horiz-adv-x="211" 
d="M145 0h-79v490h79v-490zM71 553h60l87 139l-85 1z" />
    <glyph glyph-name="icircumflex" unicode="&#xee;" horiz-adv-x="211" 
d="M145 0h-79v490h79v-490zM146 688l89 -135h-73l-64 102h9l-72 -102h-69l94 135h86z" />
    <glyph glyph-name="idieresis" unicode="&#xef;" horiz-adv-x="211" 
d="M145 0h-79v490h79v-490zM57 576h-75v87h75v-87zM233 576h-75v87h75v-87z" />
    <glyph glyph-name="eth" unicode="&#xf0;" horiz-adv-x="442" 
d="M263 -7h-92q-65 0 -94.5 25t-29.5 86v258q0 62 28.5 86.5t93.5 24.5h148l-9 -7v141q0 10 -10 10l-180 -1v61h150q63 0 91 -23.5t28 -85.5v-464q0 -61 -29 -86t-95 -25zM126 69q0 -10 9 -10h164q9 0 9 10v353l11 -10h-184q-9 0 -9 -9v-334zM431 638l-209 -116l-20 39
l210 116z" />
    <glyph glyph-name="ntilde" unicode="&#xf1;" horiz-adv-x="445" 
d="M217 497h69q58 0 84 -22t26 -80v-395h-79v423q0 9 -9 9h-163q-10 0 -10 -9l1 -423h-79v490h69l9 -58l-9 -27q0 47 21.5 69.5t69.5 22.5zM149 578h-54q0 55 16 75.5t46 20.5q25 0 47 -9t41.5 -19t37.5 -10q15 0 21 8.5t6 29.5h54q0 -55 -18 -75t-48 -20q-24 0 -46.5 9.5
t-42.5 18.5t-36 9q-11 0 -17.5 -8t-6.5 -30z" />
    <glyph glyph-name="ograve" unicode="&#xf2;" horiz-adv-x="442" 
d="M306 431h-170q-10 0 -10 -10v-352q0 -10 10 -10h170q9 0 9 10v352q0 10 -9 10zM47 104v282q0 62 29.5 86.5t94.5 24.5h100q66 0 95 -24.5t29 -86.5v-282q0 -61 -29 -86t-95 -25h-100q-65 0 -94.5 25t-29.5 86zM108 692l94 -139h58l-67 140z" />
    <glyph glyph-name="oacute" unicode="&#xf3;" horiz-adv-x="442" 
d="M306 431h-170q-10 0 -10 -10v-352q0 -10 10 -10h170q9 0 9 10v352q0 10 -9 10zM47 104v282q0 62 29.5 86.5t94.5 24.5h100q66 0 95 -24.5t29 -86.5v-282q0 -61 -29 -86t-95 -25h-100q-65 0 -94.5 25t-29.5 86zM188 553h60l87 139l-85 1z" />
    <glyph glyph-name="ocircumflex" unicode="&#xf4;" horiz-adv-x="442" 
d="M306 431h-170q-10 0 -10 -10v-352q0 -10 10 -10h170q9 0 9 10v352q0 10 -9 10zM47 104v282q0 62 29.5 86.5t94.5 24.5h100q66 0 95 -24.5t29 -86.5v-282q0 -61 -29 -86t-95 -25h-100q-65 0 -94.5 25t-29.5 86zM263 688l89 -135h-73l-64 102h9l-72 -102h-69l94 135h86z
" />
    <glyph glyph-name="otilde" unicode="&#xf5;" horiz-adv-x="442" 
d="M306 431h-170q-10 0 -10 -10v-352q0 -10 10 -10h170q9 0 9 10v352q0 10 -9 10zM47 104v282q0 62 29.5 86.5t94.5 24.5h100q66 0 95 -24.5t29 -86.5v-282q0 -61 -29 -86t-95 -25h-100q-65 0 -94.5 25t-29.5 86zM139 578h-54q0 55 16 75.5t46 20.5q25 0 47 -9t41.5 -19
t37.5 -10q15 0 21 8.5t6 29.5h54q0 -55 -18 -75t-48 -20q-24 0 -46.5 9.5t-42.5 18.5t-36 9q-11 0 -17.5 -8t-6.5 -30z" />
    <glyph glyph-name="odieresis" unicode="&#xf6;" horiz-adv-x="442" 
d="M306 431h-170q-10 0 -10 -10v-352q0 -10 10 -10h170q9 0 9 10v352q0 10 -9 10zM47 104v282q0 62 29.5 86.5t94.5 24.5h100q66 0 95 -24.5t29 -86.5v-282q0 -61 -29 -86t-95 -25h-100q-65 0 -94.5 25t-29.5 86zM174 576h-75v87h75v-87zM350 576h-75v87h75v-87z" />
    <glyph glyph-name="divide" unicode="&#xf7;" horiz-adv-x="490" 
d="M436 264h-381v61h381v-61zM285 73h-80v99h80v-99zM285 416h-80v99h80v-99z" />
    <glyph glyph-name="oslash" unicode="&#xf8;" horiz-adv-x="442" 
d="M339 548h49l-284 -605h-49zM306 431h-170q-10 0 -10 -10v-352q0 -10 10 -10h170q9 0 9 10v352q0 10 -9 10zM47 104v282q0 62 29.5 86.5t94.5 24.5h100q66 0 95 -24.5t29 -86.5v-282q0 -61 -29 -86t-95 -25h-100q-65 0 -94.5 25t-29.5 86z" />
    <glyph glyph-name="ugrave" unicode="&#xf9;" horiz-adv-x="446" 
d="M229 -7h-69q-58 0 -84.5 22.5t-26.5 79.5v395h79v-423q0 -9 9 -9h174l-1 432h79v-490h-69l-9 58l6 27q0 -47 -20 -69.5t-68 -22.5zM101 692l94 -139h58l-67 140z" />
    <glyph glyph-name="uacute" unicode="&#xfa;" horiz-adv-x="446" 
d="M229 -7h-69q-58 0 -84.5 22.5t-26.5 79.5v395h79v-423q0 -9 9 -9h174l-1 432h79v-490h-69l-9 58l6 27q0 -47 -20 -69.5t-68 -22.5zM182 553h60l87 139l-85 1z" />
    <glyph glyph-name="ucircumflex" unicode="&#xfb;" horiz-adv-x="446" 
d="M229 -7h-69q-58 0 -84.5 22.5t-26.5 79.5v395h79v-423q0 -9 9 -9h174l-1 432h79v-490h-69l-9 58l6 27q0 -47 -20 -69.5t-68 -22.5zM257 688l89 -135h-73l-64 102h9l-72 -102h-69l94 135h86z" />
    <glyph glyph-name="udieresis" unicode="&#xfc;" horiz-adv-x="446" 
d="M229 -7h-69q-58 0 -84.5 22.5t-26.5 79.5v395h79v-423q0 -9 9 -9h174l-1 432h79v-490h-69l-9 58l6 27q0 -47 -20 -69.5t-68 -22.5zM167 576h-75v87h75v-87zM343 576h-75v87h75v-87z" />
    <glyph glyph-name="yacute" unicode="&#xfd;" horiz-adv-x="444" 
d="M300 -131q9 0 9 9v180l7 27q0 -47 -20 -69.5t-68 -22.5h-69q-57 0 -84 22.5t-27 79.5v395h79v-423q0 -9 10 -9h172v432h78l1 -576q0 -61 -29 -86t-95 -25h-199v66h235zM182 553h60l87 139l-85 1z" />
    <glyph glyph-name="thorn" unicode="&#xfe;" horiz-adv-x="444" 
d="M138 -190h-80v865h79l1 -243l-6 -27q0 47 19.5 69.5t67.5 22.5h68q59 0 85 -22t26 -80v-292q0 -60 -27 -83t-91 -23l-142 2v-189zM138 423v-370l-10 11l182 -2q9 0 9 9v352q0 9 -9 9h-163q-9 0 -9 -9z" />
    <glyph glyph-name="ydieresis" unicode="&#xff;" horiz-adv-x="444" 
d="M300 -131q9 0 9 9v180l7 27q0 -47 -20 -69.5t-68 -22.5h-69q-57 0 -84 22.5t-27 79.5v395h79v-423q0 -9 10 -9h172v432h78l1 -576q0 -61 -29 -86t-95 -25h-199v66h235zM167 576h-75v87h75v-87zM343 576h-75v87h75v-87z" />
    <glyph glyph-name="Amacron" unicode="&#x100;" horiz-adv-x="528" 
d="M517 0h-82l-43 176l12 -10h-281l13 10l-47 -176h-77l152 542q10 39 21.5 59t31.5 28t58 8l86 -2zM238 555l-89 -328l-8 10h248l-8 -10l-81 338h-51q-5 0 -7 -2.5t-4 -7.5zM405 769v-59h-256v59h256z" />
    <glyph glyph-name="amacron" unicode="&#x101;" horiz-adv-x="416" 
d="M207 -7h-65q-57 0 -83.5 22.5t-26.5 79.5v82q0 61 27 83.5t90 22.5h149v-58h-178q-10 0 -10 -10v-148q0 -9 10 -9h168v357q0 10 -9 10l-220 -1v66l190 1q63 0 91 -23.5t28 -86.5v-381h-70l-10 58l6 27q0 -47 -19.5 -69.5t-67.5 -22.5zM336 641v-59h-256v59h256z" />
    <glyph glyph-name="Abreve" unicode="&#x102;" horiz-adv-x="528" 
d="M517 0h-82l-43 176l12 -10h-281l13 10l-47 -176h-77l152 542q10 39 21.5 59t31.5 28t58 8l86 -2zM238 555l-89 -328l-8 10h248l-8 -10l-81 338h-51q-5 0 -7 -2.5t-4 -7.5zM167 807h55q0 -34 11.5 -51.5t55.5 -17.5q40 0 50.5 17.5t10.5 51.5h54q0 -44 -10.5 -70
t-35.5 -38t-69 -12q-48 0 -74.5 12t-37 38.5t-10.5 69.5z" />
    <glyph glyph-name="abreve" unicode="&#x103;" horiz-adv-x="416" 
d="M207 -7h-65q-57 0 -83.5 22.5t-26.5 79.5v82q0 61 27 83.5t90 22.5h149v-58h-178q-10 0 -10 -10v-148q0 -9 10 -9h168v357q0 10 -9 10l-220 -1v66l190 1q63 0 91 -23.5t28 -86.5v-381h-70l-10 58l6 27q0 -47 -19.5 -69.5t-67.5 -22.5zM98 679h55q0 -34 11.5 -51.5
t55.5 -17.5q40 0 50.5 17.5t10.5 51.5h54q0 -44 -10.5 -70t-35.5 -38t-69 -12q-48 0 -74.5 12t-37 38.5t-10.5 69.5z" />
    <glyph glyph-name="Aogonek" unicode="&#x104;" horiz-adv-x="528" 
d="M517 0h-82l-43 176l12 -10h-281l13 10l-47 -176h-77l152 542q10 39 21.5 59t31.5 28t58 8l86 -2zM238 555l-89 -328l-8 10h248l-8 -10l-81 338h-51q-5 0 -7 -2.5t-4 -7.5zM535 -207h-55q-50 0 -75.5 14.5t-25.5 56.5v22q0 43 26 66l60 54l51 -6l-63 -73q-6 -6 -7 -8
t-1 -9v-53q0 -7 7 -7h83v-57z" />
    <glyph glyph-name="aogonek" unicode="&#x105;" horiz-adv-x="416" 
d="M207 -7h-65q-57 0 -83.5 22.5t-26.5 79.5v82q0 61 27 83.5t90 22.5h149v-58h-178q-10 0 -10 -10v-148q0 -9 10 -9h168v357q0 10 -9 10l-220 -1v66l190 1q63 0 91 -23.5t28 -86.5v-381h-70l-10 58l6 27q0 -47 -19.5 -69.5t-67.5 -22.5zM387 -207h-55q-50 0 -75.5 14.5
t-25.5 56.5v22q0 43 26 66l60 54l51 -6l-63 -73q-6 -6 -7 -8t-1 -9v-53q0 -7 7 -7h83v-57z" />
    <glyph glyph-name="Cacute" unicode="&#x106;" horiz-adv-x="431" 
d="M410 74v-74h-221q-66 0 -97 26.5t-31 87.5v407q0 62 31 88t97 26h221v-74h-255q-10 0 -10 -9v-469q0 -9 10 -9h255zM221 681h60l87 139l-85 1z" />
    <glyph glyph-name="cacute" unicode="&#x107;" horiz-adv-x="340" 
d="M323 -7h-152q-65 0 -94.5 25t-29.5 86v282q0 62 29.5 86.5t94.5 24.5h152v-66h-187q-10 0 -10 -10v-352q0 -10 10 -10h187v-66zM147 553h60l87 139l-85 1z" />
    <glyph glyph-name="Ccaron" unicode="&#x10c;" horiz-adv-x="431" 
d="M222 686l-89 135h72l64 -102h-8l71 102h70l-95 -135h-85zM410 74v-74h-221q-66 0 -97 26.5t-31 87.5v407q0 62 31 88t97 26h221v-74h-255q-10 0 -10 -9v-469q0 -9 10 -9h255z" />
    <glyph glyph-name="ccaron" unicode="&#x10d;" horiz-adv-x="340" 
d="M158 558l-89 135h72l64 -103h-8l72 103h69l-94 -135h-86zM323 -7h-152q-65 0 -94.5 25t-29.5 86v282q0 62 29.5 86.5t94.5 24.5h152v-66h-187q-10 0 -10 -10v-352q0 -10 10 -10h187v-66z" />
    <glyph glyph-name="Dcaron" unicode="&#x10e;" horiz-adv-x="544" 
d="M232 686l-89 135h73l64 -102h-9l72 102h69l-94 -135h-86zM386 568h-233v-501h233q12 0 12 13v475q0 13 -12 13zM72 -1v636l274 5q70 1 103.5 -29t33.5 -97v-393q0 -67 -35.5 -97t-104.5 -29z" />
    <glyph glyph-name="dcaron" unicode="&#x10f;" horiz-adv-x="480" 
d="M435 581h33l-5 4q0 -12 -6.5 -34t-20.5 -44l26 -21q24 25 37 53t13 56v80h-77v-94zM307 675h79v-675h-69l-10 58l6 27q0 -47 -20 -69.5t-67 -22.5h-69q-57 0 -83.5 22.5t-26.5 79.5v292q0 61 27 84t90 22l143 -1v183zM307 67v371l10 -11l-182 2q-10 0 -10 -9v-353
q0 -9 10 -9h163q9 0 9 9z" />
    <glyph glyph-name="Dcroat" unicode="&#x110;" horiz-adv-x="544" 
d="M386 568h-233v-501h233q12 0 12 13v475q0 13 -12 13zM72 -1v636l274 5q70 1 103.5 -29t33.5 -97v-393q0 -67 -35.5 -97t-104.5 -29zM274 354v-65h-257v65h257z" />
    <glyph glyph-name="dcroat" unicode="&#x111;" horiz-adv-x="443" 
d="M429 619v-55h-228v55h228zM307 675h79v-675h-69l-10 58l6 27q0 -47 -20 -69.5t-67 -22.5h-69q-57 0 -83.5 22.5t-26.5 79.5v292q0 61 27 84t90 22l143 -1v183zM307 67v371l10 -11l-182 2q-10 0 -10 -9v-353q0 -9 10 -9h163q9 0 9 9z" />
    <glyph glyph-name="Emacron" unicode="&#x112;" horiz-adv-x="461" 
d="M427 0h-355v635h350v-71h-282l13 13v-232l-13 13h265v-70h-265l13 13v-243l-13 13h287v-71zM379 769v-59h-256v59h256z" />
    <glyph glyph-name="emacron" unicode="&#x113;" horiz-adv-x="426" 
d="M373 -5h-200q-65 0 -95 24.5t-30 86.5v283q0 62 26 85t88 23h105q64 0 91 -23t27 -85v-197h-267v59h188v172q0 9 -10 9h-159q-9 0 -9 -9v-353q0 -9 9 -9h236v-66zM344 641v-59h-256v59h256z" />
    <glyph glyph-name="Edotaccent" unicode="&#x116;" horiz-adv-x="461" 
d="M427 0h-355v635h350v-71h-282l13 13v-232l-13 13h265v-70h-265l13 13v-243l-13 13h287v-71zM292 702h-80v94h80v-94z" />
    <glyph glyph-name="edotaccent" unicode="&#x117;" horiz-adv-x="426" 
d="M373 -5h-200q-65 0 -95 24.5t-30 86.5v283q0 62 26 85t88 23h105q64 0 91 -23t27 -85v-197h-267v59h188v172q0 9 -10 9h-159q-9 0 -9 -9v-353q0 -9 9 -9h236v-66zM257 574h-80v94h80v-94z" />
    <glyph glyph-name="Eogonek" unicode="&#x118;" horiz-adv-x="461" 
d="M427 0h-355v635h350v-71h-282l13 13v-232l-13 13h265v-70h-265l13 13v-243l-13 13h287v-71zM446 -207h-55q-50 0 -75.5 14.5t-25.5 56.5v22q0 43 26 66l60 54l51 -6l-63 -73q-6 -6 -7 -8t-1 -9v-53q0 -7 7 -7h83v-57z" />
    <glyph glyph-name="eogonek" unicode="&#x119;" horiz-adv-x="426" 
d="M373 -5h-200q-65 0 -95 24.5t-30 86.5v283q0 62 26 85t88 23h105q64 0 91 -23t27 -85v-197h-267v59h188v172q0 9 -10 9h-159q-9 0 -9 -9v-353q0 -9 9 -9h236v-66zM391 -212h-55q-50 0 -75.5 14.5t-25.5 56.5v22q0 43 26 66l60 54l51 -6l-63 -73q-6 -6 -7 -8t-1 -9v-53
q0 -7 7 -7h83v-57z" />
    <glyph glyph-name="Ecaron" unicode="&#x11a;" horiz-adv-x="461" 
d="M215 686l-89 135h72l64 -102h-8l72 102h69l-94 -135h-86zM427 0h-355v635h350v-71h-282l13 13v-232l-13 13h265v-70h-265l13 13v-243l-13 13h287v-71z" />
    <glyph glyph-name="ecaron" unicode="&#x11b;" horiz-adv-x="426" 
d="M180 558l-89 135h72l64 -103h-8l71 103h70l-94 -135h-86zM373 -5h-200q-65 0 -95 24.5t-30 86.5v283q0 62 26 85t88 23h105q64 0 91 -23t27 -85v-197h-267v59h188v172q0 9 -10 9h-159q-9 0 -9 -9v-353q0 -9 9 -9h236v-66z" />
    <glyph glyph-name="Gbreve" unicode="&#x11e;" horiz-adv-x="529" 
d="M350 -7h-161q-65 0 -96 26.5t-31 88.5v419q0 62 31 88.5t96 26.5h277v-74h-311q-9 0 -9 -10v-481q0 -10 9 -10h232q10 0 10 10v201l10 -14h-123v69h193v-225q0 -62 -31 -88.5t-96 -26.5zM166 807h55q0 -34 11.5 -51.5t55.5 -17.5q40 0 50.5 17.5t10.5 51.5h54
q0 -44 -10.5 -70t-35.5 -38t-69 -12q-48 0 -74.5 12t-37 38.5t-10.5 69.5z" />
    <glyph glyph-name="gbreve" unicode="&#x11f;" horiz-adv-x="431" 
d="M307 67v369l10 -10l-182 2q-10 0 -10 -10v-351q0 -9 10 -9h163q9 0 9 9zM298 -131q9 0 9 9v180l6 27q0 -47 -20 -69.5t-67 -22.5h-69q-57 0 -83.5 22.5t-26.5 79.5v292q0 61 27 84t90 22l222 -3v-576q0 -61 -29 -86t-95 -25h-198v66h234zM105 679h55q0 -34 11.5 -51.5
t55.5 -17.5q40 0 50.5 17.5t10.5 51.5h54q0 -44 -10.5 -70t-35.5 -38t-69 -12q-48 0 -74.5 12t-37 38.5t-10.5 69.5z" />
    <glyph glyph-name="uni0122" unicode="&#x122;" 
d="M350 -7h-161q-65 0 -96 26.5t-31 88.5v419q0 62 31 88.5t96 26.5h277v-74h-311q-9 0 -9 -10v-481q0 -10 9 -10h232q10 0 10 10v201l10 -14h-123v69h193v-225q0 -62 -31 -88.5t-96 -26.5zM238 -126h36l-6 5q0 -14 -6.5 -37.5t-22.5 -46.5l28 -22q26 26 40 56.5t14 60.5v86
h-83v-102z" />
    <glyph glyph-name="uni0123" unicode="&#x123;" horiz-adv-x="431" 
d="M185 606h35l-6 5q0 -13 -5 -29.5t-15 -36.5l28 -20q23 24 33 47t10 50v83h-80v-99zM307 67v369l10 -10l-182 2q-10 0 -10 -10v-351q0 -9 10 -9h163q9 0 9 9zM298 -131q9 0 9 9v180l6 27q0 -47 -20 -69.5t-67 -22.5h-69q-57 0 -83.5 22.5t-26.5 79.5v292q0 61 27 84t90 22
l222 -3v-576q0 -61 -29 -86t-95 -25h-198v66h234z" />
    <glyph glyph-name="Imacron" unicode="&#x12a;" horiz-adv-x="251" 
d="M166 0h-81v635h81v-635zM254 769v-59h-256v59h256z" />
    <glyph glyph-name="imacron" unicode="&#x12b;" horiz-adv-x="211" 
d="M215 641v-59h-218v59h218zM145 0h-79v490h79v-490z" />
    <glyph glyph-name="Iogonek" unicode="&#x12e;" horiz-adv-x="251" 
d="M166 0h-81v635h81v-635zM185 -207h-55q-50 0 -75.5 14.5t-25.5 56.5v22q0 43 26 66l60 54l51 -6l-63 -73q-6 -6 -7 -8t-1 -9v-53q0 -7 7 -7h83v-57z" />
    <glyph glyph-name="iogonek" unicode="&#x12f;" horiz-adv-x="211" 
d="M145 0h-79v490h79v-490zM146 574h-80v94h80v-94zM163 -207h-55q-50 0 -75.5 14.5t-25.5 56.5v22q0 43 26 66l60 54l51 -6l-63 -73q-6 -6 -7 -8t-1 -9v-53q0 -7 7 -7h83v-57z" />
    <glyph glyph-name="Idotaccent" unicode="&#x130;" horiz-adv-x="251" 
d="M166 0h-81v635h81v-635zM166 702h-80v94h80v-94z" />
    <glyph glyph-name="dotlessi" unicode="&#x131;" horiz-adv-x="211" 
d="M145 0h-79v490h79v-490z" />
    <glyph glyph-name="uni0136" unicode="&#x136;" horiz-adv-x="520" 
d="M158 0h-81v635h81v-635zM285 312h-140v45h159q5 0 6.5 2.5t3.5 7.5l116 268h82l-102 -233q-11 -27 -21 -44.5t-22.5 -27.5t-32 -14t-49.5 -4zM304 286h-165v45h151q41 0 62 -8t34.5 -27.5t30.5 -53.5l120 -242h-88l-135 277q-2 5 -3.5 7t-6.5 2zM228 -126h36l-6 5
q0 -14 -6.5 -37.5t-22.5 -46.5l28 -22q26 26 40 56.5t14 60.5v86h-83v-102z" />
    <glyph glyph-name="uni0137" unicode="&#x137;" horiz-adv-x="447" 
d="M192 -141h34l-5 5q0 -13 -6.5 -35.5t-21.5 -44.5l27 -21q25 25 38 53.5t13 57.5v82h-79v-97zM143 0h-78v675h78v-675zM235 245h-117v43h138q7 0 10 9l62 193h77l-50 -155q-12 -39 -24 -58t-33 -25.5t-63 -6.5zM273 222h-155v43h137q41 0 62 -6.5t33.5 -26t25.5 -57.5
l67 -175h-80l-80 213q-2 5 -3.5 7t-6.5 2z" />
    <glyph glyph-name="Lacute" unicode="&#x139;" horiz-adv-x="396" 
d="M391 71v-71h-319v635h81v-579l-15 15h253zM76 681h60l87 139l-85 1z" />
    <glyph glyph-name="lacute" unicode="&#x13a;" horiz-adv-x="208" 
d="M144 0h-79v675h79v-675zM67 710h60l87 139l-85 1z" />
    <glyph glyph-name="uni013B" unicode="&#x13b;" horiz-adv-x="376" 
d="M391 71v-71h-319v635h81v-579l-15 15h253zM182 -126h36l-6 5q0 -14 -6.5 -37.5t-22.5 -46.5l28 -22q26 26 40 56.5t14 60.5v86h-83v-102z" />
    <glyph glyph-name="uni013C" unicode="&#x13c;" horiz-adv-x="208" 
d="M65 -141h34l-5 5q0 -13 -6.5 -35.5t-21.5 -44.5l27 -21q25 25 38 53.5t13 57.5v82h-79v-97zM144 0h-79v675h79v-675z" />
    <glyph glyph-name="Lcaron" unicode="&#x13d;" horiz-adv-x="376" 
d="M391 71v-71h-319v635h81v-579l-15 15h253zM247 550h36l-6 5q0 -14 -6.5 -37.5t-22.5 -46.5l28 -22q26 26 40 56.5t14 60.5v86h-83v-102z" />
    <glyph glyph-name="lcaron" unicode="&#x13e;" horiz-adv-x="244" 
d="M192 581h33l-5 4q0 -12 -6.5 -34t-20.5 -44l26 -21q24 25 36.5 53t12.5 56v80h-76v-94zM144 0h-79v675h79v-675z" />
    <glyph glyph-name="Lslash" unicode="&#x141;" horiz-adv-x="396" 
d="M391 71v-71h-319v635h81v-579l-15 15h253z" />
    <glyph glyph-name="lslash" unicode="&#x142;" horiz-adv-x="212" 
d="M204 399l18 -53l-213 -78l-18 54zM145 0h-79v675h79v-675z" />
    <glyph glyph-name="Nacute" unicode="&#x143;" horiz-adv-x="571" 
d="M432 117v518h71v-635h-56l-326 510l18 9v-519h-72v635h57l326 -509zM249 681h60l87 139l-85 1z" />
    <glyph glyph-name="nacute" unicode="&#x144;" horiz-adv-x="445" 
d="M217 497h69q58 0 84 -22t26 -80v-395h-79v423q0 9 -9 9h-163q-10 0 -10 -9l1 -423h-79v490h69l9 -58l-9 -27q0 47 21.5 69.5t69.5 22.5zM199 553h60l87 139l-85 1z" />
    <glyph glyph-name="uni0145" unicode="&#x145;" horiz-adv-x="555" 
d="M432 117v518h71v-635h-56l-326 510l18 9v-519h-72v635h57l326 -509zM238 -126h36l-6 5q0 -14 -6.5 -37.5t-22.5 -46.5l28 -22q26 26 40 56.5t14 60.5v86h-83v-102z" />
    <glyph glyph-name="uni0146" unicode="&#x146;" horiz-adv-x="445" 
d="M187 -141h34l-6 5q0 -13 -6 -35.5t-21 -44.5l27 -21q25 25 38 53.5t13 57.5v82h-79v-97zM217 497h69q58 0 84 -22t26 -80v-395h-79v423q0 9 -9 9h-163q-10 0 -10 -9l1 -423h-79v490h69l9 -58l-9 -27q0 47 21.5 69.5t69.5 22.5z" />
    <glyph glyph-name="Ncaron" unicode="&#x147;" horiz-adv-x="571" 
d="M246 686l-88 135h72l64 -102h-9l72 102h69l-94 -135h-86zM432 117v518h71v-635h-56l-326 510l18 9v-519h-72v635h57l326 -509z" />
    <glyph glyph-name="ncaron" unicode="&#x148;" horiz-adv-x="445" 
d="M191 558l-88 135h72l64 -103h-9l72 103h69l-94 -135h-86zM217 497h69q58 0 84 -22t26 -80v-395h-79v423q0 9 -9 9h-163q-10 0 -10 -9l1 -423h-79v490h69l9 -58l-9 -27q0 47 21.5 69.5t69.5 22.5z" />
    <glyph glyph-name="Omacron" unicode="&#x14c;" horiz-adv-x="558" 
d="M402 568h-247q-9 0 -9 -10v-481q0 -10 9 -10h247q10 0 10 10v481q0 10 -10 10zM62 108v419q0 62 31 88.5t96 26.5h179q66 0 97 -26.5t31 -88.5v-419q0 -62 -31 -88.5t-97 -26.5h-179q-65 0 -96 26.5t-31 88.5zM409 769v-59h-256v59h256z" />
    <glyph glyph-name="omacron" unicode="&#x14d;" horiz-adv-x="442" 
d="M306 431h-170q-10 0 -10 -10v-352q0 -10 10 -10h170q9 0 9 10v352q0 10 -9 10zM47 104v282q0 62 29.5 86.5t94.5 24.5h100q66 0 95 -24.5t29 -86.5v-282q0 -61 -29 -86t-95 -25h-100q-65 0 -94.5 25t-29.5 86zM350 641v-59h-256v59h256z" />
    <glyph glyph-name="Ohungarumlaut" unicode="&#x150;" horiz-adv-x="558" 
d="M402 568h-247q-9 0 -9 -10v-481q0 -10 9 -10h247q10 0 10 10v481q0 10 -10 10zM62 108v419q0 62 31 88.5t96 26.5h179q66 0 97 -26.5t31 -88.5v-419q0 -62 -31 -88.5t-97 -26.5h-179q-65 0 -96 26.5t-31 88.5zM183 681h58l85 139l-83 1zM315 681h58l87 139l-83 1z" />
    <glyph glyph-name="ohungarumlaut" unicode="&#x151;" horiz-adv-x="442" 
d="M306 431h-170q-10 0 -10 -10v-352q0 -10 10 -10h170q9 0 9 10v352q0 10 -9 10zM47 104v282q0 62 29.5 86.5t94.5 24.5h100q66 0 95 -24.5t29 -86.5v-282q0 -61 -29 -86t-95 -25h-100q-65 0 -94.5 25t-29.5 86zM124 553h58l85 139l-83 1zM256 553h58l87 139l-83 1z" />
    <glyph glyph-name="OE" unicode="&#x152;" horiz-adv-x="788" 
d="M752 0l-570 -3q-65 0 -96.5 26.5t-31.5 87.5v413q0 62 31 88t97 26l565 -3v-71h-281l14 13v-232l-14 13h263v-70h-263l14 13v-243l-14 13h286v-71zM411 71l-13 -15v522l14 -14h-264q-10 0 -10 -9v-475q0 -9 10 -9h263z" />
    <glyph glyph-name="oe" unicode="&#x153;" horiz-adv-x="693" 
d="M306 431h-170q-10 0 -10 -10v-352q0 -10 10 -10h170q10 0 10 10v352q0 10 -10 10zM341 75h29q-5 -45 -30 -63.5t-79 -18.5h-90q-65 0 -94.5 25t-29.5 86v282q0 62 29.5 86.5t94.5 24.5h90q54 0 78 -16.5t30 -60.5h-29q4 44 25.5 60.5t74.5 16.5h94q63 0 90 -23t27 -85
v-197h-267v59h188v172q0 9 -9 9h-160q-9 0 -9 -9v-353q0 -9 9 -9h236v-66h-188q-53 0 -78.5 18t-31.5 62z" />
    <glyph glyph-name="Racute" unicode="&#x154;" horiz-adv-x="532" 
d="M156 0h-83v635l267 4q68 1 102 -30t34 -95v-128q0 -57 -29 -88.5t-88 -36.5l1 17q25 -5 39 -22t25 -50l72 -206h-83l-84 247q-3 6 -5.5 9t-11.5 3h-176l19 16zM155 584v-271l-14 15h238q13 0 13 13v214q0 13 -13 13h-238zM225 681h60l87 139l-85 1z" />
    <glyph glyph-name="racute" unicode="&#x155;" horiz-adv-x="271" 
d="M216 497h55v-68h-127q-10 0 -10 -9l1 -420h-79l-1 490h70l9 -58l-9 -27q0 47 21.5 69.5t69.5 22.5zM87 553h60l87 139l-85 1z" />
    <glyph glyph-name="uni0156" unicode="&#x156;" horiz-adv-x="511" 
d="M156 0h-83v635l267 4q68 1 102 -30t34 -95v-128q0 -57 -29 -88.5t-88 -36.5l1 17q25 -5 39 -22t25 -50l72 -206h-83l-84 247q-3 6 -5.5 9t-11.5 3h-176l19 16zM155 584v-271l-14 15h238q13 0 13 13v214q0 13 -13 13h-238zM228 -126h36l-6 5q0 -14 -6.5 -37.5t-22.5 -46.5
l28 -22q26 26 40 56.5t14 60.5v86h-83v-102z" />
    <glyph glyph-name="uni0157" unicode="&#x157;" horiz-adv-x="271" 
d="M59 -141h34l-6 5q0 -13 -6 -35.5t-21 -44.5l27 -21q25 25 38 53.5t13 57.5v82h-79v-97zM216 497h55v-68h-127q-10 0 -10 -9l1 -420h-79l-1 490h70l9 -58l-9 -27q0 47 21.5 69.5t69.5 22.5z" />
    <glyph glyph-name="Rcaron" unicode="&#x158;" horiz-adv-x="532" 
d="M222 686l-88 135h72l64 -102h-9l72 102h69l-94 -135h-86zM156 0h-83v635l267 4q68 1 102 -30t34 -95v-128q0 -57 -29 -88.5t-88 -36.5l1 17q25 -5 39 -22t25 -50l72 -206h-83l-84 247q-3 6 -5.5 9t-11.5 3h-176l19 16zM155 584v-271l-14 15h238q13 0 13 13v214
q0 13 -13 13h-238z" />
    <glyph glyph-name="rcaron" unicode="&#x159;" horiz-adv-x="271" 
d="M121 558l-88 135h72l64 -103h-9l72 103h69l-94 -135h-86zM216 497h55v-68h-127q-10 0 -10 -9l1 -420h-79l-1 490h70l9 -58l-9 -27q0 47 21.5 69.5t69.5 22.5z" />
    <glyph glyph-name="Sacute" unicode="&#x15a;" horiz-adv-x="474" 
d="M140 356h157q68 0 103.5 -29.5t35.5 -91.5v-114q0 -64 -34 -95t-102 -30l-249 4v71h288q13 0 13 13v185q0 13 -13 13h-160q-68 0 -102 28t-34 92v110q0 62 35.5 95t103.5 32l236 -4v-71h-278q-13 0 -13 -13v-182q0 -13 13 -13zM205 681h60l87 139l-85 1z" />
    <glyph glyph-name="sacute" unicode="&#x15b;" horiz-adv-x="377" 
d="M243 -4h-202v65h225q9 0 9 9v139q0 9 -9 9h-115q-63 0 -90.5 23t-27.5 83v64q0 62 28.5 85.5t90.5 23.5l178 -1v-66l-207 1q-10 0 -10 -10v-131q0 -9 10 -9h113q64 0 91 -22.5t27 -83.5v-76q0 -58 -26 -80.5t-85 -22.5zM157 553h60l87 139l-85 1z" />
    <glyph glyph-name="uni015E" unicode="&#x15e;" horiz-adv-x="474" 
d="M140 356h157q68 0 103.5 -29.5t35.5 -91.5v-114q0 -64 -34 -95t-102 -30l-249 4v71h288q13 0 13 13v185q0 13 -13 13h-160q-68 0 -102 28t-34 92v110q0 62 35.5 95t103.5 32l236 -4v-71h-278q-13 0 -13 -13v-182q0 -13 13 -13zM264 -149v47q0 7 -7 7h-83l23 105l41 -7
l-10 -52h12q38 0 59 -14t21 -50v-15q0 -80 -89 -80h-69v52h95q7 0 7 7z" />
    <glyph glyph-name="uni015F" unicode="&#x15f;" horiz-adv-x="377" 
d="M243 -4h-202v65h225q9 0 9 9v139q0 9 -9 9h-115q-63 0 -90.5 23t-27.5 83v64q0 62 28.5 85.5t90.5 23.5l178 -1v-66l-207 1q-10 0 -10 -10v-131q0 -9 10 -9h113q64 0 91 -22.5t27 -83.5v-76q0 -58 -26 -80.5t-85 -22.5zM221 -148v47q0 7 -7 7h-83l23 105l41 -7l-10 -52
h12q38 0 59 -14t21 -50v-15q0 -80 -89 -80h-69v52h95q7 0 7 7z" />
    <glyph glyph-name="Scaron" unicode="&#x160;" horiz-adv-x="474" 
d="M202 686l-89 135h73l64 -102h-9l72 102h69l-94 -135h-86zM140 356h157q68 0 103.5 -29.5t35.5 -91.5v-114q0 -64 -34 -95t-102 -30l-249 4v71h288q13 0 13 13v185q0 13 -13 13h-160q-68 0 -102 28t-34 92v110q0 62 35.5 95t103.5 32l236 -4v-71h-278q-13 0 -13 -13v-182
q0 -13 13 -13z" />
    <glyph glyph-name="scaron" unicode="&#x161;" horiz-adv-x="377" 
d="M157 558l-89 135h72l64 -103h-8l72 103h69l-94 -135h-86zM243 -4h-202v65h225q9 0 9 9v139q0 9 -9 9h-115q-63 0 -90.5 23t-27.5 83v64q0 62 28.5 85.5t90.5 23.5l178 -1v-66l-207 1q-10 0 -10 -10v-131q0 -9 10 -9h113q64 0 91 -22.5t27 -83.5v-76q0 -58 -26 -80.5
t-85 -22.5z" />
    <glyph glyph-name="uni0162" unicode="&#x162;" horiz-adv-x="410" 
d="M246 0h-82v577l13 -13h-172v71h400v-71h-173l14 13v-577zM240 -148v47q0 7 -7 7h-83l23 105l41 -7l-10 -52h12q38 0 59 -14t21 -50v-15q0 -80 -89 -80h-69v52h95q7 0 7 7z" />
    <glyph glyph-name="uni0163" unicode="&#x163;" horiz-adv-x="282" 
d="M278 490v-62h-126l10 10v-363q0 -9 9 -9h107v-66h-70q-66 0 -95.5 25t-29.5 86v327l10 -10h-70v62h70l-10 -10v135h79v-135l-10 10h126zM207 -148v47q0 7 -7 7h-83l23 105l41 -7l-10 -52h12q38 0 59 -14t21 -50v-15q0 -80 -89 -80h-69v52h95q7 0 7 7z" />
    <glyph glyph-name="Tcaron" unicode="&#x164;" horiz-adv-x="410" 
d="M168 683l-88 135h72l64 -103h-9l72 103h69l-94 -135h-86zM246 0h-82v577l13 -13h-172v71h400v-71h-173l14 13v-577z" />
    <glyph glyph-name="tcaron" unicode="&#x165;" horiz-adv-x="290" 
d="M217 609h32l-5 4q0 -12 -6 -32.5t-20 -41.5l25 -19q23 23 35 49.5t12 53.5v75h-73v-89zM278 490v-62h-126l10 10v-363q0 -9 9 -9h107v-66h-70q-66 0 -95.5 25t-29.5 86v327l10 -10h-70v62h70l-10 -10v135h79v-135l-10 10h126z" />
    <glyph glyph-name="Umacron" unicode="&#x16a;" horiz-adv-x="556" 
d="M367 -7h-178q-65 0 -96 26.5t-31 88.5v527h84v-558q0 -10 9 -10h246q10 0 10 10v558h84v-527q0 -62 -31 -88.5t-97 -26.5zM407 769v-59h-256v59h256z" />
    <glyph glyph-name="umacron" unicode="&#x16b;" horiz-adv-x="446" 
d="M229 -7h-69q-58 0 -84.5 22.5t-26.5 79.5v395h79v-423q0 -9 9 -9h174l-1 432h79v-490h-69l-9 58l6 27q0 -47 -20 -69.5t-68 -22.5zM344 641v-59h-256v59h256z" />
    <glyph glyph-name="Uring" unicode="&#x16e;" horiz-adv-x="556" 
d="M367 -7h-178q-65 0 -96 26.5t-31 88.5v527h84v-558q0 -10 9 -10h246q10 0 10 10v558h84v-527q0 -62 -31 -88.5t-97 -26.5zM373 755q0 -47 -20 -68.5t-73 -21.5q-52 0 -71 21.5t-19 68.5q0 49 19 69t71 20q53 0 73 -20t20 -69zM235 755q0 -28 7.5 -39.5t37.5 -11.5
q32 0 40 11.5t8 39.5q0 31 -8 41t-40 10q-30 0 -37.5 -10t-7.5 -41z" />
    <glyph glyph-name="uring" unicode="&#x16f;" horiz-adv-x="446" 
d="M229 -7h-69q-58 0 -84.5 22.5t-26.5 79.5v395h79v-423q0 -9 9 -9h174l-1 432h79v-490h-69l-9 58l6 27q0 -47 -20 -69.5t-68 -22.5zM310 627q0 -47 -20 -68.5t-73 -21.5q-52 0 -71 21.5t-19 68.5q0 49 19 69t71 20q53 0 73 -20t20 -69zM172 627q0 -28 7.5 -39.5
t37.5 -11.5q32 0 40 11.5t8 39.5q0 31 -8 41t-40 10q-30 0 -37.5 -10t-7.5 -41z" />
    <glyph glyph-name="Uhungarumlaut" unicode="&#x170;" horiz-adv-x="556" 
d="M367 -7h-178q-65 0 -96 26.5t-31 88.5v527h84v-558q0 -10 9 -10h246q10 0 10 10v558h84v-527q0 -62 -31 -88.5t-97 -26.5zM181 681h58l85 139l-83 1zM313 681h58l87 139l-83 1z" />
    <glyph glyph-name="uhungarumlaut" unicode="&#x171;" horiz-adv-x="446" 
d="M229 -7h-69q-58 0 -84.5 22.5t-26.5 79.5v395h79v-423q0 -9 9 -9h174l-1 432h79v-490h-69l-9 58l6 27q0 -47 -20 -69.5t-68 -22.5zM118 553h58l85 139l-83 1zM250 553h58l87 139l-83 1z" />
    <glyph glyph-name="Uogonek" unicode="&#x172;" horiz-adv-x="556" 
d="M367 -7h-178q-65 0 -96 26.5t-31 88.5v527h84v-558q0 -10 9 -10h246q10 0 10 10v558h84v-527q0 -62 -31 -88.5t-97 -26.5zM356 -208h-55q-50 0 -75.5 14.5t-25.5 56.5v22q0 43 26 66l60 54l51 -6l-63 -73q-6 -6 -7 -8t-1 -9v-53q0 -7 7 -7h83v-57z" />
    <glyph glyph-name="uogonek" unicode="&#x173;" horiz-adv-x="446" 
d="M229 -7h-69q-58 0 -84.5 22.5t-26.5 79.5v395h79v-423q0 -9 9 -9h174l-1 432h79v-490h-69l-9 58l6 27q0 -47 -20 -69.5t-68 -22.5zM408 -207h-55q-50 0 -75.5 14.5t-25.5 56.5v22q0 43 26 66l60 54l51 -6l-63 -73q-6 -6 -7 -8t-1 -9v-53q0 -7 7 -7h83v-57z" />
    <glyph glyph-name="Ydieresis" unicode="&#x178;" horiz-adv-x="525" 
d="M302 309l128 326h83l-126 -318q-14 -35 -26 -54.5t-31.5 -27t-57.5 -7.5h-16q-38 0 -59 8t-33.5 27.5t-26.5 54.5l-125 318h87l128 -327q4 -10 12 -10h52q8 0 11 10zM303 0h-82v278h82v-278zM214 704h-75v87h75v-87zM390 704h-75v87h75v-87z" />
    <glyph glyph-name="Zacute" unicode="&#x179;" horiz-adv-x="478" 
d="M441 66v-66h-333q-36 0 -55.5 17t-19.5 54l321 485q4 6 2 9.5t-8 3.5h-292v66l314 1q41 0 60 -20.5t19 -58.5l-316 -476q-3 -5 -1.5 -10t6.5 -5h303zM207 681h60l87 139l-85 1z" />
    <glyph glyph-name="zacute" unicode="&#x17a;" horiz-adv-x="359" 
d="M333 62v-62h-242q-37 0 -57 15.5t-20 51.5l232 348q4 6 2 9.5t-8 3.5h-206v62h222q40 0 60 -18.5t20 -57.5l-228 -337q-3 -6 -1.5 -10.5t6.5 -4.5h220zM144 553h60l87 139l-85 1z" />
    <glyph glyph-name="Zdotaccent" unicode="&#x17b;" horiz-adv-x="478" 
d="M441 66v-66h-333q-36 0 -55.5 17t-19.5 54l321 485q4 6 2 9.5t-8 3.5h-292v66l314 1q41 0 60 -20.5t19 -58.5l-316 -476q-3 -5 -1.5 -10t6.5 -5h303zM282 702h-80v94h80v-94z" />
    <glyph glyph-name="zdotaccent" unicode="&#x17c;" horiz-adv-x="359" 
d="M333 62v-62h-242q-37 0 -57 15.5t-20 51.5l232 348q4 6 2 9.5t-8 3.5h-206v62h222q40 0 60 -18.5t20 -57.5l-228 -337q-3 -6 -1.5 -10.5t6.5 -4.5h220zM218 574h-80v94h80v-94z" />
    <glyph glyph-name="Zcaron" unicode="&#x17d;" horiz-adv-x="478" 
d="M205 686l-89 135h72l64 -102h-8l72 102h69l-94 -135h-86zM441 66v-66h-333q-36 0 -55.5 17t-19.5 54l321 485q4 6 2 9.5t-8 3.5h-292v66l314 1q41 0 60 -20.5t19 -58.5l-316 -476q-3 -5 -1.5 -10t6.5 -5h303z" />
    <glyph glyph-name="zcaron" unicode="&#x17e;" horiz-adv-x="359" 
d="M142 558l-89 135h72l64 -103h-9l72 103h69l-94 -135h-85zM333 62v-62h-242q-37 0 -57 15.5t-20 51.5l232 348q4 6 2 9.5t-8 3.5h-206v62h222q40 0 60 -18.5t20 -57.5l-228 -337q-3 -6 -1.5 -10.5t6.5 -4.5h220z" />
    <glyph glyph-name="florin" unicode="&#x192;" horiz-adv-x="390" 
d="M72 -190h-62v66h93q9 0 9 9l38 475l14 -14h-77v62h79l-13 -13l14 178q5 61 31 85t88 24l79 -1v-66l-110 1q-9 0 -9 -10l-17 -211l-13 13h115v-62h-118l13 14l-35 -441q-5 -61 -30.5 -85t-88.5 -24z" />
    <glyph glyph-name="uni0218" unicode="&#x218;" horiz-adv-x="466" 
d="M140 356h157q68 0 103.5 -29.5t35.5 -91.5v-114q0 -64 -34 -95t-102 -30l-249 4v71h288q13 0 13 13v185q0 13 -13 13h-160q-68 0 -102 28t-34 92v110q0 62 35.5 95t103.5 32l236 -4v-71h-278q-13 0 -13 -13v-182q0 -13 13 -13zM198 -126h36l-6 5q0 -14 -6.5 -37.5
t-22.5 -46.5l28 -22q26 26 40 56.5t14 60.5v86h-83v-102z" />
    <glyph glyph-name="uni0219" unicode="&#x219;" horiz-adv-x="377" 
d="M155 -141h34l-6 5q0 -13 -6.5 -35.5t-20.5 -44.5l27 -21q25 25 38 53.5t13 57.5v82h-79v-97zM243 -4h-202v65h225q9 0 9 9v139q0 9 -9 9h-115q-63 0 -90.5 23t-27.5 83v64q0 62 28.5 85.5t90.5 23.5l178 -1v-66l-207 1q-10 0 -10 -10v-131q0 -9 10 -9h113q64 0 91 -22.5
t27 -83.5v-76q0 -58 -26 -80.5t-85 -22.5z" />
    <glyph glyph-name="uni021A" unicode="&#x21a;" horiz-adv-x="390" 
d="M246 0h-82v577l13 -13h-172v71h400v-71h-173l14 13v-577zM160 -126h36l-6 5q0 -14 -6.5 -37.5t-22.5 -46.5l28 -22q26 26 40 56.5t14 60.5v86h-83v-102z" />
    <glyph glyph-name="uni021B" unicode="&#x21b;" horiz-adv-x="282" 
d="M146 -141h34l-6 5q0 -13 -6.5 -35.5t-20.5 -44.5l26 -21q25 25 38 53.5t13 57.5v82h-78v-97zM278 490v-62h-126l10 10v-363q0 -9 9 -9h107v-66h-70q-66 0 -95.5 25t-29.5 86v327l10 -10h-70v62h70l-10 -10v135h79v-135l-10 10h126z" />
    <glyph glyph-name="circumflex" unicode="&#x2c6;" horiz-adv-x="359" 
d="M221 688l89 -135h-73l-64 102h9l-72 -102h-69l94 135h86z" />
    <glyph glyph-name="caron" unicode="&#x2c7;" horiz-adv-x="359" 
d="M139 558l-89 135h72l64 -103h-8l71 103h70l-95 -135h-85z" />
    <glyph glyph-name="uni02C9" unicode="&#x2c9;" horiz-adv-x="362" 
d="M309 641v-59h-256v59h256z" />
    <glyph glyph-name="breve" unicode="&#x2d8;" horiz-adv-x="348" 
d="M61 679h55q0 -34 11.5 -51.5t55.5 -17.5q40 0 50.5 17.5t10.5 51.5h54q0 -44 -10.5 -70t-35.5 -38t-69 -12q-48 0 -74.5 12t-37 38.5t-10.5 69.5z" />
    <glyph glyph-name="dotaccent" unicode="&#x2d9;" horiz-adv-x="160" 
d="M120 574h-80v94h80v-94z" />
    <glyph glyph-name="ring" unicode="&#x2da;" horiz-adv-x="328" 
d="M258 627q0 -47 -20 -68.5t-73 -21.5q-52 0 -71 21.5t-19 68.5q0 49 19 69t71 20q53 0 73 -20t20 -69zM120 627q0 -28 7.5 -39.5t37.5 -11.5q32 0 40 11.5t8 39.5q0 31 -8 41t-40 10q-30 0 -37.5 -10t-7.5 -41z" />
    <glyph glyph-name="ogonek" unicode="&#x2db;" horiz-adv-x="305" 
d="M250 -207h-55q-50 0 -75.5 14.5t-25.5 56.5v22q0 43 26 66l60 54l51 -6l-63 -73q-6 -6 -7 -8t-1 -9v-53q0 -7 7 -7h83v-57z" />
    <glyph glyph-name="tilde" unicode="&#x2dc;" horiz-adv-x="374" 
d="M104 578h-54q0 55 16 75.5t46 20.5q25 0 47 -9t41.5 -19t37.5 -10q15 0 21 8.5t6 29.5h54q0 -55 -18 -75t-48 -20q-24 0 -46.5 9.5t-42.5 18.5t-36 9q-11 0 -17.5 -8t-6.5 -30z" />
    <glyph glyph-name="hungarumlaut" unicode="&#x2dd;" horiz-adv-x="358" 
d="M50 553h58l85 139l-83 1zM182 553h58l87 139l-83 1z" />
    <glyph glyph-name="pi" unicode="&#x3c0;" horiz-adv-x="497" 
d="M159 0h-79v438l10 -10h-72v62h461v-62h-71l10 10v-438h-79v438l10 -10h-200l10 10v-438z" />
    <glyph glyph-name="sinCandrabindu" unicode="&#xd81;" horiz-adv-x="0" 
d="M-312 855v-71h72v71h-72zM-76 854h-72v-86q0 -20 -5.5 -24.5t-20.5 -4.5h-201q-23 0 -27.5 5.5t-4.5 26.5v83h-73v-131q0 -27 12 -37.5t34 -10.5h302q26 0 37.5 9t15 23.5t3.5 28.5v118z" />
    <glyph glyph-name="sinAnusvara" unicode="&#xd82;" horiz-adv-x="417" 
d="M76 18h245q32 0 44 14.5t12 40.5v315q0 26 -11.5 42t-43.5 16h-238q-33 0 -47.5 -16.5t-14.5 -40.5v-320q0 -27 14.5 -39t39.5 -12zM95 360q0 25 26 25h158q15 0 20 -6t5 -20v-252q0 -26 -25 -26h-157q-15 0 -21 6t-6 17v256z" />
    <glyph glyph-name="sinVisarga" unicode="&#xd83;" horiz-adv-x="238" 
d="M26 164q0 14 16 14h139q16 0 16 -14v-152q0 -12 -14 -12h-142q-15 0 -15 13v151zM85 128q-7 0 -7 -7v-62q0 -7 7 -7h52q7 0 7 7v62q0 7 -7 7h-52zM26 484q0 14 16 14h139q16 0 16 -14v-152q0 -12 -14 -12h-142q-15 0 -15 13v151zM85 447q-7 0 -7 -6v-62q0 -7 7 -7h52
q7 0 7 7v62q0 6 -7 6h-52z" />
    <glyph glyph-name="sinA" unicode="&#xd85;" horiz-adv-x="542" 
d="M301 429v-366h-186q-11 0 -15.5 5.5t-4.5 19.5v174q0 17 5.5 24t21.5 7h133v138q0 32 -19 49t-53 17h-161v-61h138q16 0 25.5 -5.5t9.5 -26.5v-50h-118q-55 0 -55 -56v-247q0 -28 10 -39.5t38 -11.5h231v-140h73v140h123v63h-123v124h75q25 0 37.5 14t12.5 39v98
q0 27 -11.5 46.5t-23 32t-11.5 19.5q0 3 2.5 6.5t10.5 3.5h36v51h-139q-27 0 -44.5 -18t-17.5 -50zM373 245v161q0 21 10.5 26.5t24.5 5.5q-2 -2 -2 -8q0 -12 9.5 -25.5t18.5 -29t9 -34.5v-71q0 -14 -4.5 -19.5t-18.5 -5.5h-47z" />
    <glyph glyph-name="sinAa" unicode="&#xd86;" horiz-adv-x="782" 
d="M569 497v-61h85q17 0 17 -17v-337q0 -9 -3.5 -14t-13.5 -5h-85v-63h134q41 0 41 38v417q0 20 -9.5 31t-31.5 11h-134zM301 429v-366h-186q-11 0 -15.5 5.5t-4.5 19.5v174q0 17 5.5 24t21.5 7h133v138q0 32 -19 49t-53 17h-161v-61h138q16 0 25.5 -5.5t9.5 -26.5v-50h-118
q-55 0 -55 -56v-247q0 -28 10 -39.5t38 -11.5h231v-140h73v140h123v63h-123v124h75q25 0 37.5 14t12.5 39v98q0 27 -11.5 46.5t-23 32t-11.5 19.5q0 3 2.5 6.5t10.5 3.5h36v51h-139q-27 0 -44.5 -18t-17.5 -50zM373 245v161q0 21 10.5 26.5t24.5 5.5q-2 -2 -2 -8
q0 -12 9.5 -25.5t18.5 -29t9 -34.5v-71q0 -14 -4.5 -19.5t-18.5 -5.5h-47z" />
    <glyph glyph-name="sinAe" unicode="&#xd87;" horiz-adv-x="805" 
d="M301 429v-366h-186q-11 0 -15.5 5.5t-4.5 19.5v174q0 17 5.5 24t21.5 7h133v138q0 32 -19 49t-53 17h-161v-61h138q16 0 25.5 -5.5t9.5 -26.5v-50h-118q-55 0 -55 -56v-247q0 -28 10 -39.5t38 -11.5h231v-140h73v140h123v63h-123v124h75q25 0 37.5 14t12.5 39v98
q0 27 -11.5 46.5t-23 32t-11.5 19.5q0 3 2.5 6.5t10.5 3.5h36v51h-139q-27 0 -44.5 -18t-17.5 -50zM373 245v161q0 21 10.5 26.5t24.5 5.5q-2 -2 -2 -8q0 -12 9.5 -25.5t18.5 -29t9 -34.5v-71q0 -14 -4.5 -19.5t-18.5 -5.5h-47zM577 497v-61h112l-95 -162q-11 -18 -14 -36
t-3 -39v-163q0 -18 9.5 -27t25.5 -9h153v63h-95q-20 0 -20 19v117q0 16 3 29t9 25l103 179v65h-188z" />
    <glyph glyph-name="sinAae" unicode="&#xd88;" horiz-adv-x="800" 
d="M571 497v-61h100l-100 -80v-54h102l-77 -69q-17 -15 -21 -30.5t-4 -35.5v-131q0 -36 30 -36h158v63h-98q-12 0 -14.5 3t-2.5 16v82q0 19 4 29.5t18 24.5l93 87v54h-104l104 79v59h-188zM301 429v-366h-186q-11 0 -15.5 5.5t-4.5 19.5v174q0 17 5.5 24t21.5 7h133v138
q0 32 -19 49t-53 17h-161v-61h138q16 0 25.5 -5.5t9.5 -26.5v-50h-118q-55 0 -55 -56v-247q0 -28 10 -39.5t38 -11.5h231v-140h73v140h123v63h-123v124h75q25 0 37.5 14t12.5 39v98q0 27 -11.5 46.5t-23 32t-11.5 19.5q0 3 2.5 6.5t10.5 3.5h36v51h-139q-27 0 -44.5 -18
t-17.5 -50zM373 245v161q0 21 10.5 26.5t24.5 5.5q-2 -2 -2 -8q0 -12 9.5 -25.5t18.5 -29t9 -34.5v-71q0 -14 -4.5 -19.5t-18.5 -5.5h-47z" />
    <glyph glyph-name="sinI" unicode="&#xd89;" horiz-adv-x="519" 
d="M279 346h-68v-104q0 -13 -3.5 -19t-16.5 -6h-71q-17 0 -21 6t-4 20v169q0 24 29 24h251q13 0 19.5 -5.5t6.5 -19.5v-310q0 -22 -11.5 -30t-37.5 -8h-305v-63h308q18 0 23.5 -6.5t5.5 -16.5v-52q0 -13 -6 -16.5t-21 -3.5h-311v-64h355q29 0 43 14t14 46v84q0 18 -5 29.5
t-16 18.5q18 6 28 20.5t10 40.5v348q0 25 -14.5 40t-47.5 15h-330q-29 0 -45 -14.5t-16 -40.5v-232q0 -54 56 -54h147q26 0 40 12.5t14 37.5v140z" />
    <glyph glyph-name="sinIi" unicode="&#xd8a;" horiz-adv-x="451" 
d="M22 48v382q0 21 11 36t30 32l184 165h89l-180 -166h188q32 0 46.5 -16t14.5 -43v-377q0 -14 -3 -28.5t-15 -23.5t-37 -9h-282q-22 0 -34 10.5t-12 37.5zM95 396v-300q0 -21 4.5 -27t26.5 -6h181q15 0 20.5 4.5t5.5 25.5v310q0 19 -7 26t-25 7h-172q-18 0 -26 -9.5
t-8 -30.5zM51 663v-71h73v71h-73zM321 601v-71h73v71h-73z" />
    <glyph glyph-name="sinU" unicode="&#xd8b;" horiz-adv-x="521" 
d="M93 497v-61h289q16 0 20.5 -8t4.5 -17v-57h-311q-74 0 -74 -72v-368q0 -28 11.5 -47.5t42.5 -19.5h348q30 0 45 13.5t15 47.5v190h-74v-161q0 -10 -4.5 -18t-19.5 -8h-262q-18 0 -23.5 7.5t-5.5 30.5v306q0 24 8.5 31t32.5 7h345v145q0 30 -17.5 44.5t-47.5 14.5h-323z
" />
    <glyph glyph-name="sinUu" unicode="&#xd8c;" horiz-adv-x="889" 
d="M561 497h52v-163q0 -13 3 -17t12 -4h28q9 0 13 4.5t4 16.5v120q0 22 8 32.5t25 10.5h116q19 0 30.5 -12t11.5 -29v-410q0 -22 -13.5 -34t-34.5 -12h-213q-18 0 -29 12t-11 35v111h77v-73q0 -13 4.5 -17.5t16.5 -4.5h115q18 0 18 23v331q0 19 -15 19h-36q-8 0 -11.5 -4.5
t-3.5 -16.5v-128q0 -20 -13 -27.5t-33 -7.5h-88q-33 0 -33 33v212zM93 497v-61h289q16 0 20.5 -8t4.5 -17v-57h-311q-74 0 -74 -72v-368q0 -28 11.5 -47.5t42.5 -19.5h348q30 0 45 13.5t15 47.5v190h-74v-161q0 -10 -4.5 -18t-19.5 -8h-262q-18 0 -23.5 7.5t-5.5 30.5v306
q0 24 8.5 31t32.5 7h345v145q0 30 -17.5 44.5t-47.5 14.5h-323z" />
    <glyph glyph-name="sinRVocalic" unicode="&#xd8d;" horiz-adv-x="908" 
d="M271 39q3 -18 20 -28.5t33 -10.5h146q28 0 39 13t11 41v243q0 30 -14.5 43.5t-44.5 13.5h-109v58q0 13 8 18.5t22 5.5h137v61h-162q-30 0 -48 -13.5t-18 -42.5v-148h133q10 0 16.5 -5t6.5 -14v-188q0 -23 -19 -23h-83q-21 0 -30.5 14t-9.5 33v66h-68v-66q0 -19 -9 -33
t-30 -14h-84q-19 0 -19 23v188q0 19 23 19h133v148q0 29 -18 42.5t-48 13.5h-162v-61h138q15 0 22 -5.5t7 -18.5v-58h-109q-29 0 -44 -13.5t-15 -43.5v-243q0 -28 11 -41t39 -13h146q17 0 33 10.5t20 28.5zM586 497v-61h187q15 0 19.5 -4.5t4.5 -20.5v-88h-168
q-17 0 -30 -10t-13 -33v-238q0 -42 37 -42h128q18 0 31 10.5t20 28.5l11 -39h57v450q0 47 -49 47h-235zM797 263v-126q0 -36 -12.5 -55t-38.5 -19h-70q-10 0 -13 4t-3 14v163q0 12 3 15.5t13 3.5h121z" />
    <glyph glyph-name="sinRrVocalic" unicode="&#xd8e;" horiz-adv-x="1243" 
d="M271 39q3 -18 20 -28.5t33 -10.5h146q28 0 39 13t11 41v243q0 30 -14.5 43.5t-44.5 13.5h-109v58q0 13 8 18.5t22 5.5h137v61h-162q-30 0 -48 -13.5t-18 -42.5v-148h133q10 0 16.5 -5t6.5 -14v-188q0 -23 -19 -23h-83q-21 0 -30.5 14t-9.5 33v66h-68v-66q0 -19 -9 -33
t-30 -14h-84q-19 0 -19 23v188q0 19 23 19h133v148q0 29 -18 42.5t-48 13.5h-162v-61h138q15 0 22 -5.5t7 -18.5v-58h-109q-29 0 -44 -13.5t-15 -43.5v-243q0 -28 11 -41t39 -13h146q17 0 33 10.5t20 28.5zM914 496v-61h187q15 0 19.5 -4.5t4.5 -20.5v-88h-168
q-17 0 -30 -10t-13 -33v-238q0 -42 37 -42h128q18 0 31 11t20 29l11 -40h57v450q0 47 -49 47h-235zM1125 262v-125q0 -36 -12.5 -55t-37.5 -19h-71q-10 0 -13 3.5t-3 14.5v162q0 12 3 15.5t12 3.5h122zM582 496v-61h187q15 0 19 -4.5t4 -20.5v-88h-167q-17 0 -30 -10
t-13 -33v-238q0 -42 37 -42h128q18 0 30.5 11t19.5 29l12 -40h57v450q0 47 -49 47h-235zM792 262v-125q0 -36 -12 -55t-38 -19h-70q-10 0 -13.5 3.5t-3.5 14.5v162q0 12 3.5 15.5t12.5 3.5h121z" />
    <glyph glyph-name="sinLlVocalic" unicode="&#xd90;" horiz-adv-x="1226" 
d="M765 135v-43q0 -14 -4.5 -19.5t-14.5 -5.5h-42q-8 0 -11 3.5t-3 8.5v66q0 7 4 11.5t12 4.5h31q15 0 21.5 -7.5t6.5 -18.5zM556 495h59v29q0 15 6 20t22 5h82q15 0 27 -9t12 -29v-309q-2 3 -6.5 6t-15.5 3h-46q-20 0 -34.5 -11t-14.5 -37v-107q0 -22 15.5 -32t34.5 -10h75
q54 0 54 64v449q0 28 -18.5 51t-60.5 23h-124q-41 0 -54 -16t-13 -47v-43zM83 135q0 11 7 18.5t21 7.5h31q9 0 12.5 -4.5t3.5 -11.5v-66q0 -5 -3 -8.5t-11 -3.5h-42q-10 0 -14.5 5.5t-4.5 19.5v43zM292 495v43q0 31 -13 47t-54 16h-124q-42 0 -60.5 -23t-18.5 -51v-449
q0 -64 54 -64h75q19 0 34.5 10t15.5 32v107q0 26 -14.5 37t-34.5 11h-47q-10 0 -14.5 -3t-6.5 -6v309q0 20 12 29t27 9h83q15 0 21 -5t6 -20v-29h59zM199 54q0 -28 11.5 -41t39.5 -13h39.5h61.5h72.5h72.5h62h39q28 0 39.5 13t11.5 41v245q0 55 -56 55h-88v56q0 26 28 26
h115v61h-138q-30 0 -48 -13.5t-18 -42.5v-148h105q14 0 20.5 -6t6.5 -20v-177q0 -13 -4.5 -20t-17.5 -7h-259q-12 0 -17 7t-5 20v177q0 14 7.5 20t19.5 6h105v148q0 29 -18 42.5t-48 13.5h-138v-61h115q15 0 21 -6.5t6 -19.5v-56h-87q-56 0 -56 -55v-245zM885 497h52v-163
q0 -13 3 -17t12 -4h28q9 0 13 4.5t4 16.5v120q0 22 8 32.5t25 10.5h116q19 0 30.5 -12t11.5 -29v-410q0 -22 -13.5 -34t-34.5 -12h-213q-18 0 -29 12t-11 35v111h77v-73q0 -13 4.5 -17.5t16.5 -4.5h115q18 0 18 23v331q0 19 -15 19h-36q-8 0 -11.5 -4.5t-3.5 -16.5v-128
q0 -20 -13 -27.5t-33 -7.5h-88q-33 0 -33 33v212z" />
    <glyph glyph-name="sinE" unicode="&#xd91;" horiz-adv-x="534" 
d="M210 609h8q10 0 20.5 -1.5t19.5 -5.5l125 -62q13 -6 23.5 -14t10.5 -25v-4h-183q-13 0 -18.5 3t-5.5 17v92zM491 494q0 39 -21 57t-49 30l-13 6.5t-33.5 16t-40 19t-33 16l-13.5 6.5q-29 14 -45.5 16.5t-39.5 2.5h-123v-55h62v-112q0 -27 10.5 -37t35.5 -10h229v-362
q0 -25 -20 -25h-261q-16 0 -20.5 5.5t-4.5 18.5v80q0 25 15 38.5t52 13.5h115v127q0 29 -14.5 45t-45.5 16h-192v-55h155q11 0 17.5 -5.5t6.5 -18.5v-50h-216v-57h63q-10 -5 -19.5 -17t-9.5 -39v-121q0 -23 13 -33.5t35 -10.5h359q22 0 34 14t12 37v443z" />
    <glyph glyph-name="sinEe" unicode="&#xd92;" horiz-adv-x="534" 
d="M421 708v-228h70v228h-70zM210 609h8q10 0 20.5 -1.5t19.5 -5.5l125 -62q13 -6 23.5 -14t10.5 -25v-4h-183q-13 0 -18.5 3t-5.5 17v92zM491 494q0 39 -21 57t-49 30l-13 6.5t-33.5 16t-40 19t-33 16l-13.5 6.5q-29 14 -45.5 16.5t-39.5 2.5h-123v-55h62v-112
q0 -27 10.5 -37t35.5 -10h229v-362q0 -25 -20 -25h-261q-16 0 -20.5 5.5t-4.5 18.5v80q0 25 15 38.5t52 13.5h115v127q0 29 -14.5 45t-45.5 16h-192v-55h155q11 0 17.5 -5.5t6.5 -18.5v-50h-216v-57h63q-10 -5 -19.5 -17t-9.5 -39v-121q0 -23 13 -33.5t35 -10.5h359
q22 0 34 14t12 37v443z" />
    <glyph glyph-name="sinAi" unicode="&#xd93;" horiz-adv-x="912" 
d="M333 497v-61h-210q-16 0 -22 -6.5t-6 -19.5v-325q0 -12 5 -17t15 -5h127q22 0 22 22v153q0 15 -5 21t-20 6h-64v60h110q53 0 53 -50v-226q0 -22 -13 -35.5t-38 -13.5h-219q-24 0 -35 12.5t-11 33.5v399q0 24 14 38t39 14h258zM596 609h8q10 0 20.5 -1.5t19.5 -5.5
l125 -62q13 -6 23.5 -14t10.5 -25v-4h-183q-13 0 -18.5 3t-5.5 17v92zM877 494q0 39 -21 57t-49 30l-13 6.5t-33.5 16t-40 19t-33 16l-13.5 6.5q-29 14 -45.5 16.5t-39.5 2.5h-123v-55h62v-112q0 -27 10.5 -37t35.5 -10h229v-362q0 -25 -20 -25h-261q-16 0 -20.5 5.5
t-4.5 18.5v80q0 25 15 38.5t52 13.5h115v127q0 29 -14.5 45t-45.5 16h-192v-55h155q11 0 17.5 -5.5t6.5 -18.5v-50h-216v-57h63q-10 -5 -19.5 -17t-9.5 -39v-121q0 -23 13 -33.5t35 -10.5h359q22 0 34 14t12 37v443z" />
    <glyph glyph-name="sinO" unicode="&#xd94;" 
d="M286 250q39 0 39 35v174h-50v-135q0 -14 -12 -14h-38q-12 0 -12 15v99q0 20 -11 27.5t-30 7.5h-91q-31 0 -45 -18t-14 -47v-346q0 -48 47 -48h130q17 0 30.5 8.5t16.5 23.5q8 -32 49 -32h128q26 0 36.5 14t10.5 36v510q0 37 -20.5 51.5t-52.5 14.5h-375v-67h337
q21 0 29.5 -7.5t8.5 -29.5v-432q0 -14 -5 -20.5t-18 -6.5h-62q-16 0 -25 8t-9 30v84h-63v-85q0 -22 -9 -29.5t-24 -7.5h-63q-14 0 -19 5.5t-5 20.5v283q0 26 21 26h38q11 0 11 -13v-105q0 -16 9.5 -23t25.5 -7h86z" />
    <glyph glyph-name="sinOo" unicode="&#xd95;" 
d="M471 400v72q0 43 -14 62t-55 19h-222q-35 0 -45 12.5t-10 33.5q0 11 4.5 16t16.5 5h323v53h-370q-49 0 -49 -41v-32q0 -16 7.5 -30.5t29.5 -19.5h-73v-54h352q14 0 22.5 -5.5t8.5 -24.5v-66h74zM397 415v-325q0 -13 -5 -20t-18 -7h-62q-16 0 -25 8t-9 30v62h-63v-63
q0 -22 -9 -29.5t-24 -7.5h-63q-14 0 -19 5.5t-5 20.5v252q0 24 20 24h40q10 0 10 -11v-102q0 -16 9.5 -23t25.5 -7h86q39 0 39 35v170h-50v-135q0 -14 -12 -14h-38q-12 0 -12 14v100q0 19 -11 27t-30 8h-91q-31 0 -45 -18t-14 -47v-314q0 -48 47 -48h130q17 0 30.5 8.5
t16.5 23.5q8 -32 49 -32h128q26 0 36.5 13.5t10.5 36.5v365h-73z" />
    <glyph glyph-name="sinAu" unicode="&#xd96;" horiz-adv-x="867" 
d="M541 497h41v-177q0 -13 4 -16.5t15 -3.5h36q11 0 16 4t5 16v133q0 22 9.5 33t26.5 11h95q19 0 30.5 -12t11.5 -29v-409q0 -22 -13.5 -34t-34.5 -12h-201q-18 0 -29 12t-11 35v103h46v-86q0 -14 5.5 -19.5t18.5 -5.5h152q22 0 22 26v371q0 21 -19 21h-49q-10 0 -14 -4.5
t-4 -18.5v-139q0 -20 -11.5 -27t-31.5 -7h-83q-33 0 -33 32v203zM283 251q39 0 39 35v173h-40v-153q0 -16 -14 -16h-54q-14 0 -14 16v118q0 20 -10.5 27.5t-30.5 7.5h-78q-31 0 -45 -18t-14 -47v-346q0 -48 47 -48h126q18 0 31 7.5t16 21.5q7 -29 49 -29h124q26 0 36.5 14
t10.5 36v510q0 37 -20.5 51.5t-52.5 14.5h-367v-40h352q23 0 33 -9t10 -32v-476q0 -15 -5.5 -22t-21.5 -7h-86q-18 0 -29 8t-11 36v94h-43v-95q0 -27 -11 -35t-28 -8h-88q-16 0 -21 6t-5 23v317q0 34 27 34h53q12 0 12 -14v-125q0 -16 9.5 -23t25.5 -7h88z" />
    <glyph glyph-name="sinKa" unicode="&#xd9a;" horiz-adv-x="592" 
d="M308 281v-189q0 -14 -4 -21.5t-17 -7.5h-35q-20 0 -24.5 13t-4.5 31v81h-49v-82q0 -17 -5 -30t-27 -13h-35q-10 0 -14 4.5t-4 17.5v75q0 29 5.5 42.5t22.5 23.5v22h-27l65 56h132q10 0 15.5 -5.5t5.5 -17.5zM205 427v22q0 20 -9.5 34t-32.5 14h-132v-61h88q15 0 21 -6.5
t6 -19.5v-33l-134 -115v-46h34q-11 -7 -17.5 -21t-6.5 -46v-102q0 -20 11 -33.5t34 -13.5h92q14 0 24.5 7.5t14.5 21.5q8 -29 37 -29h88q21 0 36.5 13.5t15.5 38.5v256q0 28 -14 40.5t-36 12.5h-103l66 55q12 11 23 15.5t27 4.5h109q28 0 28 -27v-321q0 -25 -21 -25h-62v-63
h103q22 0 37.5 13t15.5 39v390q0 25 -15.5 40t-41.5 15h-167q-15 0 -31 -4.5t-33 -19.5z" />
    <glyph glyph-name="sinKha" unicode="&#xd9b;" horiz-adv-x="528" 
d="M34 422v-374q0 -48 43 -48h78l3 63h-34q-10 0 -13.5 5.5t-3.5 16.5v307q0 13 5.5 21t19.5 8h85q13 0 18.5 -7.5t5.5 -19.5v-147l-56 -252h60l22 78l28 -40q11 -14 25 -23.5t29 -9.5h87q26 0 36 16t10 35v515q0 30 -20.5 45t-49.5 15h-378v-67h331q22 0 33 -8t11 -26v-391
v-42q0 -8 -3 -15.5t-14 -7.5h-43q-15 5 -28.5 19.5t-23 31t-13.5 25.5l25 89v197q0 28 -16 41.5t-40 13.5h-160q-30 0 -44.5 -18.5t-14.5 -45.5z" />
    <glyph glyph-name="sinGa" unicode="&#xd9c;" horiz-adv-x="591" 
d="M190 497h-112q-27 0 -41.5 -15t-14.5 -43v-381q0 -28 11 -43t38 -15h197q36 0 51.5 12.5t15.5 47.5v188q0 38 -31 38h-15l22 123q2 12 10 18.5t25 6.5h99q17 0 23.5 -7t6.5 -23v-307q0 -20 -5.5 -27t-24.5 -7h-52v-63h92q33 0 48 13t15 50v371q0 35 -16 49t-51 14h-160
q-63 0 -72 -51l-36 -209h33q17 0 17 -20v-125q0 -17 -5.5 -23t-23.5 -6h-118q-12 0 -16.5 6.5t-4.5 18.5v320q0 16 5.5 22t21.5 6h68v61z" />
    <glyph glyph-name="sinGha" unicode="&#xd9d;" horiz-adv-x="571" 
d="M329 0h141q28 0 39 13t11 41v243q0 30 -14.5 43.5t-44.5 13.5h-109v58q0 13 8 18.5t22 5.5h137v61h-162q-30 0 -48 -13.5t-18 -42.5v-148h133q10 0 16.5 -5t6.5 -14v-188q0 -23 -19 -23h-79q-14 0 -19 6t-5 18v15q0 8 4 12.5t13 10.5q12 10 18.5 15t6.5 17v44
q0 26 -26 26h-71h-70q-26 0 -26 -26v-44q0 -12 6 -17t19 -15q8 -6 12.5 -10.5t4.5 -12.5v-15q0 -12 -5 -18t-20 -6h-77q-19 0 -19 23v159q0 20 10.5 34t38.5 14h108v148q0 29 -18 42.5t-49 13.5h-162v-61h139q14 0 21.5 -5.5t7.5 -18.5v-58h-113q-9 0 -13.5 -6.5t-6 -16
t-3.5 -19t-7 -15.5q-13 -8 -19.5 -21.5t-6.5 -29.5v-192q0 -28 11 -41t39 -13h140q18 0 34.5 12t16.5 36v63q0 9 -6.5 16t-14.5 13q-11 9 -14.5 13t-3.5 14v15q0 9 12 9h34h35q11 0 11 -9v-15q0 -10 -3 -14t-15 -13q-8 -6 -14.5 -13t-6.5 -16v-63q0 -24 16.5 -36t35.5 -12z
M-6 354v-59h119v59h-119z" />
    <glyph glyph-name="sinNga" unicode="&#xd9e;" horiz-adv-x="578" 
d="M14 422v-59q0 -47 46 -47h112q11 0 19.5 7t8.5 21v71q0 9 -8 11h52q17 0 22 -8t5 -20v-126h-125q-31 0 -46.5 -19t-15.5 -45v-154q0 -28 10 -41t38 -13h129q17 0 30.5 8.5t16.5 23.5q9 -32 49 -32h129q25 0 36 14t11 36v510q0 37 -20.5 51.5t-52.5 14.5h-376v-67h337
q21 0 29.5 -7.5t8.5 -29.5v-432q0 -14 -5 -20.5t-18 -6.5h-62q-16 0 -25 8t-9 30v71h-63v-72q0 -22 -9 -29.5t-24 -7.5h-67q-20 0 -20 23v100q0 20 7.5 29t31.5 9h139v185q0 36 -17.5 49t-48.5 13h-200q-28 0 -41.5 -13t-13.5 -36zM62 412q0 9 5.5 11.5t12.5 2.5h62
q9 -2 9 -12v-44q0 -6 -2.5 -9t-9.5 -3h-64q-7 0 -10 4t-3 9v41z" />
    <glyph glyph-name="sinNnga" unicode="&#xd9f;" horiz-adv-x="759" 
d="M353 497h-96q-18 0 -35 -7t-27.5 -23t-10.5 -42v-371q0 -28 10 -41t38 -13h198q36 0 51.5 12.5t15.5 47.5v188q0 38 -30 38h-16l22 123q2 12 10 18.5t25 6.5h99q17 0 23.5 -7t6.5 -23v-307q0 -20 -5.5 -27t-24.5 -7h-52v-63h92q33 0 48 13t15 50v371q0 35 -16 49t-51 14
h-160q-63 0 -72 -51l-36 -209h33q17 0 17 -20v-125q0 -17 -5.5 -23t-23.5 -6h-118q-12 0 -16.5 6.5t-4.5 18.5v301q0 25 9.5 36t30.5 11h56v61zM134 437h74l63 60h-164q-37 0 -61 -20.5t-24 -60.5v-416h71v396q0 24 10 32.5t31 8.5z" />
    <glyph glyph-name="sinCa" unicode="&#xda0;" horiz-adv-x="539" 
d="M506 415h-72v-325q0 -27 -22 -27h-259q-21 0 -21 25v115q0 30 14 41.5t37 11.5h105v159q0 28 -14 41.5t-42 13.5h-174v-61h136q8 0 14.5 -3.5t6.5 -14.5v-78h-62q-8 0 -20 -8t-23.5 -18t-19 -18l-7.5 -8q-11 -7 -18 -20.5t-7 -35.5v-151q0 -28 11 -41t39 -13h348
q28 0 39 13t11 41v361zM433 625h-375v-63h337q23 0 31 -9t8 -31v-122h72v147q0 41 -16.5 59.5t-56.5 18.5zM-6 313v-57h181v57h-181z" />
    <glyph glyph-name="sinCha" unicode="&#xda1;" horiz-adv-x="513" 
d="M269 405q0 13 8 22t20 9h79q24 0 24 -28v-82q0 -16 -7.5 -29t-27.5 -13h-76q-11 0 -15.5 5t-4.5 17v99zM337 486q13 6 24.5 11t29.5 24l124 122h-84l-122 -115q-16 -15 -27 -22.5t-19 -11t-16 -8.5h90zM117 63q-13 0 -17.5 7t-4.5 21v179q0 11 6 17.5t19 6.5h132v144
q0 32 -17.5 45.5t-46.5 13.5h-165v-61h143q28 0 28 -23v-58h-116q-56 0 -56 -55v-246q0 -28 11 -41t39 -13h349q28 0 39 13t11 41v127q0 29 -6 46.5t-25 29.5q19 14 25 33t6 42v104q0 61 -55 61h-136q-28 0 -47 -23.5t-19 -57.5v-145q0 -23 10 -34t31 -11h104q17 0 28 -8.5
t11 -30.5v-97q0 -13 -5 -20t-17 -7h-259z" />
    <glyph glyph-name="sinJa" unicode="&#xda2;" horiz-adv-x="512" 
d="M376 63h-259q-22 0 -22 27v177q0 14 7.5 20t19.5 6h105v148q0 29 -18 42.5t-48 13.5h-138v-61h115q15 0 21 -6.5t6 -19.5v-56h-87q-56 0 -56 -55v-245q0 -28 11.5 -41t39.5 -13h347q28 0 39.5 13t11.5 41v245q0 55 -56 55h-88v56q0 26 28 26h115v61h-138q-30 0 -48 -13.5
t-18 -42.5v-148h105q14 0 20.5 -6t6.5 -20v-177q0 -13 -4.5 -20t-17.5 -7zM380 488q6 3 16.5 11t22.5 23l97 121h-84l-98 -116q-17 -21 -26 -27.5t-17 -11.5h89z" />
    <glyph glyph-name="sinJha" unicode="&#xda3;" horiz-adv-x="916" 
d="M12 216h34q-11 -7 -17.5 -21t-6.5 -46v-102q0 -20 11 -33.5t34 -13.5h92q14 0 24.5 7.5t14.5 21.5q8 -29 37 -29h88q21 0 36.5 13.5t15.5 38.5v256q0 28 -14 40.5t-36 12.5h-103l52 41q17 13 29.5 19t26.5 6q6 0 14 -0.5t15 -1.5l96 -10l204 39l-282 30q-14 2 -29.5 3.5
t-24.5 1.5q-17 0 -33 -5t-40 -23l-45 -34v23q0 19 -9.5 33t-32.5 14h-132v-61h88q15 0 21 -6.5t6 -19.5v-33l-134 -115v-46zM308 281v-189q0 -14 -4 -21.5t-17 -7.5h-35q-20 0 -24.5 13t-4.5 31v81h-49v-82q0 -17 -5 -30t-27 -13h-35q-10 0 -14 4.5t-4 17.5v75
q0 29 5.5 42.5t22.5 23.5v22h-27l65 56h132q10 0 15.5 -5.5t5.5 -17.5zM660 390v64l-172 -1q-31 0 -45 -19t-14 -49v-337q0 -48 47 -48h130q17 0 31 10.5t16 26.5q10 -37 49 -37h130q25 0 36 14t11 36v510q0 37 -20.5 51.5t-52.5 14.5h-377v-67h337q20 0 29.5 -7t9.5 -29
v-435q0 -11 -4 -18t-16 -7h-61q-23 0 -31 15.5t-8 35.5v131h-63v-131q0 -21 -7.5 -36t-28.5 -15h-63q-11 0 -16 6t-5 17v279q0 12 5.5 18.5t18.5 6.5h134z" />
    <glyph glyph-name="sinNya" unicode="&#xda4;" horiz-adv-x="1013" 
d="M463 281v-189q0 -13 -4 -20.5t-17 -7.5h-36q-20 0 -24 12.5t-4 30.5v81h-50v-81q0 -17 -4.5 -30t-26.5 -13h-35q-10 0 -14 4.5t-4 17.5v75q0 28 5.5 42t22.5 23v22h-28l66 56h132q9 0 15 -5.5t6 -17.5zM591 436v61h-74q-16 0 -34 -2t-32 -8q-8 -4 -19 -9t-25 -15l-48 -36
v23q0 19 -9.5 33t-31.5 14h-132v-61h88q14 0 20.5 -6.5t6.5 -19.5v-33l-134 -115v-46h34q-11 -7 -17.5 -21t-6.5 -46v-102q0 -20 11 -33.5t33 -13.5h93q13 0 24 7.5t15 21.5q7 -29 37 -29h88q21 0 36 13.5t15 38.5v256q0 28 -13.5 40.5t-35.5 12.5h-103l50 39
q14 11 27.5 18.5t23.5 10.5q10 4 24.5 5.5t27.5 1.5h61zM134 443h74l63 54h-164q-37 0 -61 -20.5t-24 -60.5v-416h71v401q0 24 10 33t31 9zM971 0v63h-299q-12 0 -17 5.5t-5 20.5v176q0 15 6 21.5t22 6.5h289v151q0 53 -53 53h-337v-61h296q11 0 16 -5t5 -19v-58h-259
q-28 0 -43 -13.5t-15 -43.5v-247q0 -24 9.5 -37t34.5 -13h72q-17 -8 -23 -20.5t-6 -30.5v-75q0 -25 15.5 -35t36.5 -10h278v63h-232q-10 0 -16.5 3.5t-6.5 16.5v45q0 22 15.5 32.5t35.5 10.5h181z" />
    <glyph glyph-name="sinJnya" unicode="&#xda5;" horiz-adv-x="1008" 
d="M607 436v61h-124q-63 0 -72 -51l-36 -209h33q17 0 17 -20v-125q0 -17 -5.5 -23t-23.5 -6h-118q-12 0 -16.5 6.5t-4.5 18.5v301q0 25 9.5 36t30.5 11h56v61h-96q-18 0 -35 -7t-27.5 -23t-10.5 -42v-371q0 -28 10 -41t38 -13h198q36 0 51.5 12.5t15.5 47.5v188q0 38 -30 38
h-16l23 125q3 12 10.5 18.5t24.5 6.5h98zM134 437h74l63 60h-164q-37 0 -61 -20.5t-24 -60.5v-416h71v396q0 24 10 32.5t31 8.5zM967 0v63h-300q-11 0 -16.5 5.5t-5.5 20.5v176q0 15 6 21.5t22 6.5h290v151q0 53 -53 53h-338v-61h296q11 0 16 -5t5 -19v-58h-259
q-28 0 -43 -13.5t-15 -43.5v-247q0 -24 9.5 -37t34.5 -13h72q-16 -8 -22.5 -20.5t-6.5 -30.5v-75q0 -25 15.5 -35t36.5 -10h279v63h-233q-10 0 -16.5 3.5t-6.5 16.5v45q0 22 15.5 32.5t36.5 10.5h181z" />
    <glyph glyph-name="sinNyja" unicode="&#xda6;" horiz-adv-x="683" 
d="M134 442h74l63 55h-164q-37 0 -61 -20.5t-24 -60.5v-416h71v401q0 23 10 32t31 9zM541 63h-259q-22 0 -22 27v177q0 14 7.5 20t19.5 6h105v148q0 29 -18 42.5t-48 13.5h-138v-61h115q15 0 21.5 -6.5t6.5 -19.5v-56h-88q-56 0 -56 -55v-245q0 -28 11.5 -41t39.5 -13h347
q28 0 39.5 13t11.5 41v245q0 55 -56 55h-88v56q0 26 28 26h115v61h-138q-30 0 -48 -13.5t-18 -42.5v-148h105q14 0 20.5 -6t6.5 -20v-177q0 -13 -4.5 -20t-17.5 -7zM545 488q6 3 16.5 11t22.5 23l97 121h-84l-98 -116q-17 -21 -26 -27.5t-17 -11.5h89z" />
    <glyph glyph-name="sinTta" unicode="&#xda7;" 
d="M246 394v62h-168q-56 0 -56 -55v-347q0 -28 11 -41t39 -13h347q28 0 40 13t12 41v361h-74v-326q0 -26 -20 -26h-263q-12 0 -15.5 6.5t-3.5 17.5v282q0 14 7 19.5t18 5.5h126zM397 625h-375v-63h337q23 0 30.5 -9t7.5 -31v-122h74v147q0 41 -17 59.5t-57 18.5z" />
    <glyph glyph-name="sinTtha" unicode="&#xda8;" 
d="M275 571h95q18 0 22.5 -7t4.5 -21v-68h-100q-11 0 -16.5 2.5t-5.5 17.5v76zM471 394v165q0 39 -15 53t-51 14h-255v-54h58v-98q0 -27 10.5 -37t35.5 -10h144v-33h73zM471 440l-73 -1v-351q0 -11 -4.5 -18t-16.5 -7h-61q-23 0 -30.5 15.5t-7.5 35.5v95h-64v-95
q0 -21 -7 -36t-28 -15h-63q-11 0 -16 6t-5 17v195q0 12 5 18.5t19 6.5h133v64h-171q-31 0 -45 -18t-14 -47v-257q0 -48 47 -48h130q17 0 30.5 10.5t16.5 26.5q10 -37 49 -37h129q25 0 36 14t11 36v390z" />
    <glyph glyph-name="sinDda" unicode="&#xda9;" horiz-adv-x="514" 
d="M-6 343v-59h119v59h-119zM70 0h129q17 0 30.5 8.5t16.5 23.5q8 -32 49 -32h128q26 0 36.5 14t10.5 36v510q0 37 -20.5 51.5t-52.5 14.5h-375v-67h337q21 0 29.5 -7.5t8.5 -29.5v-432q0 -14 -5 -20.5t-18 -6.5h-62q-16 0 -25 8t-9 30v79h-63v-80q0 -22 -9 -29.5t-24 -7.5
h-67q-20 0 -20 23v148q0 20 10.5 34t38.5 14h108v148q0 29 -18 42.5t-49 13.5h-162v-62h130q14 0 21.5 -5t7.5 -18v-58h-104q-9 0 -13.5 -6t-6 -15.5t-3.5 -19.5t-7 -17q-13 -7 -19.5 -20.5t-6.5 -29.5v-181q0 -28 10 -41t38 -13z" />
    <glyph glyph-name="sinDdha" unicode="&#xdaa;" horiz-adv-x="514" 
d="M275 571h94q18 0 22.5 -7t4.5 -21v-68h-99q-12 0 -17 2.5t-5 17.5v76zM471 394v165q0 39 -15.5 53t-51.5 14h-254v-54h57v-98q0 -27 10.5 -37t35.5 -10h144v-33h74zM-6 281v-53h119v53h-119zM22 179v-125q0 -28 10 -41t38 -13h129q17 0 30.5 8.5t16.5 23.5q8 -32 49 -32
h128q26 0 36.5 14t10.5 36v361h-73v-321q0 -14 -5 -20.5t-18 -6.5h-62q-16 0 -25 8t-9 30v52h-63v-53q0 -22 -9 -29.5t-24 -7.5h-67q-20 0 -20 23v92q0 20 10.5 34t38.5 14h108v137q0 29 -18 42.5t-49 13.5h-162v-57h139q14 0 21.5 -5.5t7.5 -18.5v-57h-113q-9 0 -13.5 -5.5
t-6 -14t-3.5 -17t-7 -14.5q-13 -8 -19.5 -21.5t-6.5 -29.5z" />
    <glyph glyph-name="sinNna" unicode="&#xdab;" horiz-adv-x="845" 
d="M382 497h-270q-23 0 -42 -11.5t-19 -42.5v-182q0 -35 17 -55t42 -20h169v54h-128q-19 0 -25 11t-6 30v129q0 27 31 27h181q14 0 22 -7t12 -17t4 -19v-292q0 -21 -8 -30t-23 -9h-175q-17 0 -20.5 12t-3.5 33q0 19 -6.5 26.5t-13.5 8.5l343 473h-75l-366 -495v-77l42 46
q7 0 13 -3.5t6 -22.5q0 -32 9 -48t36 -16h243q40 0 56 20.5t16 54.5v319q0 19 9 30.5t24 11.5h42q17 0 24 -12.5t7 -33.5v-209h68v210q0 21 10 33t24 12h51q17 0 22.5 -8.5t5.5 -26.5v-310q0 -13 -4 -20.5t-21 -7.5h-221v-63h246q43 0 58 18t15 47v374q0 58 -61 58h-99
q-28 0 -40 -9.5t-17 -23.5q-5 13 -14.5 23t-34.5 10h-55q-39 0 -54 -30q-6 12 -16.5 21t-29.5 9z" />
    <glyph glyph-name="sinNndda" unicode="&#xdac;" horiz-adv-x="698" 
d="M134 431h79l58 55h-164q-37 0 -61 -20.5t-24 -59.5v-406h71v391q0 23 10 31.5t31 8.5zM177 343v-59h119v59h-119zM253 0h129q17 0 30.5 8.5t16.5 23.5q8 -32 49 -32h128q26 0 36.5 14t10.5 36v510q0 37 -20.5 51.5t-52.5 14.5h-375v-67h337q21 0 29.5 -7.5t8.5 -29.5
v-432q0 -14 -5 -20.5t-18 -6.5h-62q-16 0 -25 8t-9 30v79h-63v-80q0 -22 -9 -29.5t-24 -7.5h-67q-20 0 -20 23v148q0 20 10 34t39 14h108v148q0 29 -18 42.5t-48 13.5h-163v-62h129q15 0 22 -5t7 -18v-58h-103q-9 0 -13.5 -6t-6 -15.5t-3.5 -19.5t-7 -17q-14 -7 -20 -20.5
t-6 -29.5v-181q0 -28 10 -41t38 -13z" />
    <glyph glyph-name="sinTa" unicode="&#xdad;" horiz-adv-x="592" 
d="M296 281v-189q0 -14 -4 -21.5t-16 -7.5h-164q-9 0 -13 4.5t-4 17.5v75q0 29 5.5 42.5t21.5 23.5v22h-32l65 56h120q10 0 15.5 -5.5t5.5 -17.5zM205 427v22q0 20 -9.5 34t-32.5 14h-132v-61h88q15 0 21 -6.5t6 -19.5v-33l-134 -115v-46h34q-11 -7 -17.5 -21t-6.5 -46v-102
q0 -20 11 -33.5t34 -13.5h248q22 0 37.5 13.5t15.5 38.5v256q0 28 -14.5 40.5t-35.5 12.5h-96l66 55q12 11 23 15.5t27 4.5h109q28 0 28 -27v-321q0 -25 -21 -25h-62v-63h103q22 0 37.5 13t15.5 39v390q0 25 -15.5 40t-41.5 15h-167q-15 0 -31 -4.5t-33 -19.5z" />
    <glyph glyph-name="sinTha" unicode="&#xdae;" horiz-adv-x="513" 
d="M275 571h95q17 0 21.5 -7t4.5 -21v-68h-99q-11 0 -16.5 2.5t-5.5 17.5v76zM471 394v165q0 39 -15 53t-51 14h-255v-54h58v-98q0 -27 10.5 -37t35.5 -10h144v-33h73zM221 331v63h-143q-56 0 -56 -55v-285q0 -28 11 -41t39 -13h348q28 0 39.5 13t11.5 41v361h-73v-326
q0 -26 -21 -26h-263q-12 0 -15.5 6.5t-3.5 17.5v219q0 14 7 19.5t18 5.5h101z" />
    <glyph glyph-name="sinDa" unicode="&#xdaf;" horiz-adv-x="460" 
d="M417 0v63h-300q-11 0 -16.5 5.5t-5.5 20.5v176q0 15 6 21.5t22 6.5h290v151q0 53 -53 53h-338v-61h296q11 0 16 -5t5 -19v-58h-259q-28 0 -43 -13.5t-15 -43.5v-247q0 -24 9.5 -37t34.5 -13h72q-16 -8 -22.5 -20.5t-6.5 -30.5v-75q0 -25 15.5 -35t36.5 -10h279v63h-233
q-10 0 -16.5 3.5t-6.5 16.5v45q0 22 15.5 32.5t36.5 10.5h181z" />
    <glyph glyph-name="sinDha" unicode="&#xdb0;" 
d="M252 422v64h-171q-31 0 -45 -18t-14 -47v-373q0 -48 47 -48h130q17 0 30.5 10.5t16.5 26.5q10 -37 49 -37h129q25 0 36 14t11 36v510q0 37 -20.5 51.5t-52.5 14.5h-376v-67h337q20 0 29 -7t9 -29v-435q0 -11 -4 -18t-15 -7h-61q-23 0 -31 15.5t-8 35.5v131h-64v-131
q0 -21 -7 -36t-28 -15h-63q-11 0 -16 6t-5 17v311q0 11 5 18t19 7h133z" />
    <glyph glyph-name="sinNa" unicode="&#xdb1;" horiz-adv-x="591" 
d="M235 384v52q0 32 -15.5 46.5t-47.5 14.5h-150v-61h127q14 0 21 -6t7 -22v-94zM194 263h81q21 0 21 -22v-147q0 -18 -4.5 -24.5t-23.5 -6.5h-153q-13 0 -17 5t-4 17v100l-3 56v100h-69v-290q0 -28 10 -39.5t38 -11.5h231q35 0 51 12.5t16 47.5v212q0 25 -11 36.5t-37 11.5
h-76zM128 184l202 225q12 14 23 19.5t29 5.5h64q29 0 29 -28v-309q0 -17 -4.5 -25.5t-22.5 -8.5h-55v-63h92q36 0 49.5 14.5t13.5 51.5v368q0 35 -16.5 49t-50.5 14h-125q-30 0 -48 -15.5t-35 -35.5l-161 -188l-6 -6t-8 -3q-3 0 -6.5 2t-5.5 3v-78q2 -2 7 -4t11 -2
q12 0 24 14z" />
    <glyph glyph-name="sinNda" unicode="&#xdb3;" horiz-adv-x="621" 
d="M134 440h74l63 57h-164q-37 0 -61 -20.5t-24 -60.5v-416h71v400q0 23 10 31.5t31 8.5zM584 0v63h-300q-11 0 -16 5.5t-5 20.5v176q0 15 5.5 21.5t21.5 6.5h290v151q0 53 -53 53h-338v-61h296q11 0 16.5 -5t5.5 -19v-58h-260q-28 0 -43 -13.5t-15 -43.5v-247
q0 -24 9.5 -37t34.5 -13h72q-16 -8 -22.5 -20.5t-6.5 -30.5v-75q0 -25 15.5 -35t36.5 -10h279v63h-233q-10 0 -16.5 3.5t-6.5 16.5v45q0 22 15.5 32.5t36.5 10.5h181z" />
    <glyph glyph-name="sinPa" unicode="&#xdb4;" horiz-adv-x="510" 
d="M22 54q0 -28 11.5 -41t39.5 -13h39.5h61.5h72.5h72.5h62h39q28 0 39.5 13t11.5 41v245q0 55 -56 55h-88v56q0 26 28 26h115v61h-138q-30 0 -48 -13.5t-18 -42.5v-148h105q14 0 20.5 -6t6.5 -20v-177q0 -13 -4.5 -20t-17.5 -7h-259q-12 0 -17 7t-5 20v177q0 14 7.5 20
t19.5 6h105v148q0 29 -18 42.5t-48 13.5h-138v-61h115q15 0 21 -6.5t6 -19.5v-56h-87q-56 0 -56 -55v-245z" />
    <glyph glyph-name="sinPha" unicode="&#xdb5;" horiz-adv-x="514" 
d="M275 571h95q17 0 21.5 -7t4.5 -21v-68h-99q-11 0 -16.5 2.5t-5.5 17.5v76zM471 394v165q0 39 -15 53t-51 14h-255v-54h58v-98q0 -27 10.5 -37t35.5 -10h144v-33h73zM471 415h-73v-326q0 -26 -21 -26h-263q-12 0 -15.5 6.5t-3.5 17.5v120q0 14 7 19.5t18 5.5h132v127
q0 27 -14 40.5t-42 13.5h-174v-58h135q8 0 14.5 -3.5t6.5 -13.5v-54h-100q-56 0 -56 -55v-175q0 -28 11 -41t39 -13h348q28 0 39.5 13t11.5 41v361z" />
    <glyph glyph-name="sinBa" unicode="&#xdb6;" 
d="M397 412v-326q0 -13 -4 -18t-15 -5h-80q-14 0 -17.5 6t-3.5 19v328q0 30 -15.5 42t-39.5 12h-144q-56 0 -56 -55v-361q0 -28 11 -41t39 -13h100v63h-56q-12 0 -16.5 5.5t-4.5 20.5v293q0 12 4.5 18.5t17.5 6.5h69q12 0 16.5 -6t4.5 -18l1 -329q0 -28 12 -41t40 -13h161
q28 0 39 13t11 41v358v135q0 41 -17 59.5t-57 18.5h-375v-63h337q23 0 30.5 -9t7.5 -31v-110z" />
    <glyph glyph-name="sinBha" unicode="&#xdb7;" horiz-adv-x="592" 
d="M22 51q0 -28 10 -39.5t38 -11.5h216q35 0 51 12.5t16 47.5v191q0 21 -10 29t-23 8h-23l23 119q6 27 35 27h95q14 0 20.5 -6.5t6.5 -20.5v-310q0 -20 -5.5 -27t-22.5 -7h-59v-63h97q37 0 50 13.5t13 50.5v370q0 35 -16 49t-51 14h-155q-31 0 -48.5 -13t-22.5 -38l-38 -207
h46q8 0 12.5 -4.5t4.5 -17.5v-125q0 -18 -6 -23.5t-22 -5.5h-140q-10 0 -14.5 6.5t-4.5 17.5v168q0 19 7.5 29t28.5 10h63v137q0 32 -20 49t-52 17h-100v-61h79q17 0 25.5 -7t8.5 -23v-51h-57q-14 0 -19 -6t-5.5 -15t-1.5 -19t-7 -19q-11 -5 -17 -15t-6 -26v-204zM-6 355
v-59h94v59h-94z" />
    <glyph glyph-name="sinMa" unicode="&#xdb8;" 
d="M397 625h-375v-63h337q23 0 30.5 -9t7.5 -31v-122h74v147q0 41 -17 59.5t-57 18.5zM83 223v-61h172q29 0 40.5 14t11.5 44v199q0 28 -16 39.5t-43 11.5h-165q-28 0 -44.5 -15t-16.5 -43v-355q0 -57 53 -57h340q56 0 56 59v356h-74v-324q0 -28 -23 -28h-257q-22 0 -22 28
v293q0 11 5 18t19 7h95q10 0 16 -4.5t6 -18.5v-141q0 -9 -2.5 -15.5t-15.5 -6.5h-135z" />
    <glyph glyph-name="sinMba" unicode="&#xdb9;" 
d="M22 54q0 -28 10 -41t35 -13h124q20 0 33.5 14t13.5 33v64q0 16 -11.5 23.5t-16.5 11.5l-12 9t-8 16v13q0 10 12 10h44h44q12 0 12 -10v-13q0 -10 -7.5 -15.5t-11.5 -8.5q-5 -3 -16.5 -11.5t-11.5 -24.5v-64q0 -19 14 -33t33 -14h123q26 0 35.5 13t10.5 41v361h-74v-328
q0 -9 -4 -16.5t-14 -7.5h-66q-6 0 -12.5 3.5t-6.5 12.5v24q1 9 6.5 15t13.5 11q4 2 11 6t13.5 11t6.5 17v41q0 15 -8 20.5t-19 5.5h-72h-72q-11 0 -19 -6t-8 -20v-41q0 -15 12 -23t18 -11q7 -4 14 -10.5t7 -16.5v-24q0 -9 -6 -12t-14 -3h-67q-16 0 -16 24v299q0 10 5 16.5
t19 6.5h81q23 0 23 -20v-46q0 -13 -5 -17.5t-14 -4.5h-121v-46h159q29 0 40.5 14.5t11.5 43.5v86q0 28 -16 39.5t-43 11.5h-152q-30 0 -45.5 -16.5t-15.5 -40.5v-359zM397 625h-375v-63h337q23 0 30.5 -9t7.5 -31v-122h74v147q0 41 -17 59.5t-57 18.5z" />
    <glyph glyph-name="sinYa" unicode="&#xdba;" horiz-adv-x="565" 
d="M222 497h-144q-32 0 -44 -18.5t-12 -40.5v-384q0 -28 11 -41t39 -13h147q16 0 32.5 10.5t19.5 28.5q4 -18 20.5 -28.5t32.5 -10.5h146q28 0 39 13t11 41v243q0 30 -14.5 43.5t-44.5 13.5h-123v58q0 13 7.5 18.5t21.5 5.5h152v61h-184q-33 0 -49.5 -15t-16.5 -43v-146h155
q10 0 16.5 -5t6.5 -14v-188q0 -23 -19 -23h-83q-21 0 -30.5 14t-9.5 33v66h-67v-66q0 -19 -9 -33t-30 -14h-85q-19 0 -19 23v320q0 14 5.5 22t17.5 8h104v61z" />
    <glyph glyph-name="sinRa" unicode="&#xdbb;" horiz-adv-x="458" 
d="M22 427v-379q0 -26 12.5 -37t33.5 -11h292q30 0 40.5 17t10.5 39v382q0 28 -15 43.5t-46 15.5h-182l198 157h-103l-200 -156q-19 -16 -30 -31.5t-11 -39.5zM95 396q0 21 9 30.5t26 9.5h176q17 0 25 -8t8 -27v-306q0 -21 -6.5 -26.5t-20.5 -5.5h-186q-18 0 -24.5 6.5
t-6.5 29.5v297z" />
    <glyph glyph-name="sinLa" unicode="&#xdbd;" horiz-adv-x="557" 
d="M228 48q0 -20 12 -34t37 -14h184q29 0 40.5 18t11.5 43v367q0 27 -17 48t-44 21h-376q-22 0 -38 -17t-16 -46v-525q0 -41 20 -56.5t50 -15.5h421v66h-376q-24 0 -33 10.5t-9 35.5v454q0 15 6 24t22 9h287q18 0 24 -11t6 -25v-310q0 -12 -4.5 -19.5t-15.5 -7.5h-97
q-12 0 -16.5 4.5t-4.5 16.5v173h65v55h-203v-56h64v-208z" />
    <glyph glyph-name="sinVa" unicode="&#xdc0;" horiz-adv-x="514" 
d="M471 415h-74v-326q0 -26 -20 -26h-263q-12 0 -15.5 6.5t-3.5 17.5v175q0 14 7 19t18 5h132v146q0 27 -14 40.5t-42 13.5h-174v-62h135q8 0 14.5 -3t6.5 -14v-63h-100q-56 0 -56 -55v-235q0 -28 11 -41t39 -13h347q28 0 40 13t12 41v361zM397 625h-375v-63h337
q23 0 30.5 -9t7.5 -31v-122h74v147q0 41 -17 59.5t-57 18.5z" />
    <glyph glyph-name="sinSha" unicode="&#xdc1;" horiz-adv-x="592" 
d="M443 58h-76v-58h118q33 0 48 13t15 50v371q0 35 -16 49t-51 14h-169q-63 0 -72 -51l-36 -209h33q18 0 18 -20v-125q0 -17 -6 -23t-24 -6h-109q-12 0 -16.5 6.5t-4.5 18.5v320q0 16 5.5 22t21.5 6h65v61h-109q-27 0 -41.5 -15t-14.5 -43v-381q0 -28 11 -43t38 -15h188
q36 0 51.5 12.5t15.5 47.5v188q0 38 -31 38h-15l23 123q2 12 9.5 18.5t24.5 6.5h109q17 0 23.5 -7.5t6.5 -22.5v-14.5v-26.5v-28.5v-20.5h-65q-44 0 -44 -40v-117q0 -41 21.5 -65t54.5 -34zM480 263v-178q-15 4 -30.5 12.5t-26.5 22.5t-11 37v93q0 13 9 13h59z" />
    <glyph glyph-name="sinSsa" unicode="&#xdc2;" horiz-adv-x="510" 
d="M324 300l-102 -88q-12 -9 -15 -22.5t-3 -30.5v-44h68v38q0 18 3.5 27.5t13.5 19.5l110 100h-75zM22 54q0 -28 11.5 -41t39.5 -13h347q27 0 39 13t12 41v242q0 56 -56 56h-99v58q0 13 6.5 19.5t21.5 6.5h52q13 0 16 -7.5t3 -20.5q0 -12 -4.5 -20t-12.5 -16l-38 -34h69
l27 25q15 16 15 37v46q0 30 -16 40.5t-30 10.5h-104q-31 0 -48.5 -13.5t-17.5 -42.5v-148h116q14 0 20.5 -6t6.5 -20v-177q0 -13 -4.5 -20t-17.5 -7h-259q-13 0 -17.5 7t-4.5 20v177q0 14 7.5 20t19.5 6h95v148q0 29 -18 42.5t-48 13.5h-128v-61h105q15 0 21.5 -6.5
t6.5 -19.5v-56h-78q-56 0 -56 -55v-245z" />
    <glyph glyph-name="sinSa" unicode="&#xdc3;" horiz-adv-x="565" 
d="M22 246v-192q0 -28 11 -41t39 -13h147q16 0 32.5 10.5t19.5 28.5q4 -18 20.5 -28.5t32.5 -10.5h146q28 0 39 13t11 41v243q0 30 -14.5 43.5t-44.5 13.5h-109v58q0 13 8 18.5t22 5.5h137v61h-162q-30 0 -48 -13.5t-18 -42.5v-148h133q10 0 16.5 -5t6.5 -14v-188
q0 -23 -19 -23h-83q-21 0 -30.5 14t-9.5 33v66h-67v-66q0 -19 -9 -33t-30 -14h-85q-19 0 -19 23v159q0 20 10.5 34t38.5 14h108v148q0 29 -18 42.5t-49 13.5h-162v-61h138q15 0 22 -5.5t7 -18.5v-58h-112q-9 0 -13.5 -6.5t-6 -16t-3.5 -19t-7 -15.5q-13 -8 -19.5 -21.5
t-6.5 -29.5zM-6 354v-59h119v59h-119z" />
    <glyph glyph-name="sinHa" unicode="&#xdc4;" horiz-adv-x="591" 
d="M95 88v178q0 16 5.5 21.5t21.5 5.5h68v138q0 33 -18 49.5t-50 16.5h-100v-61h77q17 0 24.5 -6.5t7.5 -25.5v-50h-54q-55 0 -55 -56v-247q0 -27 11 -39t37 -12h206q36 0 51.5 12.5t15.5 47.5v188q0 38 -31 38h-15l22 123q2 12 10 18.5t24 6.5h92q17 0 23.5 -7t6.5 -23
v-309q0 -18 -5.5 -25t-22.5 -7h-54v-63h92q34 0 48.5 13.5t14.5 50.5v370q0 35 -16 49t-51 14h-152q-63 0 -72 -51l-36 -209h33q17 0 17 -20v-125q0 -17 -5.5 -23t-24.5 -6h-125q-12 0 -16.5 6.5t-4.5 18.5z" />
    <glyph glyph-name="sinLla" unicode="&#xdc5;" horiz-adv-x="553" 
d="M95 247q0 17 8.5 26.5t22.5 9.5h385v162q0 31 -18.5 41.5t-39.5 10.5h-118q-24 0 -36 -21q-4 11 -12 16t-22 5h-124q-54 0 -54 -56v-103q-28 -2 -46.5 -21.5t-18.5 -49.5v-341q0 -40 20.5 -59t57.5 -19h411v67h-374q-23 0 -32.5 11t-9.5 33v288zM437 340h-108v75
q0 24 21 24h65q13 0 17.5 -6t4.5 -17v-76zM158 340v75q0 24 21 24h69q9 0 14 -5.5t5 -18.5v-75h-109zM117 97q0 -25 18.5 -35t39.5 -10h334v68h-322q-13 0 -21 6.5t-8 21.5v143h-41v-194z" />
    <glyph glyph-name="sinFa" unicode="&#xdc6;" horiz-adv-x="564" 
d="M306 63v-63h160q23 0 38.5 15.5t15.5 45.5v384q0 28 -16.5 40t-37.5 12h-137q-26 0 -39.5 -8.5t-18.5 -25.5q-4 17 -16 25.5t-40 8.5h-139q-28 0 -41 -18.5t-13 -37.5v-379q0 -26 12 -44t39 -18h161v63h-114q-14 0 -19.5 6.5t-5.5 21.5v317q0 28 25 28h87q18 0 24 -14
t6 -29v-226h68v227q0 8 2 18t9 17t20 7h88q23 0 23 -28v-316q0 -14 -5.5 -21.5t-19.5 -7.5h-116z" />
    <glyph glyph-name="sinVirama" unicode="&#xdca;" horiz-adv-x="2" 
d="M-113 492h15q11 0 20.5 -7t15.5 -13q6 -7 12.5 -20.5t8.5 -18.5v216h-72v-157z" />
    <glyph glyph-name="sinMatraAa" unicode="&#xdcf;" horiz-adv-x="232" 
d="M21 497v-61h85q17 0 17 -17v-337q0 -9 -3.5 -14t-13.5 -5h-85v-63h134q41 0 41 38v417q0 20 -9.5 31t-31.5 11h-134z" />
    <glyph glyph-name="sinMatraAe" unicode="&#xdd0;" horiz-adv-x="250" 
d="M22 497v-61h112l-95 -162q-11 -18 -14 -36t-3 -39v-163q0 -18 9.5 -27t25.5 -9h153v63h-95q-20 0 -20 19v117q0 16 3 29t9 25l103 179v65h-188z" />
    <glyph glyph-name="sinMatraAae" unicode="&#xdd1;" horiz-adv-x="248" 
d="M22 497v-61h100l-100 -80v-54h102l-77 -69q-17 -15 -21 -30.5t-4 -35.5v-131q0 -36 30 -36h158v63h-98q-12 0 -14.5 3t-2.5 16v82q0 19 4 29.5t18 24.5l93 87v54h-104l104 79v59h-188z" />
    <glyph glyph-name="sinMatraI" unicode="&#xdd2;" horiz-adv-x="2" 
d="M-573 511h73v52q0 9 3.5 14t12.5 5h326q11 0 14.5 -5t3.5 -15v-51h73v86q0 24 -11 33.5t-30 9.5h-421q-20 0 -32 -10.5t-12 -33.5v-85z" />
    <glyph glyph-name="sinMatraIi" unicode="&#xdd3;" 
d="M-233 597h94q17 0 17 -14v-16q0 -7 -3 -10.5t-11 -3.5h-98q-8 0 -11 3.5t-3 9.5v19q0 12 15 12zM-480 582h175q-2 -1 -2 -8v-32q0 -10 5 -16.5t22 -6.5h188q30 0 30 30v51q0 40 -42 40h-422q-20 0 -31.5 -10.5t-11.5 -33.5v-85h72v53q0 9 4.5 13.5t12.5 4.5z" />
    <glyph glyph-name="sinMatraU" unicode="&#xdd4;" horiz-adv-x="2" 
d="M-49 -159v224q-4 -19 -15.5 -28t-24.5 -9h-32v-125h-374v-62h446z" />
    <glyph glyph-name="sinMatraUu" unicode="&#xdd6;" horiz-adv-x="2" 
d="M-55 -159v227q-3 -21 -12.5 -31.5t-20.5 -10.5h-40v-113l-4.5 4.5t-6.5 4.5q-6 4 -18 7t-26 3h-49q-15 0 -29 -3.5t-24 -7.5l-36 -15q-15 -6 -31 -8.5t-29 -2.5h-34q-17 0 -17 18v58h-70v-93q0 -41 48 -41h67q24 0 40.5 3t26.5 7l46 19q10 4 21 7t23 3h44q12 0 22.5 -2.5
t18.5 -7.5q5 -4 12 -11t12 -14h66z" />
    <glyph glyph-name="sinMatraR" unicode="&#xdd8;" horiz-adv-x="346" 
d="M22 497v-61h187q15 0 19 -4.5t4 -20.5v-88h-167q-17 0 -30 -10t-13 -33v-238q0 -42 37 -42h128q18 0 31 10.5t20 28.5l11 -39h57v450q0 47 -49 47h-235zM232 263v-126q0 -36 -12 -55t-38 -19h-70q-10 0 -13.5 4t-3.5 14v163q0 12 3.5 15.5t12.5 3.5h121z" />
    <glyph glyph-name="sinMatraE" unicode="&#xdd9;" horiz-adv-x="376" 
d="M333 497v-61h-210q-16 0 -22 -6.5t-6 -19.5v-325q0 -12 5 -17t15 -5h127q22 0 22 22v153q0 15 -5 21t-20 6h-64v60h110q53 0 53 -50v-226q0 -22 -13 -35.5t-38 -13.5h-219q-24 0 -35 12.5t-11 33.5v399q0 24 14 38t39 14h258z" />
    <glyph glyph-name="sinMatraEe" unicode="&#xdda;" horiz-adv-x="981" 
d="M825 492h15q11 0 20.5 -7t15.5 -13q6 -7 12.5 -20.5t8.5 -18.5v216h-72v-157zM612 250v65q0 28 14.5 41t46.5 13h15q32 0 47 -13t15 -41v-65q0 -28 -15 -41.5t-47 -13.5h-15q-32 0 -46.5 13.5t-14.5 41.5zM333 497v-61h-210q-16 0 -22 -6.5t-6 -19.5v-325q0 -12 5 -17
t15 -5h127q22 0 22 22v153q0 15 -5 21t-20 6h-64v60h110q53 0 53 -50v-226q0 -22 -13 -35.5t-38 -13.5h-219q-24 0 -35 12.5t-11 33.5v399q0 24 14 38t39 14h258z" />
    <glyph glyph-name="sinMatraAi" unicode="&#xddb;" horiz-adv-x="753" 
d="M713 497v-61h-210q-16 0 -22 -6.5t-6 -19.5v-325q0 -12 5 -17t15 -5h127q22 0 22 22v153q0 15 -5 21t-20 6h-64v60h110q53 0 53 -50v-226q0 -22 -13 -35.5t-38 -13.5h-219q-24 0 -35 12.5t-11 33.5v399q0 24 14 38t39 14h258zM333 497v-61h-210q-16 0 -22 -6.5t-6 -19.5
v-325q0 -12 5 -17t15 -5h127q22 0 22 22v153q0 15 -5 21t-20 6h-64v60h110q53 0 53 -50v-226q0 -22 -13 -35.5t-38 -13.5h-219q-24 0 -35 12.5t-11 33.5v399q0 24 14 38t39 14h258z" />
    <glyph glyph-name="sinMatraO" unicode="&#xddc;" horiz-adv-x="901" 
d="M333 497v-61h-210q-16 0 -22 -6.5t-6 -19.5v-325q0 -12 5 -17t15 -5h127q22 0 22 22v153q0 15 -5 21t-20 6h-64v60h110q53 0 53 -50v-226q0 -22 -13 -35.5t-38 -13.5h-219q-24 0 -35 12.5t-11 33.5v399q0 24 14 38t39 14h258zM454 250v65q0 28 14.5 41t46.5 13h15
q32 0 47 -13t15 -41v-65q0 -28 -15 -41.5t-47 -13.5h-15q-32 0 -46.5 13.5t-14.5 41.5zM690 497v-61h85q17 0 17 -17v-337q0 -9 -3.5 -14t-13.5 -5h-85v-63h134q41 0 41 38v417q0 20 -9.5 31t-31.5 11h-134z" />
    <glyph glyph-name="sinMatraOo" unicode="&#xddd;" horiz-adv-x="915" 
d="M333 497v-61h-210q-16 0 -22 -6.5t-6 -19.5v-325q0 -12 5 -17t15 -5h127q22 0 22 22v153q0 15 -5 21t-20 6h-64v60h110q53 0 53 -50v-226q0 -22 -13 -35.5t-38 -13.5h-219q-24 0 -35 12.5t-11 33.5v399q0 24 14 38t39 14h258zM454 250v65q0 28 14.5 41t46.5 13h15
q32 0 47 -13t15 -41v-65q0 -28 -15 -41.5t-47 -13.5h-15q-32 0 -46.5 13.5t-14.5 41.5zM707 497v-61h85q17 0 17 -17v-337q0 -9 -3.5 -14t-13.5 -5h-85v-63h134q41 0 41 38v417q0 20 -9.5 31t-31.5 11h-134zM809 492h15q11 0 20.5 -7t15.5 -13q6 -7 12.5 -20.5t8.5 -18.5
v216h-72v-157z" />
    <glyph glyph-name="sinMatraAu" unicode="&#xdde;" horiz-adv-x="1030" 
d="M333 497v-61h-210q-16 0 -22 -6.5t-6 -19.5v-325q0 -12 5 -17t15 -5h127q22 0 22 22v153q0 15 -5 21t-20 6h-64v60h110q53 0 53 -50v-226q0 -22 -13 -35.5t-38 -13.5h-219q-24 0 -35 12.5t-11 33.5v399q0 24 14 38t39 14h258zM454 250v65q0 28 14.5 41t46.5 13h15
q32 0 47 -13t15 -41v-65q0 -28 -15 -41.5t-47 -13.5h-15q-32 0 -46.5 13.5t-14.5 41.5zM688 497h52v-163q0 -13 3 -17t12 -4h28q9 0 13 4.5t4 16.5v120q0 22 8 32.5t25 10.5h116q19 0 30.5 -12t11.5 -29v-410q0 -22 -13.5 -34t-34.5 -12h-213q-18 0 -29 12t-11 35v111h77
v-73q0 -13 4.5 -17.5t16.5 -4.5h115q18 0 18 23v331q0 19 -15 19h-36q-8 0 -11.5 -4.5t-3.5 -16.5v-128q0 -20 -13 -27.5t-33 -7.5h-88q-33 0 -33 33v212z" />
    <glyph glyph-name="sinMatraLs" unicode="&#xddf;" horiz-adv-x="361" 
d="M19 497h52v-163q0 -13 3 -17t12 -4h28q9 0 13 4.5t4 16.5v120q0 22 8 32.5t25 10.5h116q19 0 30.5 -12t11.5 -29v-410q0 -22 -13.5 -34t-34.5 -12h-213q-18 0 -29 12t-11 35v111h77v-73q0 -13 4.5 -17.5t16.5 -4.5h115q18 0 18 23v331q0 19 -15 19h-36q-8 0 -11.5 -4.5
t-3.5 -16.5v-128q0 -20 -13 -27.5t-33 -7.5h-88q-33 0 -33 33v212z" />
    <glyph glyph-name="sinZerolith" unicode="&#xde6;" horiz-adv-x="319" 
d="M146 179v143q12 -5 25.5 -8.5t26.5 -3.5q46 0 70 26.5t24 63.5q0 36 -18.5 59t-47 37t-58.5 22t-51 15v-336zM146 492q48 -20 68 -44t20 -52q0 -12 -5 -25.5t-16.5 -22t-31.5 -8.5q-21 0 -35 8v144zM117 518l-1 -404l30 1l-1 549q-21 -13 -42 -21t-38 -15.5t-27.5 -19.5
t-10.5 -33q0 -18 11 -30.5t26.5 -21t33 -14.5t29.5 -10l9 26q-34 9 -56 20t-22 30q0 10 11 23.5t47 21.5z" />
    <glyph glyph-name="sinOnelith" unicode="&#xde7;" horiz-adv-x="791" 
d="M270 294q0 23 19.5 39t45.5 16t45.5 -16t19.5 -39q0 -22 -19.5 -39t-45.5 -17t-45.5 17t-19.5 39zM36 242q0 -75 36.5 -131.5t100 -87.5t143.5 -31q85 0 143 26t88 71.5t30 104.5q0 63 -31 105.5t-81.5 64t-113.5 21.5q-50 0 -85.5 -26t-35.5 -68q0 -26 15 -46
t39.5 -31.5t51.5 -11.5q26 0 49.5 10.5t38.5 30t15 47.5q0 14 -5 28.5t-17 26.5q44 -8 73 -36.5t29 -70.5q0 -46 -29 -76t-75 -45t-99 -15q-63 0 -112 24t-76.5 63.5t-27.5 85.5q0 45 20.5 79.5t56 59t81 37t95.5 12.5q73 0 139 -24.5t117.5 -79t82 -145t32.5 -221.5h35
q-1 136 -33.5 232.5t-89 157.5t-129 90t-154.5 29q-66 0 -123.5 -18t-101 -52t-68 -82t-24.5 -108z" />
    <glyph glyph-name="sinTwolith" unicode="&#xde8;" horiz-adv-x="1136" 
d="M1066 189q0 -81 -37 -129.5t-100 -48.5q-22 0 -37 4t-25 10v-33q11 -7 28.5 -11t34.5 -4q61 0 100.5 33t58.5 86t19 114q0 32 -4.5 70.5t-16.5 75t-34.5 67t-59 48.5t-89.5 18q-42 0 -79.5 -18t-65 -52.5t-39 -86t-3.5 -117.5l8 -58l28 -72q-2 26 -4 50t-2 45
q0 63 14 109t48.5 70.5t94.5 24.5q52 0 88 -25.5t55 -69.5t19 -100zM270 294q0 23 19.5 39t45.5 16t45.5 -16t19.5 -39q0 -22 -19.5 -39t-45.5 -17t-45.5 17t-19.5 39zM36 242q0 -75 36.5 -131.5t100 -87.5t143.5 -31q85 0 143 26t88 71.5t30 104.5q0 63 -31 105.5t-81.5 64
t-113.5 21.5q-50 0 -85.5 -26t-35.5 -68q0 -26 15 -46t39.5 -31.5t51.5 -11.5q26 0 49.5 10.5t38.5 30t15 47.5q0 14 -5 28.5t-17 26.5q44 -8 73 -36.5t29 -70.5q0 -46 -29 -76t-75 -45t-99 -15q-63 0 -112 24t-76.5 63.5t-27.5 85.5q0 45 20.5 79.5t56 59t81 37t95.5 12.5
q73 0 139 -24.5t117.5 -79t82 -145t32.5 -221.5h35q-1 136 -33.5 232.5t-89 157.5t-129 90t-154.5 29q-66 0 -123.5 -18t-101 -52t-68 -82t-24.5 -108z" />
    <glyph glyph-name="sinThreelith" unicode="&#xde9;" horiz-adv-x="1523" 
d="M1165 120q0 -61 36 -96t95 -35q80 0 121 63t41 176t-41 176t-121 63q-35 0 -65 -16t-48 -45t-18 -70v-13.5t1 -13.5h32q-1 5 -1 9.5v8.5q0 28 10 46.5t26 28t32 9.5q27 0 46.5 -18.5t29 -59t9.5 -105.5t-9.5 -105.5t-29 -58.5t-46.5 -19q-20 0 -35.5 9t-24 28t-8.5 47
v9.5t1 8.5h-32q-1 -7 -1 -13.5v-13.5zM270 294q0 23 19.5 39t45.5 16t45.5 -16t19.5 -39q0 -22 -19.5 -39t-45.5 -17t-45.5 17t-19.5 39zM36 242q0 -75 36.5 -131.5t100 -87.5t143.5 -31q85 0 143 26t88 71.5t30 104.5q0 63 -31 105.5t-81.5 64t-113.5 21.5q-50 0 -85.5 -26
t-35.5 -68q0 -26 15 -46t39.5 -31.5t51.5 -11.5q26 0 49.5 10.5t38.5 30t15 47.5q0 14 -5 28.5t-17 26.5q44 -8 73 -36.5t29 -70.5q0 -46 -29 -76t-75 -45t-99 -15q-63 0 -112 24t-76.5 63.5t-27.5 85.5q0 45 20.5 79.5t56 59t81 37t95.5 12.5q73 0 139 -24.5t117.5 -79
t82 -145t32.5 -221.5h35q-1 136 -33.5 232.5t-89 157.5t-129 90t-154.5 29q-66 0 -123.5 -18t-101 -52t-68 -82t-24.5 -108zM1066 189q0 -81 -37 -129.5t-100 -48.5q-22 0 -37 4t-25 10v-33q11 -7 28.5 -11t34.5 -4q61 0 100.5 33t58.5 86t19 114q0 32 -4.5 70.5t-16.5 75
t-34.5 67t-59 48.5t-89.5 18q-42 0 -79.5 -18t-65 -52.5t-39 -86t-3.5 -117.5l8 -58l28 -72q-2 26 -4 50t-2 45q0 63 14 109t48.5 70.5t94.5 24.5q52 0 88 -25.5t55 -69.5t19 -100z" />
    <glyph glyph-name="sinFourlith" unicode="&#xdea;" horiz-adv-x="691" 
d="M27 194q0 -56 25.5 -94.5t69.5 -62t100.5 -34t117.5 -10.5q56 0 109 10.5t95.5 34t67.5 61.5t25 92q0 51 -20 84t-53.5 52t-73.5 26.5t-81 7.5q-11 0 -19.5 -1t-16.5 -2q-3 17 -3 29q0 35 23 60.5t85 25.5q39 0 64 -15.5t25 -44.5q0 -23 -16.5 -37.5t-42.5 -14.5
q-28 0 -42.5 20.5t-14.5 50.5q0 41 12.5 72.5t29.5 54t31 35.5q24 22 47.5 35t44 23t32.5 19t12 22q0 10 -7.5 19.5t-25.5 9.5t-45 -12t-57 -40q-26 -23 -51 -59t-41 -81t-16 -97q0 -24 9 -48t28.5 -40t51.5 -16q38 0 59 13t29.5 32t8.5 36q0 35 -20 56t-47.5 30.5
t-52.5 9.5q-40 0 -74 -11.5t-54.5 -38t-20.5 -72.5q0 -26 9 -55q13 1 29.5 3t35.5 2q68 0 106.5 -16.5t54 -41.5t15.5 -49q0 -35 -21 -58.5t-57 -38t-81 -20t-92 -5.5q-46 0 -90.5 5.5t-81 19.5t-58.5 37t-22 58q0 18 8.5 36.5t28 35t54.5 26.5t87 10q8 0 18.5 -0.5
t20.5 -1.5q3 12 4 24t1 22q0 59 -37 92.5t-96 33.5q-28 0 -54.5 -8.5t-44 -27t-17.5 -48.5q0 -22 13 -34.5t31 -12.5q23 0 34.5 12t21.5 33q6 14 20 25t33 11q22 0 35 -10.5t19 -26.5t6 -32q0 -7 -0.5 -12t-1.5 -11q-7 1 -10.5 1h-20.5q-66 0 -112 -22.5t-70.5 -60.5
t-24.5 -85z" />
    <glyph glyph-name="sinFivelith" unicode="&#xdeb;" horiz-adv-x="536" 
d="M282 -21q24 0 47 2t52 10q-42 -51 -65 -93.5t-23 -82.5q0 -34 14 -61.5t42.5 -43.5t73.5 -17q17 0 33.5 2t31.5 5v34q-37 10 -61.5 27t-36 42.5t-11.5 58.5t11 63.5t28 57.5t35.5 48.5t31.5 37.5l-27 21q-35 -40 -66.5 -55.5t-67.5 -15.5q-42 0 -78.5 21t-59 58.5
t-22.5 86.5q0 74 39.5 108t118.5 34h131q-16 84 -56.5 124.5t-116.5 40.5q-49 0 -81 -20t-32 -52q0 -19 12.5 -31.5t34.5 -12.5q15 0 28 8t22 27q8 16 21 26t30 10q36 0 60.5 -25.5t33.5 -66.5h-140q-106 0 -167 -40.5t-61 -134.5q0 -89 62.5 -145t178.5 -56z" />
    <glyph glyph-name="sinSixlith" unicode="&#xdec;" horiz-adv-x="828" 
d="M403 369q35 0 79 -5t88 -17t81.5 -34.5t60 -58.5t22.5 -88q0 -49 -15.5 -81.5t-40.5 -52t-52.5 -28.5t-51.5 -10v-24q34 0 70 11t66.5 36t49.5 65.5t19 100.5q0 73 -26.5 124.5t-69 85.5t-93 53t-100 26.5t-87.5 7.5q-39 0 -86.5 -9t-95.5 -29t-88.5 -54.5t-65 -86
t-24.5 -122.5q0 -57 18.5 -97t47.5 -64.5t63 -36t65 -11.5q68 0 104.5 35.5t36.5 94.5v14t-2 13h-32q1 -4 1 -8.5v-9.5q0 -50 -27 -78.5t-81 -28.5q-21 0 -46 7.5t-48 25.5t-38 48t-15 75q0 49 20 85t53 60.5t74.5 39t84 20.5t81.5 6zM574 -30q29 0 53.5 14.5t39 38.5
t14.5 53t-14.5 53.5t-39 39t-53.5 14.5t-53 -14.5t-38.5 -39t-14.5 -53.5q0 -43 31.5 -74.5t74.5 -31.5zM574 148q29 0 49.5 -21t20.5 -50t-20.5 -49.5t-49.5 -20.5q-30 0 -50 20.5t-20 49.5t20 50t50 21z" />
    <glyph glyph-name="sinSevenlith" unicode="&#xded;" horiz-adv-x="721" 
d="M284 486q-56 0 -92 -20t-36 -60q0 -17 13 -31t35 -14t34 11t19 22q12 20 29 30t39 10q29 0 51 -15t35 -39.5t14 -54.5h-113q-84 0 -146 -31t-95.5 -86t-33.5 -126q0 -67 28 -121.5t77.5 -93.5t112 -60.5t132.5 -21.5q67 0 123.5 20t98.5 56.5t65 86t23 108.5h-35
q0 -47 -18.5 -87t-51 -69.5t-75.5 -46t-92 -16.5q-76 0 -135.5 33t-94.5 91.5t-35 135.5q0 92 53 145t163 53h88v4v3q0 56 -22 97t-62.5 64t-95.5 23z" />
    <glyph glyph-name="sinEightlith" unicode="&#xdee;" horiz-adv-x="628" 
d="M46 189q0 -73 33.5 -129.5t92 -89t131.5 -32.5q81 0 143.5 36.5t98 97t35.5 132.5q0 50 -15 90.5t-47 75.5q-35 39 -79 59t-85 22q26 7 59 19.5t65 27.5t54 26q55 30 77.5 56t22.5 50q0 14 -10.5 20.5t-23.5 6.5q-17 0 -29 -9t-24.5 -24.5t-28 -34t-39.5 -35.5
q-46 -34 -92 -55.5t-89 -36.5t-81 -31q-46 -19 -84.5 -51t-61.5 -79t-23 -112zM93 225q0 44 20 80.5t53.5 62.5t73.5 40.5t80 14.5q55 0 97 -20t66.5 -58t24.5 -92q0 -61 -29 -106.5t-78.5 -70.5t-112.5 -25t-106.5 23.5t-66 63t-22.5 87.5z" />
    <glyph glyph-name="sinNinelith" unicode="&#xdef;" horiz-adv-x="1172" 
d="M711 672q0 33 23 54.5t55 21.5t55 -22t23 -54q0 -28 -22.5 -50.5t-55.5 -22.5q-34 0 -56 22.5t-22 50.5zM301 664q0 -44 34 -81t98 -52l7 12q-60 20 -83 50t-23 53q0 48 38 77t98.5 42.5t128.5 13.5q34 0 66.5 -3.5t56 -8.5t30.5 -9l19 20q-31 0 -52 -16.5t-32 -41
t-11 -49.5q0 -30 15.5 -54t41.5 -38t56 -14q48 0 81.5 31.5t33.5 78.5q0 46 -28 81t-73.5 59t-99.5 36t-106 12q-79 0 -135.5 -19t-92 -49t-52 -64.5t-16.5 -66.5zM270 294q0 23 19.5 39t45.5 16t45.5 -16t19.5 -39q0 -22 -19.5 -39t-45.5 -17t-45.5 17t-19.5 39zM36 242
q0 -75 36.5 -131.5t100 -87.5t143.5 -31q85 0 143 26t88 71.5t30 104.5q0 63 -31 105.5t-81.5 64t-113.5 21.5q-50 0 -85.5 -26t-35.5 -68q0 -26 15 -46t39.5 -31.5t51.5 -11.5q26 0 49.5 10.5t38.5 30t15 47.5q0 14 -5 28.5t-17 26.5q44 -8 73 -36.5t29 -70.5
q0 -46 -29 -76t-75 -45t-99 -15q-63 0 -112 24t-76.5 63.5t-27.5 85.5q0 45 20.5 79.5t56 59t81 37t95.5 12.5q73 0 139 -24.5t117.5 -79t82 -145t32.5 -221.5h35q-1 136 -33.5 232.5t-89 157.5t-129 90t-154.5 29q-66 0 -123.5 -18t-101 -52t-68 -82t-24.5 -108zM1066 189
q0 -81 -37 -129.5t-100 -48.5q-22 0 -37 4t-25 10v-33q11 -7 28.5 -11t34.5 -4q61 0 100.5 33t58.5 86t19 114q0 32 -4.5 70.5t-16.5 75t-34.5 67t-59 48.5t-89.5 18q-42 0 -79.5 -18t-65 -52.5t-39 -86t-3.5 -117.5l8 -58l28 -72q-2 26 -4 50t-2 45q0 63 14 109t48.5 70.5
t94.5 24.5q52 0 88 -25.5t55 -69.5t19 -100z" />
    <glyph glyph-name="sinMatraRr" unicode="&#xdf2;" horiz-adv-x="682" 
d="M354 497v-61h187q15 0 19 -4.5t4 -20.5v-88h-167q-17 0 -30 -10t-13 -33v-238q0 -42 37 -42h128q18 0 31 10.5t20 28.5l11 -39h57v450q0 47 -49 47h-235zM564 263v-126q0 -36 -12 -55t-38 -19h-70q-10 0 -13.5 4t-3.5 14v163q0 12 3.5 15.5t12.5 3.5h121zM22 497v-61h187
q15 0 19 -4.5t4 -20.5v-88h-167q-17 0 -30 -10t-13 -33v-238q0 -42 37 -42h128q18 0 31 10.5t20 28.5l11 -39h57v450q0 47 -49 47h-235zM232 263v-126q0 -36 -12 -55t-38 -19h-70q-10 0 -13.5 4t-3.5 14v163q0 12 3.5 15.5t12.5 3.5h121z" />
    <glyph glyph-name="sinMatraLl" unicode="&#xdf3;" horiz-adv-x="361" 
d="M19 497h52v-163q0 -13 3 -17t12 -4h28q9 0 13 4.5t4 16.5v120q0 22 8 32.5t25 10.5h116q19 0 30.5 -12t11.5 -29v-410q0 -22 -13.5 -34t-34.5 -12h-213q-18 0 -29 12t-11 35v111h77v-73q0 -13 4.5 -17.5t16.5 -4.5h115q18 0 18 23v331q0 19 -15 19h-36q-8 0 -11.5 -4.5
t-3.5 -16.5v-128q0 -20 -13 -27.5t-33 -7.5h-88q-33 0 -33 33v212z" />
    <glyph glyph-name="sinkundaliya" unicode="&#xdf4;" horiz-adv-x="1838" 
d="M143 200l-82 -51q-9 -6 -8.5 -16t3.5 -17l55 -99q10 -17 28 -20.5t37 7.5l157 90q10 6 21 9t21 -5l45 -33l62 85l35 -48l100 122l48 -92l113 133l48 -121l116 128l35 -147l122 106l23 -132l120 88l8 -128l117 77l4 -85l83 39q16 8 29.5 5t23.5 -9l149 -84
q22 -10 42.5 -6.5t30.5 19.5l54 99q5 7 4.5 17t-8.5 15l-82 51l-35 -60l39 -25l-24 -45q-3 -8 -13 -5t-16 6l-137 81q-12 6 -25.5 7t-27.5 -6l-17 -7l-9 70q2 10 -4 13.5t-15 -0.5l-85 -65l-17 110q1 9 -5.5 14.5t-16.5 -0.5l-105 -81l-18 125q0 12 -7 15.5t-17 -3.5
l-112 -99l-35 143q-1 9 -8.5 10t-13.5 -5l-111 -133l-45 108q-2 9 -9.5 10.5t-13.5 -4.5l-100 -125l-41 71q-3 8 -10 10t-13 -5l-96 -123l-35 49q-4 7 -9 7t-10 -5l-76 -111l-18 15q-22 17 -56 -2l-141 -82q-7 -4 -14.5 -5.5t-11.5 6.5l-24 42l39 24z" />
    <glyph glyph-name="zwnj" unicode="&#x200c;" horiz-adv-x="0" 
d="M-26 2h53v766h-53v-766z" />
    <glyph glyph-name="uni200D" unicode="&#x200d;" horiz-adv-x="0" 
d="M37 655l124 122l-37 36l-124 -124l-124 124l-37 -36l124 -122l-124 -123l37 -37l98 98v-590h53v590l97 -98l37 37z" />
    <glyph glyph-name="endash" unicode="&#x2013;" horiz-adv-x="422" 
d="M402 317v-65h-382v65h382z" />
    <glyph glyph-name="emdash" unicode="&#x2014;" horiz-adv-x="635" 
d="M636 317v-65h-637v65h637z" />
    <glyph glyph-name="quoteleft" unicode="&#x2018;" horiz-adv-x="166" 
d="M129 592h-35l6 -5q0 13 6.5 36.5t21.5 45.5l-28 22q-25 -25 -38.5 -55t-13.5 -59v-85h81v100z" />
    <glyph glyph-name="quoteright" unicode="&#x2019;" horiz-adv-x="145" 
d="M33 590h36l-6 5q0 -14 -6.5 -37.5t-22.5 -46.5l28 -22q26 26 40 56.5t14 60.5v86h-83v-102z" />
    <glyph glyph-name="quotesinglbase" unicode="&#x201a;" horiz-adv-x="172" 
d="M43 2h36l-6 5q0 -14 -6.5 -37.5t-22.5 -46.5l28 -22q26 26 40 56.5t14 60.5v86h-83v-102z" />
    <glyph glyph-name="quotedblleft" unicode="&#x201c;" horiz-adv-x="291" 
d="M129 592h-35l6 -5q0 13 6.5 36.5t21.5 45.5l-28 22q-25 -25 -38.5 -55t-13.5 -59v-85h81v100zM247 592h-34l5 -5q0 13 6.5 36.5t22.5 45.5l-28 22q-26 -25 -39 -55t-13 -59v-85h80v100z" />
    <glyph glyph-name="quotedblright" unicode="&#x201d;" horiz-adv-x="257" 
d="M140 590h36l-6 5q0 -14 -6.5 -37.5t-22.5 -46.5l28 -22q26 26 40 56.5t14 60.5v86h-83v-102zM40 590h36l-6 5q0 -14 -6.5 -37.5t-22.5 -46.5l28 -22q26 26 40 56.5t14 60.5v86h-83v-102z" />
    <glyph glyph-name="quotedblbase" unicode="&#x201e;" horiz-adv-x="288" 
d="M163 7h33l-5 5q0 -14 -6.5 -36.5t-21.5 -44.5l27 -21q25 25 38 54t13 57v83h-78v-97zM43 7h34l-5 5q0 -14 -6.5 -36.5t-21.5 -44.5l27 -21q25 25 38 54t13 57v83h-79v-97z" />
    <glyph glyph-name="dagger" unicode="&#x2020;" horiz-adv-x="398" 
d="M216 0h-34l-10 246v115l15 90h25l14 -91v-113zM114 452h-89v52h90l57 -14v-25zM373 452h-89l-58 13v25l58 14h89v-52zM212 505h-25l-14 58v99h52v-99z" />
    <glyph glyph-name="daggerdbl" unicode="&#x2021;" horiz-adv-x="536" 
d="M212 204h-25l-14 65v119l14 65h25l13 -65v-119zM225 -5h-52v98l14 57h25l13 -58v-97zM115 151h-90v52h89l58 -13v-25zM373 151h-89l-58 14v25l58 13h89v-52zM140 462l-83 -8l-32 22l57 30l65 -5l25 -21zM373 454h-89l-58 13v25l58 14h89v-52zM212 507h-25l-14 57v98h52
v-97z" />
    <glyph glyph-name="bullet" unicode="&#x2022;" horiz-adv-x="293" 
d="M78 250v65q0 28 14.5 41t46.5 13h15q32 0 47 -13t15 -41v-65q0 -28 -15 -41.5t-47 -13.5h-15q-32 0 -46.5 13.5t-14.5 41.5z" />
    <glyph glyph-name="ellipsis" unicode="&#x2026;" horiz-adv-x="565" 
d="M324 0h-84v104h84v-104zM504 0h-84v104h84v-104zM144 0h-84v104h84v-104z" />
    <glyph glyph-name="perthousand" unicode="&#x2030;" horiz-adv-x="1041" 
d="M754 74v201q0 40 20 59t66 19h83q46 0 66.5 -19t20.5 -59v-201q0 -39 -20.5 -58t-66.5 -19h-83q-46 0 -66 19t-20 58zM935 295h-106q-9 0 -9 -9v-222q0 -9 9 -9h106q9 0 9 9v222q0 9 -9 9zM31 359v201q0 41 20.5 59.5t66.5 18.5h82q46 0 66.5 -18.5t21.5 -59.5l1 -201
q1 -39 -21 -58t-68 -19h-82q-46 0 -66.5 19t-20.5 58zM212 580h-105q-10 0 -10 -9v-222q0 -9 10 -9h105q10 0 10 9v222q0 9 -10 9zM436 74v201q0 40 20.5 59t65.5 19h83q46 0 66.5 -19t20.5 -59v-201q0 -39 -20.5 -58t-66.5 -19h-83q-45 0 -65.5 19t-20.5 58zM617 295h-106
q-9 0 -9 -9v-222q0 -9 9 -9h106q9 0 9 9v222q0 9 -9 9zM502 642h68l-346 -649h-68z" />
    <glyph glyph-name="guilsinglleft" unicode="&#x2039;" horiz-adv-x="248" 
d="M42 240q-6 8 -6.5 13t6.5 14l109 158h73l-101 -162q-5 -8 0 -16l98 -163h-76z" />
    <glyph glyph-name="guilsinglright" unicode="&#x203a;" horiz-adv-x="249" 
d="M207 269q6 -8 6.5 -13t-6.5 -14l-109 -158h-73l101 162q5 8 0 16l-98 163h76z" />
    <glyph glyph-name="fraction" unicode="&#x2044;" horiz-adv-x="450" 
d="M360 642h67l-345 -649h-68z" />
    <glyph glyph-name="uni2074" unicode="&#x2074;" horiz-adv-x="379" 
d="M285 249h-66v90l4 -4h-205v44l120 208q16 27 28 38.5t45 11.5l74 -1v-251l-4 4h61v-54h-61l4 4v-90zM196 577l-112 -192l-5 4h144l-4 -4v197h-16q-4 0 -7 -5z" />
    <glyph glyph-name="Euro" unicode="&#x20ac;" horiz-adv-x="467" 
d="M436 527h-246q-9 0 -9 -10v-149l-14 16h159v-51h-159l14 13v-89l-14 16h159v-51h-159l14 13v-152q0 -10 9 -10h246v-73h-212q-65 0 -95.5 26.5t-30.5 87.5v121l13 -13h-73v51h73l-13 -13v86l13 -13h-73v51h73l-13 -13v115q0 62 30.5 88t95.5 26h212v-73z" />
    <glyph glyph-name="uni20BA" unicode="&#x20ba;" horiz-adv-x="518" 
d="M349 -5l-239 2v228l10 -10l-83 -31v51l83 30l-10 -10v80l10 -10l-83 -30v51l83 30l-10 -10v234h83v-215l-10 14l153 56v-50l-153 -57l10 10v-84l-10 14l153 56v-50l-153 -57l10 10v-193l-17 16h209q9 0 9 9v178h83v-147q0 -62 -31 -88.5t-97 -26.5z" />
    <glyph glyph-name="uni20BD" unicode="&#x20bd;" horiz-adv-x="527" 
d="M175 0h-82v153l16 -15h-80v58h80l-16 -15v86l16 -16h-80v60h80l-16 -16v305l253 4q67 1 100.5 -30t33.5 -95v-103q0 -64 -31.5 -94.5t-99.5 -30.5h-190l16 17v-87l-16 15h160v-58h-160l16 15v-153zM175 547v-252l-17 16h227q12 0 12 13v194q0 13 -12 13h-224z" />
    <glyph glyph-name="uni2113" unicode="&#x2113;" horiz-adv-x="427" 
d="M398 -7h-171q-65 0 -96.5 26.5t-31.5 88.5v459q0 62 31 88.5t94 26.5h49q63 0 93.5 -26.5t30.5 -88.5v-140q0 -41 -18 -62.5t-54 -46.5l-277 -195l-36 62l288 205q8 5 10.5 8t2.5 10v190q0 10 -9 10h-111q-9 0 -9 -10v-521q0 -10 9 -10h205v-74z" />
    <glyph glyph-name="trademark" unicode="&#x2122;" horiz-adv-x="658" 
d="M571 642q37 0 37 -36v-361h-65v340h29l-113 -216h-37l-107 210h27v-334h-62v397h39q15 0 21.5 -5t13.5 -19l103 -201h-26l117 225h23zM171 245h-66v353l8 -9h-96v53h240v-53h-94l8 9v-353z" />
    <glyph glyph-name="uni2126" unicode="&#x2126;" horiz-adv-x="545" 
d="M220 0h-188v71h122l33 -17q-63 0 -95.5 26.5t-32.5 87.5v359q0 62 31.5 88.5t96.5 26.5h169q66 0 97 -26.5t31 -88.5v-359q0 -61 -32.5 -87.5t-95.5 -26.5l37 17h120v-71h-189v70l66 19q10 3 10 11v458q0 10 -10 10h-237q-9 0 -9 -10v-458q0 -8 10 -11l66 -19v-70z" />
    <glyph glyph-name="estimated" unicode="&#x212e;" horiz-adv-x="508" 
d="M129 90q21 -33 57.5 -50t70.5 -17q43 0 83.5 20t69.5 56l20 -21q-36 -41 -82.5 -63t-93.5 -22q-57 0 -104 31.5t-74.5 87.5t-27.5 131q0 47 13 92t40 81.5t66.5 58t92.5 21.5q50 0 96 -26.5t75 -80t29 -133.5h-331v-166zM373 420q-22 24 -51.5 36t-61.5 12q-34 0 -70 -15
t-61 -54v-114h244v135z" />
    <glyph glyph-name="partialdiff" unicode="&#x2202;" horiz-adv-x="500" 
d="M291 -3h-111q-68 0 -102 30t-34 94v139q0 65 32.5 92.5t96.5 27.5h85q45 0 66 -19t24 -60h-5q0 9 -9 9h-193q-13 0 -13 -13v-213q0 -13 13 -13h189q13 0 13 13v467q0 13 -13 13h-257v71l215 4q68 1 103.5 -32t35.5 -95v-397q0 -64 -34 -91t-102 -27z" />
    <glyph glyph-name="uni2206" unicode="&#x2206;" horiz-adv-x="514" 
d="M507 0h-500l207 635h88zM265 574l-163 -516l-8 13h321l-5 -12l-160 515h15z" />
    <glyph glyph-name="product" unicode="&#x220f;" horiz-adv-x="559" 
d="M534 635v-71h-77l13 13v-577h-81v577l13 -13h-246l14 13v-577h-82v577l14 -13h-77v71h509z" />
    <glyph glyph-name="summation" unicode="&#x2211;" horiz-adv-x="439" 
d="M22 0v59l179 282l2 -31l-172 266v59h377v-72h-306l12 26l165 -260l-179 -285l-10 28h318v-72h-386z" />
    <glyph glyph-name="minus" unicode="&#x2212;" horiz-adv-x="530" 
d="M476 328v-61h-421v61h421z" />
    <glyph glyph-name="uni2215" unicode="&#x2215;" horiz-adv-x="450" 
d="M360 642h67l-345 -649h-68z" />
    <glyph glyph-name="uni2219" unicode="&#x2219;" horiz-adv-x="293" 
d="M78 250v65q0 28 14.5 41t46.5 13h15q32 0 47 -13t15 -41v-65q0 -28 -15 -41.5t-47 -13.5h-15q-32 0 -46.5 13.5t-14.5 41.5z" />
    <glyph glyph-name="radical" unicode="&#x221a;" horiz-adv-x="574" 
d="M326 -40h-77l-163 467l14 -8h-78v71h124l157 -464h-27l202 656h70z" />
    <glyph glyph-name="infinity" unicode="&#x221e;" horiz-adv-x="763" 
d="M604 116h-94q-32 0 -50 7t-30 22.5t-29 39.5l-113 175q-3 6 -6 9t-10 3h-143q-12 0 -12 -12v-167q0 -12 12 -12h136q13 0 17.5 3t10.5 13l116 175q16 23 28 37t29.5 21t45.5 7h92q57 0 86.5 -25.5t29.5 -87.5v-95q0 -59 -29.5 -86t-86.5 -27zM250 116h-91q-41 0 -67 12
t-37.5 37t-11.5 64v95q0 42 11.5 66.5t37.5 35.5t67 11h96q30 0 47 -6.5t30.5 -21t30.5 -40.5l111 -171q7 -11 12.5 -14t19.5 -3h128q12 0 12 12v167q0 12 -12 12h-144q-8 0 -11.5 -3.5t-8.5 -9.5l-114 -171l-28 -38.5t-29.5 -25t-48.5 -8.5z" />
    <glyph glyph-name="integral" unicode="&#x222b;" horiz-adv-x="337" 
d="M123 570q0 62 28.5 87t89.5 25h73v-74h-100q-10 0 -10 -10v-683q0 -61 -28.5 -86.5t-89.5 -25.5h-73v74h100q10 0 10 10v683z" />
    <glyph glyph-name="approxequal" unicode="&#x2248;" horiz-adv-x="420" 
d="M100 292h-59q2 57 20 81.5t56 24.5q28 0 60 -13t61 -25.5t48 -12.5t27 13t8 38h58q0 -61 -18 -88.5t-61 -27.5q-27 0 -58.5 12.5t-60 25t-47.5 12.5q-15 0 -23.5 -9.5t-10.5 -30.5zM100 136h-59q0 63 18 89.5t58 26.5q28 0 60 -12.5t61 -25t48 -12.5q18 0 26 10.5t9 30.5
h58q-1 -55 -19.5 -80.5t-59.5 -25.5q-27 0 -58.5 12.5t-60 25t-47.5 12.5q-17 0 -25.5 -12.5t-8.5 -38.5z" />
    <glyph glyph-name="notequal" unicode="&#x2260;" horiz-adv-x="504" 
d="M309 518h68l-205 -518h-70zM443 388v-61h-388v61h388zM443 210v-61h-388v61h388z" />
    <glyph glyph-name="lessequal" unicode="&#x2264;" horiz-adv-x="465" 
d="M53 283v50l359 170v-69l-318 -144v37l318 -143v-70zM412 91v-61h-354v61h354z" />
    <glyph glyph-name="greaterequal" unicode="&#x2265;" horiz-adv-x="465" 
d="M412 334v-50l-359 -170v69l318 144v-37l-318 143v70zM403 91v-61h-350v61h350z" />
    <glyph glyph-name="lozenge" unicode="&#x25ca;" horiz-adv-x="495" 
d="M268 -3h-50l-198 319l203 322h48l204 -319zM139 259l105 -186l39 66l115 176l-42 63l-109 182l-40 -68l-110 -172z" />
    <glyph glyph-name="uni25CC" unicode="&#x25cc;" horiz-adv-x="558" 
d="M103 96q0 -12 6.5 -18.5t19.5 -6.5q24 0 25 25q1 12 -5.5 18.5t-19.5 6.5q-24 0 -26 -25zM61 164q-1 -13 5.5 -19.5t18.5 -6.5t18.5 6.5t6.5 19.5q1 12 -5.5 18.5t-18.5 6.5q-11 0 -17.5 -6.5t-7.5 -18.5zM169 53q-1 -12 5.5 -18.5t18.5 -6.5q24 0 26 25q0 12 -6.5 18.5
t-18.5 6.5q-24 0 -25 -25zM245 37q-1 -12 5.5 -18.5t18.5 -6.5q11 0 17.5 6.5t7.5 18.5t-5.5 18.5t-18.5 6.5t-18.5 -6.5t-6.5 -18.5zM47 240q-1 -12 5.5 -18.5t19.5 -6.5q24 0 25 25q1 12 -5.5 18.5t-19.5 6.5q-25 0 -25 -25zM62 318q-1 -13 6 -20t20 -7q11 0 17 7t7 19
q1 13 -5.5 19.5t-18.5 6.5t-18.5 -6.5t-7.5 -18.5zM324 53q-1 -12 5.5 -18.5t18.5 -6.5q24 0 26 25q0 12 -6.5 18.5t-18.5 6.5q-24 0 -25 -25zM109 384q-1 -12 5.5 -18.5t18.5 -6.5q25 0 26 25q1 11 -5 17.5t-19 6.5q-24 0 -26 -24zM391 96q-1 -12 5 -18.5t19 -6.5
q23 0 25 25q1 12 -5.5 18.5t-18.5 6.5q-24 0 -25 -25zM175 428q0 -13 6.5 -19.5t18.5 -6.5t18.5 6.5t6.5 19.5q1 12 -5.5 18.5t-18.5 6.5t-18.5 -6.5t-7.5 -18.5zM435 164q-1 -13 5.5 -19.5t18.5 -6.5q25 0 27 26q1 12 -5.5 18.5t-19.5 6.5q-25 0 -26 -25zM253 443
q0 -13 6 -19.5t18 -6.5t18.5 6.5t6.5 19.5q1 12 -5.5 18.5t-18.5 6.5q-11 0 -17.5 -6.5t-7.5 -18.5zM452 240q-1 -12 5.5 -18.5t19.5 -6.5q24 0 25 25q1 12 -5.5 18.5t-19.5 6.5q-25 0 -25 -25zM330 428q0 -13 6.5 -19.5t18.5 -6.5t18.5 6.5t6.5 19.5q1 12 -5.5 18.5
t-18.5 6.5t-18.5 -6.5t-7.5 -18.5zM438 317q-1 -13 5.5 -19.5t19.5 -6.5q25 0 26 26q0 12 -6.5 18.5t-18.5 6.5q-25 0 -26 -25zM395 384q-1 -12 5.5 -18.5t19.5 -6.5q25 0 26 25q0 11 -6.5 17.5t-18.5 6.5q-25 0 -26 -24z" />
    <glyph glyph-name="u111E1" unicode="&#x111e1;" horiz-adv-x="856" 
d="M724 478v-485h34v485h-34zM269 294q0 23 19.5 39t45.5 16t45.5 -16t19.5 -39q0 -22 -19.5 -39t-45.5 -17t-45.5 17t-19.5 39zM35 242q0 -75 36.5 -131.5t100 -87.5t143.5 -31q85 0 143 26t88 71.5t30 104.5q0 63 -30.5 105.5t-81.5 64t-113 21.5q-51 0 -86.5 -26
t-35.5 -68q0 -26 15.5 -46t39.5 -31.5t51 -11.5q26 0 50 10.5t39 30t15 47.5q0 14 -5.5 28.5t-17.5 26.5q44 -8 73.5 -36.5t29.5 -70.5q0 -46 -29 -76t-75.5 -45t-99.5 -15q-63 0 -111.5 24t-76.5 63.5t-28 85.5q0 45 20.5 79.5t56 59t81 37t95.5 12.5q73 0 139 -24.5
t117.5 -79t82 -145t32.5 -221.5h35q-1 136 -33.5 232.5t-88.5 157.5t-129 90t-155 29q-65 0 -122.5 -18t-101 -52t-68.5 -82t-25 -108z" />
    <glyph glyph-name="u111E2" unicode="&#x111e2;" horiz-adv-x="1129" 
d="M351 322q27 0 46.5 -16.5t19.5 -39.5q0 -22 -19.5 -38.5t-46.5 -16.5q-26 0 -45.5 16.5t-19.5 38.5q0 23 19.5 39.5t45.5 16.5zM53 215q0 -74 35.5 -130.5t99 -88.5t145.5 -32q80 0 138.5 25t90.5 70t32 107q0 58 -28.5 101t-79 67t-118.5 24q-53 0 -87 -26.5t-34 -67.5
q0 -37 31.5 -63.5t74.5 -26.5t73 25.5t30 62.5q0 16 -5.5 30t-16.5 26q46 -9 74 -38.5t28 -69.5t-25.5 -70.5t-71.5 -47.5t-106 -17q-61 0 -110 23t-78 62t-29 88q0 55 33 97t90 66t130 24q83 0 141 -26t101 -84t80 -156q37 -94 69 -153.5t63 -92t64 -44.5t71 -12
q62 0 106 41.5t66 110.5l-35 17q-23 -38 -58.5 -61t-79.5 -23q-50 0 -90 23.5t-73.5 74t-67.5 133.5q-41 104 -90 168t-113.5 94t-153.5 30q-92 0 -163.5 -33.5t-112 -92t-40.5 -134.5z" />
    <glyph glyph-name="u111E3" unicode="&#x111e3;" horiz-adv-x="1356" 
d="M727 187l14 -173l16 -21v153q0 33 7.5 57t23 36.5t37.5 12.5q35 0 54 -25.5t37 -70.5q31 -79 57.5 -130t53.5 -79.5t58 -40t69 -11.5q61 0 105.5 41t66.5 110l-35 18q-23 -39 -58.5 -61.5t-79.5 -22.5q-51 0 -88.5 23t-69.5 74t-65 133q-14 36 -30 61t-36 38t-47 13
q-46 0 -70.5 -37t-19.5 -98zM268 294q0 23 19.5 39t45.5 16t45.5 -16t19.5 -39q0 -22 -19.5 -39t-45.5 -17t-45.5 17t-19.5 39zM34 242q0 -75 36.5 -131.5t100 -87.5t143.5 -31q85 0 143 26t88 71.5t30 104.5q0 63 -31 105.5t-81.5 64t-113.5 21.5q-50 0 -85.5 -26
t-35.5 -68q0 -26 15 -46t39.5 -31.5t51.5 -11.5q26 0 49.5 10.5t38.5 30t15 47.5q0 14 -5 28.5t-17 26.5q44 -8 73 -36.5t29 -70.5q0 -46 -29 -76t-75 -45t-99 -15q-63 0 -112 24t-76.5 63.5t-27.5 85.5q0 45 20.5 79.5t56 59t81 37t95.5 12.5q73 0 139 -24.5t117.5 -79
t82 -145t32.5 -221.5h35q-1 136 -33.5 232.5t-89 157.5t-129 90t-154.5 29q-66 0 -123.5 -18t-101 -52t-68 -82t-24.5 -108z" />
    <glyph glyph-name="u111E4" unicode="&#x111e4;" horiz-adv-x="947" 
d="M205 485q-49 0 -86 -31t-58 -86.5t-21 -130.5q0 -79 24 -138t66.5 -91.5t98.5 -32.5q25 0 45 8v31q-10 -4 -19.5 -5.5t-19.5 -1.5q-45 0 -78.5 24.5t-52 71t-18.5 107.5q0 76 33 120t89 44q54 0 83 -38.5t29 -107.5v-62h38v62q0 72 28 109t80 37q53 0 80.5 -37t27.5 -109
v-62h38v62q0 69 28.5 107.5t80.5 38.5q61 0 89.5 -46.5t28.5 -146.5v-382h-61q-44 0 -73 23.5t-29 59.5q0 37 18.5 63.5t58.5 45.5q6 3 9 5t10.5 5t28 11.5t61.5 24.5l-12 29q-25 -10 -53 -20.5t-66 -27.5q-69 -30 -101.5 -66.5t-32.5 -84.5q0 -56 47 -88.5t126 -32.5h110
v497q0 121 -39 181.5t-117 60.5q-63 0 -100 -42.5t-37 -114.5h16q0 75 -36 116t-101 41q-64 0 -100.5 -41t-36.5 -116h16q0 74 -37.5 115.5t-102.5 41.5z" />
    <glyph glyph-name="u111E5" unicode="&#x111e5;" horiz-adv-x="1302" 
d="M847 323q-28 0 -55.5 -15.5t-45.5 -45t-16 -70.5l9 -178l19 -21v113q0 47 14.5 73.5t35.5 37t39 10.5q23 0 45.5 -10.5t37.5 -37t15 -73.5v-113h34v201q0 31 -16 60.5t-45.5 49t-70.5 19.5zM967 65l12 -36v41q0 45 17.5 70t48.5 25q36 0 53.5 -24t33.5 -70
q18 -54 53.5 -73.5t91.5 -3.5v30q-38 -10 -60.5 -5t-36 23.5t-24.5 49.5q-13 41 -24 76.5t-30 57t-59 21.5q-44 0 -67.5 -40t-12.5 -113zM268 294q0 23 19.5 39t45.5 16t45.5 -16t19.5 -39q0 -22 -19.5 -39t-45.5 -17t-45.5 17t-19.5 39zM34 242q0 -75 36.5 -131.5
t100 -87.5t143.5 -31q85 0 143 26t88 71.5t30 104.5q0 63 -31 105.5t-81.5 64t-113.5 21.5q-50 0 -85.5 -26t-35.5 -68q0 -26 15 -46t39.5 -31.5t51.5 -11.5q26 0 49.5 10.5t38.5 30t15 47.5q0 14 -5 28.5t-17 26.5q44 -8 73 -36.5t29 -70.5q0 -46 -29 -76t-75 -45t-99 -15
q-63 0 -112 24t-76.5 63.5t-27.5 85.5q0 45 20.5 79.5t56 59t81 37t95.5 12.5q73 0 139 -24.5t117.5 -79t82 -145t32.5 -221.5h35q-1 136 -33.5 232.5t-89 157.5t-129 90t-154.5 29q-66 0 -123.5 -18t-101 -52t-68 -82t-24.5 -108z" />
    <glyph glyph-name="u111E6" unicode="&#x111e6;" horiz-adv-x="834" 
d="M446 270v30h-86q-90 0 -143 -44.5t-53 -119.5q0 -53 23 -90t62.5 -60.5t89 -34t102.5 -10.5q109 0 182.5 41.5t111.5 115t38 167.5q0 75 -23.5 140t-66.5 113.5t-102 76t-130 27.5q-87 0 -150.5 -32t-107.5 -94h39q40 49 95 73t124 24q60 0 109.5 -22.5t86 -63t56.5 -93
t20 -112.5q0 -114 -71.5 -181.5t-206.5 -67.5q-38 0 -77.5 5t-73 17.5t-54.5 35t-21 57.5q0 32 19 55t53 35t77 12h78zM176 -59v37q-92 79 -92 221q0 60 20.5 110.5t65.5 82t119 31.5q26 0 52 -0.5t52 -1.5v27q-23 1 -47 2t-47 1q-124 0 -187.5 -66t-63.5 -183
q0 -90 35 -161t93 -100zM233 361q0 -38 30.5 -64.5t96.5 -25.5l45 14v15h-35q-43 0 -72 13.5t-29 47.5q0 23 18.5 42.5t71.5 19.5v26q-48 0 -75.5 -13.5t-39 -33.5t-11.5 -41z" />
    <glyph glyph-name="u111E7" unicode="&#x111e7;" horiz-adv-x="840" 
d="M571 112v-335h-29q-44 0 -70.5 12t-39.5 29.5t-17 35t-4 28.5q0 21 9.5 45t32 41.5t61.5 17.5q17 0 32.5 -0.5t31.5 -5.5l21 -7q39 -12 69.5 -32.5t69.5 -61.5h23v609h-38v-573l26 -9q-28 29 -64 55.5t-86 42.5l-16 7q-33 6 -69 6q-59 0 -99.5 -20t-61.5 -51.5t-21 -67.5
q0 -31 19 -61.5t60 -50.5t108 -20h93v412q0 67 -15 126t-49 104.5t-88.5 71t-134.5 25.5q-79 0 -133.5 -26t-87 -68t-47 -90t-14.5 -91q0 -44 11 -86t32.5 -76t55 -54t78.5 -20q22 0 45 9v30q-19 -7 -39 -7q-41 0 -73.5 22.5t-50.5 61.5t-18 88q0 37 13 72t41 63t74.5 45
t112.5 17q90 0 144.5 -31.5t78.5 -90.5t23 -141z" />
    <glyph glyph-name="u111E8" unicode="&#x111e8;" horiz-adv-x="937" 
d="M212 485q-74 0 -119.5 -59.5t-45.5 -174.5q0 -69 24 -120.5t66.5 -79.5t98.5 -28q12 0 23 2t22 7v31q-20 -7 -39 -7q-68 0 -108.5 44.5t-40.5 123.5t33 114.5t89 35.5q54 0 83 -38.5t29 -107.5v-62h38v62q0 72 28 109t80 37q53 0 80.5 -37t27.5 -109v-62h38v62
q0 69 28.5 107.5t80.5 38.5q45 0 70.5 -25.5t36.5 -68t11 -93.5q0 -96 -30 -165t-78 -114t-103.5 -72t-107 -38t-86.5 -12q-56 0 -105 7.5t-79.5 26t-30.5 51.5q0 34 51.5 58.5t151.5 24.5q65 0 127 -18t121 -47.5t112 -67t98 -76.5v41q-39 36 -89.5 72.5t-110 67t-125 49
t-133.5 18.5q-50 0 -100.5 -5.5t-93 -18.5t-68 -37t-25.5 -61q0 -38 25 -62.5t68 -38t96 -19t110 -5.5q48 0 107.5 13.5t119 44.5t109.5 84.5t80 133.5t30 191q0 53 -9 101.5t-27 87t-48 61t-73 22.5q-62 0 -99 -42.5t-37 -114.5h16q0 75 -36 116t-101 41q-64 0 -100.5 -41
t-36.5 -116h16q0 74 -37.5 115.5t-102.5 41.5z" />
    <glyph glyph-name="u111E9" unicode="&#x111e9;" horiz-adv-x="1357" 
d="M369 466q-74 0 -119.5 -60.5t-45.5 -180.5q0 -66 24 -119t66.5 -83.5t98.5 -30.5q25 0 45 8v31q-10 -4 -19 -5.5t-20 -1.5q-45 0 -78.5 22.5t-51.5 62t-18 90.5q0 84 32.5 119.5t88.5 35.5q54 0 83 -38t29 -107v-63h39v63q0 72 27.5 108.5t79.5 36.5q53 0 80.5 -36.5
t27.5 -108.5v-63h39v63q0 69 28.5 107t79.5 38q45 0 71 -25t36.5 -67.5t10.5 -94.5q0 -76 -23.5 -137.5t-74 -106t-130.5 -68.5t-193 -24q-112 0 -203.5 26.5t-157 76t-100.5 121.5t-35 162q0 136 62 231.5t178 146.5t278 51q296 0 457 -192t203 -594h28v609h-37v-464
l20 -118q0 130 -25.5 249.5t-78 220t-132.5 175t-188.5 115.5t-246.5 41q-174 0 -299 -56.5t-192.5 -161.5t-67.5 -253q0 -113 38 -203.5t110 -154.5t172.5 -98t224.5 -34q149 0 250 58t152.5 163.5t51.5 245.5q0 53 -8.5 101.5t-27 87t-48.5 61t-72 22.5q-63 0 -100 -42.5
t-37 -114.5h17q0 74 -36.5 115.5t-101.5 41.5q-64 0 -100.5 -41.5t-36.5 -115.5h16q0 74 -37 115.5t-103 41.5z" />
    <glyph glyph-name="u111EA" unicode="&#x111ea;" horiz-adv-x="1097" 
d="M661 466q-45 0 -84 -23t-69.5 -62.5t-49.5 -90t-23 -106.5l29 -11q6 19 16 26.5t22 7.5q16 0 26.5 -11.5t10.5 -35.5q0 -32 -21 -52.5t-52.5 -30t-64.5 -9.5q-39 0 -74.5 11.5t-58 36t-22.5 62.5q0 50 39.5 79t109.5 29v28h-13q-85 0 -137.5 -48t-52.5 -127
q0 -54 25 -95.5t69.5 -65t103.5 -23.5q89 0 142.5 47.5t53.5 125.5q0 48 -21.5 78.5t-56.5 30.5q-19 0 -33 -8q18 67 61 103t105 36q57 0 100.5 -27t68 -76t24.5 -113v-165h-27q-48 0 -75 25t-27 66q0 43 25 68.5t65 25.5q15 0 26.5 -1t20.5 -3l19 -7q32 -12 55.5 -33.5
t44 -62t44.5 -109.5h25v510h-37v-474l25 -8q-22 64 -43 103.5t-47.5 63t-65.5 40.5l-15 6q-10 2 -28.5 4t-27.5 2q-75 0 -122 -34.5t-47 -90.5q0 -57 47.5 -89.5t131.5 -32.5h67v249q0 77 -26.5 135.5t-73 92t-107.5 33.5zM165 -44v37q-91 79 -91 221q0 60 20 110.5t65 82
t119 31.5h104v27q-23 0 -47 0.5t-47 0.5q-124 0 -187.5 -66t-63.5 -183q0 -90 35 -161t93 -100zM222 376q0 -38 30.5 -64.5t96.5 -25.5l45 13v16h-35q-43 0 -71.5 13.5t-28.5 47.5q0 23 18 42.5t71 19.5v26q-48 0 -75.5 -13.5t-39 -33.5t-11.5 -41z" />
    <glyph glyph-name="u111EB" unicode="&#x111eb;" horiz-adv-x="1004" 
d="M305 271h196v30h-364v-38q14 3 60 5.5t108 2.5zM192 118q0 -46 21 -88t61.5 -68.5t96.5 -26.5q59 0 96.5 26t56.5 72q17 -45 55 -70.5t95 -25.5q88 0 143.5 50.5t55.5 145.5q0 91 -57.5 134t-158.5 43q-20 0 -42 -2t-33 -5q5 50 31.5 74t72.5 24h54v32q-38 -1 -69 12.5
t-49.5 38t-18.5 55.5q0 39 28 68.5t80 29.5q41 0 74 -18t57 -46t41.5 -60.5t29 -62t17.5 -49.5h30v268h-37v-198l15 -17q-6 18 -18.5 45t-31 56.5t-46 55t-65 42t-87.5 16.5q-39 0 -77 -13.5t-63 -42t-25 -73.5q0 -36 18.5 -59t47 -36.5t58 -19t52.5 -5.5v13
q-65 0 -108.5 -38t-43.5 -115v-5.5v-5.5q32 7 58 9t55 2q72 0 113.5 -26.5t41.5 -86.5q0 -54 -39 -86t-101 -32q-38 0 -68.5 9t-48.5 28t-18 49v30h-32v-30q0 -27 -16 -46.5t-44 -29.5t-63 -10q-39 0 -70.5 14t-49.5 39t-18 57q0 37 20.5 62t52 37.5t64.5 12.5h115l-36 30
h-16q-31 0 -73.5 -8.5t-73.5 -19.5q-48 -15 -79 -54t-31 -101zM44 198q0 -60 16 -112.5t45 -91t67 -57.5v37q-92 79 -92 220q0 60 21 111t68.5 82t127.5 31h92v29h-95q-123 0 -186.5 -66t-63.5 -183zM254 359q0 -38 32 -60t92 -22l47 12v12h-49q-39 0 -64 15.5t-25 42.5
q0 24 17 41.5t55 17.5h20v22q-125 0 -125 -81z" />
    <glyph glyph-name="u111EC" unicode="&#x111ec;" horiz-adv-x="891" 
d="M284 416q64 0 105.5 -26t59.5 -82q55 -1 75 -22.5t20 -54.5q0 -34 -20.5 -54.5t-52.5 -20.5q-20 0 -39 9t-31 29t-12 52q0 50 -26.5 75t-73.5 25q-51 0 -83.5 -43.5t-32.5 -111.5q0 -78 38.5 -136.5t107 -91t160.5 -32.5q153 0 237 85.5t84 242.5l-60 35q0 -117 -70 -185
t-194 -68q-118 0 -188 48t-70 130q0 42 20.5 68.5t52.5 26.5q35 0 51 -17t16 -56q0 -40 15 -66t40.5 -39t57.5 -13q45 0 75 30t30 78q0 49 -27 76.5t-77 30.5q-22 56 -71.5 84.5t-122.5 28.5q-66 0 -117 -33.5t-79 -94.5t-28 -143q0 -85 35 -149.5t98 -98.5v37
q-44 30 -71.5 88t-27.5 123q0 73 24 126t68 81.5t104 28.5zM427 649q81 0 151.5 -23t119.5 -62.5t65 -90.5h30v255h-37v-221l9 2q-15 45 -49 84.5t-81.5 69.5t-102 47t-110.5 17q-68 0 -120.5 -17t-82 -46.5t-29.5 -68.5q0 -34 20.5 -54t75 -30t157.5 -16q59 -3 99 -7.5
t66.5 -11.5t45.5 -19t38 -30q23 -24 35.5 -59.5t12.5 -76.5l60 -38q0 69 -27 127.5t-75 92.5q-22 16 -55 26.5t-81.5 17t-120.5 9.5q-82 4 -123.5 9t-56.5 16.5t-15 30.5q0 31 48.5 49t132.5 18z" />
    <glyph glyph-name="u111ED" unicode="&#x111ed;" horiz-adv-x="1282" 
d="M177 -44v37q-49 35 -70.5 79t-21.5 102q0 52 15.5 88.5t42 56t57.5 19.5q16 0 29 -3t30 -8l2 34q-15 5 -28.5 8.5t-31.5 3.5q-38 0 -73 -20.5t-57 -64.5t-22 -115q0 -38 12.5 -79t41 -77t74.5 -61zM430 377q0 44 -29 67t-69 23q-18 0 -39 -7.5t-35 -26.5t-14 -53
q0 -10 3 -23.5t12 -29.5l23 13q-4 10 -5.5 17.5t-1.5 16.5q0 32 18 45t42 13q32 0 48 -19t16 -45q0 -17 -8.5 -30t-16.5 -21q-33 -37 -67.5 -91.5t-60.5 -116.5t-34 -124l27 -19q8 40 20 61.5t33 21.5q18 0 30.5 -9.5t25.5 -24t33 -29t53 -24t86 -9.5q64 0 110.5 25.5
t72.5 69.5t26 99q0 61 -27 102.5t-74.5 62.5t-109.5 21q-57 0 -94 -16q32 41 88.5 61.5t116.5 20.5q35 0 72.5 -14t68 -41t44.5 -67h24l1 18q4 42 25 68.5t60 26.5q31 0 49.5 -14.5t27 -39t8.5 -53.5v-296h-28q-40 0 -63.5 14t-33.5 35t-10 42q0 39 24.5 66.5t69.5 27.5
q6 0 20.5 -0.5t27.5 -4.5l20 -6q33 -12 59.5 -35t49.5 -63.5t47 -106.5h25v510h-37v-474l25 -9q-22 63 -45.5 102t-53 63.5t-69.5 41.5l-16 5q-17 5 -36 6t-26 1q-57 0 -94.5 -18t-55.5 -46t-18 -60q0 -58 49 -90t135 -32h68v365q0 40 -11.5 74t-36.5 54.5t-66 20.5
q-32 0 -54.5 -14t-35.5 -36t-19 -46.5t-6 -46.5h21q0 21 -14.5 45.5t-41 46.5t-63.5 36.5t-83 14.5q-51 0 -100 -22t-104 -82q1 6 1 11zM372 263q28 20 66.5 30.5t81.5 10.5q41 0 74 -13.5t53 -39t20 -61.5q0 -44 -24 -70.5t-64 -38.5t-89 -12q-44 0 -74 10t-53 19t-45 9
q-10 0 -20 -1.5t-18 -8.5q18 49 41.5 90.5t50.5 75.5z" />
    <glyph glyph-name="u111EE" unicode="&#x111ee;" horiz-adv-x="887" 
d="M226 19q-10 -19 -16.5 -36t-26.5 -17q-25 0 -45 20.5t-33 52t-20 65.5t-7 60q0 127 42 186.5t118 59.5q44 0 83.5 -25.5t57.5 -57.5l20 23q-12 21 -33.5 42.5t-52.5 36.5t-74 15q-53 0 -98 -26.5t-71.5 -86.5t-26.5 -163q0 -40 9 -81.5t26.5 -77t43.5 -57t61 -21.5
q29 0 42.5 19.5t24.5 46.5zM314 -70q35 0 64.5 24.5t29.5 67.5q0 37 -28 63t-66 26q-37 0 -59.5 -20.5t-26.5 -51.5q-6 13 -10 34.5t-4 38.5q0 59 28.5 98.5t74.5 59.5t100 20q42 0 77.5 -9t56.5 -27t21 -46q0 -26 -11.5 -40t-29.5 -23.5t-35.5 -20t-29.5 -27.5t-12 -49
q0 -52 37 -86t96 -34q61 0 104.5 28.5t71.5 76.5t41 107.5t13 120.5l-59 38q0 -53 -15.5 -102t-44 -88.5t-67.5 -62.5t-87 -23q-22 0 -37 9t-15 29q0 21 13.5 32t34 19.5t41.5 21.5t34.5 37.5t13.5 67.5q0 52 -28.5 87.5t-74 54t-100.5 18.5q-73 0 -129.5 -30.5t-88.5 -86
t-32 -130.5q0 -56 14.5 -107t45 -83t78.5 -32zM314 78q23 0 40.5 -17.5t17.5 -40.5q0 -22 -17.5 -39.5t-40.5 -17.5q-22 0 -39.5 17.5t-17.5 39.5q0 23 17.5 40.5t39.5 17.5zM444 650q81 0 141 -18t100.5 -45.5t63.5 -58t31 -55.5h30v255h-37v-221l10 2q-8 22 -31 58.5
t-64.5 73t-103 61.5t-144.5 25q-43 0 -84.5 -8t-75 -24t-53.5 -41t-20 -59q0 -38 23.5 -57.5t62 -27.5t82.5 -10.5t85 -4.5q60 -3 104.5 -6.5t80 -17t66.5 -44.5q26 -26 36.5 -63t10.5 -73l59 -38q0 75 -27.5 132t-71.5 88q-33 24 -79 34.5t-94 14t-86 4.5q-60 3 -104 6
t-67.5 14t-23.5 36q0 21 17 34t44.5 20.5t58.5 10.5t60 3z" />
    <glyph glyph-name="u111EF" unicode="&#x111ef;" horiz-adv-x="1027" 
d="M551 311q0 -70 -17.5 -110.5t-44 -59.5t-54.5 -24t-48 -5h-89v33h97q31 0 56.5 12t40.5 40t15 78q0 27 -8.5 50t-27.5 37t-50 14q-38 0 -61.5 -33.5t-23.5 -92.5v-13h-38v13q0 59 -23.5 92.5t-71.5 33.5q-34 0 -58 -21t-36 -57.5t-12 -82.5q0 -102 40 -155.5t109 -53.5
q20 0 38 7v-30q-11 -4 -22 -6t-22 -2q-64 0 -106 37t-63 100.5t-21 141.5q0 45 9.5 86t29 74t48 52t65.5 19q59 0 90 -35t31 -103h-12q0 68 31.5 103t84.5 35q41 0 68.5 -23.5t41.5 -63t14 -87.5zM326 143q76 0 146 -23.5t125.5 -64.5t88 -94t32.5 -112q0 -41 -17 -72
t-44 -31q-41 0 -63.5 43.5t-22.5 152.5v51t2.5 86t9.5 105.5t20 108.5t35 96.5t54 69.5t76 26q42 0 71.5 -28.5t49.5 -75t31.5 -101t17 -107.5t7.5 -94.5t2 -60.5l-13 78v389h36v-509h-38q0 48 -5 102t-16 106.5t-30 94.5t-46.5 68t-66.5 26q-23 0 -46.5 -10.5t-45 -36.5
t-38.5 -74.5t-27 -124.5t-10 -185q0 -63 6.5 -97.5t19.5 -48t30 -13.5q11 0 17.5 11t9.5 26.5t3 28.5q0 57 -31.5 105t-83.5 83.5t-115.5 55t-128.5 19.5z" />
    <glyph glyph-name="u111F0" unicode="&#x111f0;" horiz-adv-x="1570" 
d="M415 485q-53 0 -84.5 -35t-31.5 -103h12q0 68 -31 103t-90 35q-37 0 -65 -19t-47.5 -52t-29 -74t-9.5 -86q0 -78 21 -141.5t63 -101t105 -37.5q22 0 44 9v30q-18 -7 -38 -7q-68 0 -108.5 53.5t-40.5 154.5q0 47 12.5 83.5t36 57.5t58.5 21q48 0 71 -34t23 -93v-12h39v12
q0 59 23 93t62 34q31 0 49.5 -14t27 -37t8.5 -50q0 -50 -15 -78t-40.5 -40t-56.5 -12h-97v-33h89q21 0 48.5 5t54 24t44 59.5t17.5 110.5q0 48 -14 87.5t-41.5 63t-68.5 23.5zM604 -58v156q0 62 5.5 118.5t21.5 103t45 78t74 40.5l51 43q-93 -10 -142 -58t-67 -133.5
t-18 -206.5v-141q0 -109 22.5 -152.5t63.5 -43.5q27 0 44 31t17 72q0 59 -34 111.5t-92.5 93.5t-131 64.5t-148.5 23.5l1 -30q65 0 131 -19.5t121 -55t88.5 -83.5t33.5 -105q0 -13 -3 -28.5t-9.5 -26.5t-17.5 -11q-18 0 -30.5 13.5t-19 48t-6.5 97.5zM706 396
q0 -38 29 -64.5t98 -25.5l45 13v16h-36q-43 0 -71.5 13.5t-28.5 47.5q0 23 18 42t72 19v27q-48 0 -75.5 -13.5t-39 -33.5t-11.5 -41zM1145 486q-45 0 -84 -23t-69.5 -62.5t-49.5 -90t-23 -106.5l27 -11q7 19 17 26.5t22 7.5q16 0 26 -11.5t10 -35.5q0 -32 -20.5 -52.5
t-52 -30t-65.5 -9.5q-39 0 -74.5 11.5t-57.5 36t-22 62.5q0 33 17.5 57.5t51.5 37.5t81 13v28h-14q-85 0 -137.5 -48t-52.5 -128q0 -54 25 -95.5t70 -65t104 -23.5q88 0 141.5 47.5t53.5 125.5q0 48 -21.5 79t-56.5 31q-19 0 -33 -8q18 67 60.5 103t105.5 36q57 0 100.5 -27
t68.5 -76t25 -114v-164h-29q-48 0 -74.5 25t-26.5 66q0 43 25 68.5t65 25.5q15 0 26.5 -1t20.5 -4l20 -6q32 -12 55 -34t44 -62.5t45 -108.5h24v510h-37v-474l26 -9q-22 65 -43.5 104t-47.5 62.5t-65 40.5l-16 6q-9 2 -27.5 4t-28.5 2q-75 0 -122 -34t-47 -90
q0 -57 48 -89.5t131 -32.5h68v249q0 76 -26.5 135t-73 92.5t-107.5 33.5z" />
    <glyph glyph-name="u111F1" unicode="&#x111f1;" horiz-adv-x="951" 
d="M53 198q0 -90 35 -161.5t93 -100.5v37q-46 41 -68.5 95.5t-22.5 125.5q0 60 20.5 111t68 82t127.5 31q23 0 46 -0.5t46 -4.5v27q-24 4 -47.5 5.5t-47.5 1.5q-123 0 -186.5 -66t-63.5 -183zM237 370q0 -26 20.5 -41t51 -21.5t61.5 -6.5v21q-93 5 -93 50q0 9 7 20.5
t25.5 19.5t54.5 5l3 21l-38 -9q-39 3 -65.5 -11.5t-26.5 -47.5zM488 49q-48 0 -96 7t-87 23t-63 42.5t-24 65.5q0 37 22.5 60.5t60 34t81.5 10.5q1 0 12 -0.5t26 -1.5t26 -2q2 7 3 14t1 13q-21 3 -44.5 5t-35.5 2q-95 0 -151 -43.5t-56 -124.5q0 -61 26 -103t71 -67
t103.5 -36.5t124.5 -11.5q63 0 119.5 13t101 39.5t70 68.5t25.5 100q0 66 -30 102.5t-76.5 50.5t-95.5 14q-14 0 -28 -1t-30 -3q-1 4 -1 7v6q0 41 26 54.5t73 13.5h39v32q-37 -1 -68 12.5t-49.5 38t-18.5 55.5q0 39 27.5 68.5t79.5 29.5q42 0 74.5 -18t57 -46.5t41.5 -60.5
t28.5 -61.5t18.5 -49.5h29v268h-36v-198l14 -18q-6 19 -18 46t-30.5 56.5t-46.5 55t-65.5 42t-87.5 16.5q-39 0 -77 -13.5t-62.5 -42t-24.5 -73.5q0 -36 18.5 -59t46.5 -36.5t57.5 -19.5t52.5 -6v14q-62 0 -100 -24t-38 -85q0 -9 1 -18t3 -20q20 4 42 6.5t41 2.5
q45 0 81 -11t57 -33.5t21 -58.5q0 -39 -23.5 -66t-62 -44t-84.5 -25t-92 -8z" />
    <glyph glyph-name="u111F2" unicode="&#x111f2;" horiz-adv-x="952" 
d="M43 198q0 -90 35 -161.5t93 -100.5v37q-46 41 -69 95.5t-23 125.5q0 60 20.5 111t68.5 82t128 31q23 0 46 -0.5t46 -4.5v27q-24 4 -47.5 5.5t-47.5 1.5q-123 0 -186.5 -66t-63.5 -183zM227 370q0 -26 20.5 -41t51 -21.5t61.5 -6.5v21q-93 5 -93 50q0 9 7 20.5t25.5 19.5
t54.5 5l3 12h-38q-39 3 -65.5 -11.5t-26.5 -47.5zM478 -64q63 0 119.5 13t101 39.5t70 68.5t25.5 100q0 96 -71 138q17 13 24 27.5t7 32.5q0 35 -30.5 64t-88.5 29q-64 0 -102.5 -31.5t-38.5 -92.5q0 -18 4 -37q20 4 42 6.5t41 2.5q43 0 79.5 -10.5t59 -34.5t22.5 -64
q0 -38 -24 -65.5t-62.5 -45t-85.5 -26t-94 -8.5q-48 0 -96.5 8t-87.5 25.5t-62 45t-23 66.5t23 62t61 33.5t81 10.5q1 0 12 -0.5t26 -1.5t26 -2q4 12 4 26q-21 3 -44.5 5t-35.5 2q-95 0 -151.5 -43.5t-56.5 -124.5q0 -61 26 -103t71.5 -67t104 -36.5t124.5 -11.5zM626 416
q42 0 64 -19.5t22 -44.5t-18 -43q-22 8 -47.5 11.5t-54.5 3.5q-14 0 -28 -1t-30 -3q-1 4 -1 7v6q0 41 27.5 62t65.5 21zM408 104q71 -15 119 -7.5t73 30t25 50.5q0 20 -13 34t-39 20l-3 -4q37 6 77 20.5t59 34.5l-37 8q-8 -8 -33.5 -19.5t-60.5 -17.5q-27 -4 -59 -6t-54 -2
v-26q66 0 97.5 -9.5t31.5 -32.5q0 -14 -18.5 -30t-59 -21.5t-105.5 8.5v-30zM632 420h54v13q-53 -1 -85.5 12.5t-47 36.5t-14.5 53q0 42 27.5 71.5t79.5 30.5q41 1 73 -16.5t56.5 -46.5t41 -61t27.5 -62t18 -50h35v268h-42v-198l13 -12q-6 17 -17 43.5t-28 55.5t-42.5 54.5
t-61 41t-82.5 15.5q-41 0 -82 -13.5t-68 -43t-27 -77.5q0 -33 17 -55.5t43 -35.5t56 -18.5t56 -5.5z" />
    <glyph glyph-name="u111F3" unicode="&#x111f3;" horiz-adv-x="1370" 
d="M841 187q0 -82 -25.5 -154t-76.5 -127t-128.5 -87t-181.5 -34q-52 -1 -98 9.5t-74 30t-28 45.5q0 43 60 58.5t181 15.5v32q-115 0 -193.5 -8t-118.5 -30.5t-40 -67.5q0 -39 41 -67t109 -42.5t149 -14.5q148 0 252 58.5t158.5 163.5t54.5 245q0 53 -8.5 101.5t-27 87
t-48 61t-71.5 22.5q-63 0 -100.5 -42.5t-37.5 -114.5h17q0 75 -36 116t-102 41q-64 0 -100.5 -41t-36.5 -116h16q0 74 -37 115.5t-103 41.5q-73 0 -118.5 -59.5t-45.5 -175.5q0 -69 23.5 -120t66 -79t98.5 -28q12 0 23.5 2t21.5 6v32q-10 -4 -19 -6t-20 -2
q-67 0 -107.5 44.5t-40.5 124.5q0 79 32.5 114.5t88.5 35.5q54 0 83 -38.5t29 -107.5v-62h39v62q0 72 27.5 109t79.5 37q53 0 80.5 -37t27.5 -109v-62h39v62q0 69 28.5 107.5t80.5 38.5q45 0 70.5 -25.5t36 -68t10.5 -93.5zM919 27q0 -137 36.5 -209t91.5 -72
q22 0 38.5 15.5t16.5 46.5q0 49 -60 87t-185 59.5t-320 21.5h-67v-32h67q192 0 309.5 -19t170.5 -49.5t53 -64.5q0 -28 -28 -28q-36 0 -64 63t-28 181q0 98 13 164t35.5 106t50.5 58t58 18q40 0 68.5 -26t48.5 -68t31.5 -94.5t16 -106.5t4.5 -102h37v509h-35v-389l14 -78
q0 19 -2 60.5t-8 94.5t-18 107.5t-32.5 101t-51 75t-73.5 28.5q-53 0 -87.5 -29.5t-55.5 -76.5t-30.5 -102.5t-12.5 -107t-2.5 -90t0.5 -52.5z" />
    <glyph glyph-name="u111F4" unicode="&#x111f4;" horiz-adv-x="1094" 
d="M212 490q-49 0 -86 -31t-57.5 -86.5t-20.5 -130.5q0 -79 23 -138t66 -91.5t99 -32.5q12 0 23.5 2t21.5 6v32q-10 -4 -19 -6t-20 -2q-45 0 -78.5 25t-52 71t-18.5 108q0 75 33 119t89 44q53 0 82.5 -38.5t29.5 -107.5v-62h39v62q0 72 27.5 109t80.5 37q52 0 79.5 -37
t27.5 -109v-62h39v62q0 69 28.5 107.5t80.5 38.5q60 0 88.5 -46.5t28.5 -145.5v-383l41 -53v497q0 121 -39 181.5t-117 60.5q-62 0 -99 -42.5t-37 -114.5h16q0 75 -36 116t-101 41t-101.5 -41t-36.5 -116h17q0 74 -38 115.5t-103 41.5zM724 110q-63 0 -110 -18.5t-84 -57.5
l28 -18q30 36 73 50t94 14q49 0 99.5 -18.5t97.5 -61t88 -116.5h24v608h-37v-572l26 -8q-55 105 -135 151.5t-164 46.5zM588 -47q0 -13 -7.5 -25.5t-22.5 -12.5t-25.5 10t-10.5 28q0 14 8.5 31t25.5 30l-21 15q-23 -13 -33.5 -34.5t-10.5 -41.5q0 -34 20.5 -51.5t46.5 -17.5
q21 0 41.5 16t20.5 53q0 38 -32 64t-100 26q-44 0 -86 -22t-69.5 -62t-27.5 -96t26 -94.5t67 -59t85 -20.5q32 0 54.5 11t40.5 27.5t36.5 33t41 27.5t54.5 11q40 0 69.5 -16.5t49.5 -40.5t29 -45h29v522l-41 -70v-379q-23 29 -62.5 45t-77.5 16q-42 0 -70.5 -10.5t-51 -24.5
t-45.5 -24.5t-54 -10.5q-28 0 -56 14.5t-47.5 41.5t-19.5 64q0 40 18 69t48.5 45t65.5 16q55 0 74.5 -19t19.5 -39z" />
    <glyph glyph-name="sinLVocalic" horiz-adv-x="866" 
d="M765 135v-43q0 -14 -4.5 -19.5t-14.5 -5.5h-42q-8 0 -11 3.5t-3 8.5v66q0 7 4 11.5t12 4.5h31q15 0 21.5 -7.5t6.5 -18.5zM556 495h59v29q0 15 6 20t22 5h82q15 0 27 -9t12 -29v-309q-2 3 -6.5 6t-15.5 3h-46q-20 0 -34.5 -11t-14.5 -37v-107q0 -22 15.5 -32t34.5 -10h75
q54 0 54 64v449q0 28 -18.5 51t-60.5 23h-124q-41 0 -54 -16t-13 -47v-43zM83 135q0 11 7 18.5t21 7.5h31q9 0 12.5 -4.5t3.5 -11.5v-66q0 -5 -3 -8.5t-11 -3.5h-42q-10 0 -14.5 5.5t-4.5 19.5v43zM292 495v43q0 31 -13 47t-54 16h-124q-42 0 -60.5 -23t-18.5 -51v-449
q0 -64 54 -64h75q19 0 34.5 10t15.5 32v107q0 26 -14.5 37t-34.5 11h-47q-10 0 -14.5 -3t-6.5 -6v309q0 20 12 29t27 9h83q15 0 21 -5t6 -20v-29h59zM199 54q0 -28 11.5 -41t39.5 -13h39.5h61.5h72.5h72.5h62h39q28 0 39.5 13t11.5 41v245q0 55 -56 55h-88v56q0 26 28 26
h115v61h-138q-30 0 -48 -13.5t-18 -42.5v-148h105q14 0 20.5 -6t6.5 -20v-177q0 -13 -4.5 -20t-17.5 -7h-259q-12 0 -17 7t-5 20v177q0 14 7.5 20t19.5 6h105v148q0 29 -18 42.5t-48 13.5h-138v-61h115q15 0 21 -6.5t6 -19.5v-56h-87q-56 0 -56 -55v-245z" />
    <glyph glyph-name="sinKSsa" horiz-adv-x="919" 
d="M312 281v-189q0 -13 -4 -20.5t-16 -7.5h-36q-20 0 -24.5 12.5t-4.5 30.5v81h-49v-81q0 -17 -5 -30t-27 -13h-35q-10 0 -14 4.5t-4 17.5v75q0 28 5.5 42t22.5 23v22h-27l66 56h131q10 0 15.5 -5.5t5.5 -17.5zM16 262v-46h34q-10 -7 -17 -21t-7 -46v-102q0 -20 11 -33.5
t34 -13.5h92q14 0 25 7.5t14 21.5q8 -29 37 -29h88q21 0 36.5 13.5t15.5 38.5v256q0 28 -14 40.5t-36 12.5h-103l73 59q12 8 24.5 12t29.5 4h111v61h-127q-15 0 -34 -5t-37 -19l-57 -46v23q0 19 -9.5 33t-32.5 14h-132v-61h89q14 0 20 -6.5t6 -19.5v-33zM731 300l-102 -88
q-12 -9 -15 -22.5t-3 -30.5v-44h69v38q0 18 3 27.5t14 19.5l109 100h-75zM429 54q0 -28 12 -41t40 -13h346q28 0 39.5 13t11.5 41v242q0 56 -56 56h-99v58q0 13 6.5 19.5t21.5 6.5h52q13 0 16 -7.5t3 -20.5q0 -12 -4.5 -20t-12.5 -16l-38 -34h69l27 25q15 16 15 37v46
q0 30 -15.5 40.5t-30.5 10.5h-104q-30 0 -48 -13.5t-18 -42.5v-148h116q14 0 20.5 -6t6.5 -20v-177q0 -13 -4.5 -20t-17.5 -7h-259q-12 0 -16.5 7t-4.5 20v177q0 14 7 20t19 6h96v148q0 29 -18 42.5t-49 13.5h-128v-61h105q16 0 22 -6.5t6 -19.5v-56h-78q-56 0 -56 -55v-245
z" />
    <glyph glyph-name="sinKVa" horiz-adv-x="911" 
d="M12 262v-46h34q-11 -7 -17.5 -21t-6.5 -46v-102q0 -20 11 -33.5t34 -13.5h92q14 0 24.5 7.5t14.5 21.5q8 -29 37 -29h88q21 0 36.5 13.5t15.5 38.5v256q0 28 -14 40.5t-36 12.5h-103l64 54q12 10 25 15t28 5l40 -3l92 -8l5 62l-94 7l-56 3q-15 0 -31.5 -4.5t-32.5 -18.5
l-57 -46v23q0 19 -9.5 33t-32.5 14h-132v-61h88q15 0 21 -6.5t6 -19.5v-33zM870 415h-74v-326q0 -26 -20 -26h-263q-11 0 -15 6.5t-4 17.5v175q0 14 7 19t19 5h131v146q0 27 -13.5 40.5t-42.5 13.5h-159v-62h121q8 0 14.5 -3t6.5 -14v-63h-100q-56 0 -56 -55v-235
q0 -28 11 -41t39 -13h346q28 0 40 13t12 41v361zM308 281v-189q0 -14 -4 -21.5t-17 -7.5h-35q-20 0 -24.5 13t-4.5 31v81h-49v-82q0 -17 -5 -30t-27 -13h-35q-10 0 -14 4.5t-4 17.5v75q0 29 5.5 42.5t22.5 23.5v22h-27l65 56h132q10 0 15.5 -5.5t5.5 -17.5zM797 625h-375
v-63h336q23 0 30.5 -9t7.5 -31v-122h74v147q0 41 -16.5 59.5t-56.5 18.5z" />
    <glyph glyph-name="sinTVa" horiz-adv-x="923" 
d="M511 419l44 57l-194 14q-12 1 -30.5 -0.5t-40.5 -10.5q-16 -5 -28 -12.5t-25 -17.5l-26 -22v22q0 20 -10 34t-32 14h-132v-61h88q15 0 21 -6.5t6 -19.5v-33l-134 -115v-46h34q-11 -7 -17.5 -21t-6.5 -46v-102q0 -20 11 -33.5t34 -13.5h248q22 0 37.5 13.5t15.5 38.5v256
q0 28 -14.5 40.5t-35.5 12.5h-96l35 30q9 8 18 14t18 11q13 9 22 13t22 3zM884 415h-73v-326q0 -26 -20 -26h-263q-12 0 -15.5 6.5t-3.5 17.5v169q0 14 7 19.5t18 5.5h131v142q0 27 -13.5 40.5t-41.5 13.5h-174l35 -56l100 -2q8 0 14.5 -3.5t6.5 -13.5v-63h-100
q-56 0 -56 -55v-230q0 -28 11 -41t39 -13h347q28 0 39.5 13t11.5 41v361zM302 281v-189q0 -14 -4 -21.5t-16 -7.5h-164q-10 0 -14 4.5t-4 17.5v75q0 29 6 42.5t22 23.5v22h-33l66 56h120q9 0 15 -5.5t6 -17.5zM812 625h-376v-63h337q22 0 30 -9t8 -31v-122h73v147
q0 41 -16.5 59.5t-55.5 18.5z" />
    <glyph glyph-name="sinTTha" horiz-adv-x="926" 
d="M485 376l143 18l-243 88q-18 7 -45 7t-49 -9q-16 -4 -29 -12.5t-26 -17.5l-27 -23v22q0 20 -9.5 34t-32.5 14h-132v-61h89q14 0 20 -6.5t6 -19.5v-33l-134 -115v-46h34q-10 -7 -17 -21t-7 -46v-102q0 -20 11 -33.5t34 -13.5h249q21 0 36.5 13.5t15.5 38.5v256
q0 28 -14 40.5t-36 12.5h-96l38 32q10 8 19.5 14.5t19.5 12.5q11 7 24 8.5t30 -5.5zM300 281v-189q0 -14 -4 -21.5t-16 -7.5h-164q-9 0 -13 4.5t-4 17.5v75q0 29 5.5 42.5t21.5 23.5v22h-32l66 56h119q10 0 15.5 -5.5t5.5 -17.5zM683 571h94q18 0 22.5 -7t4.5 -21v-68h-99
q-12 0 -17 2.5t-5 17.5v76zM878 394v165q0 39 -15 53t-51 14h-254v-54h57v-98q0 -27 10.5 -37t35.5 -10h144v-33h73zM628 331v63h-143q-56 0 -56 -55v-285q0 -28 11 -41t39 -13h348q28 0 39.5 13t11.5 41v361h-73v-326q0 -26 -20 -26h-264q-11 0 -14.5 6.5t-3.5 17.5v219
q0 14 6.5 19.5t18.5 5.5h100z" />
    <glyph glyph-name="sinNDa" horiz-adv-x="850" 
d="M235 384v52q0 32 -15.5 46.5t-47.5 14.5h-150v-61h127q14 0 21 -6t7 -22v-94zM194 263h81q21 0 21 -22v-147q0 -18 -4.5 -24.5t-23.5 -6.5h-153q-13 0 -17 5t-4 17v96l-3 60v100h-69v-290q0 -28 10 -39.5t38 -11.5h231q35 0 51 12.5t16 47.5v212q0 25 -11 36.5t-37 11.5
h-76zM104 166q12 0 24 14l203 229q13 15 23.5 21t32.5 6h68v61h-100q-26 0 -45.5 -15.5t-38.5 -37.5l-159 -186l-6 -6t-8 -3q-3 0 -5.5 2t-4.5 3l1 -82q4 -6 15 -6zM803 0v63h-299q-12 0 -17 5.5t-5 20.5v176q0 15 6 21.5t22 6.5h289v151q0 53 -53 53h-337v-61h296
q11 0 16 -5t5 -19v-58h-259q-28 0 -43 -13.5t-15 -43.5v-247q0 -24 9 -37t35 -13h72q-17 -8 -23 -20.5t-6 -30.5v-75q0 -25 15 -35t37 -10h278v63h-232q-10 0 -16.5 3.5t-6.5 16.5v45q0 22 15 32.5t37 10.5h180z" />
    <glyph glyph-name="sinNDha" horiz-adv-x="909" 
d="M235 384v52q0 32 -15.5 46.5t-47.5 14.5h-150v-61h127q14 0 21 -6t7 -22v-94zM194 263h81q21 0 21 -22v-147q0 -18 -4.5 -24.5t-23.5 -6.5h-153q-13 0 -17 5t-4 17v96l-3 60v100h-69v-290q0 -28 10 -39.5t38 -11.5h231q35 0 51 12.5t16 47.5v212q0 25 -11 36.5t-37 11.5
h-76zM104 166q12 0 24 14l197 223q6 6 12.5 12t13.5 9q8 3 17.5 4t19.5 0l71 -1l39 59l-120 7h-28q-11 0 -21.5 -3.5t-19.5 -9.5q-10 -6 -18 -14t-14 -16l-165 -192l-6 -6t-8 -3q-3 0 -5.5 2t-4.5 3l1 -82q4 -6 15 -6zM649 422v64h-171q-31 0 -45 -18t-14 -47v-373
q0 -48 47 -48h130q17 0 30.5 10.5t16.5 26.5q10 -37 49 -37h129q25 0 36 14t11 36v510q0 37 -20.5 51.5t-52.5 14.5h-376v-67h337q20 0 29 -7t9 -29v-435q0 -11 -4 -18t-15 -7h-61q-23 0 -31 15.5t-8 35.5v131h-64v-131q0 -21 -7 -36t-28 -15h-63q-11 0 -16 6t-5 17v311
q0 11 5 18t19 7h133z" />
    <glyph glyph-name="sinNVa" horiz-adv-x="907" 
d="M867 415h-74v-326q0 -26 -20 -26h-263q-11 0 -15 6.5t-4 17.5v175q0 14 7 19t19 5h131v146q0 54 -56 54h-168l31 -61h99q8 -1 14.5 -4t6.5 -14v-63h-100q-56 0 -56 -55v-235q0 -28 11 -41t39 -13h346q28 0 40 13t12 41v361zM794 625h-375v-63h336q22 0 30 -9t8 -31v-122
h74v147q0 41 -17 59.5t-56 18.5zM235 384v52q0 32 -15.5 46.5t-47.5 14.5h-150v-61h127q14 0 21 -6t7 -22v-94zM194 263h81q21 0 21 -22v-147q0 -18 -4.5 -24.5t-23.5 -6.5h-153q-13 0 -17 5t-4 17v96l-3 60v100h-69v-290q0 -28 10 -39.5t38 -11.5h231q35 0 51 12.5t16 47.5
v212q0 25 -11 36.5t-37 11.5h-76zM104 166q12 0 24 14l197 223q6 6 12.5 12t13.5 9q8 3 17.5 3.5t19.5 0.5l97 -3l39 61l-161 7q-6 0 -14.5 -1t-14.5 -2q-14 -3 -25 -10q-10 -6 -18 -14t-14 -16l-165 -192l-6 -6t-8 -3q-3 0 -5.5 2t-4.5 3l1 -82q4 -6 15 -6z" />
    <glyph glyph-name="sinNTha" horiz-adv-x="913" 
d="M677 571h94q18 0 22.5 -7t4.5 -21v-68h-99q-12 0 -17 2.5t-5 17.5v76zM873 394v165q0 39 -15.5 53t-50.5 14h-255v-54h57v-98q0 -27 10.5 -37t35.5 -10h144v-33h74zM605 353v62h-126q-56 0 -56 -55v-306q0 -28 11 -41t39 -13h348q28 0 40 13t12 41v361h-74v-326
q0 -26 -21 -26h-263q-11 0 -14.5 6.5t-3.5 17.5v241q0 14 7 19.5t17 5.5h84zM235 384v52q0 32 -15.5 46.5t-47.5 14.5h-150v-61h127q14 0 21 -6t7 -22v-94zM194 263h81q21 0 21 -22v-147q0 -18 -4.5 -24.5t-23.5 -6.5h-153q-13 0 -17 5t-4 17v96l-3 60v100h-69v-290
q0 -28 10 -39.5t38 -11.5h231q35 0 51 12.5t16 47.5v212q0 25 -11 36.5t-37 11.5h-76zM104 166q12 0 24 14l163 184q7 8 14 12.5t13 6.5q8 1 17.5 0.5t19.5 -1.5l117 -3l94 36l-201 35l-40 3q-11 0 -21 -1t-18 -4t-16.5 -9t-16.5 -16l-141 -165l-6 -6t-8 -3q-3 0 -5.5 2
t-4.5 3l1 -82q4 -6 15 -6z" />
    <glyph glyph-name="sinDVa" horiz-adv-x="676" 
d="M134 424h74l63 62h-164q-37 0 -61 -20.5t-24 -59.5v-406h71v383q0 24 10 32.5t31 8.5zM636 415h-74v-326q0 -26 -20 -26h-263q-12 0 -15.5 6.5t-3.5 17.5v175q0 14 7 19t18 5h132v146q0 27 -14 40.5t-42 13.5h-174v-62h135q8 0 14.5 -3t6.5 -14v-63h-100q-56 0 -56 -55
v-235q0 -28 11 -41t39 -13h347q28 0 40 13t12 41v361zM562 625h-375v-63h337q22 0 30 -9t8 -31v-122h74v147q0 41 -17 59.5t-57 18.5z" />
    <glyph glyph-name="sinDDha" horiz-adv-x="672" 
d="M134 426h74l63 60h-164q-37 0 -61 -20.5t-24 -59.5v-406h71v385q0 24 10 32.5t31 8.5zM411 422v64h-171q-31 0 -45 -18t-14 -47v-373q0 -48 47 -48h130q17 0 31 10.5t16 26.5q10 -37 49 -37h129q26 0 36.5 14t10.5 36v510q0 37 -20.5 51.5t-52.5 14.5h-376v-67h338
q20 0 29 -7t9 -29v-435q0 -11 -4.5 -18t-15.5 -7h-61q-23 0 -31 15.5t-8 35.5v131h-63v-131q0 -21 -7.5 -36t-28.5 -15h-62q-12 0 -16.5 6t-4.5 17v311q0 11 5 18t18 7h133z" />
    <glyph glyph-name="sinTtTtha" horiz-adv-x="674" 
d="M431 571h95q17 0 22 -7t5 -21v-42h-100q-12 0 -17 2.5t-5 18.5v49zM627 420v139q0 39 -15 53t-51 14h-255v-54h58v-72q0 -27 10 -37t35 -10h144v-33h74zM627 465h-74v-377q0 -11 -4 -18t-16 -7h-61q-23 0 -31 15.5t-8 35.5v95h-63v-95q0 -21 -7 -36t-29 -15h-62
q-11 0 -16 6t-5 17v225q0 12 5 18.5t19 6.5h100v64h-138q-31 0 -45 -18t-14 -47v-287q0 -48 47 -48h130q17 0 30.5 10.5t16.5 26.5q9 -37 49 -37h129q25 0 36 14t11 36v415zM134 340h74l63 60h-164q-37 0 -61 -20.5t-24 -60.5v-319h71v299q0 23 10 32t31 9z" />
    <glyph glyph-name="sinMatraU.sub" horiz-adv-x="220" 
d="M22 184v-60h85l-67 -92q-7 -10 -8.5 -22t-1.5 -26v-117q0 -24 22 -24h136v57h-83q-12 0 -12 12v72q0 9 1.5 18t5.5 16l78 112v54h-156z" />
    <glyph glyph-name="sinMatraUu.sub" horiz-adv-x="195" 
d="M20 184v-44h75l-69 -54v-35h73l-56 -49q-12 -10 -15 -20.5t-3 -24.5v-87q0 -25 21 -25h117v54h-71q-8 0 -9.5 2t-1.5 11v40q0 12 2 19t12 16l67 61v44h-69l70 55v37h-143z" />
    <glyph glyph-name="sinRakar" horiz-adv-x="2" 
d="M-584 -19v-91q0 -22 12 -33t32 -11h440q19 0 30 10t11 33v92h-74v-52q0 -10 -3.5 -15t-13.5 -5h-345q-9 0 -12.5 5t-3.5 14v53h-73z" />
    <glyph glyph-name="sinReph" horiz-adv-x="2" 
d="M-451 621v-38q0 -8 -2.5 -12t-10.5 -4h-82q-14 0 -14 18v62q0 18 20 18h204q18 0 18 -26v-118h69v133q0 30 -13 43t-38 13h-274q-28 0 -41 -13t-13 -35v-98q0 -46 40 -46h163q14 0 22.5 8.5t8.5 28.5v66h-57z" />
    <glyph glyph-name="sinYansaya" horiz-adv-x="500" 
d="M235 294h119q17 0 24.5 -7t7.5 -26v-164q0 -16 -7 -25t-23 -9h-89q-16 0 -31.5 8t-28.5 19t-24 20l-55 52l53 224q2 5 4 15.5t4.5 21t2.5 16.5q0 25 -13 41.5t-45 16.5h-112v-61h75q8 0 13.5 -4t5.5 -12q0 -7 -2 -15l-100 -405h73l24 90l56 -49q18 -15 38 -28t48 -13h140
q67 0 67 70v215q0 35 -15.5 52.5t-56.5 17.5h-84v45q0 16 6.5 26t28.5 10h121v61h-148q-37 0 -57 -17t-20 -58v-128z" />
    <glyph glyph-name="sinMatraAa.virama" horiz-adv-x="246" 
d="M37 497v-61h85q17 0 17 -17v-337q0 -9 -3.5 -14t-13.5 -5h-85v-63h134q41 0 41 38v417q0 20 -9.5 31t-31.5 11h-134zM140 492h15q11 0 20.5 -7t15.5 -13q6 -7 12.5 -20.5t8.5 -18.5v216h-72v-157z" />
    <glyph glyph-name="sinTouch" horiz-adv-x="249" 
 />
    <glyph glyph-name="sinK" horiz-adv-x="592" 
d="M475 492h15q11 0 20.5 -7t15.5 -13q6 -7 12.5 -20.5t8.5 -18.5v216h-72v-157zM308 281v-189q0 -14 -4 -21.5t-17 -7.5h-35q-20 0 -24.5 13t-4.5 31v81h-49v-82q0 -17 -5 -30t-27 -13h-35q-10 0 -14 4.5t-4 17.5v75q0 29 5.5 42.5t22.5 23.5v22h-27l65 56h132
q10 0 15.5 -5.5t5.5 -17.5zM205 427v22q0 20 -9.5 34t-32.5 14h-132v-61h88q15 0 21 -6.5t6 -19.5v-33l-134 -115v-46h34q-11 -7 -17.5 -21t-6.5 -46v-102q0 -20 11 -33.5t34 -13.5h92q14 0 24.5 7.5t14.5 21.5q8 -29 37 -29h88q21 0 36.5 13.5t15.5 38.5v256q0 28 -14 40.5
t-36 12.5h-103l66 55q12 11 23 15.5t27 4.5h109q28 0 28 -27v-321q0 -25 -21 -25h-62v-63h103q22 0 37.5 13t15.5 39v390q0 25 -15.5 40t-41.5 15h-167q-15 0 -31 -4.5t-33 -19.5z" />
    <glyph glyph-name="sinKh" horiz-adv-x="518" 
d="M470 415h-73v-325q0 -10 -3.5 -18.5t-15.5 -8.5h-42q-14 0 -27 12t-22 27t-14 23l24 87l1 154q0 29 -16 42t-40 13h-161q-30 0 -44.5 -18.5t-14.5 -45.5v-309q0 -48 43 -48h78l5 63h-35q-10 0 -14 5.5t-4 16.5v242q0 14 5.5 22t19.5 8h86q13 0 18 -7.5t5 -18.5v-120
l-56 -216h61l23 63q4 -11 15 -24.5t26 -23.5t32 -10h95q26 0 35.5 16t9.5 35v364zM471 400v72q0 44 -15.5 62.5t-59.5 18.5h-216q-35 0 -45 12.5t-10 33.5q0 11 4.5 16t16.5 5h323v53h-370q-49 0 -49 -41v-32q0 -16 7.5 -30.5t29.5 -19.5h-73v-54h344q22 0 30.5 -8.5
t8.5 -32.5v-55h74z" />
    <glyph glyph-name="sinG" horiz-adv-x="591" 
d="M476 492h15q11 0 20.5 -7t15.5 -13q6 -7 12.5 -20.5t8.5 -18.5v216h-72v-157zM190 497h-112q-27 0 -41.5 -15t-14.5 -43v-381q0 -28 11 -43t38 -15h197q36 0 51.5 12.5t15.5 47.5v188q0 38 -31 38h-15l22 123q2 12 10 18.5t25 6.5h99q17 0 23.5 -7t6.5 -23v-307
q0 -20 -5.5 -27t-24.5 -7h-52v-63h92q33 0 48 13t15 50v371q0 35 -16 49t-51 14h-160q-63 0 -72 -51l-36 -209h33q17 0 17 -20v-125q0 -17 -5.5 -23t-23.5 -6h-118q-12 0 -16.5 6.5t-4.5 18.5v320q0 16 5.5 22t21.5 6h68v61z" />
    <glyph glyph-name="sinGh" horiz-adv-x="563" 
d="M446 492h16q10 0 19.5 -4.5t14.5 -8.5q7 -5 14 -14t9 -14v198h-73v-157zM329 0h141q28 0 39 13t11 41v243q0 30 -14.5 43.5t-44.5 13.5h-109v58q0 13 8 18.5t22 5.5h137v61h-162q-30 0 -48 -13.5t-18 -42.5v-148h133q10 0 16.5 -5t6.5 -14v-188q0 -23 -19 -23h-79
q-14 0 -19 6t-5 18v15q0 8 4 12.5t13 10.5q12 10 18.5 15t6.5 17v44q0 26 -26 26h-71h-70q-26 0 -26 -26v-44q0 -12 6 -17t19 -15q8 -6 12.5 -10.5t4.5 -12.5v-15q0 -12 -5 -18t-20 -6h-77q-19 0 -19 23v159q0 20 10.5 34t38.5 14h108v148q0 29 -18 42.5t-49 13.5h-162v-61
h139q14 0 21.5 -5.5t7.5 -18.5v-58h-113q-9 0 -13.5 -6.5t-6 -16t-3.5 -19t-7 -15.5q-13 -8 -19.5 -21.5t-6.5 -29.5v-192q0 -28 11 -41t39 -13h140q18 0 34.5 12t16.5 36v63q0 9 -6.5 16t-14.5 13q-11 9 -14.5 13t-3.5 14v15q0 9 12 9h34h35q11 0 11 -9v-15q0 -10 -3 -14
t-15 -13q-8 -6 -14.5 -13t-6.5 -16v-63q0 -24 16.5 -36t35.5 -12zM-6 354v-59h119v59h-119z" />
    <glyph glyph-name="sinNg" horiz-adv-x="578" 
d="M14 409v-59q0 -49 46 -49h112q11 0 19.5 7.5t8.5 22.5v70q0 6 -3 8.5t-5 2.5h51q17 0 22.5 -7.5t5.5 -19.5v-118h-125q-31 0 -46.5 -19t-15.5 -45v-149q0 -28 10 -41t38 -13h129q17 0 30.5 8.5t16.5 23.5q9 -32 49 -32h129q25 0 36 14t11 36v367h-74v-327q0 -14 -5 -20.5
t-18 -6.5h-62q-16 0 -25 8t-9 30v71h-63v-72q0 -22 -9 -29.5t-24 -7.5h-67q-20 0 -20 23v100q0 20 7.5 29t31.5 9h139v171q0 36 -18 49.5t-47 13.5h-201q-28 0 -41.5 -13t-13.5 -36zM76 496h344q22 0 30.5 -8.5t8.5 -32.5v-55h74v72q0 44 -15.5 62.5t-59.5 18.5h-216
q-34 0 -44.5 12.5t-10.5 33.5q0 11 4.5 16t16.5 5h323v53h-370q-49 0 -49 -41v-32q0 -16 7.5 -30.5t29.5 -19.5h-73v-54zM61 399q0 8 5.5 10.5t11.5 2.5h63q10 0 10 -11v-46q0 -5 -2.5 -8t-9.5 -3h-65q-7 0 -10 4t-3 10v41z" />
    <glyph glyph-name="sinNng" horiz-adv-x="759" 
d="M638 492h15q11 0 20.5 -7t15.5 -13q6 -7 12.5 -20.5t8.5 -18.5v216h-72v-157zM353 497h-96q-18 0 -35 -7t-27.5 -23t-10.5 -42v-371q0 -28 10 -41t38 -13h198q36 0 51.5 12.5t15.5 47.5v188q0 38 -30 38h-16l22 123q2 12 10 18.5t25 6.5h99q17 0 23.5 -7t6.5 -23v-307
q0 -20 -5.5 -27t-24.5 -7h-52v-63h92q33 0 48 13t15 50v371q0 35 -16 49t-51 14h-160q-63 0 -72 -51l-36 -209h33q17 0 17 -20v-125q0 -17 -5.5 -23t-23.5 -6h-118q-12 0 -16.5 6.5t-4.5 18.5v301q0 25 9.5 36t30.5 11h56v61zM134 437h74l63 60h-164q-37 0 -61 -20.5
t-24 -60.5v-416h71v396q0 24 10 32.5t31 8.5z" />
    <glyph glyph-name="sinC" horiz-adv-x="539" 
d="M-6 303v-58h181v58h-181zM502 400v72q0 44 -15 62.5t-59 18.5h-216q-35 0 -45 12.5t-10 33.5q0 11 4 16t16 5h323v53h-369q-49 0 -49 -41v-32q0 -16 7.5 -30.5t29.5 -19.5h-73v-54h344q21 0 30 -8.5t9 -32.5v-55h73zM502 415h-73v-325q0 -27 -22 -27h-254q-21 0 -21 25
v105q0 29 14 40.5t37 11.5h105v154q0 27 -14 40.5t-42 13.5h-174v-61h136q8 0 14.5 -3.5t6.5 -13.5v-72h-62q-8 0 -20 -8t-23.5 -18.5t-19 -18.5l-7.5 -8q-11 -6 -18 -19.5t-7 -35.5v-141q0 -28 11 -41t39 -13h344q28 0 39 13t11 41v361z" />
    <glyph glyph-name="sinCh" horiz-adv-x="513" 
d="M211 478q20 0 32 -2.5t20 -8t15 -16.5v201h-67v-174zM269 405q0 13 8 22t20 9h79q24 0 24 -28v-82q0 -16 -7.5 -29t-27.5 -13h-76q-11 0 -15.5 5t-4.5 17v99zM337 486q13 6 24.5 11t29.5 24l124 122h-84l-122 -115q-16 -15 -27 -22.5t-19 -11t-16 -8.5h90zM117 63
q-13 0 -17.5 7t-4.5 21v179q0 11 6 17.5t19 6.5h132v144q0 32 -17.5 45.5t-46.5 13.5h-165v-61h143q28 0 28 -23v-58h-116q-56 0 -56 -55v-246q0 -28 11 -41t39 -13h349q28 0 39 13t11 41v127q0 29 -6 46.5t-25 29.5q19 14 25 33t6 42v104q0 61 -55 61h-136q-28 0 -47 -23.5
t-19 -57.5v-145q0 -23 10 -34t31 -11h104q17 0 28 -8.5t11 -30.5v-97q0 -13 -5 -20t-17 -7h-259z" />
    <glyph glyph-name="sinJ" horiz-adv-x="512" 
d="M73 0h347q27 0 39 13t12 41v245q0 55 -56 55h-97v56q0 13 6 19.5t21 6.5h125v61h-148q-30 0 -48 -13.5t-18 -42.5v-148h115q14 0 20.5 -6t6.5 -20v-177q0 -13 -4.5 -20t-17.5 -7h-259q-13 0 -17.5 7t-4.5 20v177q0 14 7.5 20t19.5 6h95v148q0 29 -18 42.5t-48 13.5h-128
v-61h107q15 0 21.5 -6.5t6.5 -19.5v-56h-80q-56 0 -56 -55v-245q0 -28 11.5 -41t39.5 -13zM380 488q6 3 16.5 11t22.5 23l97 121h-84l-98 -116q-17 -21 -26 -27.5t-17 -11.5h89zM256 437l65 -9v224h-65v-215z" />
    <glyph glyph-name="sinJh" horiz-adv-x="914" 
d="M876 400v72q0 44 -15 62.5t-59 18.5h-219q-34 0 -44.5 12.5t-10.5 33.5q0 11 4 16t17 5h325v53h-372q-49 0 -49 -41v-32q0 -16 7.5 -30.5t29.5 -19.5h-64v-54h338q21 0 30 -8.5t9 -32.5v-55h73zM876 423h-73v-335q0 -11 -4.5 -18t-15.5 -7h-62q-22 0 -30.5 15.5
t-8.5 35.5v122h-62v-122q0 -21 -7.5 -36t-29.5 -15h-62q-12 0 -16.5 6t-4.5 17v228q0 11 5 18t19 7h109v63h-148q-30 0 -44.5 -18t-14.5 -47v-289q0 -48 47 -48h130q18 0 31.5 10.5t15.5 26.5q10 -37 49 -37h130q25 0 36 13t11 37v373zM308 281v-189q0 -14 -4 -21.5
t-17 -7.5h-35q-20 0 -24.5 13t-4.5 31v81h-49v-82q0 -17 -5 -30t-27 -13h-35q-10 0 -14 4.5t-4 17.5v75q0 29 5.5 42.5t22.5 23.5v22h-27l65 56h132q10 0 15.5 -5.5t5.5 -17.5zM12 216h34q-11 -7 -17.5 -21t-6.5 -46v-102q0 -20 11 -33.5t34 -13.5h92q14 0 24.5 7.5
t14.5 21.5q8 -29 37 -29h88q21 0 36.5 13.5t15.5 38.5v256q0 28 -14 40.5t-36 12.5h-103l52 41q15 12 29 17t27 5q7 0 22.5 -2.5t30.5 -6.5l107 -31l143 18l-246 74q-18 5 -35 7t-26 2q-17 0 -36 -4.5t-40 -19.5l-45 -34v23q0 19 -9.5 33t-32.5 14h-132v-61h88q15 0 21 -6.5
t6 -19.5v-33l-134 -115v-46z" />
    <glyph glyph-name="sinNy" horiz-adv-x="1014" 
d="M895 492h15q11 0 20.5 -7t15.5 -13q6 -7 12.5 -20.5t8.5 -18.5v216h-72v-157zM463 281v-189q0 -13 -4 -20.5t-17 -7.5h-36q-20 0 -24 12.5t-4 30.5v81h-50v-81q0 -17 -4.5 -30t-26.5 -13h-35q-10 0 -14 4.5t-4 17.5v75q0 28 5.5 42t22.5 23v22h-28l66 56h132q9 0 15 -5.5
t6 -17.5zM591 436v61h-74q-16 0 -34 -2t-32 -8q-8 -4 -19 -9t-25 -15l-48 -36v23q0 19 -9.5 33t-31.5 14h-132v-61h88q14 0 20.5 -6.5t6.5 -19.5v-33l-134 -115v-46h34q-11 -7 -17.5 -21t-6.5 -46v-102q0 -20 11 -33.5t33 -13.5h93q13 0 24 7.5t15 21.5q7 -29 37 -29h88
q21 0 36 13.5t15 38.5v256q0 28 -13.5 40.5t-35.5 12.5h-103l50 39q14 11 27.5 18.5t23.5 10.5q10 4 24.5 5.5t27.5 1.5h61zM134 443h74l63 54h-164q-37 0 -61 -20.5t-24 -60.5v-416h71v401q0 24 10 33t31 9zM971 0v63h-299q-12 0 -17 5.5t-5 20.5v176q0 15 6 21.5t22 6.5
h289v151q0 53 -53 53h-337v-61h296q11 0 16 -5t5 -19v-58h-259q-28 0 -43 -13.5t-15 -43.5v-247q0 -24 9.5 -37t34.5 -13h72q-17 -8 -23 -20.5t-6 -30.5v-75q0 -25 15.5 -35t36.5 -10h278v63h-232q-10 0 -16.5 3.5t-6.5 16.5v45q0 22 15.5 32.5t35.5 10.5h181z" />
    <glyph glyph-name="sinJny" horiz-adv-x="1008" 
d="M890 492h15q11 0 20.5 -7t15.5 -13q6 -7 12.5 -20.5t8.5 -18.5v216h-72v-157zM607 436v61h-124q-63 0 -72 -51l-36 -209h33q17 0 17 -20v-125q0 -17 -5.5 -23t-23.5 -6h-118q-12 0 -16.5 6.5t-4.5 18.5v301q0 25 9.5 36t30.5 11h56v61h-96q-18 0 -35 -7t-27.5 -23
t-10.5 -42v-371q0 -28 10 -41t38 -13h198q36 0 51.5 12.5t15.5 47.5v188q0 38 -30 38h-16l23 125q3 12 10.5 18.5t24.5 6.5h98zM134 437h74l63 60h-164q-37 0 -61 -20.5t-24 -60.5v-416h71v396q0 24 10 32.5t31 8.5zM967 0v63h-300q-11 0 -16.5 5.5t-5.5 20.5v176
q0 15 6 21.5t22 6.5h290v151q0 53 -53 53h-338v-61h296q11 0 16 -5t5 -19v-58h-259q-28 0 -43 -13.5t-15 -43.5v-247q0 -24 9.5 -37t34.5 -13h72q-16 -8 -22.5 -20.5t-6.5 -30.5v-75q0 -25 15.5 -35t36.5 -10h279v63h-233q-10 0 -16.5 3.5t-6.5 16.5v45q0 22 15.5 32.5
t36.5 10.5h181z" />
    <glyph glyph-name="sinNyj" horiz-adv-x="683" 
d="M238 0h346q28 0 40 13t12 41v245q0 55 -56 55h-98v56q0 26 28 26h125v61h-148q-31 0 -49 -13.5t-18 -42.5v-148h116q14 0 20.5 -6t6.5 -20v-177q0 -13 -4.5 -20t-17.5 -7h-259q-13 0 -17.5 7t-4.5 20v177q0 14 7 20t20 6h95v148q0 29 -18 42.5t-48 13.5h-128v-61h107
q28 0 28 -26v-56h-80q-56 0 -56 -55v-245q0 -28 11.5 -41t39.5 -13zM134 442h74l63 55h-164q-37 0 -61 -20.5t-24 -60.5v-416h71v401q0 23 10 32t31 9zM544 488q7 3 17.5 11t22.5 23l97 121h-84l-98 -116q-17 -21 -26 -27.5t-17 -11.5h88zM420 437l65 -9v224h-65v-215z" />
    <glyph glyph-name="sinTt" 
d="M471 400v72q0 44 -15.5 62.5t-59.5 18.5h-216q-35 0 -45 12.5t-10 33.5q0 11 4.5 16t16.5 5h323v53h-370q-49 0 -49 -41v-32q0 -16 7.5 -30.5t29.5 -19.5h-73v-54h344q22 0 30.5 -8.5t8.5 -32.5v-55h74zM246 354v63h-168q-56 0 -56 -55v-308q0 -28 11 -41t39 -13h347
q28 0 40 13t12 41v361h-74v-326q0 -26 -20 -26h-263q-12 0 -15.5 6.5t-3.5 17.5v243q0 14 7 19t18 5h126z" />
    <glyph glyph-name="sinTth" 
d="M402 708v-228h69v228h-69zM189 609h10q9 0 19.5 -1.5t19.5 -5.5l125 -62q13 -6 23.5 -14t10.5 -25v-4h-184q-13 0 -18.5 3t-5.5 17v92zM471 410v84q0 39 -21.5 57t-48.5 30l-13 6.5t-33 16l-40 19t-33.5 16l-13.5 6.5q-29 14 -45.5 16.5t-39.5 2.5h-123v-55h62v-112
q0 -27 10.5 -37t35.5 -10h230v-40h73zM471 440l-73 -1v-351q0 -11 -4.5 -18t-16.5 -7h-61q-23 0 -30.5 15.5t-7.5 35.5v95h-64v-95q0 -21 -7 -36t-28 -15h-63q-11 0 -16 6t-5 17v195q0 12 5 18.5t19 6.5h133v64h-171q-31 0 -45 -18t-14 -47v-257q0 -48 47 -48h130
q17 0 30.5 10.5t16.5 26.5q10 -37 49 -37h129q25 0 36 14t11 36v390z" />
    <glyph glyph-name="sinDd" horiz-adv-x="514" 
d="M471 400v72q0 44 -15.5 62.5t-59.5 18.5h-216q-35 0 -45 12.5t-10 33.5q0 11 4.5 16t16.5 5h323v53h-370q-49 0 -49 -41v-32q0 -16 7.5 -30.5t29.5 -19.5h-73v-54h344q22 0 30.5 -8.5t8.5 -32.5v-55h74zM-6 303v-59h119v59h-119zM70 0h129q17 0 30.5 8.5t16.5 23.5
q8 -32 49 -32h128q26 0 36.5 14t10.5 36v365l-73 -1v-324q0 -14 -5 -20.5t-18 -6.5h-62q-16 0 -25 8t-9 30v69h-63v-70q0 -22 -9 -29.5t-24 -7.5h-67q-20 0 -20 23v108q0 20 10.5 33.5t38.5 13.5h108v149q0 29 -18 42t-49 13h-162v-61h130q14 0 21.5 -5t7.5 -18v-58h-104
q-9 0 -13.5 -6.5t-6 -16t-3.5 -19t-7 -16.5q-13 -7 -19.5 -21t-6.5 -34v-136q0 -28 10 -41t38 -13z" />
    <glyph glyph-name="sinDdh" horiz-adv-x="514" 
d="M70 0h129q17 0 30.5 8.5t16.5 23.5q8 -32 49 -32h128q26 0 36.5 14t10.5 36v391h-73v-351q0 -14 -5 -20.5t-18 -6.5h-62q-16 0 -25 8t-9 30v52h-63v-53q0 -22 -9 -29.5t-24 -7.5h-67q-20 0 -20 23v92q0 20 10.5 34t38.5 14h108v137q0 29 -18 42.5t-49 13.5h-162v-57h139
q14 0 21.5 -5.5t7.5 -18.5v-57h-113q-9 0 -13.5 -5.5t-6 -14t-3.5 -17t-7 -14.5q-13 -8 -19.5 -21.5t-6.5 -29.5v-125q0 -28 10 -41t38 -13zM470 415l1 79q0 39 -21.5 57t-48.5 30l-13.5 6.5t-33.5 16l-40 19t-33.5 16l-13.5 6.5q-29 14 -45.5 16.5t-39.5 2.5h-122v-55h62
v-112q0 -27 10.5 -37t35.5 -10l229 -1v-34h73zM189 609h9q10 0 20 -1.5t19 -5.5l126 -62q12 -6 23 -14t11 -25v-4h-184q-13 0 -18.5 3t-5.5 17v92zM-6 281v-53h119v53h-119zM401 708v-228h70v228h-70z" />
    <glyph glyph-name="sinNn" horiz-adv-x="845" 
d="M731 492h15q11 0 20.5 -7t15.5 -13q6 -7 12.5 -20.5t8.5 -18.5v216h-72v-157zM382 497h-270q-23 0 -42 -11.5t-19 -42.5v-182q0 -35 17 -55t42 -20h169v54h-128q-19 0 -25 11t-6 30v129q0 27 31 27h181q14 0 22 -7t12 -17t4 -19v-292q0 -21 -8 -30t-23 -9h-175
q-17 0 -20.5 12t-3.5 33q0 19 -6.5 26.5t-13.5 8.5l343 473h-75l-366 -495v-77l42 46q7 0 13 -3.5t6 -22.5q0 -32 9 -48t36 -16h243q40 0 56 20.5t16 54.5v319q0 19 9 30.5t24 11.5h42q17 0 24 -12.5t7 -33.5v-209h68v210q0 21 10 33t24 12h51q17 0 22.5 -8.5t5.5 -26.5
v-310q0 -13 -4 -20.5t-21 -7.5h-221v-63h246q43 0 58 18t15 47v374q0 58 -61 58h-99q-28 0 -40 -9.5t-17 -23.5q-5 13 -14.5 23t-34.5 10h-55q-39 0 -54 -30q-6 12 -16.5 21t-29.5 9z" />
    <glyph glyph-name="sinNndd" horiz-adv-x="698" 
d="M654 393v73q0 43 -15.5 62t-58.5 19h-217q-34 0 -44.5 12t-10.5 33q0 11 4.5 16t16.5 5h323v53h-370q-49 0 -49 -41v-32q0 -16 7.5 -30.5t29.5 -19.5h-73v-54h344q22 0 30.5 -8.5t8.5 -31.5v-56h74zM177 297v-60h119v60h-119zM253 -7h130q17 0 30.5 9t16.5 23
q8 -32 49 -32h128q25 0 36 14t11 36v365h-74v-325q0 -13 -4.5 -19.5t-17.5 -6.5h-63q-16 0 -25 7.5t-9 30.5v68h-63v-69q0 -23 -9 -30t-23 -7h-68q-20 0 -20 23v108q0 19 10.5 32.5t38.5 13.5h108v150q0 29 -18 42t-48 13h-163v-62h129q15 0 22 -5t7 -18v-57h-103
q-9 0 -13 -6.5t-6 -16t-3.5 -19t-6.5 -16.5q-15 -7 -21 -21t-6 -34v-137q0 -28 10 -41t38 -13zM134 385h79l58 54h-164q-37 0 -61 -20t-24 -61v-358h71v344q0 24 10 32.5t31 8.5z" />
    <glyph glyph-name="sinT" horiz-adv-x="592" 
d="M476 492h15q11 0 20.5 -7t15.5 -13q6 -7 12.5 -20.5t8.5 -18.5v216h-72v-157zM296 281v-189q0 -14 -4 -21.5t-16 -7.5h-164q-9 0 -13 4.5t-4 17.5v75q0 29 5.5 42.5t21.5 23.5v22h-32l65 56h120q10 0 15.5 -5.5t5.5 -17.5zM205 427v22q0 20 -9.5 34t-32.5 14h-132v-61h88
q15 0 21 -6.5t6 -19.5v-33l-134 -115v-46h34q-11 -7 -17.5 -21t-6.5 -46v-102q0 -20 11 -33.5t34 -13.5h248q22 0 37.5 13.5t15.5 38.5v256q0 28 -14.5 40.5t-35.5 12.5h-96l66 55q12 11 23 15.5t27 4.5h109q28 0 28 -27v-321q0 -25 -21 -25h-62v-63h103q22 0 37.5 13
t15.5 39v390q0 25 -15.5 40t-41.5 15h-167q-15 0 -31 -4.5t-33 -19.5z" />
    <glyph glyph-name="sinTh" horiz-adv-x="513" 
d="M402 708v-228h69v228h-69zM189 609h10q9 0 19.5 -1.5t19.5 -5.5l125 -62q13 -6 23.5 -14t10.5 -25v-4h-184q-13 0 -18.5 3t-5.5 17v92zM471 423v71q0 39 -21.5 57t-48.5 30l-13 6.5t-33 16l-40 19t-33.5 16l-13.5 6.5q-29 14 -45.5 16.5t-39.5 2.5h-123v-55h62v-112
q0 -27 10.5 -37t35.5 -10h230v-27h73zM221 331v63h-143q-56 0 -56 -55v-285q0 -28 11 -41t39 -13h348q28 0 39.5 13t11.5 41v388h-73v-353q0 -26 -21 -26h-263q-12 0 -15.5 6.5t-3.5 17.5v219q0 14 7 19.5t18 5.5h101z" />
    <glyph glyph-name="sinD" horiz-adv-x="460" 
d="M340 492h15q11 0 20.5 -7t15.5 -13q6 -7 12.5 -20.5t8.5 -18.5v216h-72v-157zM417 0v63h-300q-11 0 -16.5 5.5t-5.5 20.5v176q0 15 6 21.5t22 6.5h290v151q0 53 -53 53h-338v-61h296q11 0 16 -5t5 -19v-58h-259q-28 0 -43 -13.5t-15 -43.5v-247q0 -24 9.5 -37t34.5 -13
h72q-16 -8 -22.5 -20.5t-6.5 -30.5v-75q0 -25 15.5 -35t36.5 -10h279v63h-233q-10 0 -16.5 3.5t-6.5 16.5v45q0 22 15.5 32.5t36.5 10.5h181z" />
    <glyph glyph-name="sinDh" 
d="M471 400v72q0 44 -15 62.5t-59 18.5h-216q-35 0 -45 12.5t-10 33.5q0 11 4 16t16 5h323v53h-369q-49 0 -49 -41v-32q0 -16 7 -30.5t29 -19.5h-72v-54h344q22 0 30 -8.5t8 -32.5v-55h74zM471 423h-74v-335q0 -11 -4 -18t-15 -7h-61q-23 0 -31 15.5t-8 35.5v122h-64v-122
q0 -21 -7 -36t-28 -15h-63q-11 0 -16 6t-5 17v243q0 11 5 17.5t19 6.5h133v64h-171q-31 0 -45 -18t-14 -47v-304q0 -48 47 -48h130q17 0 30.5 10.5t16.5 26.5q10 -37 49 -37h129q25 0 36 13t11 37v373z" />
    <glyph glyph-name="sinN" horiz-adv-x="591" 
d="M475 492h15q11 0 20.5 -7t15.5 -13q6 -7 12.5 -20.5t8.5 -18.5v216h-72v-157zM235 384v52q0 32 -15.5 46.5t-47.5 14.5h-150v-61h127q14 0 21 -6t7 -22v-94zM194 263h81q21 0 21 -22v-147q0 -18 -4.5 -24.5t-23.5 -6.5h-153q-13 0 -17 5t-4 17v100l-3 56v100h-69v-290
q0 -28 10 -39.5t38 -11.5h231q35 0 51 12.5t16 47.5v212q0 25 -11 36.5t-37 11.5h-76zM128 184l202 225q12 14 23 19.5t29 5.5h64q29 0 29 -28v-309q0 -17 -4.5 -25.5t-22.5 -8.5h-55v-63h92q36 0 49.5 14.5t13.5 51.5v368q0 35 -16.5 49t-50.5 14h-125q-30 0 -48 -15.5
t-35 -35.5l-161 -188l-6 -6t-8 -3q-3 0 -6.5 2t-5.5 3v-78q2 -2 7 -4t11 -2q12 0 24 14z" />
    <glyph glyph-name="sinNd" horiz-adv-x="621" 
d="M503 486h15q11 0 20.5 -7t15.5 -13q6 -7 12.5 -20.5t8.5 -18.5v216h-72v-157zM134 440h74l63 57h-164q-37 0 -61 -20.5t-24 -60.5v-416h71v400q0 23 10 31.5t31 8.5zM584 0v63h-300q-11 0 -16 5.5t-5 20.5v176q0 15 5.5 21.5t21.5 6.5h290v151q0 53 -53 53h-338v-61h296
q11 0 16.5 -5t5.5 -19v-58h-260q-28 0 -43 -13.5t-15 -43.5v-247q0 -24 9.5 -37t34.5 -13h72q-16 -8 -22.5 -20.5t-6.5 -30.5v-75q0 -25 15.5 -35t36.5 -10h279v63h-233q-10 0 -16.5 3.5t-6.5 16.5v45q0 22 15.5 32.5t36.5 10.5h181z" />
    <glyph glyph-name="sinP" horiz-adv-x="510" 
d="M397 492h16q10 0 19.5 -4t14.5 -9q7 -4 14 -12.5t9 -13.5v196h-73v-157zM22 54q0 -28 11.5 -41t39.5 -13h39.5h61.5h72.5h72.5h62h39q28 0 39.5 13t11.5 41v245q0 55 -56 55h-88v56q0 26 28 26h115v61h-138q-30 0 -48 -13.5t-18 -42.5v-148h105q14 0 20.5 -6t6.5 -20
v-177q0 -13 -4.5 -20t-17.5 -7h-259q-12 0 -17 7t-5 20v177q0 14 7.5 20t19.5 6h105v148q0 29 -18 42.5t-48 13.5h-138v-61h115q15 0 21 -6.5t6 -19.5v-56h-87q-56 0 -56 -55v-245z" />
    <glyph glyph-name="sinPh" horiz-adv-x="514" 
d="M402 708v-228h69v228h-69zM189 609h10q9 0 19.5 -1.5t19.5 -5.5l125 -62q13 -6 23.5 -14t10.5 -25v-4h-184q-13 0 -18.5 3t-5.5 17v92zM471 424v70q0 39 -21.5 57t-48.5 30l-13 6.5t-33 16l-40 19t-33.5 16l-13.5 6.5q-29 14 -45.5 16.5t-39.5 2.5h-123v-55h62v-112
q0 -27 10.5 -37t35.5 -10h230v-26h73zM471 442h-73v-353q0 -26 -21 -26h-263q-12 0 -15.5 6.5t-3.5 17.5v120q0 14 7 19.5t18 5.5h132v127q0 27 -14 40.5t-42 13.5h-174v-58h135q8 0 14.5 -3.5t6.5 -13.5v-54h-100q-56 0 -56 -55v-175q0 -28 11 -41t39 -13h348q28 0 39.5 13
t11.5 41v388z" />
    <glyph glyph-name="sinB" 
d="M471 400v72q0 43 -14 62t-55 19h-222q-35 0 -45 12.5t-10 33.5q0 11 4.5 16t16.5 5h323v53h-370q-49 0 -49 -41v-32q0 -16 7.5 -30.5t29.5 -19.5h-73v-54h352q14 0 22.5 -5.5t8.5 -24.5v-66h74zM208 54q0 -28 12 -41t40 -13h161q28 0 39 13t11 41v361h-74v-329
q0 -13 -4 -18t-15 -5h-80q-14 0 -17.5 6t-3.5 19v279q0 29 -15.5 41t-39.5 12h-144q-56 0 -56 -55v-311q0 -28 11 -41t39 -13h100v63h-56q-12 0 -16.5 5.5t-4.5 20.5v243q0 13 4.5 19t17.5 6h69q12 0 16.5 -6t4.5 -18z" />
    <glyph glyph-name="sinBh" horiz-adv-x="592" 
d="M478 492h15q11 0 20.5 -7t15.5 -13q6 -7 12.5 -20.5t8.5 -18.5v216h-72v-157zM22 51q0 -28 10 -39.5t38 -11.5h216q35 0 51 12.5t16 47.5v191q0 21 -10 29t-23 8h-23l23 119q6 27 35 27h95q14 0 20.5 -6.5t6.5 -20.5v-310q0 -20 -5.5 -27t-22.5 -7h-59v-63h97
q37 0 50 13.5t13 50.5v370q0 35 -16 49t-51 14h-155q-31 0 -48.5 -13t-22.5 -38l-38 -207h46q8 0 12.5 -4.5t4.5 -17.5v-125q0 -18 -6 -23.5t-22 -5.5h-140q-10 0 -14.5 6.5t-4.5 17.5v168q0 19 7.5 29t28.5 10h63v137q0 32 -20 49t-52 17h-100v-61h79q17 0 25.5 -7t8.5 -23
v-51h-57q-14 0 -19 -6t-5.5 -15t-1.5 -19t-7 -19q-11 -5 -17 -15t-6 -26v-204zM-6 355v-59h94v59h-94z" />
    <glyph glyph-name="sinM" horiz-adv-x="518" 
d="M471 400v72q0 43 -14 62t-55 19h-222q-35 0 -45 12.5t-10 33.5q0 11 4.5 16t16.5 5h323v53h-370q-49 0 -49 -41v-32q0 -16 7.5 -30.5t29.5 -19.5h-73v-54h352q14 0 22.5 -5.5t8.5 -24.5v-66h74zM471 415h-74v-330q0 -22 -18 -22h-266q-18 0 -18 22v76h146q43 0 43 44v173
q0 23 -13.5 36t-36.5 13h-160q-24 0 -38 -15t-14 -39v-319q0 -28 11 -41t39 -13h349q28 0 39 13t11 41v361zM94 218v130q0 10 6 14.5t15 4.5h78q20 0 20 -18v-112q0 -19 -17 -19h-102z" />
    <glyph glyph-name="sinMb" 
d="M471 400v72q0 43 -14 62t-55 19h-222q-35 0 -45 12.5t-10 33.5q0 11 4.5 16t16.5 5h323v53h-370q-49 0 -49 -41v-32q0 -16 7.5 -30.5t29.5 -19.5h-73v-54h352q14 0 22.5 -5.5t8.5 -24.5v-66h74zM471 54v358h-74v-325q0 -9 -4 -16.5t-14 -7.5h-66q-6 0 -12.5 3.5
t-6.5 12.5v24q1 9 6.5 15t13.5 11q4 2 11 6t13.5 11t6.5 17v41q0 15 -8 20.5t-19 5.5h-72h-72q-11 0 -19 -6t-8 -20v-41q0 -15 12 -23t18 -11q7 -4 14 -10.5t7 -16.5v-24q0 -9 -6 -12t-14 -3h-67q-16 0 -16 24v288q0 10 5 17t19 7h81q23 0 23 -20v-39q0 -22 -19 -22h-121
v-46h159q29 0 40.5 14.5t11.5 43.5v69q0 28 -16 39.5t-43 11.5h-152q-30 0 -45.5 -16.5t-15.5 -41.5v-338q0 -28 10 -41t35 -13h124q20 0 33.5 14t13.5 33v64q0 16 -11.5 23.5t-16.5 11.5l-12 9t-8 16v13q0 10 12 10h44h44q12 0 12 -10v-13q0 -10 -7.5 -15.5t-11.5 -8.5
q-5 -3 -16.5 -11.5t-11.5 -24.5v-64q0 -19 14 -33t33 -14h123q26 0 35.5 13t10.5 41z" />
    <glyph glyph-name="sinY" horiz-adv-x="565" 
d="M446 492h16q10 0 19.5 -4t14.5 -9q7 -4 14 -12.5t9 -13.5v196h-73v-157zM222 497h-144q-32 0 -44 -18.5t-12 -40.5v-384q0 -28 11 -41t39 -13h147q16 0 32.5 10.5t19.5 28.5q4 -18 20.5 -28.5t32.5 -10.5h146q28 0 39 13t11 41v243q0 30 -14.5 43.5t-44.5 13.5h-123v58
q0 13 7.5 18.5t21.5 5.5h152v61h-184q-33 0 -49.5 -15t-16.5 -43v-146h155q10 0 16.5 -5t6.5 -14v-188q0 -23 -19 -23h-83q-21 0 -30.5 14t-9.5 33v66h-67v-66q0 -19 -9 -33t-30 -14h-85q-19 0 -19 23v320q0 14 5.5 22t17.5 8h104v61z" />
    <glyph glyph-name="sinR" horiz-adv-x="458" 
d="M68 0h292q30 0 40.5 17t10.5 39v382q0 28 -15 43.5t-46 15.5h-179l195 157h-103l-196 -156q-19 -16 -32 -31.5t-13 -39.5v-379q0 -26 12.5 -37t33.5 -11zM95 396q0 21 9 30.5t26 9.5h176q17 0 25 -8t8 -27v-306q0 -21 -6.5 -26.5t-20.5 -5.5h-186q-18 0 -24.5 6.5
t-6.5 29.5v297zM22 419l70 -7v249h-70v-242z" />
    <glyph glyph-name="sinL" horiz-adv-x="557" 
d="M440 477h16q10 0 20 -7.5t16 -13.5t12 -19.5t9 -18.5v231h-73v-172zM228 48q0 -20 12 -34t37 -14h184q29 0 40.5 18t11.5 43v367q0 27 -17 48t-44 21h-376q-22 0 -38 -17t-16 -46v-525q0 -41 20 -56.5t50 -15.5h421v66h-376q-24 0 -33 10.5t-9 35.5v454q0 15 6 24t22 9
h287q18 0 24 -11t6 -25v-310q0 -12 -4.5 -19.5t-15.5 -7.5h-97q-12 0 -16.5 4.5t-4.5 16.5v173h65v55h-203v-56h64v-208z" />
    <glyph glyph-name="sinV" horiz-adv-x="518" 
d="M471 415h-74v-326q0 -26 -20 -26h-263q-12 0 -15.5 6.5t-3.5 17.5v124q0 14 7 19t18 5h132v133q0 27 -13.5 40t-42.5 13h-174v-61h135q8 0 14.5 -3t6.5 -14v-50h-100q-56 0 -56 -55v-184q0 -28 11 -41t39 -13h347q28 0 40 13t12 41v361zM471 400v72q0 44 -15.5 62.5
t-59.5 18.5h-216q-35 0 -45 12.5t-10 33.5q0 11 4.5 16t16.5 5h323v53h-370q-49 0 -49 -41v-32q0 -16 7.5 -30.5t29.5 -19.5h-73v-54h344q22 0 30.5 -8.5t8.5 -32.5v-55h74z" />
    <glyph glyph-name="sinSh" horiz-adv-x="592" 
d="M476 492h15q11 0 20.5 -7t15.5 -13q6 -7 12.5 -20.5t8.5 -18.5v216h-72v-157zM443 58h-76v-58h118q33 0 48 13t15 50v371q0 35 -16 49t-51 14h-169q-63 0 -72 -51l-36 -209h33q18 0 18 -20v-125q0 -17 -6 -23t-24 -6h-109q-12 0 -16.5 6.5t-4.5 18.5v320q0 16 5.5 22
t21.5 6h65v61h-109q-27 0 -41.5 -15t-14.5 -43v-381q0 -28 11 -43t38 -15h188q36 0 51.5 12.5t15.5 47.5v188q0 38 -31 38h-15l23 123q2 12 9.5 18.5t24.5 6.5h109q17 0 23.5 -7.5t6.5 -22.5v-14.5v-26.5v-28.5v-20.5h-65q-44 0 -44 -40v-117q0 -41 21.5 -65t54.5 -34z
M480 263v-178q-15 4 -30.5 12.5t-26.5 22.5t-11 37v93q0 13 9 13h59z" />
    <glyph glyph-name="sinSs" horiz-adv-x="512" 
d="M399 492h15q11 0 20.5 -7t15.5 -13q6 -7 12.5 -20.5t8.5 -18.5v216h-72v-157zM324 300l-102 -88q-12 -9 -15 -22.5t-3 -30.5v-44h68v38q0 18 3.5 27.5t13.5 19.5l110 100h-75zM22 54q0 -28 11.5 -41t39.5 -13h347q27 0 39 13t12 41v242q0 56 -56 56h-99v58q0 13 6.5 19.5
t21.5 6.5h52q13 0 16 -7.5t3 -20.5q0 -12 -4.5 -20t-12.5 -16l-38 -34h69l27 25q15 16 15 37v46q0 30 -16 40.5t-30 10.5h-104q-31 0 -48.5 -13.5t-17.5 -42.5v-148h116q14 0 20.5 -6t6.5 -20v-177q0 -13 -4.5 -20t-17.5 -7h-259q-13 0 -17.5 7t-4.5 20v177q0 14 7.5 20
t19.5 6h95v148q0 29 -18 42.5t-48 13.5h-128v-61h105q15 0 21.5 -6.5t6.5 -19.5v-56h-78q-56 0 -56 -55v-245z" />
    <glyph glyph-name="sinS" horiz-adv-x="565" 
d="M446 492h16q10 0 19.5 -4t14.5 -9q7 -4 14 -12.5t9 -13.5v196h-73v-157zM22 246v-192q0 -28 11 -41t39 -13h147q16 0 32.5 10.5t19.5 28.5q4 -18 20.5 -28.5t32.5 -10.5h146q28 0 39 13t11 41v243q0 30 -14.5 43.5t-44.5 13.5h-109v58q0 13 8 18.5t22 5.5h137v61h-162
q-30 0 -48 -13.5t-18 -42.5v-148h133q10 0 16.5 -5t6.5 -14v-188q0 -23 -19 -23h-83q-21 0 -30.5 14t-9.5 33v66h-67v-66q0 -19 -9 -33t-30 -14h-85q-19 0 -19 23v159q0 20 10.5 34t38.5 14h108v148q0 29 -18 42.5t-49 13.5h-162v-61h138q15 0 22 -5.5t7 -18.5v-58h-112
q-9 0 -13.5 -6.5t-6 -16t-3.5 -19t-7 -15.5q-13 -8 -19.5 -21.5t-6.5 -29.5zM-6 354v-59h119v59h-119z" />
    <glyph glyph-name="sinH" horiz-adv-x="591" 
d="M476 492h15q11 0 20.5 -7t15.5 -13q6 -7 12.5 -20.5t8.5 -18.5v216h-72v-157zM95 88v178q0 16 5.5 21.5t21.5 5.5h68v138q0 33 -18 49.5t-50 16.5h-100v-61h77q17 0 24.5 -6.5t7.5 -25.5v-50h-54q-55 0 -55 -56v-247q0 -27 11 -39t37 -12h206q36 0 51.5 12.5t15.5 47.5
v188q0 38 -31 38h-15l22 123q2 12 10 18.5t24 6.5h92q17 0 23.5 -7t6.5 -23v-309q0 -18 -5.5 -25t-22.5 -7h-54v-63h92q34 0 48.5 13.5t14.5 50.5v370q0 35 -16 49t-51 14h-152q-63 0 -72 -51l-36 -209h33q17 0 17 -20v-125q0 -17 -5.5 -23t-24.5 -6h-125q-12 0 -16.5 6.5
t-4.5 18.5z" />
    <glyph glyph-name="sinLl" horiz-adv-x="553" 
d="M438 477h16q10 0 20 -7.5t16 -13.5q5 -6 11.5 -19.5t9.5 -18.5v231h-73v-172zM95 247q0 17 8.5 26.5t22.5 9.5h385v162q0 31 -18.5 41.5t-39.5 10.5h-118q-24 0 -36 -21q-4 11 -12 16t-22 5h-124q-54 0 -54 -56v-103q-28 -2 -46.5 -21.5t-18.5 -49.5v-341q0 -40 20.5 -59
t57.5 -19h411v67h-374q-23 0 -32.5 11t-9.5 33v288zM437 340h-108v75q0 24 21 24h65q13 0 17.5 -6t4.5 -17v-76zM158 340v75q0 24 21 24h69q9 0 14 -5.5t5 -18.5v-75h-109zM117 97q0 -25 18.5 -35t39.5 -10h334v68h-322q-13 0 -21 6.5t-8 21.5v143h-41v-194z" />
    <glyph glyph-name="sinF" horiz-adv-x="564" 
d="M448 492h15q11 0 20.5 -7t15.5 -13q6 -7 12.5 -20.5t8.5 -18.5v216h-72v-157zM306 63v-63h160q23 0 38.5 15.5t15.5 45.5v384q0 28 -16.5 40t-37.5 12h-137q-26 0 -39.5 -8.5t-18.5 -25.5q-4 17 -16 25.5t-40 8.5h-139q-28 0 -41 -18.5t-13 -37.5v-379q0 -26 12 -44
t39 -18h161v63h-114q-14 0 -19.5 6.5t-5.5 21.5v317q0 28 25 28h87q18 0 24 -14t6 -29v-226h68v227q0 8 2 18t9 17t20 7h88q23 0 23 -28v-316q0 -14 -5.5 -21.5t-19.5 -7.5h-116z" />
    <glyph glyph-name="sinKSs" horiz-adv-x="919" 
d="M806 492h15q11 0 20.5 -7t15.5 -13q6 -7 12.5 -20.5t8.5 -18.5v216h-72v-157zM312 281v-189q0 -13 -4 -20.5t-16 -7.5h-36q-20 0 -24.5 12.5t-4.5 30.5v81h-49v-81q0 -17 -5 -30t-27 -13h-35q-10 0 -14 4.5t-4 17.5v75q0 28 5.5 42t22.5 23v22h-27l66 56h131
q10 0 15.5 -5.5t5.5 -17.5zM16 262v-46h34q-10 -7 -17 -21t-7 -46v-102q0 -20 11 -33.5t34 -13.5h92q14 0 25 7.5t14 21.5q8 -29 37 -29h88q21 0 36.5 13.5t15.5 38.5v256q0 28 -14 40.5t-36 12.5h-103l73 59q12 8 24.5 12t29.5 4h111v61h-127q-15 0 -34 -5t-37 -19l-57 -46
v23q0 19 -9.5 33t-32.5 14h-132v-61h89q14 0 20 -6.5t6 -19.5v-33zM731 300l-102 -88q-12 -9 -15 -22.5t-3 -30.5v-44h69v38q0 18 3 27.5t14 19.5l109 100h-75zM429 54q0 -28 12 -41t40 -13h346q28 0 39.5 13t11.5 41v242q0 56 -56 56h-99v58q0 13 6.5 19.5t21.5 6.5h52
q13 0 16 -7.5t3 -20.5q0 -12 -4.5 -20t-12.5 -16l-38 -34h69l27 25q15 16 15 37v46q0 30 -15.5 40.5t-30.5 10.5h-104q-30 0 -48 -13.5t-18 -42.5v-148h116q14 0 20.5 -6t6.5 -20v-177q0 -13 -4.5 -20t-17.5 -7h-259q-12 0 -16.5 7t-4.5 20v177q0 14 7 20t19 6h96v148
q0 29 -18 42.5t-49 13.5h-128v-61h105q16 0 22 -6.5t6 -19.5v-56h-78q-56 0 -56 -55v-245z" />
    <glyph glyph-name="sinKV" horiz-adv-x="911" 
d="M12 262v-46h34q-11 -7 -17.5 -21t-6.5 -46v-102q0 -20 11 -33.5t34 -13.5h92q14 0 24.5 7.5t14.5 21.5q8 -29 37 -29h88q21 0 36.5 13.5t15.5 38.5v256q0 28 -14 40.5t-36 12.5h-103l38 32q8 7 14.5 9.5t14.5 3.5q6 1 16.5 0t19.5 -2l130 -12l75 36l-213 37q-9 2 -20.5 3
t-18.5 0q-12 -2 -22 -5.5t-22 -12.5l-29 -23v23q0 19 -9.5 33t-32.5 14h-132v-61h88q15 0 21 -6.5t6 -19.5v-33zM869 415h-74v-326q0 -26 -20 -26h-263q-11 0 -15 6.5t-4 17.5v149q0 14 7 19t19 5h131v132q0 27 -13.5 40.5t-42.5 13.5h-173v-54h135q8 0 14.5 -3.5t6.5 -14.5
v-56h-100q-56 0 -56 -55v-209q0 -28 11 -41t39 -13h346q28 0 40 13t12 41v361zM308 281v-189q0 -14 -4 -21.5t-17 -7.5h-35q-20 0 -24.5 13t-4.5 31v81h-49v-82q0 -17 -5 -30t-27 -13h-35q-10 0 -14 4.5t-4 17.5v75q0 29 5.5 42.5t22.5 23.5v22h-27l65 56h132
q10 0 15.5 -5.5t5.5 -17.5zM869 400v72q0 44 -15 62.5t-59 18.5h-215q-35 0 -45 12.5t-10 33.5q0 11 4 16t16 5h322v53h-368q-49 0 -49 -41v-32q0 -16 7 -30.5t29 -19.5h-64v-54h335q21 0 29.5 -8.5t8.5 -32.5v-55h74z" />
    <glyph glyph-name="sinTV" horiz-adv-x="919" 
d="M494 383l44 56l-199 21q-6 1 -17.5 2.5t-25 2t-25.5 -0.5q-16 -2 -28 -8t-19 -13l-19 -16v22q0 20 -9.5 34t-32.5 14h-132v-61h88q15 0 21 -6.5t6 -19.5v-33l-134 -115v-46h34q-11 -7 -17.5 -21t-6.5 -46v-102q0 -20 11 -33.5t34 -13.5h248q22 0 37.5 13.5t15.5 38.5v256
q0 28 -14.5 40.5t-35.5 12.5h-96l33 27q7 6 14.5 9.5t14.5 4.5t17 1t19 -1zM879 415h-74v-326q0 -26 -20 -26h-263q-12 0 -15.5 6.5t-3.5 17.5v133q0 14 7 19t18 5h132v142q0 28 -14 41t-42 13l-174 14l35 -70l100 -2q8 0 14.5 -3.5t6.5 -13.5v-63h-100q-56 0 -56 -55v-193
q0 -28 11 -41t39 -13h347q28 0 40 13t12 41v361zM879 400v72q0 44 -15.5 62.5t-58.5 18.5h-214q-34 0 -44.5 12.5t-10.5 33.5q0 11 4.5 16t16.5 5h320v53h-367q-49 0 -49 -41v-32q0 -16 7.5 -30.5t29.5 -19.5h-67v-54h335q22 0 30.5 -8.5t8.5 -32.5v-55h74zM296 281v-189
q0 -14 -4 -21.5t-16 -7.5h-164q-9 0 -13 4.5t-4 17.5v75q0 29 5.5 42.5t21.5 23.5v22h-32l65 56h120q10 0 15.5 -5.5t5.5 -17.5z" />
    <glyph glyph-name="sinTTh" horiz-adv-x="926" 
d="M485 376l143 18l-243 88q-17 7 -44 7t-50 -9q-16 -4 -28.5 -12.5t-25.5 -17.5l-28 -23v22q0 19 -10 33.5t-32 14.5h-132v-61h89q14 0 20 -6.5t6 -19.5v-33l-134 -115v-46h34q-10 -7 -17 -21t-7 -46v-102q0 -20 11 -33.5t34 -13.5h249q22 0 37 13.5t15 38.5v256
q0 27 -14 40t-36 13h-96l38 32q10 8 19.5 14.5t20.5 12.5q10 7 23 8t29 -5zM301 281v-189q0 -13 -4 -21t-17 -8h-164q-9 0 -13 4.5t-4 17.5v76q0 28 5.5 41.5t21.5 22.5v23h-33l67 56h120q10 0 15.5 -5t5.5 -18zM808 708v-228h70v228h-70zM596 609h9q10 0 20.5 -1.5
t19.5 -5.5l125 -62q13 -6 23.5 -14t10.5 -25v-4h-183q-13 0 -19 3t-6 18v91zM878 423v71q0 39 -21 57t-49 30l-13 6.5t-33 16l-40 19t-33.5 16l-13.5 6.5q-28 14 -45 16.5t-40 2.5h-123v-54h62v-113q0 -28 10.5 -38t35.5 -10h229v-26h74zM628 331v63h-143q-56 0 -56 -55
v-285q0 -28 11 -41t39 -13h348q28 0 39.5 13t11.5 41v388h-74v-353q0 -26 -19 -26h-264q-11 0 -15 6.5t-4 17.5v219q0 15 7 20t19 5h100z" />
    <glyph glyph-name="sinND" horiz-adv-x="850" 
d="M727 492h15q11 0 20.5 -7t15.5 -13q6 -7 12.5 -20.5t8.5 -18.5v216h-72v-157zM235 384v52q0 32 -15.5 46.5t-47.5 14.5h-150v-61h127q14 0 21 -6t7 -22v-94zM194 263h81q21 0 21 -22v-147q0 -18 -4.5 -24.5t-23.5 -6.5h-153q-13 0 -17 5t-4 17v96l-3 60v100h-69v-290
q0 -28 10 -39.5t38 -11.5h231q35 0 51 12.5t16 47.5v212q0 25 -11 36.5t-37 11.5h-76zM104 166q12 0 24 14l203 229q13 15 23.5 21t32.5 6h68v61h-100q-26 0 -45.5 -15.5t-38.5 -37.5l-159 -186l-6 -6t-8 -3q-3 0 -5.5 2t-4.5 3l1 -82q4 -6 15 -6zM803 0v63h-299
q-12 0 -17 5.5t-5 20.5v176q0 15 6 21.5t22 6.5h289v151q0 53 -53 53h-337v-61h296q11 0 16 -5t5 -19v-58h-259q-28 0 -43 -13.5t-15 -43.5v-247q0 -24 9 -37t35 -13h72q-17 -8 -23 -20.5t-6 -30.5v-75q0 -25 15 -35t37 -10h278v63h-232q-10 0 -16.5 3.5t-6.5 16.5v45
q0 22 15 32.5t37 10.5h180z" />
    <glyph glyph-name="sinNDh" horiz-adv-x="909" 
d="M868 423h-74v-335q0 -11 -4.5 -18t-14.5 -7h-62q-23 0 -31 15.5t-8 35.5v122h-63v-122q0 -21 -7 -36t-29 -15h-62q-11 0 -16 6t-5 17v259q0 12 5 18.5t19 6.5h109v64h-147q-31 0 -45 -18t-14 -47v-321q0 -48 47 -48h130q17 0 30.5 10.5t16.5 26.5q9 -37 49 -37h129
q25 0 36 13t11 37v373zM194 263h81q21 0 21 -22v-147q0 -18 -4.5 -24.5t-23.5 -6.5h-153q-13 0 -17 5t-4 17v96l-3 60v100h-69v-290q0 -28 10 -39.5t38 -11.5h231q35 0 51 12.5t16 47.5v212q0 25 -11 36.5t-37 11.5h-76zM868 400v72q0 44 -15 62.5t-59 18.5h-215
q-34 0 -44.5 12.5t-10.5 33.5q0 11 4.5 16t16.5 5h321v53h-368q-49 0 -49 -41v-32q0 -16 7.5 -30.5t29.5 -19.5h-65v-54h335q21 0 29.5 -8.5t8.5 -32.5v-55h74zM104 166q12 0 24 14l158 177q7 7 14 12.5t14 8.5q8 3 19.5 3h20.5l103 -3l69 55l-173 15q-7 0 -18 1t-18 1
q-12 0 -20.5 -2t-16.5 -6q-9 -3 -16.5 -9.5t-14.5 -14.5l-137 -160l-6 -6t-8 -3q-3 0 -5.5 2t-4.5 3l1 -82q4 -6 15 -6zM235 384v52q0 32 -15.5 46.5t-47.5 14.5h-150v-61h127q14 0 21 -6t7 -22v-94z" />
    <glyph glyph-name="sinNV" horiz-adv-x="907" 
d="M867 415h-74v-326q0 -26 -20 -26h-263q-11 0 -15 6.5t-4 17.5v129q0 14 7 19t19 5h131v139q0 55 -56 55h-168l37 -57h93q6 0 13.5 -3.5t7.5 -14.5v-61h-100q-56 0 -56 -55v-189q0 -28 11 -41t39 -13h346q28 0 40 13t12 41v361zM194 263h81q21 0 21 -22v-147
q0 -18 -4.5 -24.5t-23.5 -6.5h-153q-13 0 -17 5t-4 17v96l-3 60v100h-69v-290q0 -28 10 -39.5t38 -11.5h231q35 0 51 12.5t16 47.5v212q0 25 -11 36.5t-37 11.5h-76zM867 400v72q0 44 -15 62.5t-59 18.5h-217q-34 0 -44 12.5t-10 33.5q0 11 3.5 16t15.5 5h324v53h-369
q-49 0 -49 -41v-32q0 -16 7 -30.5t29 -19.5h-65v-54h337q21 0 29.5 -8.5t8.5 -32.5v-55h74zM88 254l1 -82q4 -6 15 -6q12 0 24 14l158 180q8 8 15.5 14.5t14.5 10.5q9 4 20.5 5t21.5 1l135 -14l40 56l-160 22q-7 1 -16.5 2.5t-18 3t-13.5 0.5q-11 0 -21.5 -3t-20.5 -9
q-9 -5 -17 -13t-14 -15l-140 -163l-6 -6t-8 -3q-3 0 -5.5 2t-4.5 3zM235 384v52q0 32 -15.5 46.5t-47.5 14.5h-150v-61h127q14 0 21 -6t7 -22v-94z" />
    <glyph glyph-name="sinNTh" horiz-adv-x="914" 
d="M194 263h81q21 0 21 -22v-147q0 -18 -4.5 -24.5t-23.5 -6.5h-153q-13 0 -16.5 5t-4.5 17l1 96l-4 60v100h-69v-290q0 -28 10 -39.5t38 -11.5h231q35 0 51 12.5t16 47.5v212q0 25 -11 36.5t-37 11.5h-76zM104 166q12 0 24 14l163 184q9 12 17.5 17t23.5 5q6 0 15.5 -1.5
t16.5 -2.5l99 -16l158 28l-258 56q-12 3 -23 4t-17 1q-10 0 -20 -1.5t-18 -5.5q-8 -3 -16 -9.5t-16 -15.5l-141 -165l-6 -6t-8 -3q-3 0 -5.5 2t-4.5 3l1 -82q4 -6 15 -6zM235 384v52q0 32 -15.5 46.5t-47.5 14.5h-150v-61h127q14 0 21 -6t7 -22v-94zM805 708v-228h70v228
h-70zM593 609h9q10 0 20 -1.5t19 -5.5l126 -62q12 -6 23 -14t11 -25v-4h-184q-13 0 -18.5 3t-5.5 17v92zM874 423l1 71q0 39 -21.5 57t-48.5 30l-13.5 6.5t-33.5 16l-40 19t-33.5 16l-13.5 6.5q-29 14 -45.5 16.5t-39.5 2.5h-122v-55h62v-112q0 -27 10 -37t35 -10h230v-27
h73zM624 331v63h-143q-56 0 -56 -55v-285q0 -28 11 -41t39 -13h348q28 0 39.5 13t11.5 41v388h-73v-353q0 -26 -21 -26h-263q-11 0 -14.5 6.5t-3.5 17.5v219q0 14 6.5 19.5t17.5 5.5h101z" />
    <glyph glyph-name="sinDV" horiz-adv-x="674" 
d="M134 360h74l63 61h-164q-37 0 -61 -20t-24 -60v-341h71v319q0 24 10 32.5t31 8.5zM633 415h-73v-326q0 -26 -21 -26h-263q-11 0 -14.5 6.5t-3.5 17.5v124q0 14 6.5 19t18.5 5h131v133q0 27 -13 40t-43 13h-173v-61h135q8 0 14.5 -3t6.5 -14v-50h-100q-56 0 -56 -55v-184
q0 -28 11 -41t39 -13h347q28 0 39.5 13t11.5 41v361zM633 400v72q0 44 -15 62.5t-59 18.5h-216q-35 0 -45 12.5t-10 33.5q0 11 4 16t16 5h323v53h-369q-49 0 -49 -41v-32q0 -16 7 -30.5t29 -19.5h-72v-54h344q22 0 30.5 -8.5t8.5 -32.5v-55h73z" />
    <glyph glyph-name="sinDDh" horiz-adv-x="672" 
d="M630 400v72q0 44 -15 62.5t-59 18.5h-215q-34 0 -44.5 12.5t-10.5 33.5q0 11 4.5 16t16.5 5h321v53h-368q-49 0 -49 -41v-32q0 -16 7.5 -30.5t29.5 -19.5h-65v-54h335q22 0 30.5 -8.5t8.5 -32.5v-55h73zM630 423h-73v-335q0 -11 -4.5 -18t-15.5 -7h-61q-23 0 -31.5 15.5
t-8.5 35.5v122h-62v-122q0 -21 -7.5 -36t-29.5 -15h-61q-12 0 -16.5 6t-4.5 17v243q0 11 4.5 17.5t18.5 6.5h110v64h-148q-31 0 -45 -18t-14 -47v-304q0 -48 47 -48h130q17 0 31 10.5t16 26.5q9 -37 49 -37h129q26 0 36.5 13t10.5 37v373zM134 357h74l63 60h-164
q-37 0 -61 -20.5t-24 -60.5v-336h71v316q0 24 10 32.5t31 8.5z" />
    </font>
</defs>
</svg>
