<svg width="96" height="96" viewBox="0 0 96 96" fill="none" xmlns="http://www.w3.org/2000/svg">
<path d="M48.4159 2L8 25.2992V71.7008L48.4159 95L88.8318 71.7008V25.2992L48.4159 2ZM76.8851 64.8192L48.4159 81.0402L19.9467 64.8192V32.1562L48.4159 15.7141L76.8851 32.1562V64.8192Z" fill="#002D74"/>
<path d="M48.4159 15.7386V2L8 25.2992V71.7008L48.4159 95V81.0648L19.9467 64.8438V32.1562L48.4159 15.7386Z" fill="#002D74"/>
<path d="M48.4159 81.0648L48.4159 94.8034L88.8318 71.5042L88.8318 25.2992L48.4159 2V15.7386L76.8851 31.9596V64.6226L48.4159 81.0648Z" fill="#002D74"/>
<path d="M70.5778 35.8625V61.2849L68.1582 62.6624L67.402 60.6561L68.4304 60.0572V37.0603L48.317 25.5618L28.2035 37.0603V60.0572L48.317 71.5557L61.5646 63.9799C62.593 63.381 62.9862 62.0934 62.4417 61.0454L48.4077 33.7365L36.5513 56.7634L48.317 49.3672L57.7536 55.1464L59.3567 59.1889L48.3472 52.3916L35.9464 60.1471C35.644 60.3267 35.3113 60.4166 34.9786 60.4166C34.6156 60.4166 34.2527 60.3267 33.9502 60.1171C33.1941 59.6081 32.9521 58.6199 33.3453 57.8114L46.9559 31.1314C47.5306 30.0235 49.1033 30.0235 49.678 31.1314L65.5268 61.7041C66.0712 62.7522 65.678 64.0697 64.6497 64.6686L48.317 74.0111L26.0561 61.2849V35.8625L48.317 23.1364L70.5778 35.8625Z" fill="#002D74"/>
</svg>
