<svg width="310" height="50" viewBox="0 0 310 50" fill="none" xmlns="http://www.w3.org/2000/svg">
<path d="M72.5286 34.0317H65.8475C65.4165 34.0317 65.201 33.8052 65.201 33.3522V27.5198C65.2728 27.1046 65.4883 26.8781 65.8475 26.8403H72.5286V34.0317ZM67.7333 39.2412C70.535 39.2035 72.1873 37.8633 72.6902 35.2208L73.1751 38.7316H78.6708V18.1767C78.6708 14.6282 77.5393 12.4009 75.2764 11.4949C74.2348 11.1174 72.8878 10.9287 71.2355 10.9287H60.8906V16.308H71.882C72.2771 16.3835 72.4927 16.61 72.5286 16.9875V22.2537H66.4402C63.0279 22.2537 60.8547 23.1408 59.9208 24.9151C59.4179 25.9343 59.1665 27.3311 59.1665 29.1053V32.7293C59.1665 36.0513 60.298 38.0898 62.5609 38.8448C63.423 39.1091 64.4646 39.2412 65.6859 39.2412H67.7333Z" fill="#002D74"/>
<path d="M97.1514 33.3522C97.1514 33.8052 96.9359 34.0317 96.5049 34.0317H90.0393C89.6083 34.0317 89.3928 33.8052 89.3928 33.3522V16.8743C89.4646 16.459 89.6802 16.2325 90.0393 16.1948L97.1514 16.2514V33.3522ZM96.5049 44.6772H84.4359V50H95.2656C99.2886 50 101.785 48.7354 102.755 46.2061C103.114 45.1869 103.294 43.96 103.294 42.5255V10.9853L90.632 10.8154C87.1837 10.7777 85.0106 11.6837 84.1126 13.5334C83.6098 14.5527 83.3583 15.9305 83.3583 17.667V32.7293C83.3583 36.0513 84.4898 38.0898 86.7527 38.8448C87.6148 39.1091 88.6564 39.2412 89.8777 39.2412H92.3023C94.9244 39.2035 96.5408 38.0332 97.1514 35.7305V43.9977C97.1514 44.4507 96.9359 44.6772 96.5049 44.6772Z" fill="#002D74"/>
<path d="M114.985 38.7316V10.9853H108.897V38.7316H114.985ZM114.985 6.51189V0.849377H108.897V6.51189H114.985Z" fill="#002D74"/>
<path d="M127.485 38.7316V0.509626H121.451V38.7316H127.485Z" fill="#002D74"/>
<path d="M151.839 39.0713V33.692H139.824C139.393 33.692 139.177 33.4655 139.177 33.0125V28.1427H152.539V17.5538C152.539 14.2695 151.623 12.1744 149.792 11.2684C148.678 10.7399 147.169 10.4757 145.266 10.4757H140.255C136.914 10.4757 134.795 11.3439 133.897 13.0804C133.358 14.1752 133.089 15.6663 133.089 17.5538V31.5968C133.089 35.2963 134.4 37.5991 137.022 38.5051C138.136 38.8826 139.501 39.0713 141.117 39.0713H151.839ZM139.177 16.3647C139.177 15.9117 139.393 15.6852 139.824 15.6852H145.912C146.343 15.6852 146.559 15.9117 146.559 16.3647V23.5561H139.177V16.3647Z" fill="#002D74"/>
<path d="M182.873 5.43601V0.0566251L176.893 0C173.337 0 171.092 1.057 170.158 3.17101C169.691 4.22801 169.457 5.60589 169.457 7.30464V10.9853H166.494V15.9683H169.457V38.7316H175.546V15.9683H181.85V10.9853H175.546V6.05889C175.618 5.68139 175.815 5.47376 176.138 5.43601H182.873Z" fill="#002D74"/>
<path d="M191.279 38.7316V10.9853H185.19V38.7316H191.279ZM191.279 6.51189V0.849377H185.19V6.51189H191.279Z" fill="#002D74"/>
<path d="M208.304 10.4757C205.467 10.5134 203.797 11.7969 203.294 14.3262L202.809 10.9853H197.367L197.421 38.7316H203.509L203.455 16.3647C203.455 15.9117 203.671 15.6852 204.102 15.6852H210.567C210.962 15.7607 211.178 15.9872 211.214 16.3647V38.7316H217.302V16.9875C217.302 13.6655 216.171 11.627 213.908 10.872C213.046 10.6078 212.004 10.4757 210.783 10.4757H208.304Z" fill="#002D74"/>
<path d="M234.49 34.0317H227.809C227.378 34.0317 227.162 33.8052 227.162 33.3522V27.5198C227.234 27.1046 227.45 26.8781 227.809 26.8403H234.49V34.0317ZM229.695 39.2412C232.496 39.2035 234.149 37.8633 234.651 35.2208L235.136 38.7316H240.632V18.1767C240.632 14.6282 239.501 12.4009 237.238 11.4949C236.196 11.1174 234.849 10.9287 233.197 10.9287H222.852V16.308H233.843C234.238 16.3835 234.454 16.61 234.49 16.9875V22.2537H228.401C224.989 22.2537 222.816 23.1408 221.882 24.9151C221.379 25.9343 221.128 27.3311 221.128 29.1053V32.7293C221.128 36.0513 222.259 38.0898 224.522 38.8448C225.384 39.1091 226.426 39.2412 227.647 39.2412H229.695Z" fill="#002D74"/>
<path d="M256.796 10.4757C253.958 10.5134 252.288 11.7969 251.785 14.3262L251.3 10.9853H245.858L245.912 38.7316H252.001L251.947 16.3647C251.947 15.9117 252.162 15.6852 252.593 15.6852H259.059C259.454 15.7607 259.669 15.9872 259.705 16.3647V38.7316H265.794V16.9875C265.794 13.6655 264.662 11.627 262.399 10.872C261.537 10.6078 260.496 10.4757 259.274 10.4757H256.796Z" fill="#002D74"/>
<path d="M286.483 39.2412V33.8052H277.216C276.821 33.7297 276.605 33.5032 276.57 33.1257V16.5345C276.641 16.157 276.857 15.9494 277.216 15.9117H286.483V10.4757H278.455C274.432 10.4757 271.936 11.7403 270.966 14.2695C270.607 15.2888 270.427 16.5157 270.427 17.9502V31.7101C270.427 35.4096 271.72 37.7312 274.307 38.675C275.42 39.0525 276.803 39.2412 278.455 39.2412H286.483Z" fill="#002D74"/>
<path d="M308.466 39.0713V33.692H296.451C296.02 33.692 295.804 33.4655 295.804 33.0125V28.1427H309.167V17.5538C309.167 14.2695 308.251 12.1744 306.419 11.2684C305.305 10.7399 303.797 10.4757 301.893 10.4757H296.882C293.542 10.4757 291.422 11.3439 290.524 13.0804C289.985 14.1752 289.716 15.6663 289.716 17.5538V31.5968C289.716 35.2963 291.027 37.5991 293.649 38.5051C294.763 38.8826 296.128 39.0713 297.744 39.0713H308.466ZM295.804 16.3647C295.804 15.9117 296.02 15.6852 296.451 15.6852H302.539C302.97 15.6852 303.186 15.9117 303.186 16.3647V23.5561H295.804V16.3647Z" fill="#002D74"/>
<path d="M21.6667 0L0 12.5264V37.4736L21.6667 50L43.3333 37.4736V12.5264L21.6667 0ZM36.9288 33.7738L21.6667 42.4947L6.40453 33.7738V16.213L21.6667 7.37315L36.9288 16.213V33.7738Z" fill="#002D74"/>
<path d="M21.6667 7.38636V0L0 12.5264V37.4736L21.6667 50V42.5079L6.40453 33.787V16.213L21.6667 7.38636Z" fill="#002D74"/>
<path d="M21.6667 42.5079L21.6667 49.8943L43.3333 37.3679L43.3333 12.5264L21.6667 0V7.38636L36.9288 16.1073V33.6681L21.6667 42.5079Z" fill="#002D74"/>
<path d="M33.5475 18.2057V31.8736L32.2504 32.6142L31.845 31.5355L32.3963 31.2136V18.8496L21.6136 12.6676L10.831 18.8496V31.2136L21.6136 37.3955L28.7156 33.3225C29.2669 33.0005 29.4777 32.3083 29.1858 31.7448L21.6623 17.0626L15.3062 29.4427L21.6136 25.4663L26.6726 28.5733L27.5319 30.7467L21.6298 27.0922L14.9819 31.2619C14.8197 31.3585 14.6414 31.4068 14.463 31.4068C14.2684 31.4068 14.0739 31.3585 13.9117 31.2458C13.5064 30.9721 13.3766 30.4408 13.5874 30.0061L20.884 15.662C21.192 15.0664 22.0352 15.0664 22.3433 15.662L30.8397 32.099C31.1316 32.6625 30.9208 33.3708 30.3695 33.6928L21.6136 38.7156L9.67972 31.8736V18.2057L21.6136 11.3636L33.5475 18.2057Z" fill="#002D74"/>
</svg>
