<svg width="317" height="333" viewBox="0 0 317 333" fill="none" xmlns="http://www.w3.org/2000/svg">
<g clip-path="url(#clip0_852_2156)">
<g opacity="0.3">
<path fill-rule="evenodd" clip-rule="evenodd" d="M315 5.98014C315 6.80854 315.672 7.48014 316.5 7.48014C317.328 7.48014 318 6.80854 318 5.98014V5.84424C318 5.01584 317.328 4.34424 316.5 4.34424C315.672 4.34424 315 5.01584 315 5.84424V5.98014Z" fill="#0B131B"/>
<path fill-rule="evenodd" clip-rule="evenodd" d="M315 32.1129C315 32.9413 315.672 33.6129 316.5 33.6129C317.328 33.6129 318 32.9413 318 32.1129V31.9771C318 31.1486 317.328 30.4771 316.5 30.4771C315.672 30.4771 315 31.1486 315 31.9771V32.1129Z" fill="#0B131B"/>
<path fill-rule="evenodd" clip-rule="evenodd" d="M315 60.3369C315 61.1653 315.672 61.8369 316.5 61.8369C317.328 61.8369 318 61.1653 318 60.3369V60.2012C318 59.3727 317.328 58.7012 316.5 58.7012C315.672 58.7012 315 59.3727 315 60.2012V60.3369Z" fill="#0B131B"/>
<path fill-rule="evenodd" clip-rule="evenodd" d="M315 87.5149C315 88.3429 315.672 89.0149 316.5 89.0149C317.328 89.0149 318 88.3429 318 87.5149V87.3789C318 86.5499 317.328 85.8789 316.5 85.8789C315.672 85.8789 315 86.5499 315 87.3789V87.5149Z" fill="#0B131B"/>
<path fill-rule="evenodd" clip-rule="evenodd" d="M315 114.693C315 115.522 315.672 116.193 316.5 116.193C317.328 116.193 318 115.522 318 114.693V114.557C318 113.729 317.328 113.057 316.5 113.057C315.672 113.057 315 113.729 315 114.557V114.693Z" fill="#0B131B"/>
<path fill-rule="evenodd" clip-rule="evenodd" d="M315 141.871C315 142.7 315.672 143.371 316.5 143.371C317.328 143.371 318 142.7 318 141.871V141.735C318 140.907 317.328 140.235 316.5 140.235C315.672 140.235 315 140.907 315 141.735V141.871Z" fill="#0B131B"/>
<path fill-rule="evenodd" clip-rule="evenodd" d="M315 170.095C315 170.923 315.672 171.595 316.5 171.595C317.328 171.595 318 170.923 318 170.095V169.959C318 169.131 317.328 168.459 316.5 168.459C315.672 168.459 315 169.131 315 169.959V170.095Z" fill="#0B131B"/>
<path fill-rule="evenodd" clip-rule="evenodd" d="M315 197.273C315 198.101 315.672 198.773 316.5 198.773C317.328 198.773 318 198.101 318 197.273V197.137C318 196.309 317.328 195.637 316.5 195.637C315.672 195.637 315 196.309 315 197.137V197.273Z" fill="#0B131B"/>
<path fill-rule="evenodd" clip-rule="evenodd" d="M315 224.452C315 225.28 315.672 225.952 316.5 225.952C317.328 225.952 318 225.28 318 224.452V224.315C318 223.487 317.328 222.815 316.5 222.815C315.672 222.815 315 223.487 315 224.315V224.452Z" fill="#0B131B"/>
<path fill-rule="evenodd" clip-rule="evenodd" d="M315 252.675C315 253.503 315.672 254.175 316.5 254.175C317.328 254.175 318 253.503 318 252.675V252.539C318 251.711 317.328 251.039 316.5 251.039C315.672 251.039 315 251.711 315 252.539V252.675Z" fill="#0B131B"/>
<path fill-rule="evenodd" clip-rule="evenodd" d="M315 278.808C315 279.636 315.672 280.308 316.5 280.308C317.328 280.308 318 279.636 318 278.808V278.672C318 277.843 317.328 277.172 316.5 277.172C315.672 277.172 315 277.843 315 278.672V278.808Z" fill="#0B131B"/>
<path fill-rule="evenodd" clip-rule="evenodd" d="M315 307.032C315 307.86 315.672 308.532 316.5 308.532C317.328 308.532 318 307.86 318 307.032V306.896C318 306.067 317.328 305.396 316.5 305.396C315.672 305.396 315 306.067 315 306.896V307.032Z" fill="#0B131B"/>
<path fill-rule="evenodd" clip-rule="evenodd" d="M288 5.98014C288 6.80854 288.672 7.48014 289.5 7.48014C290.328 7.48014 291 6.80854 291 5.98014V5.84424C291 5.01584 290.328 4.34424 289.5 4.34424C288.672 4.34424 288 5.01584 288 5.84424V5.98014Z" fill="#0B131B"/>
<path fill-rule="evenodd" clip-rule="evenodd" d="M288 32.1129C288 32.9413 288.672 33.6129 289.5 33.6129C290.328 33.6129 291 32.9413 291 32.1129V31.9771C291 31.1486 290.328 30.4771 289.5 30.4771C288.672 30.4771 288 31.1486 288 31.9771V32.1129Z" fill="#0B131B"/>
<path fill-rule="evenodd" clip-rule="evenodd" d="M288 60.3369C288 61.1653 288.672 61.8369 289.5 61.8369C290.328 61.8369 291 61.1653 291 60.3369V60.2012C291 59.3727 290.328 58.7012 289.5 58.7012C288.672 58.7012 288 59.3727 288 60.2012V60.3369Z" fill="#0B131B"/>
<path fill-rule="evenodd" clip-rule="evenodd" d="M288 87.5149C288 88.3429 288.672 89.0149 289.5 89.0149C290.328 89.0149 291 88.3429 291 87.5149V87.3789C291 86.5499 290.328 85.8789 289.5 85.8789C288.672 85.8789 288 86.5499 288 87.3789V87.5149Z" fill="#0B131B"/>
<path fill-rule="evenodd" clip-rule="evenodd" d="M288 114.693C288 115.522 288.672 116.193 289.5 116.193C290.328 116.193 291 115.522 291 114.693V114.557C291 113.729 290.328 113.057 289.5 113.057C288.672 113.057 288 113.729 288 114.557V114.693Z" fill="#0B131B"/>
<path fill-rule="evenodd" clip-rule="evenodd" d="M288 141.871C288 142.7 288.672 143.371 289.5 143.371C290.328 143.371 291 142.7 291 141.871V141.735C291 140.907 290.328 140.235 289.5 140.235C288.672 140.235 288 140.907 288 141.735V141.871Z" fill="#0B131B"/>
<path fill-rule="evenodd" clip-rule="evenodd" d="M288 170.095C288 170.923 288.672 171.595 289.5 171.595C290.328 171.595 291 170.923 291 170.095V169.959C291 169.131 290.328 168.459 289.5 168.459C288.672 168.459 288 169.131 288 169.959V170.095Z" fill="#0B131B"/>
<path fill-rule="evenodd" clip-rule="evenodd" d="M288 197.273C288 198.101 288.672 198.773 289.5 198.773C290.328 198.773 291 198.101 291 197.273V197.137C291 196.309 290.328 195.637 289.5 195.637C288.672 195.637 288 196.309 288 197.137V197.273Z" fill="#0B131B"/>
<path fill-rule="evenodd" clip-rule="evenodd" d="M288 224.452C288 225.28 288.672 225.952 289.5 225.952C290.328 225.952 291 225.28 291 224.452V224.315C291 223.487 290.328 222.815 289.5 222.815C288.672 222.815 288 223.487 288 224.315V224.452Z" fill="#0B131B"/>
<path fill-rule="evenodd" clip-rule="evenodd" d="M288 252.675C288 253.503 288.672 254.175 289.5 254.175C290.328 254.175 291 253.503 291 252.675V252.539C291 251.711 290.328 251.039 289.5 251.039C288.672 251.039 288 251.711 288 252.539V252.675Z" fill="#0B131B"/>
<path fill-rule="evenodd" clip-rule="evenodd" d="M288 278.808C288 279.636 288.672 280.308 289.5 280.308C290.328 280.308 291 279.636 291 278.808V278.672C291 277.843 290.328 277.172 289.5 277.172C288.672 277.172 288 277.843 288 278.672V278.808Z" fill="#0B131B"/>
<path fill-rule="evenodd" clip-rule="evenodd" d="M288 307.032C288 307.86 288.672 308.532 289.5 308.532C290.328 308.532 291 307.86 291 307.032V306.896C291 306.067 290.328 305.396 289.5 305.396C288.672 305.396 288 306.067 288 306.896V307.032Z" fill="#0B131B"/>
<path fill-rule="evenodd" clip-rule="evenodd" d="M263 5.98014C263 6.80854 263.672 7.48014 264.5 7.48014C265.328 7.48014 266 6.80854 266 5.98014V5.84424C266 5.01584 265.328 4.34424 264.5 4.34424C263.672 4.34424 263 5.01584 263 5.84424V5.98014Z" fill="#0B131B"/>
<path fill-rule="evenodd" clip-rule="evenodd" d="M263 32.1129C263 32.9413 263.672 33.6129 264.5 33.6129C265.328 33.6129 266 32.9413 266 32.1129V31.9771C266 31.1486 265.328 30.4771 264.5 30.4771C263.672 30.4771 263 31.1486 263 31.9771V32.1129Z" fill="#0B131B"/>
<path fill-rule="evenodd" clip-rule="evenodd" d="M263 60.3369C263 61.1653 263.672 61.8369 264.5 61.8369C265.328 61.8369 266 61.1653 266 60.3369V60.2012C266 59.3727 265.328 58.7012 264.5 58.7012C263.672 58.7012 263 59.3727 263 60.2012V60.3369Z" fill="#0B131B"/>
<path fill-rule="evenodd" clip-rule="evenodd" d="M263 87.5149C263 88.3429 263.672 89.0149 264.5 89.0149C265.328 89.0149 266 88.3429 266 87.5149V87.3789C266 86.5499 265.328 85.8789 264.5 85.8789C263.672 85.8789 263 86.5499 263 87.3789V87.5149Z" fill="#0B131B"/>
<path fill-rule="evenodd" clip-rule="evenodd" d="M263 114.693C263 115.522 263.672 116.193 264.5 116.193C265.328 116.193 266 115.522 266 114.693V114.557C266 113.729 265.328 113.057 264.5 113.057C263.672 113.057 263 113.729 263 114.557V114.693Z" fill="#0B131B"/>
<path fill-rule="evenodd" clip-rule="evenodd" d="M263 141.871C263 142.7 263.672 143.371 264.5 143.371C265.328 143.371 266 142.7 266 141.871V141.735C266 140.907 265.328 140.235 264.5 140.235C263.672 140.235 263 140.907 263 141.735V141.871Z" fill="#0B131B"/>
<path fill-rule="evenodd" clip-rule="evenodd" d="M263 170.095C263 170.923 263.672 171.595 264.5 171.595C265.328 171.595 266 170.923 266 170.095V169.959C266 169.131 265.328 168.459 264.5 168.459C263.672 168.459 263 169.131 263 169.959V170.095Z" fill="#0B131B"/>
<path fill-rule="evenodd" clip-rule="evenodd" d="M263 197.273C263 198.101 263.672 198.773 264.5 198.773C265.328 198.773 266 198.101 266 197.273V197.137C266 196.309 265.328 195.637 264.5 195.637C263.672 195.637 263 196.309 263 197.137V197.273Z" fill="#0B131B"/>
<path fill-rule="evenodd" clip-rule="evenodd" d="M263 224.452C263 225.28 263.672 225.952 264.5 225.952C265.328 225.952 266 225.28 266 224.452V224.315C266 223.487 265.328 222.815 264.5 222.815C263.672 222.815 263 223.487 263 224.315V224.452Z" fill="#0B131B"/>
<path fill-rule="evenodd" clip-rule="evenodd" d="M263 252.675C263 253.503 263.672 254.175 264.5 254.175C265.328 254.175 266 253.503 266 252.675V252.539C266 251.711 265.328 251.039 264.5 251.039C263.672 251.039 263 251.711 263 252.539V252.675Z" fill="#0B131B"/>
<path fill-rule="evenodd" clip-rule="evenodd" d="M263 278.808C263 279.636 263.672 280.308 264.5 280.308C265.328 280.308 266 279.636 266 278.808V278.672C266 277.843 265.328 277.172 264.5 277.172C263.672 277.172 263 277.843 263 278.672V278.808Z" fill="#0B131B"/>
<path fill-rule="evenodd" clip-rule="evenodd" d="M263 307.032C263 307.86 263.672 308.532 264.5 308.532C265.328 308.532 266 307.86 266 307.032V306.896C266 306.067 265.328 305.396 264.5 305.396C263.672 305.396 263 306.067 263 306.896V307.032Z" fill="#0B131B"/>
<path fill-rule="evenodd" clip-rule="evenodd" d="M236 5.98014C236 6.80854 236.672 7.48014 237.5 7.48014C238.328 7.48014 239 6.80854 239 5.98014V5.84424C239 5.01584 238.328 4.34424 237.5 4.34424C236.672 4.34424 236 5.01584 236 5.84424V5.98014Z" fill="#0B131B"/>
<path fill-rule="evenodd" clip-rule="evenodd" d="M236 32.1129C236 32.9413 236.672 33.6129 237.5 33.6129C238.328 33.6129 239 32.9413 239 32.1129V31.9771C239 31.1486 238.328 30.4771 237.5 30.4771C236.672 30.4771 236 31.1486 236 31.9771V32.1129Z" fill="#0B131B"/>
<path fill-rule="evenodd" clip-rule="evenodd" d="M236 60.3369C236 61.1653 236.672 61.8369 237.5 61.8369C238.328 61.8369 239 61.1653 239 60.3369V60.2012C239 59.3727 238.328 58.7012 237.5 58.7012C236.672 58.7012 236 59.3727 236 60.2012V60.3369Z" fill="#0B131B"/>
<path fill-rule="evenodd" clip-rule="evenodd" d="M236 87.5149C236 88.3429 236.672 89.0149 237.5 89.0149C238.328 89.0149 239 88.3429 239 87.5149V87.3789C239 86.5499 238.328 85.8789 237.5 85.8789C236.672 85.8789 236 86.5499 236 87.3789V87.5149Z" fill="#0B131B"/>
<path fill-rule="evenodd" clip-rule="evenodd" d="M236 114.693C236 115.522 236.672 116.193 237.5 116.193C238.328 116.193 239 115.522 239 114.693V114.557C239 113.729 238.328 113.057 237.5 113.057C236.672 113.057 236 113.729 236 114.557V114.693Z" fill="#0B131B"/>
<path fill-rule="evenodd" clip-rule="evenodd" d="M236 141.871C236 142.7 236.672 143.371 237.5 143.371C238.328 143.371 239 142.7 239 141.871V141.735C239 140.907 238.328 140.235 237.5 140.235C236.672 140.235 236 140.907 236 141.735V141.871Z" fill="#0B131B"/>
<path fill-rule="evenodd" clip-rule="evenodd" d="M236 170.095C236 170.923 236.672 171.595 237.5 171.595C238.328 171.595 239 170.923 239 170.095V169.959C239 169.131 238.328 168.459 237.5 168.459C236.672 168.459 236 169.131 236 169.959V170.095Z" fill="#0B131B"/>
<path fill-rule="evenodd" clip-rule="evenodd" d="M236 197.273C236 198.101 236.672 198.773 237.5 198.773C238.328 198.773 239 198.101 239 197.273V197.137C239 196.309 238.328 195.637 237.5 195.637C236.672 195.637 236 196.309 236 197.137V197.273Z" fill="#0B131B"/>
<path fill-rule="evenodd" clip-rule="evenodd" d="M236 224.452C236 225.28 236.672 225.952 237.5 225.952C238.328 225.952 239 225.28 239 224.452V224.315C239 223.487 238.328 222.815 237.5 222.815C236.672 222.815 236 223.487 236 224.315V224.452Z" fill="#0B131B"/>
<path fill-rule="evenodd" clip-rule="evenodd" d="M236 252.675C236 253.503 236.672 254.175 237.5 254.175C238.328 254.175 239 253.503 239 252.675V252.539C239 251.711 238.328 251.039 237.5 251.039C236.672 251.039 236 251.711 236 252.539V252.675Z" fill="#0B131B"/>
<path fill-rule="evenodd" clip-rule="evenodd" d="M236 278.808C236 279.636 236.672 280.308 237.5 280.308C238.328 280.308 239 279.636 239 278.808V278.672C239 277.843 238.328 277.172 237.5 277.172C236.672 277.172 236 277.843 236 278.672V278.808Z" fill="#0B131B"/>
<path fill-rule="evenodd" clip-rule="evenodd" d="M236 307.032C236 307.86 236.672 308.532 237.5 308.532C238.328 308.532 239 307.86 239 307.032V306.896C239 306.067 238.328 305.396 237.5 305.396C236.672 305.396 236 306.067 236 306.896V307.032Z" fill="#0B131B"/>
<path fill-rule="evenodd" clip-rule="evenodd" d="M210 5.98014C210 6.80854 210.672 7.48014 211.5 7.48014C212.328 7.48014 213 6.80854 213 5.98014V5.84424C213 5.01584 212.328 4.34424 211.5 4.34424C210.672 4.34424 210 5.01584 210 5.84424V5.98014Z" fill="#0B131B"/>
<path fill-rule="evenodd" clip-rule="evenodd" d="M210 32.1129C210 32.9413 210.672 33.6129 211.5 33.6129C212.328 33.6129 213 32.9413 213 32.1129V31.9771C213 31.1486 212.328 30.4771 211.5 30.4771C210.672 30.4771 210 31.1486 210 31.9771V32.1129Z" fill="#0B131B"/>
<path fill-rule="evenodd" clip-rule="evenodd" d="M210 60.3369C210 61.1653 210.672 61.8369 211.5 61.8369C212.328 61.8369 213 61.1653 213 60.3369V60.2012C213 59.3727 212.328 58.7012 211.5 58.7012C210.672 58.7012 210 59.3727 210 60.2012V60.3369Z" fill="#0B131B"/>
<path fill-rule="evenodd" clip-rule="evenodd" d="M210 87.5149C210 88.3429 210.672 89.0149 211.5 89.0149C212.328 89.0149 213 88.3429 213 87.5149V87.3789C213 86.5499 212.328 85.8789 211.5 85.8789C210.672 85.8789 210 86.5499 210 87.3789V87.5149Z" fill="#0B131B"/>
<path fill-rule="evenodd" clip-rule="evenodd" d="M210 114.693C210 115.522 210.672 116.193 211.5 116.193C212.328 116.193 213 115.522 213 114.693V114.557C213 113.729 212.328 113.057 211.5 113.057C210.672 113.057 210 113.729 210 114.557V114.693Z" fill="#0B131B"/>
<path fill-rule="evenodd" clip-rule="evenodd" d="M210 141.871C210 142.7 210.672 143.371 211.5 143.371C212.328 143.371 213 142.7 213 141.871V141.735C213 140.907 212.328 140.235 211.5 140.235C210.672 140.235 210 140.907 210 141.735V141.871Z" fill="#0B131B"/>
<path fill-rule="evenodd" clip-rule="evenodd" d="M210 170.095C210 170.923 210.672 171.595 211.5 171.595C212.328 171.595 213 170.923 213 170.095V169.959C213 169.131 212.328 168.459 211.5 168.459C210.672 168.459 210 169.131 210 169.959V170.095Z" fill="#0B131B"/>
<path fill-rule="evenodd" clip-rule="evenodd" d="M210 197.273C210 198.101 210.672 198.773 211.5 198.773C212.328 198.773 213 198.101 213 197.273V197.137C213 196.309 212.328 195.637 211.5 195.637C210.672 195.637 210 196.309 210 197.137V197.273Z" fill="#0B131B"/>
<path fill-rule="evenodd" clip-rule="evenodd" d="M210 224.452C210 225.28 210.672 225.952 211.5 225.952C212.328 225.952 213 225.28 213 224.452V224.315C213 223.487 212.328 222.815 211.5 222.815C210.672 222.815 210 223.487 210 224.315V224.452Z" fill="#0B131B"/>
<path fill-rule="evenodd" clip-rule="evenodd" d="M210 252.675C210 253.503 210.672 254.175 211.5 254.175C212.328 254.175 213 253.503 213 252.675V252.539C213 251.711 212.328 251.039 211.5 251.039C210.672 251.039 210 251.711 210 252.539V252.675Z" fill="#0B131B"/>
<path fill-rule="evenodd" clip-rule="evenodd" d="M210 278.808C210 279.636 210.672 280.308 211.5 280.308C212.328 280.308 213 279.636 213 278.808V278.672C213 277.843 212.328 277.172 211.5 277.172C210.672 277.172 210 277.843 210 278.672V278.808Z" fill="#0B131B"/>
<path fill-rule="evenodd" clip-rule="evenodd" d="M210 307.032C210 307.86 210.672 308.532 211.5 308.532C212.328 308.532 213 307.86 213 307.032V306.896C213 306.067 212.328 305.396 211.5 305.396C210.672 305.396 210 306.067 210 306.896V307.032Z" fill="#0B131B"/>
<path fill-rule="evenodd" clip-rule="evenodd" d="M184 5.98014C184 6.80854 184.672 7.48014 185.5 7.48014C186.328 7.48014 187 6.80854 187 5.98014V5.84424C187 5.01584 186.328 4.34424 185.5 4.34424C184.672 4.34424 184 5.01584 184 5.84424V5.98014Z" fill="#0B131B"/>
<path fill-rule="evenodd" clip-rule="evenodd" d="M184 32.1129C184 32.9413 184.672 33.6129 185.5 33.6129C186.328 33.6129 187 32.9413 187 32.1129V31.9771C187 31.1486 186.328 30.4771 185.5 30.4771C184.672 30.4771 184 31.1486 184 31.9771V32.1129Z" fill="#0B131B"/>
<path fill-rule="evenodd" clip-rule="evenodd" d="M184 60.3369C184 61.1653 184.672 61.8369 185.5 61.8369C186.328 61.8369 187 61.1653 187 60.3369V60.2012C187 59.3727 186.328 58.7012 185.5 58.7012C184.672 58.7012 184 59.3727 184 60.2012V60.3369Z" fill="#0B131B"/>
<path fill-rule="evenodd" clip-rule="evenodd" d="M184 87.5149C184 88.3429 184.672 89.0149 185.5 89.0149C186.328 89.0149 187 88.3429 187 87.5149V87.3789C187 86.5499 186.328 85.8789 185.5 85.8789C184.672 85.8789 184 86.5499 184 87.3789V87.5149Z" fill="#0B131B"/>
<path fill-rule="evenodd" clip-rule="evenodd" d="M184 114.693C184 115.522 184.672 116.193 185.5 116.193C186.328 116.193 187 115.522 187 114.693V114.557C187 113.729 186.328 113.057 185.5 113.057C184.672 113.057 184 113.729 184 114.557V114.693Z" fill="#0B131B"/>
<path fill-rule="evenodd" clip-rule="evenodd" d="M184 141.871C184 142.7 184.672 143.371 185.5 143.371C186.328 143.371 187 142.7 187 141.871V141.735C187 140.907 186.328 140.235 185.5 140.235C184.672 140.235 184 140.907 184 141.735V141.871Z" fill="#0B131B"/>
<path fill-rule="evenodd" clip-rule="evenodd" d="M184 170.095C184 170.923 184.672 171.595 185.5 171.595C186.328 171.595 187 170.923 187 170.095V169.959C187 169.131 186.328 168.459 185.5 168.459C184.672 168.459 184 169.131 184 169.959V170.095Z" fill="#0B131B"/>
<path fill-rule="evenodd" clip-rule="evenodd" d="M184 197.273C184 198.101 184.672 198.773 185.5 198.773C186.328 198.773 187 198.101 187 197.273V197.137C187 196.309 186.328 195.637 185.5 195.637C184.672 195.637 184 196.309 184 197.137V197.273Z" fill="#0B131B"/>
<path fill-rule="evenodd" clip-rule="evenodd" d="M184 224.452C184 225.28 184.672 225.952 185.5 225.952C186.328 225.952 187 225.28 187 224.452V224.315C187 223.487 186.328 222.815 185.5 222.815C184.672 222.815 184 223.487 184 224.315V224.452Z" fill="#0B131B"/>
<path fill-rule="evenodd" clip-rule="evenodd" d="M184 252.675C184 253.503 184.672 254.175 185.5 254.175C186.328 254.175 187 253.503 187 252.675V252.539C187 251.711 186.328 251.039 185.5 251.039C184.672 251.039 184 251.711 184 252.539V252.675Z" fill="#0B131B"/>
<path fill-rule="evenodd" clip-rule="evenodd" d="M184 278.808C184 279.636 184.672 280.308 185.5 280.308C186.328 280.308 187 279.636 187 278.808V278.672C187 277.843 186.328 277.172 185.5 277.172C184.672 277.172 184 277.843 184 278.672V278.808Z" fill="#0B131B"/>
<path fill-rule="evenodd" clip-rule="evenodd" d="M184 307.032C184 307.86 184.672 308.532 185.5 308.532C186.328 308.532 187 307.86 187 307.032V306.896C187 306.067 186.328 305.396 185.5 305.396C184.672 305.396 184 306.067 184 306.896V307.032Z" fill="#0B131B"/>
<path fill-rule="evenodd" clip-rule="evenodd" d="M157 5.98014C157 6.80854 157.672 7.48014 158.5 7.48014C159.328 7.48014 160 6.80854 160 5.98014V5.84424C160 5.01584 159.328 4.34424 158.5 4.34424C157.672 4.34424 157 5.01584 157 5.84424V5.98014Z" fill="#0B131B"/>
<path fill-rule="evenodd" clip-rule="evenodd" d="M157 32.1129C157 32.9413 157.672 33.6129 158.5 33.6129C159.328 33.6129 160 32.9413 160 32.1129V31.9771C160 31.1486 159.328 30.4771 158.5 30.4771C157.672 30.4771 157 31.1486 157 31.9771V32.1129Z" fill="#0B131B"/>
<path fill-rule="evenodd" clip-rule="evenodd" d="M157 60.3369C157 61.1653 157.672 61.8369 158.5 61.8369C159.328 61.8369 160 61.1653 160 60.3369V60.2012C160 59.3727 159.328 58.7012 158.5 58.7012C157.672 58.7012 157 59.3727 157 60.2012V60.3369Z" fill="#0B131B"/>
<path fill-rule="evenodd" clip-rule="evenodd" d="M157 87.5149C157 88.3429 157.672 89.0149 158.5 89.0149C159.328 89.0149 160 88.3429 160 87.5149V87.3789C160 86.5499 159.328 85.8789 158.5 85.8789C157.672 85.8789 157 86.5499 157 87.3789V87.5149Z" fill="#0B131B"/>
<path fill-rule="evenodd" clip-rule="evenodd" d="M157 114.693C157 115.522 157.672 116.193 158.5 116.193C159.328 116.193 160 115.522 160 114.693V114.557C160 113.729 159.328 113.057 158.5 113.057C157.672 113.057 157 113.729 157 114.557V114.693Z" fill="#0B131B"/>
<path fill-rule="evenodd" clip-rule="evenodd" d="M157 141.871C157 142.7 157.672 143.371 158.5 143.371C159.328 143.371 160 142.7 160 141.871V141.735C160 140.907 159.328 140.235 158.5 140.235C157.672 140.235 157 140.907 157 141.735V141.871Z" fill="#0B131B"/>
<path fill-rule="evenodd" clip-rule="evenodd" d="M157 170.095C157 170.923 157.672 171.595 158.5 171.595C159.328 171.595 160 170.923 160 170.095V169.959C160 169.131 159.328 168.459 158.5 168.459C157.672 168.459 157 169.131 157 169.959V170.095Z" fill="#0B131B"/>
<path fill-rule="evenodd" clip-rule="evenodd" d="M157 197.273C157 198.101 157.672 198.773 158.5 198.773C159.328 198.773 160 198.101 160 197.273V197.137C160 196.309 159.328 195.637 158.5 195.637C157.672 195.637 157 196.309 157 197.137V197.273Z" fill="#0B131B"/>
<path fill-rule="evenodd" clip-rule="evenodd" d="M157 224.452C157 225.28 157.672 225.952 158.5 225.952C159.328 225.952 160 225.28 160 224.452V224.315C160 223.487 159.328 222.815 158.5 222.815C157.672 222.815 157 223.487 157 224.315V224.452Z" fill="#0B131B"/>
<path fill-rule="evenodd" clip-rule="evenodd" d="M157 252.675C157 253.503 157.672 254.175 158.5 254.175C159.328 254.175 160 253.503 160 252.675V252.539C160 251.711 159.328 251.039 158.5 251.039C157.672 251.039 157 251.711 157 252.539V252.675Z" fill="#0B131B"/>
<path fill-rule="evenodd" clip-rule="evenodd" d="M157 278.808C157 279.636 157.672 280.308 158.5 280.308C159.328 280.308 160 279.636 160 278.808V278.672C160 277.843 159.328 277.172 158.5 277.172C157.672 277.172 157 277.843 157 278.672V278.808Z" fill="#0B131B"/>
<path fill-rule="evenodd" clip-rule="evenodd" d="M157 307.032C157 307.86 157.672 308.532 158.5 308.532C159.328 308.532 160 307.86 160 307.032V306.896C160 306.067 159.328 305.396 158.5 305.396C157.672 305.396 157 306.067 157 306.896V307.032Z" fill="#0B131B"/>
<path fill-rule="evenodd" clip-rule="evenodd" d="M131 5.98014C131 6.80854 131.672 7.48014 132.5 7.48014C133.328 7.48014 134 6.80854 134 5.98014V5.84424C134 5.01584 133.328 4.34424 132.5 4.34424C131.672 4.34424 131 5.01584 131 5.84424V5.98014Z" fill="#0B131B"/>
<path fill-rule="evenodd" clip-rule="evenodd" d="M131 32.1129C131 32.9413 131.672 33.6129 132.5 33.6129C133.328 33.6129 134 32.9413 134 32.1129V31.9771C134 31.1486 133.328 30.4771 132.5 30.4771C131.672 30.4771 131 31.1486 131 31.9771V32.1129Z" fill="#0B131B"/>
<path fill-rule="evenodd" clip-rule="evenodd" d="M131 60.3369C131 61.1653 131.672 61.8369 132.5 61.8369C133.328 61.8369 134 61.1653 134 60.3369V60.2012C134 59.3727 133.328 58.7012 132.5 58.7012C131.672 58.7012 131 59.3727 131 60.2012V60.3369Z" fill="#0B131B"/>
<path fill-rule="evenodd" clip-rule="evenodd" d="M131 87.5149C131 88.3429 131.672 89.0149 132.5 89.0149C133.328 89.0149 134 88.3429 134 87.5149V87.3789C134 86.5499 133.328 85.8789 132.5 85.8789C131.672 85.8789 131 86.5499 131 87.3789V87.5149Z" fill="#0B131B"/>
<path fill-rule="evenodd" clip-rule="evenodd" d="M131 114.693C131 115.522 131.672 116.193 132.5 116.193C133.328 116.193 134 115.522 134 114.693V114.557C134 113.729 133.328 113.057 132.5 113.057C131.672 113.057 131 113.729 131 114.557V114.693Z" fill="#0B131B"/>
<path fill-rule="evenodd" clip-rule="evenodd" d="M131 141.871C131 142.7 131.672 143.371 132.5 143.371C133.328 143.371 134 142.7 134 141.871V141.735C134 140.907 133.328 140.235 132.5 140.235C131.672 140.235 131 140.907 131 141.735V141.871Z" fill="#0B131B"/>
<path fill-rule="evenodd" clip-rule="evenodd" d="M131 170.095C131 170.923 131.672 171.595 132.5 171.595C133.328 171.595 134 170.923 134 170.095V169.959C134 169.131 133.328 168.459 132.5 168.459C131.672 168.459 131 169.131 131 169.959V170.095Z" fill="#0B131B"/>
<path fill-rule="evenodd" clip-rule="evenodd" d="M131 197.273C131 198.101 131.672 198.773 132.5 198.773C133.328 198.773 134 198.101 134 197.273V197.137C134 196.309 133.328 195.637 132.5 195.637C131.672 195.637 131 196.309 131 197.137V197.273Z" fill="#0B131B"/>
<path fill-rule="evenodd" clip-rule="evenodd" d="M131 224.452C131 225.28 131.672 225.952 132.5 225.952C133.328 225.952 134 225.28 134 224.452V224.315C134 223.487 133.328 222.815 132.5 222.815C131.672 222.815 131 223.487 131 224.315V224.452Z" fill="#0B131B"/>
<path fill-rule="evenodd" clip-rule="evenodd" d="M131 252.675C131 253.503 131.672 254.175 132.5 254.175C133.328 254.175 134 253.503 134 252.675V252.539C134 251.711 133.328 251.039 132.5 251.039C131.672 251.039 131 251.711 131 252.539V252.675Z" fill="#0B131B"/>
<path fill-rule="evenodd" clip-rule="evenodd" d="M131 278.808C131 279.636 131.672 280.308 132.5 280.308C133.328 280.308 134 279.636 134 278.808V278.672C134 277.843 133.328 277.172 132.5 277.172C131.672 277.172 131 277.843 131 278.672V278.808Z" fill="#0B131B"/>
<path fill-rule="evenodd" clip-rule="evenodd" d="M131 307.032C131 307.86 131.672 308.532 132.5 308.532C133.328 308.532 134 307.86 134 307.032V306.896C134 306.067 133.328 305.396 132.5 305.396C131.672 305.396 131 306.067 131 306.896V307.032Z" fill="#0B131B"/>
<path fill-rule="evenodd" clip-rule="evenodd" d="M105 5.98014C105 6.80854 105.672 7.48014 106.5 7.48014C107.328 7.48014 108 6.80854 108 5.98014V5.84424C108 5.01584 107.328 4.34424 106.5 4.34424C105.672 4.34424 105 5.01584 105 5.84424V5.98014Z" fill="#0B131B"/>
<path fill-rule="evenodd" clip-rule="evenodd" d="M105 32.1129C105 32.9413 105.672 33.6129 106.5 33.6129C107.328 33.6129 108 32.9413 108 32.1129V31.9771C108 31.1486 107.328 30.4771 106.5 30.4771C105.672 30.4771 105 31.1486 105 31.9771V32.1129Z" fill="#0B131B"/>
<path fill-rule="evenodd" clip-rule="evenodd" d="M105 60.3369C105 61.1653 105.672 61.8369 106.5 61.8369C107.328 61.8369 108 61.1653 108 60.3369V60.2012C108 59.3727 107.328 58.7012 106.5 58.7012C105.672 58.7012 105 59.3727 105 60.2012V60.3369Z" fill="#0B131B"/>
<path fill-rule="evenodd" clip-rule="evenodd" d="M105 87.5149C105 88.3429 105.672 89.0149 106.5 89.0149C107.328 89.0149 108 88.3429 108 87.5149V87.3789C108 86.5499 107.328 85.8789 106.5 85.8789C105.672 85.8789 105 86.5499 105 87.3789V87.5149Z" fill="#0B131B"/>
<path fill-rule="evenodd" clip-rule="evenodd" d="M105 114.693C105 115.522 105.672 116.193 106.5 116.193C107.328 116.193 108 115.522 108 114.693V114.557C108 113.729 107.328 113.057 106.5 113.057C105.672 113.057 105 113.729 105 114.557V114.693Z" fill="#0B131B"/>
<path fill-rule="evenodd" clip-rule="evenodd" d="M105 141.871C105 142.7 105.672 143.371 106.5 143.371C107.328 143.371 108 142.7 108 141.871V141.735C108 140.907 107.328 140.235 106.5 140.235C105.672 140.235 105 140.907 105 141.735V141.871Z" fill="#0B131B"/>
<path fill-rule="evenodd" clip-rule="evenodd" d="M105 170.095C105 170.923 105.672 171.595 106.5 171.595C107.328 171.595 108 170.923 108 170.095V169.959C108 169.131 107.328 168.459 106.5 168.459C105.672 168.459 105 169.131 105 169.959V170.095Z" fill="#0B131B"/>
<path fill-rule="evenodd" clip-rule="evenodd" d="M105 197.273C105 198.101 105.672 198.773 106.5 198.773C107.328 198.773 108 198.101 108 197.273V197.137C108 196.309 107.328 195.637 106.5 195.637C105.672 195.637 105 196.309 105 197.137V197.273Z" fill="#0B131B"/>
<path fill-rule="evenodd" clip-rule="evenodd" d="M105 224.452C105 225.28 105.672 225.952 106.5 225.952C107.328 225.952 108 225.28 108 224.452V224.315C108 223.487 107.328 222.815 106.5 222.815C105.672 222.815 105 223.487 105 224.315V224.452Z" fill="#0B131B"/>
<path fill-rule="evenodd" clip-rule="evenodd" d="M105 252.675C105 253.503 105.672 254.175 106.5 254.175C107.328 254.175 108 253.503 108 252.675V252.539C108 251.711 107.328 251.039 106.5 251.039C105.672 251.039 105 251.711 105 252.539V252.675Z" fill="#0B131B"/>
<path fill-rule="evenodd" clip-rule="evenodd" d="M105 278.808C105 279.636 105.672 280.308 106.5 280.308C107.328 280.308 108 279.636 108 278.808V278.672C108 277.843 107.328 277.172 106.5 277.172C105.672 277.172 105 277.843 105 278.672V278.808Z" fill="#0B131B"/>
<path fill-rule="evenodd" clip-rule="evenodd" d="M105 307.032C105 307.86 105.672 308.532 106.5 308.532C107.328 308.532 108 307.86 108 307.032V306.896C108 306.067 107.328 305.396 106.5 305.396C105.672 305.396 105 306.067 105 306.896V307.032Z" fill="#0B131B"/>
<path fill-rule="evenodd" clip-rule="evenodd" d="M79 5.98014C79 6.80854 79.6716 7.48014 80.5 7.48014C81.3284 7.48014 82 6.80854 82 5.98014V5.84424C82 5.01584 81.3284 4.34424 80.5 4.34424C79.6716 4.34424 79 5.01584 79 5.84424V5.98014Z" fill="#0B131B"/>
<path fill-rule="evenodd" clip-rule="evenodd" d="M79 32.1129C79 32.9413 79.6716 33.6129 80.5 33.6129C81.3284 33.6129 82 32.9413 82 32.1129V31.9771C82 31.1486 81.3284 30.4771 80.5 30.4771C79.6716 30.4771 79 31.1486 79 31.9771V32.1129Z" fill="#0B131B"/>
<path fill-rule="evenodd" clip-rule="evenodd" d="M79 60.3369C79 61.1653 79.6716 61.8369 80.5 61.8369C81.3284 61.8369 82 61.1653 82 60.3369V60.2012C82 59.3727 81.3284 58.7012 80.5 58.7012C79.6716 58.7012 79 59.3727 79 60.2012V60.3369Z" fill="#0B131B"/>
<path fill-rule="evenodd" clip-rule="evenodd" d="M79 87.5149C79 88.3429 79.6716 89.0149 80.5 89.0149C81.3284 89.0149 82 88.3429 82 87.5149V87.3789C82 86.5499 81.3284 85.8789 80.5 85.8789C79.6716 85.8789 79 86.5499 79 87.3789V87.5149Z" fill="#0B131B"/>
<path fill-rule="evenodd" clip-rule="evenodd" d="M79 114.693C79 115.522 79.6716 116.193 80.5 116.193C81.3284 116.193 82 115.522 82 114.693V114.557C82 113.729 81.3284 113.057 80.5 113.057C79.6716 113.057 79 113.729 79 114.557V114.693Z" fill="#0B131B"/>
<path fill-rule="evenodd" clip-rule="evenodd" d="M79 141.871C79 142.7 79.6716 143.371 80.5 143.371C81.3284 143.371 82 142.7 82 141.871V141.735C82 140.907 81.3284 140.235 80.5 140.235C79.6716 140.235 79 140.907 79 141.735V141.871Z" fill="#0B131B"/>
<path fill-rule="evenodd" clip-rule="evenodd" d="M79 170.095C79 170.923 79.6716 171.595 80.5 171.595C81.3284 171.595 82 170.923 82 170.095V169.959C82 169.131 81.3284 168.459 80.5 168.459C79.6716 168.459 79 169.131 79 169.959V170.095Z" fill="#0B131B"/>
<path fill-rule="evenodd" clip-rule="evenodd" d="M79 197.273C79 198.101 79.6716 198.773 80.5 198.773C81.3284 198.773 82 198.101 82 197.273V197.137C82 196.309 81.3284 195.637 80.5 195.637C79.6716 195.637 79 196.309 79 197.137V197.273Z" fill="#0B131B"/>
<path fill-rule="evenodd" clip-rule="evenodd" d="M79 224.452C79 225.28 79.6716 225.952 80.5 225.952C81.3284 225.952 82 225.28 82 224.452V224.315C82 223.487 81.3284 222.815 80.5 222.815C79.6716 222.815 79 223.487 79 224.315V224.452Z" fill="#0B131B"/>
<path fill-rule="evenodd" clip-rule="evenodd" d="M79 252.675C79 253.503 79.6716 254.175 80.5 254.175C81.3284 254.175 82 253.503 82 252.675V252.539C82 251.711 81.3284 251.039 80.5 251.039C79.6716 251.039 79 251.711 79 252.539V252.675Z" fill="#0B131B"/>
<path fill-rule="evenodd" clip-rule="evenodd" d="M79 278.808C79 279.636 79.6716 280.308 80.5 280.308C81.3284 280.308 82 279.636 82 278.808V278.672C82 277.843 81.3284 277.172 80.5 277.172C79.6716 277.172 79 277.843 79 278.672V278.808Z" fill="#0B131B"/>
<path fill-rule="evenodd" clip-rule="evenodd" d="M79 307.032C79 307.86 79.6716 308.532 80.5 308.532C81.3284 308.532 82 307.86 82 307.032V306.896C82 306.067 81.3284 305.396 80.5 305.396C79.6716 305.396 79 306.067 79 306.896V307.032Z" fill="#0B131B"/>
<path fill-rule="evenodd" clip-rule="evenodd" d="M52 5.98014C52 6.80854 52.6716 7.48014 53.5 7.48014C54.3284 7.48014 55 6.80854 55 5.98014V5.84424C55 5.01584 54.3284 4.34424 53.5 4.34424C52.6716 4.34424 52 5.01584 52 5.84424V5.98014Z" fill="#0B131B"/>
<path fill-rule="evenodd" clip-rule="evenodd" d="M52 32.1129C52 32.9413 52.6716 33.6129 53.5 33.6129C54.3284 33.6129 55 32.9413 55 32.1129V31.9771C55 31.1486 54.3284 30.4771 53.5 30.4771C52.6716 30.4771 52 31.1486 52 31.9771V32.1129Z" fill="#0B131B"/>
<path fill-rule="evenodd" clip-rule="evenodd" d="M52 60.3369C52 61.1653 52.6716 61.8369 53.5 61.8369C54.3284 61.8369 55 61.1653 55 60.3369V60.2012C55 59.3727 54.3284 58.7012 53.5 58.7012C52.6716 58.7012 52 59.3727 52 60.2012V60.3369Z" fill="#0B131B"/>
<path fill-rule="evenodd" clip-rule="evenodd" d="M52 87.5149C52 88.3429 52.6716 89.0149 53.5 89.0149C54.3284 89.0149 55 88.3429 55 87.5149V87.3789C55 86.5499 54.3284 85.8789 53.5 85.8789C52.6716 85.8789 52 86.5499 52 87.3789V87.5149Z" fill="#0B131B"/>
<path fill-rule="evenodd" clip-rule="evenodd" d="M52 114.693C52 115.522 52.6716 116.193 53.5 116.193C54.3284 116.193 55 115.522 55 114.693V114.557C55 113.729 54.3284 113.057 53.5 113.057C52.6716 113.057 52 113.729 52 114.557V114.693Z" fill="#0B131B"/>
<path fill-rule="evenodd" clip-rule="evenodd" d="M52 141.871C52 142.7 52.6716 143.371 53.5 143.371C54.3284 143.371 55 142.7 55 141.871V141.735C55 140.907 54.3284 140.235 53.5 140.235C52.6716 140.235 52 140.907 52 141.735V141.871Z" fill="#0B131B"/>
<path fill-rule="evenodd" clip-rule="evenodd" d="M52 170.095C52 170.923 52.6716 171.595 53.5 171.595C54.3284 171.595 55 170.923 55 170.095V169.959C55 169.131 54.3284 168.459 53.5 168.459C52.6716 168.459 52 169.131 52 169.959V170.095Z" fill="#0B131B"/>
<path fill-rule="evenodd" clip-rule="evenodd" d="M52 197.273C52 198.101 52.6716 198.773 53.5 198.773C54.3284 198.773 55 198.101 55 197.273V197.137C55 196.309 54.3284 195.637 53.5 195.637C52.6716 195.637 52 196.309 52 197.137V197.273Z" fill="#0B131B"/>
<path fill-rule="evenodd" clip-rule="evenodd" d="M52 224.452C52 225.28 52.6716 225.952 53.5 225.952C54.3284 225.952 55 225.28 55 224.452V224.315C55 223.487 54.3284 222.815 53.5 222.815C52.6716 222.815 52 223.487 52 224.315V224.452Z" fill="#0B131B"/>
<path fill-rule="evenodd" clip-rule="evenodd" d="M52 252.675C52 253.503 52.6716 254.175 53.5 254.175C54.3284 254.175 55 253.503 55 252.675V252.539C55 251.711 54.3284 251.039 53.5 251.039C52.6716 251.039 52 251.711 52 252.539V252.675Z" fill="#0B131B"/>
<path fill-rule="evenodd" clip-rule="evenodd" d="M52 278.808C52 279.636 52.6716 280.308 53.5 280.308C54.3284 280.308 55 279.636 55 278.808V278.672C55 277.843 54.3284 277.172 53.5 277.172C52.6716 277.172 52 277.843 52 278.672V278.808Z" fill="#0B131B"/>
<path fill-rule="evenodd" clip-rule="evenodd" d="M52 307.032C52 307.86 52.6716 308.532 53.5 308.532C54.3284 308.532 55 307.86 55 307.032V306.896C55 306.067 54.3284 305.396 53.5 305.396C52.6716 305.396 52 306.067 52 306.896V307.032Z" fill="#0B131B"/>
<path fill-rule="evenodd" clip-rule="evenodd" d="M27 5.98014C27 6.80854 27.6716 7.48014 28.5 7.48014C29.3284 7.48014 30 6.80854 30 5.98014V5.84424C30 5.01584 29.3284 4.34424 28.5 4.34424C27.6716 4.34424 27 5.01584 27 5.84424V5.98014Z" fill="#0B131B"/>
<path fill-rule="evenodd" clip-rule="evenodd" d="M27 32.1129C27 32.9413 27.6716 33.6129 28.5 33.6129C29.3284 33.6129 30 32.9413 30 32.1129V31.9771C30 31.1486 29.3284 30.4771 28.5 30.4771C27.6716 30.4771 27 31.1486 27 31.9771V32.1129Z" fill="#0B131B"/>
<path fill-rule="evenodd" clip-rule="evenodd" d="M27 60.3369C27 61.1653 27.6716 61.8369 28.5 61.8369C29.3284 61.8369 30 61.1653 30 60.3369V60.2012C30 59.3727 29.3284 58.7012 28.5 58.7012C27.6716 58.7012 27 59.3727 27 60.2012V60.3369Z" fill="#0B131B"/>
<path fill-rule="evenodd" clip-rule="evenodd" d="M27 87.5149C27 88.3429 27.6716 89.0149 28.5 89.0149C29.3284 89.0149 30 88.3429 30 87.5149V87.3789C30 86.5499 29.3284 85.8789 28.5 85.8789C27.6716 85.8789 27 86.5499 27 87.3789V87.5149Z" fill="#0B131B"/>
<path fill-rule="evenodd" clip-rule="evenodd" d="M27 114.693C27 115.522 27.6716 116.193 28.5 116.193C29.3284 116.193 30 115.522 30 114.693V114.557C30 113.729 29.3284 113.057 28.5 113.057C27.6716 113.057 27 113.729 27 114.557V114.693Z" fill="#0B131B"/>
<path fill-rule="evenodd" clip-rule="evenodd" d="M27 141.871C27 142.7 27.6716 143.371 28.5 143.371C29.3284 143.371 30 142.7 30 141.871V141.735C30 140.907 29.3284 140.235 28.5 140.235C27.6716 140.235 27 140.907 27 141.735V141.871Z" fill="#0B131B"/>
<path fill-rule="evenodd" clip-rule="evenodd" d="M27 170.095C27 170.923 27.6716 171.595 28.5 171.595C29.3284 171.595 30 170.923 30 170.095V169.959C30 169.131 29.3284 168.459 28.5 168.459C27.6716 168.459 27 169.131 27 169.959V170.095Z" fill="#0B131B"/>
<path fill-rule="evenodd" clip-rule="evenodd" d="M27 197.273C27 198.101 27.6716 198.773 28.5 198.773C29.3284 198.773 30 198.101 30 197.273V197.137C30 196.309 29.3284 195.637 28.5 195.637C27.6716 195.637 27 196.309 27 197.137V197.273Z" fill="#0B131B"/>
<path fill-rule="evenodd" clip-rule="evenodd" d="M27 224.452C27 225.28 27.6716 225.952 28.5 225.952C29.3284 225.952 30 225.28 30 224.452V224.315C30 223.487 29.3284 222.815 28.5 222.815C27.6716 222.815 27 223.487 27 224.315V224.452Z" fill="#0B131B"/>
<path fill-rule="evenodd" clip-rule="evenodd" d="M27 252.675C27 253.503 27.6716 254.175 28.5 254.175C29.3284 254.175 30 253.503 30 252.675V252.539C30 251.711 29.3284 251.039 28.5 251.039C27.6716 251.039 27 251.711 27 252.539V252.675Z" fill="#0B131B"/>
<path fill-rule="evenodd" clip-rule="evenodd" d="M27 278.808C27 279.636 27.6716 280.308 28.5 280.308C29.3284 280.308 30 279.636 30 278.808V278.672C30 277.843 29.3284 277.172 28.5 277.172C27.6716 277.172 27 277.843 27 278.672V278.808Z" fill="#0B131B"/>
<path fill-rule="evenodd" clip-rule="evenodd" d="M27 307.032C27 307.86 27.6716 308.532 28.5 308.532C29.3284 308.532 30 307.86 30 307.032V306.896C30 306.067 29.3284 305.396 28.5 305.396C27.6716 305.396 27 306.067 27 306.896V307.032Z" fill="#0B131B"/>
<path fill-rule="evenodd" clip-rule="evenodd" d="M0 5.98014C0 6.80854 0.671573 7.48014 1.5 7.48014C2.32843 7.48014 3 6.80854 3 5.98014V5.84424C3 5.01584 2.32843 4.34424 1.5 4.34424C0.671573 4.34424 0 5.01584 0 5.84424V5.98014Z" fill="#0B131B"/>
<path fill-rule="evenodd" clip-rule="evenodd" d="M0 32.1129C0 32.9413 0.671573 33.6129 1.5 33.6129C2.32843 33.6129 3 32.9413 3 32.1129V31.9771C3 31.1486 2.32843 30.4771 1.5 30.4771C0.671573 30.4771 0 31.1486 0 31.9771V32.1129Z" fill="#0B131B"/>
<path fill-rule="evenodd" clip-rule="evenodd" d="M0 60.3369C0 61.1653 0.671573 61.8369 1.5 61.8369C2.32843 61.8369 3 61.1653 3 60.3369V60.2012C3 59.3727 2.32843 58.7012 1.5 58.7012C0.671573 58.7012 0 59.3727 0 60.2012V60.3369Z" fill="#0B131B"/>
<path fill-rule="evenodd" clip-rule="evenodd" d="M0 87.5149C0 88.3429 0.671573 89.0149 1.5 89.0149C2.32843 89.0149 3 88.3429 3 87.5149V87.3789C3 86.5499 2.32843 85.8789 1.5 85.8789C0.671573 85.8789 0 86.5499 0 87.3789V87.5149Z" fill="#0B131B"/>
<path fill-rule="evenodd" clip-rule="evenodd" d="M0 114.693C0 115.522 0.671573 116.193 1.5 116.193C2.32843 116.193 3 115.522 3 114.693V114.557C3 113.729 2.32843 113.057 1.5 113.057C0.671573 113.057 0 113.729 0 114.557V114.693Z" fill="#0B131B"/>
<path fill-rule="evenodd" clip-rule="evenodd" d="M0 141.871C0 142.7 0.671573 143.371 1.5 143.371C2.32843 143.371 3 142.7 3 141.871V141.735C3 140.907 2.32843 140.235 1.5 140.235C0.671573 140.235 0 140.907 0 141.735V141.871Z" fill="#0B131B"/>
<path fill-rule="evenodd" clip-rule="evenodd" d="M0 170.095C0 170.923 0.671573 171.595 1.5 171.595C2.32843 171.595 3 170.923 3 170.095V169.959C3 169.131 2.32843 168.459 1.5 168.459C0.671573 168.459 0 169.131 0 169.959V170.095Z" fill="#0B131B"/>
<path fill-rule="evenodd" clip-rule="evenodd" d="M0 197.273C0 198.101 0.671573 198.773 1.5 198.773C2.32843 198.773 3 198.101 3 197.273V197.137C3 196.309 2.32843 195.637 1.5 195.637C0.671573 195.637 0 196.309 0 197.137V197.273Z" fill="#0B131B"/>
<path fill-rule="evenodd" clip-rule="evenodd" d="M0 224.452C0 225.28 0.671573 225.952 1.5 225.952C2.32843 225.952 3 225.28 3 224.452V224.315C3 223.487 2.32843 222.815 1.5 222.815C0.671573 222.815 0 223.487 0 224.315V224.452Z" fill="#0B131B"/>
<path fill-rule="evenodd" clip-rule="evenodd" d="M0 252.675C0 253.503 0.671573 254.175 1.5 254.175C2.32843 254.175 3 253.503 3 252.675V252.539C3 251.711 2.32843 251.039 1.5 251.039C0.671573 251.039 0 251.711 0 252.539V252.675Z" fill="#0B131B"/>
<path fill-rule="evenodd" clip-rule="evenodd" d="M0 278.808C0 279.636 0.671573 280.308 1.5 280.308C2.32843 280.308 3 279.636 3 278.808V278.672C3 277.843 2.32843 277.172 1.5 277.172C0.671573 277.172 0 277.843 0 278.672V278.808Z" fill="#0B131B"/>
<path fill-rule="evenodd" clip-rule="evenodd" d="M0 307.032C0 307.86 0.671573 308.532 1.5 308.532C2.32843 308.532 3 307.86 3 307.032V306.896C3 306.067 2.32843 305.396 1.5 305.396C0.671573 305.396 0 306.067 0 306.896V307.032Z" fill="#0B131B"/>
</g>
</g>
<defs>
<clipPath id="clip0_852_2156">
<rect width="318" height="333" fill="white"/>
</clipPath>
</defs>
</svg>
